<?xml version="1.0" encoding="UTF-8" standalone="no"?>
<svg
   xmlns:dc="http://purl.org/dc/elements/1.1/"
   xmlns:cc="http://creativecommons.org/ns#"
   xmlns:rdf="http://www.w3.org/1999/02/22-rdf-syntax-ns#"
   xmlns:svg="http://www.w3.org/2000/svg"
   xmlns="http://www.w3.org/2000/svg"
   xmlns:sodipodi="http://sodipodi.sourceforge.net/DTD/sodipodi-0.dtd"
   xmlns:inkscape="http://www.inkscape.org/namespaces/inkscape"
   width="270.93338mm"
   height="23.395912mm"
   viewBox="0 0 270.93338 23.395912"
   version="1.1"
   id="svg1233"
   inkscape:version="1.0.1 (3bc2e813f5, 2020-09-07)"
   sodipodi:docname="1.svg">
  <defs
     id="defs1227" />
  <sodipodi:namedview
     id="base"
     pagecolor="#ffffff"
     bordercolor="#666666"
     borderopacity="1.0"
     inkscape:pageopacity="0.0"
     inkscape:pageshadow="2"
     inkscape:zoom="0.35"
     inkscape:cx="-273.7142"
     inkscape:cy="15.641411"
     inkscape:document-units="mm"
     inkscape:current-layer="layer1"
     inkscape:document-rotation="0"
     showgrid="false"
     inkscape:window-width="1463"
     inkscape:window-height="1020"
     inkscape:window-x="64"
     inkscape:window-y="0"
     inkscape:window-maximized="0" />
  <metadata
     id="metadata1230">
    <rdf:RDF>
      <cc:Work
         rdf:about="">
        <dc:format>image/svg+xml</dc:format>
        <dc:type
           rdf:resource="http://purl.org/dc/dcmitype/StillImage" />
        <dc:title></dc:title>
      </cc:Work>
    </rdf:RDF>
  </metadata>
  <g
     inkscape:label="Capa 1"
     inkscape:groupmode="layer"
     id="layer1"
     transform="translate(-178.25355,-144.02821)">
    <path
       d="m 178.25355,144.02821 h 270.93333 v 3.15375 9.19392 1.01948 c -2.2344,0.003 -4.46881,0.0503 -6.70189,0.14168 -0.79904,-1.03187 -2.9038,-2.81153 -3.99653,-3.45578 l -0.66279,-0.0167 c -0.90752,-0.0218 -2.24234,-0.10715 -3.11943,0.074 -0.36116,0.0744 0.004,0.39314 -0.43921,0.74807 -0.79111,0.63204 -1.77536,1.30502 -2.46989,2.04411 -0.33337,0.35519 0.31618,0.14383 -0.24738,0.6801 -2.61938,0.22225 -7.64381,0.002 -10.39019,-0.0643 -0.42598,-0.0103 -3.18955,-2.87537 -3.49647,-3.33997 -1.46182,-0.0319 -2.64583,-0.0393 -4.11162,0.0267 -0.95383,0.83651 -2.97524,2.09345 -3.28084,3.15614 -0.58605,0.24698 -10.6336,0.0814 -12.1113,0.071 -3.26628,-3.03287 -3.10488,-3.38232 -7.49961,-3.23365 -0.54504,0.61304 -2.61806,2.20898 -2.91174,2.74364 l -0.40614,0.75631 c -0.74083,0.1602 -3.05064,0.098 -3.95023,0.0966 l -7.74171,-0.0153 c -0.36512,-0.79719 -1.26206,-1.71162 -1.92352,-2.31262 -1.65893,-1.50453 -3.12208,-1.30274 -5.16995,-1.1966 -1.05437,0.76238 -2.667,2.04712 -3.33508,3.1515 -3.63934,0.13454 -8.67304,0.023 -12.34149,-0.0437 -2.90909,-2.541 -5.41337,-4.99266 -9.17575,-1.63912 -0.89164,0.79542 -1.41684,0.92885 -2.03464,2.10386 -2.02407,0.0499 -8.48784,0.15227 -10.53174,-0.21246 0.14023,0.025 -3.39461,-3.15158 -3.75444,-3.46818 -4.97284,-0.13412 -3.85895,-0.0249 -7.67292,3.49371 -3.49779,0.14248 -8.88867,-0.007 -12.43832,-0.0758 -1.02354,-1.02925 -2.72032,-2.46512 -3.93396,-3.24552 -1.42187,-0.13098 -2.89124,-0.0646 -4.31602,0.002 -0.27477,0.2417 -3.33877,3.14103 -3.41643,3.14711 -1.22145,0.10425 -9.86128,0.41884 -10.39799,-0.0599 -2.40996,-2.1504 -1.47188,-3.72652 -7.07205,-3.17469 -1.33985,1.1483 -2.6617,2.29989 -4.0546,3.38398 -2.22687,0.12792 -4.80021,-0.0126 -7.05869,0.052 -1.54477,-0.0147 -2.98992,0.0446 -4.54065,-0.0328 -0.94601,-0.0472 -0.44106,-0.4345 -0.66397,-0.60379 -0.90964,-0.69067 -2.74254,-2.23498 -3.43019,-3.03997 -1.09392,-0.024 -2.20226,0.0143 -3.29737,0.0404 -0.78489,1.06252 -2.11931,2.08896 -3.13386,3.00661 -0.11615,0.36018 -0.11416,0.41032 -0.3175,0.72174 -0.0496,0.009 -0.32887,0.0591 -0.36856,0.0589 -3.55997,-0.0304 -7.44352,0.18891 -10.94383,-0.15703 -0.1782,-0.0176 -0.25784,-0.7719 -0.32028,-0.8222 -1.05555,-0.85017 -2.3491,-1.96061 -3.36166,-2.79701 -3.60111,-0.10687 -3.08637,-0.44778 -5.57583,2.29785 -0.38867,0.42866 -0.83,0.93162 -1.3425,1.22716 -2.58908,0.26313 -9.32643,0.0939 -12.15495,-0.10411 -0.83781,-0.48982 -3.18929,-3.19791 -4.07141,-3.34911 -3.70814,-0.63561 -4.10356,0.45867 -6.68483,2.74176 -0.0718,0.31103 -0.0679,0.35561 -0.21498,0.63368 -1.27661,0.24751 -8.45515,0.12514 -10.28276,0.12065 -1.21365,-1.04852 -2.52796,-2.34015 -3.73698,-3.44447 -1.51017,-0.0654 -2.48376,-0.0706 -3.99161,0.0109 -0.59042,0.47359 -3.67689,3.38615 -3.88022,3.46711 -1.37161,-0.37306 -4.83492,-0.25982 -6.45483,-0.26035 v -0.97668 -9.28029 z"
       fill="none"
       id="path132"
       style="display:block;stroke-width:0.132292" />
    <path
       d="m 383.85067,154.80974 c 1.35996,-1.13603 2.64319,-2.34213 3.97008,-3.52098 0.87709,-0.77979 0.85857,-0.81574 2.03464,-0.74708 1.99893,0.1167 4.02299,0.0981 6.02589,0.15379 1.99099,1.68939 4.19761,3.90038 6.08012,5.76316 l -0.26061,0.0413 c 0.87577,0.0398 4.25318,0.19707 4.8551,-0.12226 l 0.09,-0.61416 c 1.34938,-1.30154 2.66436,-2.68326 4.05342,-3.93697 0.78846,-0.71143 1.3163,-1.2906 2.3958,-1.25368 1.95924,0.067 3.95949,0.0999 5.91476,-0.0664 1.09008,1.15549 3.17632,2.95932 4.4159,4.10244 1.778,0.0304 3.85894,0.0656 5.61446,-0.0609 0.45243,-0.59529 3.64595,-3.97872 4.15263,-3.95519 2.2225,0.10312 5.29034,-0.16362 7.45596,0.005 1.55178,1.18223 3.02022,2.94569 4.48866,4.25753 0.81756,0.72933 0.49212,0.64059 0.93133,1.41415 0.63368,0.16464 2.37993,0.10741 3.11811,0.10662 v 1.01948 c -2.2344,0.003 -4.46881,0.0503 -6.70189,0.14168 -0.79904,-1.03187 -2.9038,-2.81153 -3.99653,-3.45578 l -0.66279,-0.0167 c -0.90752,-0.0218 -2.24234,-0.10715 -3.11943,0.074 -0.36116,0.0744 0.004,0.39314 -0.43921,0.74807 -0.79111,0.63204 -1.77536,1.30502 -2.46989,2.04411 -0.33337,0.35519 0.31618,0.14383 -0.24738,0.6801 -2.61938,0.22225 -7.64381,0.002 -10.39019,-0.0643 -0.42598,-0.0103 -3.18955,-2.87537 -3.49647,-3.33997 -1.46182,-0.0319 -2.64583,-0.0393 -4.11162,0.0267 -0.95383,0.83651 -2.97524,2.09345 -3.28084,3.15614 -0.58605,0.24698 -10.6336,0.0814 -12.1113,0.071 -3.26628,-3.03287 -3.10488,-3.38232 -7.49961,-3.23365 -0.54504,0.61304 -2.61805,2.20898 -2.91174,2.74364 l -0.40614,0.75631 c -0.74083,0.1602 -3.05064,0.098 -3.95023,0.0966 l -7.74171,-0.0153 c -0.36512,-0.79719 -1.26206,-1.71162 -1.92352,-2.31262 -1.65893,-1.50453 -3.12208,-1.30274 -5.16995,-1.1966 -1.05437,0.76238 -2.667,2.04712 -3.33508,3.1515 -3.63934,0.13454 -8.67304,0.023 -12.34149,-0.0437 -2.90909,-2.541 -5.41337,-4.99266 -9.17575,-1.63912 -0.89164,0.79542 -1.41684,0.92885 -2.03464,2.10386 -2.02407,0.0499 -8.48784,0.15227 -10.53174,-0.21246 0.14023,0.025 -3.39461,-3.15158 -3.75444,-3.46818 -4.97284,-0.13412 -3.85895,-0.0249 -7.67292,3.49371 -3.49779,0.14248 -8.88867,-0.007 -12.43832,-0.0758 -1.02354,-1.02925 -2.72032,-2.46512 -3.93396,-3.24552 -1.42187,-0.13098 -2.89124,-0.0646 -4.31602,0.002 -0.27477,0.2417 -3.33877,3.14103 -3.41643,3.14711 -1.22145,0.10425 -9.86128,0.41884 -10.39799,-0.0599 -2.40996,-2.1504 -1.47188,-3.72652 -7.07205,-3.17469 -1.33985,1.1483 -2.6617,2.29989 -4.0546,3.38398 -2.22687,0.12792 -4.80021,-0.0126 -7.05869,0.052 -1.54477,-0.0147 -2.98992,0.0446 -4.54065,-0.0328 -0.94601,-0.0472 -0.44106,-0.4345 -0.66397,-0.60379 -0.90964,-0.69067 -2.74254,-2.23498 -3.43019,-3.03997 -1.09392,-0.024 -2.20226,0.0143 -3.29737,0.0404 -0.78489,1.06252 -2.11931,2.08896 -3.13386,3.00661 -0.11615,0.36018 -0.11416,0.41032 -0.3175,0.72174 -0.0496,0.009 -0.32887,0.0591 -0.36856,0.0589 -3.55997,-0.0304 -7.44352,0.18891 -10.94383,-0.15703 -0.1782,-0.0176 -0.25784,-0.7719 -0.32028,-0.8222 -1.05555,-0.85017 -2.3491,-1.96061 -3.36166,-2.79701 -3.60111,-0.10687 -3.08637,-0.44778 -5.57583,2.29785 -0.38867,0.42866 -0.83,0.93162 -1.3425,1.22716 -2.58908,0.26313 -9.32643,0.0939 -12.15495,-0.10411 -0.83781,-0.48982 -3.18929,-3.19791 -4.07141,-3.34911 -3.70814,-0.63561 -4.10356,0.45867 -6.68483,2.74176 -0.0718,0.31103 -0.0679,0.35561 -0.21498,0.63368 -1.27661,0.24751 -8.45515,0.12514 -10.28276,0.12065 -1.21365,-1.04852 -2.52796,-2.34015 -3.73698,-3.44447 -1.51017,-0.0654 -2.48376,-0.0706 -3.99161,0.0109 -0.59046,0.47359 -3.67693,3.38615 -3.88026,3.46711 -1.37161,-0.37306 -4.83492,-0.25982 -6.45483,-0.26035 v -0.97668 c 0.57958,0.008 1.16725,0.0119 1.78664,-0.0982 0.34147,-0.0607 1.51674,-0.30803 1.83528,-0.38889 0.0774,-0.0196 -0.0911,-0.56253 0.24695,-1.05022 1.04792,-0.1884 3.36475,-3.23198 4.77912,-4.25822 0.4971,-0.11679 7.54226,-0.0891 7.76729,0.0406 0.0966,0.2883 0.14341,0.44659 0.4068,0.61229 1.2356,0.77745 2.40281,2.34606 3.54674,3.11369 1.07527,0.72155 3.81278,0.4624 5.12458,0.43056 0.56806,-0.7913 2.16085,-2.32024 2.86412,-3.17721 0.01,-0.0117 0.74506,-0.23674 0.84613,-0.26718 0.008,-0.28778 0.01,-0.20976 0.004,-0.41599 l -0.004,-0.12454 c 0.65812,-0.35138 7.33739,-0.23612 8.5087,-0.1881 0.44702,0.32354 0.15373,0.62328 0.27557,0.71484 1.38628,1.04887 2.58709,2.30481 3.87284,3.46946 0.6465,0.58554 1.37715,0.88838 1.57599,1.7892 0.71384,0.28478 2.7895,0.10144 3.66765,0.0501 1.52797,-1.66497 2.59345,-3.093 4.54409,-4.38915 -0.039,0.026 0.0177,-0.40817 0.1774,-0.61342 0.46342,10e-4 0.33721,0.0659 0.70657,-0.11655 l 0.0848,-0.62411 c 0.70326,-0.47948 6.1939,0.0135 7.94808,-0.34825 1.51646,1.7496 2.62467,2.74429 4.34737,4.23792 1.78925,0.0652 3.65535,0.0238 5.44566,0.0173 1.18348,-0.004 1.69928,-2.42457 3.10197,-2.47516 0.42135,-0.67709 0.87458,-1.27582 1.48802,-1.78699 1.15636,0.25482 5.7064,0.18301 7.07522,0.19351 l -0.0649,0.004 c 2.10463,2.09735 4.36033,3.82475 6.40583,5.8429 1.31048,0.0638 2.44051,0.0223 3.74319,-0.0726 0.41566,-0.76898 4.97536,-5.60882 5.79689,-5.96433 0.36076,-0.15612 5.64383,0.29834 6.5704,-8.5e-4 0.12157,-0.0392 0.86677,0.0111 1.02896,0.0305 1.53287,0.98206 3.1537,2.95789 4.53893,4.20322 1.13678,0.0722 3.3737,0.009 4.48945,-0.061 0.86942,-0.92336 2.608,-2.61959 3.5728,-3.36947 0.0364,-0.34834 0.008,-0.4048 0.18111,-0.69904 1.0959,-0.24977 7.35277,-0.0667 8.79409,-0.079 2.02075,2.11037 4.07379,3.7284 6.02469,5.98211 0.74613,0.0639 3.81,0.20602 4.19365,-0.0802 1.98437,-1.48248 4.16718,-4.35639 6.22829,-5.86052 l 0.19578,-0.14101 c 1.46976,0.19696 6.08012,0.13207 7.62397,0.0328 1.86266,1.36905 3.00831,2.54274 4.54025,4.27047 1.48563,0.0553 3.28083,0.0728 4.75059,-0.0821 0.59267,-0.54434 4.17116,-4.23204 4.54157,-4.21025 2.46989,0.14487 4.97946,0.11515 7.44141,0.20219 1.11654,0.82257 5.3049,5.56325 5.97826,5.68677 0.0529,0.01 0.10716,0.0143 0.16007,0.0232 1.34276,0.22416 2.7649,0.11874 4.11692,-0.004 1.23825,-1.08574 4.445,-4.44902 5.59462,-5.69329 0.57943,-0.1872 6.26533,-0.12168 7.28397,-0.12346 1.48696,1.31048 3.51103,3.00451 5.07868,4.21175 1.59809,0.0145 3.16706,0.0459 4.76382,-0.0392 z"
       fill="#000000"
       id="path134"
       style="display:block;stroke-width:0.132292" />
    <path
       d="m 178.25355,144.02821 h 270.93333 v 3.15375 l -270.93333,-0.01 z"
       fill="#000000"
       id="path136"
       style="display:block;stroke-width:0.132292" />
    <path
       d="m 432.76155,159.64008 c 2.8866,-0.0859 5.78115,0.0183 8.6532,-0.0806 0.70511,1.02116 3.16971,3.12844 4.191,4.04561 0.0476,0.35216 0.0291,0.35772 0.19579,0.66384 0.80566,0.40997 2.42491,0.2884 3.38534,0.27834 v 2.63274 l -6.30634,-0.008 c -0.67337,-1.0033 -2.86808,-3.15383 -3.83646,-4.16084 -1.05701,-0.20359 -3.13796,-0.0635 -4.30609,-0.0544 -0.37703,-0.0478 -0.19447,0.55867 -0.29898,0.65247 -1.30043,1.16482 -2.48312,2.29539 -3.53351,3.69768 -3.0996,-0.006 -6.19787,-0.0307 -9.29614,-0.0733 -1.17607,-1.35176 -2.86279,-2.80352 -4.16586,-4.20171 -1.32424,0.004 -2.6498,0.0237 -3.97404,0.0578 -1.40494,1.34844 -2.78077,2.72441 -4.13015,4.12736 -1.28191,-0.0188 -10.82146,0.0876 -11.3374,-0.22873 -0.22621,-0.97049 -2.89321,-3.26178 -3.75443,-3.94256 l -0.1151,-0.0884 c -2.5691,-0.0667 -3.6949,-0.40957 -5.2996,1.84574 -0.41804,0.58764 -1.86531,2.01202 -2.43284,2.39792 -2.94746,0.0892 -6.25872,0.0368 -9.22338,-0.022 -0.24871,-0.005 -0.83608,-0.10557 -0.99086,-0.28126 -1.03453,-1.1725 -2.70801,-2.7928 -3.64199,-3.92218 -0.97896,-4e-4 -3.28613,-0.15796 -4.16984,0.19857 -0.14287,0.0581 -0.21431,0.50813 -0.27252,0.71649 -0.30427,0.26062 -0.33602,0.1819 -0.81359,0.24104 -0.58076,0.44992 0.0384,0.0317 -0.26988,0.75512 l -0.59399,0.0292 c -0.59134,0.62508 0.003,0.54041 -0.27781,0.72152 -0.73554,0.47545 -1.27794,0.98028 -1.81239,1.63988 l -11.02784,-0.0132 c -1.54252,-1.78792 -2.57439,-2.59781 -4.3815,-4.06968 -1.19327,-0.14513 -2.62863,-0.0699 -3.84439,-0.0279 -0.40482,0.67945 -3.12738,3.18862 -3.97934,4.10487 -2.94613,-0.0788 -6.21506,-0.0144 -9.19295,-0.0266 -0.59663,-0.94125 -2.95275,-2.7895 -3.82058,-3.75126 -0.4908,-0.54464 -2.99773,-0.39132 -3.75973,-0.37438 -1.86266,0.0415 -0.80962,0.36763 -1.37054,0.9857 -0.29236,-0.039 -0.34925,-0.0431 -0.64294,-0.0306 -0.93001,1.08374 -1.905,1.96255 -2.7596,3.05859 -3.05065,-0.25387 -8.77755,-0.0865 -12.02915,-0.086 -4.40399,-3.32727 -2.36604,-4.18505 -8.56827,-3.82257 -1.06772,1.33217 -2.52002,2.3581 -3.79148,4.00817 -0.10398,0.008 -0.20809,0.0147 -0.3122,0.0202 -2.07116,0.0914 -6.85099,0.18402 -8.94689,-0.20876 -0.21855,-0.0409 -3.06467,-3.10753 -3.63564,-3.61923 -1.30201,-0.29514 -3.30253,-0.0594 -4.66301,-0.0369 -0.40997,0.007 -0.42109,0.67614 -0.56356,0.81346 -1.08559,1.04643 -2.18229,1.90235 -3.20424,3.0353 -1.66939,0.11456 -4.0435,0.0119 -5.76368,0.0284 -1.28892,0.0124 -3.87126,0.0648 -5.03225,-0.099 -0.30797,-0.18693 -0.28614,-0.14671 -0.45984,-0.42823 -0.65617,-1.06349 -3.0017,-2.85102 -4.09165,-3.76793 -1.07911,-0.0409 -2.17686,-0.0198 -3.25821,-0.0112 -0.67959,0.46672 -4.26257,4.12432 -4.39473,4.12948 -3.25702,0.12462 -6.86501,0.27596 -10.08539,-0.095 0.31075,0.0357 -2.29632,-2.77429 -2.63551,-3.03318 -0.36804,0.005 -0.2372,0.0345 -0.576,-0.0952 l -0.14539,-0.63897 c -0.56184,-0.37028 -3.26112,-0.17277 -4.08702,-0.152 -2.00819,1.45746 -2.97312,2.8321 -4.76528,4.25609 -3.25583,0.18573 -7.2431,0.0721 -10.50118,-0.12608 0.38193,0.0232 -4.35821,-4.01584 -4.7457,-4.29167 -0.78475,-0.0214 -1.5699,-0.0299 -2.35492,-0.0251 -1.95739,0.0303 -3.39765,2.95023 -4.81806,4.10527 -0.55642,0.45244 -8.49551,0.23839 -9.75307,0.23799 -1.19222,-1.62414 -2.94138,-3.17275 -4.53007,-4.37687 -0.45331,-0.0139 -3.03525,-0.13493 -3.30077,0.0615 -1.57367,1.16456 -3.20803,2.86305 -4.56996,4.26918 -1.90579,-0.021 -3.81171,-0.0283 -5.71761,-0.0218 V 164.644 c 0.90388,0.0145 1.78644,-0.0224 2.68932,-0.0536 0.55794,-0.37888 1.58582,-1.56911 2.10047,-2.10436 0.94459,-0.98385 1.93075,-1.92696 2.95577,-2.82668 1.10499,-0.0503 8.36188,-0.1434 9.00614,0.1188 l 0.22834,0.60577 c 1.36485,1.091 2.5187,2.46472 3.90802,3.4745 1.46381,0.11073 3.13558,0.0605 4.60666,0.0163 0.72443,-0.75816 3.30822,-4.04098 3.90049,-4.09244 1.08837,-0.0946 8.04955,-0.32094 8.56893,0.0561 0.16523,0.91268 0.80301,0.93305 1.41909,1.56131 1.05053,1.07116 2.56183,2.30782 3.38297,3.55547 1.48404,0.0594 2.96941,0.0734 4.45439,0.0421 1.57559,-1.54729 3.84625,-3.42742 5.12789,-5.12181 2.33389,-0.20955 6.45583,-0.0861 8.90667,-0.0862 0.85698,1.25267 2.82336,2.63274 3.74663,3.92721 1.86756,0.12251 3.35716,0.11854 5.21322,0.0795 l -0.10332,-0.0488 c 1.61739,-1.18321 2.87046,-2.48814 4.31337,-3.87852 1.37093,-0.20281 6.57397,-0.0975 8.22417,-0.0988 1.55708,1.67878 3.74055,3.13002 4.94586,4.8592 0.0849,0.12184 0.0438,0.13838 0.25096,0.37439 1.1758,0.10424 3.62809,0.12753 4.80046,0.003 0.091,-0.18005 0.12727,-0.3097 0.16815,-0.51303 0.11562,-0.57666 3.63894,-3.67837 4.28757,-4.71249 2.70801,-0.0201 5.62239,-0.091 8.33503,0.0128 0.0751,0.003 0.52718,0.1012 0.55761,0.13163 1.05159,1.05026 3.26734,2.88554 4.09324,3.94612 1.47531,0.0144 2.9509,0.0115 4.42608,-0.009 0.98332,-1.23798 1.9476,-2.27912 3.28493,-3.15237 l 0.12436,-0.0796 c 0.10742,-0.34277 0.14406,-0.60458 0.4056,-0.84045 2.37385,-0.23085 5.92998,-0.0195 8.39986,-0.0448 0.11841,-0.001 0.84019,0.10438 0.85209,0.11734 1.48485,1.62242 3.82998,3.68115 5.17234,5.26957 1.60206,0.0788 3.6248,0.0541 5.21759,-0.01 0.95779,-1.80935 3.05461,-3.48945 4.572,-4.80417 -0.12303,0.10623 0.008,-0.43683 0.0238,-0.47506 0.97367,-0.1737 8.23119,-0.186 9.29349,-0.049 0.16933,0.24818 0.14949,0.24249 0.21299,0.53314 3.82852,2.55733 2.3204,4.63047 8.30659,3.71025 0.74216,-1.19539 0.80698,-0.96441 1.8931,-1.84983 l 0.0225,-0.44583 c 0.41275,-0.52533 0.35322,0.0103 0.94588,-0.38364 l 0.0198,-0.53552 c 0.47095,-0.44384 0.49477,0.0229 0.98954,-0.40706 l 0.0357,-0.5461 c 0.61515,-0.38722 7.85151,-0.21749 9.08182,-0.13851 0.44979,0.63831 4.23069,4.64621 4.89744,5.14588 0.40084,0.3003 4.3815,0.30493 5.18451,-0.14565 l 0.0675,-0.59346 c 1.05039,-0.81757 3.66315,-3.20887 4.27963,-4.40002 2.55058,-0.10055 6.24814,-0.20281 8.76036,0.1397 0.33205,0.0451 3.99653,3.64331 4.29815,4.37819 0.93927,0.005 4.13808,0.20889 4.77308,-0.13322 0.28046,-1.33958 0.37042,-0.50469 1.0795,-1.10503 0.35058,-0.29633 -0.37438,0.004 0.15611,-0.63672 l 0.5715,0.048 c 0.94059,-1.11152 1.5412,-1.68884 2.59159,-2.66369 2.85089,-0.0165 5.7031,-0.002 8.55398,0.0433 1.30969,1.65364 4.03225,3.6281 4.77176,5.17935 0.63368,0.12356 4.60508,0.17383 5.02179,-0.11549 0.0212,-0.3523 -10e-4,-0.53459 0.15082,-0.84879 1.14829,-0.3261 2.85882,-3.08147 4.15395,-3.75496 -0.26193,0.13599 0.23019,-0.5596 0.23284,-0.56264 1.17607,-0.19301 6.97045,-0.0665 8.3304,-0.0483 1.64307,1.18904 3.03874,2.88475 4.54951,4.22553 0.50271,0.44569 2.95275,0.28072 3.69623,0.25836 1.0795,-0.74308 4.01241,-3.51869 5.01915,-4.50148 z"
       fill="#000000"
       id="path142"
       style="display:block;stroke-width:0.132292" />
  </g>
</svg>
