<?xml version="1.0" encoding="UTF-8" standalone="no"?>
<svg
   xmlns:dc="http://purl.org/dc/elements/1.1/"
   xmlns:cc="http://creativecommons.org/ns#"
   xmlns:rdf="http://www.w3.org/1999/02/22-rdf-syntax-ns#"
   xmlns:svg="http://www.w3.org/2000/svg"
   xmlns="http://www.w3.org/2000/svg"
   xmlns:sodipodi="http://sodipodi.sourceforge.net/DTD/sodipodi-0.dtd"
   xmlns:inkscape="http://www.inkscape.org/namespaces/inkscape"
   width="270.93332mm"
   height="40.747429mm"
   viewBox="0 0 270.93332 40.747429"
   version="1.1"
   id="svg1852"
   inkscape:version="1.0.1 (3bc2e813f5, 2020-09-07)"
   sodipodi:docname="2.svg">
  <defs
     id="defs1846" />
  <sodipodi:namedview
     id="base"
     pagecolor="#ffffff"
     bordercolor="#666666"
     borderopacity="1.0"
     inkscape:pageopacity="0.0"
     inkscape:pageshadow="2"
     inkscape:zoom="0.35"
     inkscape:cx="832"
     inkscape:cy="539.86014"
     inkscape:document-units="mm"
     inkscape:current-layer="layer1"
     inkscape:document-rotation="0"
     showgrid="false"
     inkscape:window-width="1463"
     inkscape:window-height="1020"
     inkscape:window-x="192"
     inkscape:window-y="0"
     inkscape:window-maximized="0" />
  <metadata
     id="metadata1849">
    <rdf:RDF>
      <cc:Work
         rdf:about="">
        <dc:format>image/svg+xml</dc:format>
        <dc:type
           rdf:resource="http://purl.org/dc/dcmitype/StillImage" />
        <dc:title></dc:title>
      </cc:Work>
    </rdf:RDF>
  </metadata>
  <g
     inkscape:label="Capa 1"
     inkscape:groupmode="layer"
     id="layer1"
     transform="translate(114.3,-5.328672)">
    <path
       d="m -114.3,5.328672 270.93333,0.016801 v 6.605984 L -114.3,11.942065 Z"
       fill="#000000"
       id="path138"
       style="display:block;stroke-width:0.132292" />
    <path
       d="m -114.3,11.942065 270.93333,0.0094 v 6.083829 15.632112 6.417469 5.991225 L -114.3,46.070272 V 40.008006 33.865572 18.236105 Z"
       fill="none"
       id="path144"
       style="display:block;stroke-width:0.132292" />
    <path
       d="m -114.3,40.008006 179.636212,-0.0016 91.297118,0.07845 v 5.991225 L -114.3,46.070272 Z"
       fill="#000000"
       id="path146"
       style="display:block;stroke-width:0.132292" />
    <path
       d="m -114.3,18.236105 c 2.52754,2.495418 4.75274,5.194036 7.22978,7.737343 0,0 0.0421,0.621506 0.0462,0.682228 l -0.13856,0.260218 c -0.17301,0.02672 -0.34602,0.05358 -0.51903,0.0803 -1.89044,1.888067 -4.69238,5.216128 -6.61836,6.869377 z"
       fill="#000000"
       id="path148"
       style="display:block;stroke-width:0.132292" />
    <path
       d="m 156.63333,18.035287 v 15.632112 c -0.34131,-0.231907 -2.18546,-2.288381 -2.60747,-2.715286 -1.56897,-1.593454 -3.19616,-3.128963 -4.87759,-4.60375 1.24751,-1.833563 4.65799,-5.12789 6.25343,-6.66922 0.0463,-0.345943 0.0172,-0.393436 0.21166,-0.670719 0.76862,-0.269213 0.70512,-0.217752 1.01997,-0.973137 z"
       fill="#000000"
       id="path150"
       style="display:block;stroke-width:0.132292" />
    <path
       d="m 98.669742,18.267326 c 0.67204,0.08255 6.880488,7.120731 7.702018,8.167688 -2.15371,1.891903 -5.16864,5.121275 -7.125228,7.304352 -0.1905,0.213386 -0.0463,0.259159 -0.46037,0.498739 -1.99761,-1.707621 -5.58271,-6.483614 -7.95206,-7.725568 1.9738,-2.249488 5.66738,-6.511925 7.83564,-8.245211 z"
       fill="#000000"
       id="path152"
       style="display:block;stroke-width:0.132292" />
    <path
       d="m 59.625182,17.995731 c 0.037,0.02871 0.0728,0.05755 0.1098,0.08639 2.40903,2.680361 5.19642,5.330957 7.47977,8.138451 -0.0291,0.337079 -6.60003,6.682052 -7.51681,8.03447 -0.51991,-0.171186 -1.86399,-1.80856 -2.30055,-2.338917 -1.61132,-1.95236 -3.59834,-3.551899 -5.28373,-5.389298 0.19446,-0.794015 6.45318,-7.284508 7.51152,-8.531093 z"
       fill="#000000"
       id="path154"
       style="display:block;stroke-width:0.132292" />
    <path
       d="m -36.845741,18.123393 c 0.191426,0.118269 0.0844,0.03493 0.218943,0.174096 2.669249,2.759207 5.230416,5.298149 7.791979,8.176683 -1.505876,1.045236 -7.291123,6.394715 -7.751365,7.734035 l -0.28919,-0.08083 c -2.190485,-2.747036 -4.793721,-5.175647 -7.309115,-7.605448 -0.144462,-0.139567 -0.104907,-0.07435 -0.125015,-0.279003 2.483643,-2.534708 4.815416,-5.513255 7.463763,-8.119533 z"
       fill="#000000"
       id="path156"
       style="display:block;stroke-width:0.132292" />
    <path
       d="m 1.9748517,18.017427 c 1.11853,0.97036 7.24932,7.482285 7.70837,8.545645 -0.1774,0.518451 -0.83053,0.318161 -0.97367,0.47625 -1.79321,1.982391 -4.85325,5.074047 -6.3369,7.044399 l -0.14089,0.189045 c -0.30864,-0.08136 -0.23799,-0.06099 -0.52229,-0.209815 -0.87299003,-1.587764 -5.88896,-6.860778 -7.60769,-7.654263 1.92987,-1.744398 6.23489997,-6.345106 7.87307,-8.391261 z"
       fill="#000000"
       id="path158"
       style="display:block;stroke-width:0.132292" />
    <path
       d="m 21.259272,18.116381 c 0.50932,0.20955 7.14904,7.555707 7.61074,8.302228 -0.79507,0.472546 -6.64898,6.560873 -7.38452,7.582165 l -0.0939,0.133085 c -0.27384,-0.148034 -0.0688,-0.0098 -0.30427,-0.25691 -2.03729,-2.14339 -5.13927,-5.906691 -7.52303,-7.412699 0.66371,-1.087305 2.35731,-2.677319 3.33388,-3.672681 1.56581,-1.596364 2.90328,-2.974181 4.36113,-4.675188 z"
       fill="#000000"
       id="path160"
       style="display:block;stroke-width:0.132292" />
    <path
       d="m 79.123652,18.147602 c 1.08743,0.627592 6.13965,6.913827 7.69672,8.32485 -1.41552,1.1557 -7.02336,7.357269 -7.59221,7.673711 -2.5453,-2.708275 -4.61169,-5.443935 -7.7523,-7.755599 0.6522,-0.869421 2.07169,-2.303463 2.85618,-3.158464 1.40891,-1.53498 3.18426,-3.828256 4.79161,-5.084498 z"
       fill="#000000"
       id="path162"
       style="display:block;stroke-width:0.132292" />
    <path
       d="m -76.079083,18.243514 c 0.800629,0.286147 7.142559,7.324063 7.781925,8.279077 -1.332045,0.981339 -6.391805,6.197864 -7.375393,7.558749 -0.05133,0.01363 -0.243946,0.01005 -0.306123,0.01085 -0.807773,-1.40044 -6.011598,-6.309387 -7.454239,-7.69673 0.735939,-1.063228 1.957123,-2.288249 2.861205,-3.254771 1.527307,-1.632876 3.019954,-3.211513 4.492625,-4.897173 z"
       fill="#000000"
       id="path164"
       style="display:block;stroke-width:0.132292" />
    <path
       d="m 118.41427,18.167975 c 2.55191,2.119577 4.83394,5.550826 7.75758,8.0899 -2.64318,2.72587 -5.53376,4.549246 -7.74567,7.872677 -0.29898,-0.05649 -0.33867,-0.07197 -0.62574,-0.164571 -1.00674,-2.166276 -5.16732,-5.473567 -6.97045,-7.748323 1.94866,-1.612238 5.60387,-5.974688 7.58428,-8.049683 z"
       fill="#000000"
       id="path166"
       style="display:block;stroke-width:0.132292" />
    <path
       d="m -56.281503,18.287699 c 1.127786,0.91268 6.774391,6.859191 7.465351,8.066749 l -0.0799,0.258498 c -0.07501,0.02686 -0.15121,0.0508 -0.225161,0.08057 -0.349382,0.140361 -6.553332,6.842257 -6.650434,7.120731 -0.06482,0.18587 -0.103452,0.26154 -0.229923,0.41447 -1.258755,-1.491192 -2.63988,-2.848637 -4.011348,-4.230952 -0.866378,-0.87339 -2.028693,-1.821128 -2.693855,-2.823105 -0.543851,-0.193675 -0.856192,-0.203332 -0.965729,-0.797454 0.620712,-1.229519 6.163204,-6.887633 7.391003,-8.089503 z"
       fill="#000000"
       id="path168"
       style="display:block;stroke-width:0.132292" />
    <path
       d="m 40.129352,18.173134 c 0.99219,0.663575 7.31706,7.415081 7.40172,8.343504 -0.64161,0.516202 -1.4261,1.073679 -2.00818,1.616604 -1.86267,1.734608 -3.60231,4.12115 -5.32739,5.877586 l -0.28707,-0.03334 c -0.73554,-0.967317 -6.86859,-7.298135 -6.92944,-7.70427 0.55298,-1.402292 5.87375,-6.773598 7.15036,-8.100087 z"
       fill="#000000"
       id="path170"
       style="display:block;stroke-width:0.132292" />
    <path
       d="m -95.136227,18.25833 c 0.829469,0.417116 6.742906,7.103666 7.476728,8.063442 -1.451901,1.202928 -6.984339,6.333596 -7.426722,7.791185 l -0.468577,-0.06151 c -1.98292,-2.462213 -4.087283,-4.573059 -6.353172,-6.760104 -0.22678,-0.218811 -0.45423,-0.537501 -0.48616,-0.858838 0.51002,-1.161521 6.037248,-6.943328 7.257903,-8.17417 z"
       fill="#000000"
       id="path172"
       style="display:block;stroke-width:0.132292" />
    <path
       d="m 137.60979,18.367074 c 0.38894,0.09115 6.89504,7.314142 7.31176,8.082492 -0.5199,0.935699 -3.64728,3.587882 -4.43574,4.713684 -0.70247,1.004491 -1.70656,1.553369 -2.38786,2.854193 l -0.59267,0.169465 c -0.0304,-0.0385 -0.0622,-0.07713 -0.0939,-0.115622 -1.16813,-2.212314 -5.35913,-6.166115 -7.35277,-7.611269 1.56237,-2.152253 5.59726,-6.219825 7.55121,-8.092943 z"
       fill="#000000"
       id="path174"
       style="display:block;stroke-width:0.132292" />
    <path
       d="m -17.227283,18.246027 c 1.268015,0.587243 5.446975,6.131454 6.833655,7.233047 0.25943,0.20611 0.6529897,0.904214 0.4681797,1.278731 -0.1550397,0.04961 -0.8056497,0.253471 -0.8739197,0.353087 -1.47584,2.15556 -4.941486,4.677304 -6.21056,6.818841 -2.913856,-2.769129 -4.433359,-4.696089 -7.704535,-7.368249 1.227006,-1.605756 2.975769,-3.198283 4.354645,-4.695692 1.083337,-1.176602 2.102247,-2.397125 3.132535,-3.619765 z"
       fill="#000000"
       id="path176"
       style="display:block;stroke-width:0.132292" />
  </g>
</svg>
