<?xml version="1.0" encoding="UTF-8" standalone="no"?>
<svg
   xmlns:dc="http://purl.org/dc/elements/1.1/"
   xmlns:cc="http://creativecommons.org/ns#"
   xmlns:rdf="http://www.w3.org/1999/02/22-rdf-syntax-ns#"
   xmlns:svg="http://www.w3.org/2000/svg"
   xmlns="http://www.w3.org/2000/svg"
   xmlns:sodipodi="http://sodipodi.sourceforge.net/DTD/sodipodi-0.dtd"
   xmlns:inkscape="http://www.inkscape.org/namespaces/inkscape"
   width="270.93332mm"
   height="34.781124mm"
   viewBox="0 0 270.93332 34.781124"
   version="1.1"
   id="svg2513"
   inkscape:version="1.0.1 (3bc2e813f5, 2020-09-07)"
   sodipodi:docname="3.svg">
  <defs
     id="defs2507" />
  <sodipodi:namedview
     id="base"
     pagecolor="#ffffff"
     bordercolor="#666666"
     borderopacity="1.0"
     inkscape:pageopacity="0.0"
     inkscape:pageshadow="2"
     inkscape:zoom="0.35"
     inkscape:cx="1326.2857"
     inkscape:cy="1020.0138"
     inkscape:document-units="mm"
     inkscape:current-layer="layer1"
     inkscape:document-rotation="0"
     showgrid="false"
     inkscape:window-width="1463"
     inkscape:window-height="1020"
     inkscape:window-x="224"
     inkscape:window-y="0"
     inkscape:window-maximized="0" />
  <metadata
     id="metadata2510">
    <rdf:RDF>
      <cc:Work
         rdf:about="">
        <dc:format>image/svg+xml</dc:format>
        <dc:type
           rdf:resource="http://purl.org/dc/dcmitype/StillImage" />
        <dc:title></dc:title>
      </cc:Work>
    </rdf:RDF>
  </metadata>
  <g
     inkscape:label="Capa 1"
     inkscape:groupmode="layer"
     id="layer1"
     transform="translate(245.07976,121.71199)">
    <path
       d="m -245.07976,-102.91864 c 0.19377,0.0734 0.79181,0.28443 0.89542,0.44463 1.02465,1.58499 1.90506,3.292213 2.74488,4.982239 1.55764,3.134386 3.34436,6.215195 5.12716,9.228005 -0.0385,0.504825 0.0393,0.281517 -0.23248,0.699294 -1.3921,0.194336 -6.84956,0.08189 -8.53498,0.08758 v -2.204641 -9.634008 z"
       fill="#000000"
       id="path296"
       style="display:block;stroke-width:0.132292" />
    <path
       d="m -245.07976,-99.315544 c 1.18416,2.115211 4.49135,7.249054 4.72509,9.253405 l -0.10134,0.23323 c -0.91601,0.229394 -3.52676,0.15293 -4.62375,0.147373 z"
       fill="none"
       id="path298"
       style="display:block;stroke-width:0.132292" />
    <path
       d="m 16.89081,-86.956327 c 0.0198,-2.208477 0.25268,-1.137973 0.71305,-1.56091 2.21192,-2.029883 6.64502,-13.124653 8.24971,-14.083243 v 4.392746 8.980488 2.26986 c -2.98714,0.01693 -5.97561,0.0172 -8.96276,0.0011 z"
       fill="#000000"
       id="path300"
       style="display:block;stroke-width:0.132292" />
    <path
       d="m 25.85357,-98.207734 v 8.980488 l -5.05618,-0.03307 c 1.5531,-2.160852 3.56261,-6.401991 5.05618,-8.947415 z"
       fill="none"
       id="path302"
       style="display:block;stroke-width:0.132292" />
    <path
       d="m -3.0098202,-121.54385 c 0.2659,0.17568 0.36645,0.48181 0.6178,0.75234 2.05448996,2.20888 4.23995,4.29498 6.34206,6.45769 0.66675,0.68686 1.63248,1.59623 2.15106,2.38006 -3.2676,3.19537 -6.28782004,6.96066 -9.48663,10.07216 -1.05569,-1.46262 -3.94362,-4.26337 -5.2414,-5.72678 -0.9009,-1.01401 -3.2212998,-3.60958 -4.1010398,-4.35425 1.86399,-1.69955 8.0314298,-8.94014 9.7181498,-9.58122 z"
       fill="#000000"
       id="path304"
       style="display:block;stroke-width:0.132292" />
    <path
       d="m -215.86209,-121.71199 c 0.51568,0.24791 1.65484,1.76437 2.15768,2.23255 1.98623,1.84904 5.44235,6.1214 7.44723,7.55319 -2.71159,1.96348 -5.03291,5.39843 -7.49486,7.7306 -0.61436,0.58195 -1.43615,2.02009 -2.19167,2.134 -1.15795,-1.49 -3.33666,-3.69266 -4.69874,-5.17181 -1.30122,-1.41314 -3.09324,-3.47888 -4.41364,-4.76237 l -0.44649,0.14287 -0.16761,-0.10927 c 0.15994,-0.60616 0.24805,0.0101 0.54319,-0.20003 3.09787,-2.20371 6.36746,-7.27246 9.26491,-9.54973 z"
       fill="#000000"
       id="path306"
       style="display:block;stroke-width:0.132292" />
    <path
       d="m -177.638,-121.16999 c 1.34673,0.12964 7.28438,7.57237 8.96911,8.63996 0.38828,0.2462 0.57044,0.12806 0.67257,0.60272 l -6.31216,6.73934 c -0.87405,0.92326 -2.21377,2.4597 -3.16455,3.21389 -0.31459,-0.27993 -0.0822,-0.0537 -0.2753,-0.27741 -1.73606,-2.01123 -3.70959,-3.90697 -5.53323,-5.85272 -0.5256,-0.56091 -1.02037,-1.36935 -1.40031,-1.76027 -0.6903,-0.71027 -0.71305,-0.60881 -1.35956,-1.52651 -0.5629,-0.0347 -0.96321,0.0888 -1.05767,-0.49464 -0.027,0.0417 9.08645,-8.96541 9.4611,-9.28436 z"
       fill="#000000"
       id="path308"
       style="display:block;stroke-width:0.132292" />
    <path
       d="m -119.26668,-121.5424 c 0.13851,0.0815 9.18263,9.37062 9.28978,9.53942 -2.02274,2.05608 -4.00989,4.1455 -5.96238,6.26745 -0.70432,0.76637 -2.60549,3.17884 -3.41471,3.50018 -1.28429,-1.75062 -7.91806,-8.56774 -9.63825,-9.79356 2.89812,-2.2049 6.91079,-7.52818 9.72556,-9.51349 z"
       fill="#000000"
       id="path310"
       style="display:block;stroke-width:0.132292" />
    <path
       d="m -80.29858,-121.68686 c 0.28046,0.19593 2.29261,2.3999 2.63392,2.78051 1.94998,2.17659 4.59052,4.55718 6.37382,6.82201 -2.44211,2.14842 -4.44633,4.62069 -6.70587,6.94611 -0.85725,0.88199 -1.79123,2.2274 -2.7477,2.94958 -1.68804,-2.07487 -3.37476,-3.85697 -5.24536,-5.76779 -1.34805,-1.37848 -2.44343,-2.90235 -4.01638,-4.07114 1.28456,-1.01481 2.21192,-2.14075 3.32053,-3.33124 1.98437,-2.12963 4.10501,-4.51617 6.38704,-6.32804 z"
       fill="#000000"
       id="path312"
       style="display:block;stroke-width:0.132292" />
    <path
       d="m -99.846,-121.54531 c 0.86916,0.57362 1.65365,1.54887 2.38919,2.29672 1.69069,1.71688 3.34433,3.47279 4.95961,5.26071 0.61516,0.68157 1.18269,1.31008 1.88648,1.90513 -0.93265,0.94099 -3.72798,4.37237 -4.33255,4.81661 -1.40891,1.03518 -3.80206,3.58563 -4.58258,5.14959 -0.14023,-0.0358 -0.27914,-0.0716 -0.41805,-0.10729 -1.03187,-1.06813 -3.23056,-3.5519 -4.2029,-4.50401 -1.80049,-1.76225 -3.36021,-3.41153 -4.826,-5.31772 0.27913,-0.46607 1.9513,-2.1635 2.38919,-2.62454 2.19736,-2.33944 4.44367,-4.63166 6.73761,-6.8752 z"
       fill="#000000"
       id="path314"
       style="display:block;stroke-width:0.132292" />
    <path
       d="m -235.6126,-121.56449 c 0.96555,0.21339 3.10842,2.98543 3.9787,3.80855 0.87061,0.82338 5.27539,5.0968 5.48627,5.69065 -0.71001,0.66292 -2.11601,2.20756 -2.77376,2.94826 -1.39489,1.5707 -5.06529,5.06836 -6.05467,6.63389 l -0.0674,0.10888 c -0.29416,0.031 -0.42763,0.0757 -0.68813,-0.10054 -0.62873,-0.42532 -1.23305,-1.22582 -1.74422,-1.78753 -1.03026,-1.13228 -5.52823,-6.35172 -6.27006,-6.75177 -0.0544,-0.0292 -0.11282,-0.0511 -0.16551,-0.0832 -0.27669,-0.16907 -0.4995,-0.54491 -0.54821,-0.86069 -0.0396,-0.25704 7.89348,-8.50913 8.84701,-9.60649 z"
       fill="#000000"
       id="path316"
       style="display:block;stroke-width:0.132292" />
    <path
       d="m 16.01504,-121.5674 c 0.63765,0.11629 2.18943,2.057 2.7649,2.65615 2.21059,2.34778 4.45294,4.665 6.72703,6.951 -0.52123,0.98412 -7.70731,8.37962 -8.91514,9.55001 l -0.14419,0.0766 c -0.29237,-0.0656 -6.9043102,-7.22035 -7.6372002,-7.83273 -0.23945,-0.20029 -1.51474,-1.6084 -1.75684,-1.91651 1.4142,-1.5826 2.9474602,-3.1324 4.4132502,-4.68074 1.47373,-1.55641 3.02287,-3.3196 4.54819,-4.80378 z"
       fill="#000000"
       id="path318"
       style="display:block;stroke-width:0.132292" />
    <path
       d="m -138.76383,-121.66794 c 0.38921,0.20002 8.56549,8.79501 9.32921,9.65425 -2.71132,2.38019 -6.69475,7.14759 -9.32193,9.91182 -0.78568,-0.26842 -2.16522,-2.38191 -2.89772,-3.14378 -2.14656,-2.23255 -4.24775,-4.51564 -6.4262,-6.71923 2.36379,-2.01956 7.33968,-7.28239 9.31664,-9.70306 z"
       fill="#000000"
       id="path320"
       style="display:block;stroke-width:0.132292" />
    <path
       d="m -158.4184,-121.15478 c 0.3085,0.003 0.38735,0.0323 0.69175,0.10094 0.71769,0.64862 2.12156,2.29393 2.7813,3.01003 0.83423,0.9054 5.80615,5.53125 5.92058,6.08475 -0.73779,0.80447 -1.45613,1.43497 -2.1967,2.19988 -2.35373,2.43099 -4.59793,4.92165 -6.83776,7.4553 -0.0922,0.0312 -0.0184,0.0183 -0.29474,-0.008 -1.06178,-1.42928 -3.54754,-3.74518 -4.91173,-5.06465 -0.0705,-0.34859 -0.0626,-0.52031 -0.29117,-0.78343 -1.2319,0.037 -1.09564,-1.68818 -2.08082,-2.28733 -0.61476,-0.37399 -1.4269,-0.87564 -1.5531,-1.61951 0.61132,-1.12236 7.41481,-7.7478 8.77239,-9.08778 z"
       fill="#000000"
       id="path322"
       style="display:block;stroke-width:0.132292" />
    <path
       d="m -197.11146,-121.53499 c 0.25492,0.0664 0.7198,0.1905 0.91082,0.39423 2.12778,2.27052 4.28453,4.51565 6.42885,6.77042 0.69096,0.72655 1.68301,1.66648 2.22647,2.46301 -0.14102,0.32835 -1.71291,1.41393 -2.18414,1.94522 -2.20583,2.48629 -4.77348,4.99533 -6.84662,7.56113 -0.12091,0.0437 -0.2618,0.0468 -0.39687,0.062 -0.45363,-0.39767 -1.92088,-2.38152 -2.51897,-3.03186 -2.05912,-2.23877 -4.40425,-4.42212 -6.45425,-6.62768 1.81518,-1.82073 7.96753,-7.72623 8.83471,-9.53651 z"
       fill="#000000"
       id="path324"
       style="display:block;stroke-width:0.132292" />
    <path
       d="m -61.1401,-121.42757 c 0.3638,0.14738 8.03804,8.3021 9.21808,9.3771 -3.34566,3.02234 -6.46377,6.28888 -9.32524,9.77292 -1.23957,-1.47572 -7.78801,-8.86884 -9.2538,-9.74157 2.42887,-2.63128 5.07603,-5.13728 7.56047,-7.72226 0.55827,-0.58076 1.12712,-1.24923 1.80049,-1.68619 z"
       fill="#000000"
       id="path326"
       style="display:block;stroke-width:0.132292" />
    <path
       d="m -42.07952,-121.29144 0.27913,0.0183 c 0.8943,0.60232 7.94015,8.32987 8.7511,9.3431 -0.41804,0.58962 -0.94324,1.15186 -1.42875,1.68764 -2.41036,2.65562 -4.82203,5.20224 -7.43479,7.65837 -0.36777,-0.18931 -1.98702,-2.25055 -2.42623,-2.701 -1.79255,-1.83727 -4.56936,-5.34525 -6.58284,-6.71473 2.82311,-2.71608 6.16347,-6.9936 8.84238,-9.29164 z"
       fill="#000000"
       id="path328"
       style="display:block;stroke-width:0.132292" />
    <path
       d="m -22.7107,-121.53327 c 0.48816,0.39582 1.71186,1.93847 2.25028,2.5187 1.28323,1.37981 2.61938,2.68592 3.90525,4.05382 0.94986,1.0115 1.55972,2.0025 2.6207,2.98317 -2.23573,2.45031 -6.55373,6.71645 -9.0633,8.76909 -0.71438,-0.52308 -3.15119,-3.18757 -3.96478,-4.01122 -1.54385,-1.56342 -3.35095,-3.21296 -4.81013,-4.79914 l 0.0582,-0.22304 c 1.96056,-1.52228 4.61169,-4.80682 6.46377,-6.65017 0.85064,-0.84508 1.52797,-1.8845 2.54,-2.64121 z"
       fill="#000000"
       id="path330"
       style="display:block;stroke-width:0.132292" />
    <path
       d="m -109.66336,-103.42532 c 0.65352,0.50562 3.84571,6.66155 4.36827,7.878766 0.20373,0.07157 0.086,0.05173 0.36512,0.04246 0.53711,1.091671 1.91955,3.099197 1.97776,4.154223 1.32689,0.621374 0.7792,1.935692 1.92617,2.740157 0.54107,0.379281 0.51594,0.453496 0.33734,1.026981 -0.6985,0.315515 -7.12655,0.169068 -8.32908,0.164438 -1.56104,-0.0011 -7.96872,0.120782 -9.22086,-0.0672 -0.35666,-0.329142 -0.26075,-0.13626 -0.34714,-0.570706 0.17807,-0.469239 0.61344,-0.523743 0.70909,-0.713185 1.49079,-2.954469 4.05355,-6.125236 4.85722,-9.275498 0.0656,-0.01521 0.54888,-0.140493 0.56607,-0.17608 0.74878,-1.590675 1.61396,-3.905516 2.79004,-5.204356 z"
       fill="#000000"
       id="path332"
       style="display:block;stroke-width:0.132292" />
    <path
       d="m -109.95044,-98.584236 c 1.09802,0.474927 0.57018,0.478367 1.21047,1.313127 1.48961,1.942042 2.86279,5.918465 4.42913,7.561131 -1.51607,-0.04061 -3.03213,-0.06191 -4.54819,-0.06363 l -5.70309,0.0086 c 1.15781,-2.36511 2.50825,-4.682596 3.79544,-6.982354 0.59135,-1.057804 0.71306,-0.441986 0.81624,-1.83687 z"
       fill="none"
       id="path334"
       style="display:block;stroke-width:0.132292" />
    <path
       d="m -148.67803,-103.56568 c 0.75314,0.54518 4.41312,7.775312 5.21454,9.203136 0.79415,1.416976 1.60152,2.826411 2.422,4.228306 0.63553,1.081352 1.06997,1.453092 1.47359,2.63988 -2.82522,0.04022 -5.65057,0.06072 -8.47592,0.06152 -1.28707,1.32e-4 -8.5729,0.164703 -9.13104,-0.272521 -0.10927,-0.54729 0.46805,-1.352417 0.58698,-1.928151 0.0902,-0.436695 0.30784,0.02725 0.56965,-0.390525 0.49913,-0.796263 0.66529,-1.516195 1.22079,-2.318544 l 0.48101,-0.07091 c 0.3261,-0.596768 -0.0927,-0.945224 0.25373,-1.580621 l 0.36169,-0.0467 c 0.3134,-0.332052 0.23085,-0.598884 0.3847,-1.179777 0.85619,-0.319352 0.49424,-0.63037 0.72734,-1.48127 0.13269,-0.06099 0.26538,-0.122105 0.39807,-0.183091 0.84164,-1.724687 2.30055,-5.366282 3.51287,-6.680732 z"
       fill="#000000"
       id="path336"
       style="display:block;stroke-width:0.132292" />
    <path
       d="m -148.72208,-98.668505 c 1.26232,0.849709 3.55269,6.595797 4.58668,8.050609 0.26948,0.379148 0.18296,0.144198 0.40283,0.666485 l -0.0709,0.141817 c -1.0623,0.151209 -3.34962,0.08546 -4.50493,0.0844 -0.8923,0.009 -4.56803,0.169466 -5.06544,-0.199099 -0.0548,0.246724 1.87298,-3.483107 1.93582,-3.605477 0.88649,-1.722834 1.79189,-3.435879 2.71595,-5.138737 z"
       fill="none"
       id="path338"
       style="display:block;stroke-width:0.132292" />
    <path
       d="m -13.51907,-103.28469 c 0.48286,0.19698 0.70379,0.27212 0.97102,0.77364 2.28335,4.282943 4.5786098,8.762472 6.8593198,13.036154 0.35719,0.01005 0.18124,-0.01323 0.52652,0.06945 0.21828,0.638043 0.16007,1.482725 0.16272,2.180828 -2.69081,-0.04762 -5.3816198,-0.06985 -8.0737598,-0.06641 -1.43272,-0.0085 -7.51417,0.09062 -8.50503,-0.259821 0.0423,-1.00158 2.27277,-4.820312 2.88925,-5.975615 1.63777,-3.062684 3.18161,-6.959066 5.16996,-9.758226 z"
       fill="#000000"
       id="path340"
       style="display:block;stroke-width:0.132292" />
    <path
       d="m -13.42382,-99.333403 c 0.6006,0.783431 1.69995,3.232282 2.13915,4.200525 0.93927,2.07129 1.7383198,3.877998 2.8799898,5.873617 -1.47902,0.05543 -3.2040998,0.01654 -4.7016398,0.01574 -1.68408,0.01032 -3.36947,-0.01733 -5.05222,-0.08295 1.09802,-1.37623 4.19629,-8.144007 4.73472,-10.006938 z"
       fill="none"
       id="path342"
       style="display:block;stroke-width:0.132292" />
    <path
       d="m 6.0442198,-102.64215 c 0.87709,0.89178 1.57956,2.38456 2.19472,3.491045 1.54649,2.783284 4.2148102,8.141758 6.4756702,10.358834 l 0.16405,1.840971 c -2.96598,0.06482 -5.7176502,-0.04286 -8.6704002,-0.07012 l -8.92836,-0.02685 c -10e-4,-0.480351 -0.0569,-1.265634 0.11641,-1.676665 0.0688,-0.0131 0.53314,-0.112315 0.55695,-0.146711 2.28996996,-3.310864 4.17909,-6.813153 6.05102,-10.371005 0.6059,-1.151199 1.27,-2.343019 2.03994,-3.399499 z"
       fill="#000000"
       id="path344"
       style="display:block;stroke-width:0.132292" />
    <path
       d="m 6.2770498,-98.393868 c 0.29369,0.341313 0.46435,1.157023 0.70512,1.623616 1.3335,2.588418 2.98582,4.878123 4.2187802,7.531761 -1.6761402,0.0209 -3.4766302,-0.03665 -5.1580502,-0.06919 l -4.81542,-0.0176 0.0489,-0.127 c 0.93662,-2.397258 2.54793,-4.175125 3.49779,-6.565636 0.15346,-0.386027 0.59134,-1.600067 0.89826,-1.734211 l 0.37703,0.405871 0.15214,-0.05953 z"
       fill="none"
       id="path346"
       style="display:block;stroke-width:0.132292" />
    <path
       d="m -129.32786,-103.6776 c 0.29686,0.10954 0.44847,0.28258 0.5891,0.56145 1.49621,2.9677 3.22646,5.99043 4.66685,8.97202 0.70009,1.449387 2.99892,5.140721 3.36576,6.469459 -0.52758,0.333772 -7.20447,0.200025 -8.28767,0.197379 -1.22185,-0.0045 -8.15327,0.161396 -8.74448,-0.178329 -0.071,-0.351234 -0.0762,-0.580893 0.13851,-0.906859 3.13637,-4.761971 5.33916,-10.283825 8.27193,-15.11512 z"
       fill="#000000"
       id="path348"
       style="display:block;stroke-width:0.132292" />
    <path
       d="m -129.15085,-98.931104 c 0.5711,0.561313 3.74504,7.184363 4.20132,8.165041 0.47651,0.203597 0.56541,0.263922 0.56316,0.752078 -0.53088,0.472149 -3.89149,0.27477 -4.87204,0.267759 -1.66105,0.0037 -3.32224,-0.01191 -4.98289,-0.04696 1.22806,-2.098807 3.92787,-7.575285 5.09045,-9.137914 z"
       fill="none"
       id="path350"
       style="display:block;stroke-width:0.132292" />
    <path
       d="m -32.52277,-103.00833 c 0.75274,0.0171 0.92207,0.0377 1.33482,0.74004 0.94192,1.52281 1.53062,3.249476 2.34553,4.830494 1.09141,2.118916 2.22118,4.223808 3.16707,6.414161 0.52652,1.2192 1.70127,2.250943 1.38509,3.518694 -0.68263,0.260615 -6.24152,0.181504 -7.33293,0.182827 -1.16416,0.0042 -8.53149,0.15412 -8.97996,-0.1905 -0.1098,-1.473464 1.5412,-3.008709 2.26616,-4.423039 1.92088,-3.750337 3.6367,-7.462838 5.81422,-11.072677 z"
       fill="#000000"
       id="path352"
       style="display:block;stroke-width:0.132292" />
    <path
       d="m -32.0624,-99.326524 c 0.32544,0.999066 1.12978,3.467364 1.7026,4.34975 0.009,0.01455 0.19579,0.138245 0.37835,0.457464 -0.0516,0.447411 -0.082,0.458523 0.09,0.890588 0.34793,0.07369 0.24077,0.03281 0.56092,0.197644 -0.0503,0.125809 -0.21828,0.640424 -0.16008,0.748903 0.58473,1.089686 1.09406,2.216282 1.6391,3.327003 l -4.23334,0.02103 c -0.75538,0.005 -4.16851,0.136261 -4.60375,-0.189971 l 0.009,-0.188383 c 0.92339,-0.945488 3.78486,-8.029575 4.61697,-9.614032 z"
       fill="none"
       id="path354"
       style="display:block;stroke-width:0.132292" />
    <path
       d="m -51.9035,-102.91837 c 1.51474,0.28852 0.86254,0.9054 1.22767,1.71873 l 0.4564,0.16589 c 1.2581,2.40771 6.3672,11.418625 6.83816,13.444407 -0.64691,0.342239 -7.16227,0.210344 -8.32776,0.208227 -1.14962,-0.0037 -8.00894,0.137187 -8.48122,-0.26498 0.0251,-0.480351 1.41552,-2.654697 1.76742,-3.347641 2.05316,-4.05302 4.08252,-8.084608 6.51933,-11.924633 z"
       fill="#000000"
       id="path356"
       style="display:block;stroke-width:0.132292" />
    <path
       d="m -51.71829,-98.469671 c 1.50812,2.016654 3.62744,6.377649 4.79954,8.706247 -1.50283,0.02474 -3.04535,0.01243 -4.55216,0.01746 l -4.97152,-0.0021 c 1.04246,-2.746111 3.05859,-6.272874 4.72414,-8.721593 z"
       fill="none"
       id="path358"
       style="display:block;stroke-width:0.132292" />
    <path
       d="m -167.78161,-103.69744 c 0.13944,0.13626 0.50681,0.58579 0.585,0.73594 2.50428,4.810255 4.81581,9.704385 7.58282,14.385261 0.17145,0.290116 0.0792,0.56859 0.0197,0.879607 -0.57758,0.361818 -7.37393,0.223838 -8.525,0.222912 -1.32014,0.0034 -7.05763,0.09565 -8.02005,-0.112448 -0.59638,-1.135327 0.37531,-1.305586 0.47691,-1.490001 1.66899,-3.031728 3.39487,-6.020329 4.9907,-9.093861 0.87617,-1.687248 1.76054,-4.05037 2.88991,-5.52741 z"
       fill="#000000"
       id="path360"
       style="display:block;stroke-width:0.132292" />
    <path
       d="m -167.85701,-98.821567 c 0.82629,0.358775 3.50612,6.645672 3.95009,7.868047 0.26419,0.04022 0.12555,0 0.40878,0.143536 0.11801,0.452702 0.14553,0.501915 0.1577,0.98425 -0.96441,0.160206 -3.3409,0.08744 -4.41484,0.08308 -0.85553,0.0074 -4.15713,0.18706 -4.65455,-0.234554 -0.25625,-1.431925 0.20584,-0.788061 0.41063,-1.083468 0.98134,-1.415653 3.43376,-6.465888 4.14219,-7.760891 z"
       fill="none"
       id="path362"
       style="display:block;stroke-width:0.132292" />
    <path
       d="m -70.66114,-103.30572 c 1.09406,0.9009 4.54025,8.234357 5.44778,9.780582 0.55959,0.9525 2.92893,4.897702 2.73843,5.888831 -0.70247,0.339329 -7.44802,0.1778 -8.67436,0.171583 -1.87987,-0.01005 -6.06161,0.137715 -8.04466,-0.16338 -0.11377,-0.0172 -0.15346,-0.247783 -0.2024,-0.391981 0.0992,-0.382852 0.44847,-0.61714 0.77258,-0.848518 l 0.16801,-0.117608 c 0.18256,-0.861748 6.99558,-13.304039 7.79462,-14.319509 z"
       fill="#000000"
       id="path364"
       style="display:block;stroke-width:0.132292" />
    <path
       d="m -70.84634,-98.546003 0.38629,0.07739 c 0.78581,0.914003 3.47927,5.938573 3.86821,7.340865 0.2196,0.788855 0.5715,0.402563 0.73554,1.174221 -0.4445,0.320542 -3.71607,0.200554 -4.46485,0.19685 -1.37054,0.0077 -3.69755,0.07594 -4.97813,-0.05583 l -0.10716,-0.157957 0.11642,-0.39026 c 0.30559,-0.03268 0.20108,0.01376 0.44715,-0.143801 0.0939,-1.377553 0.99747,-2.543837 1.64967,-3.766079 0.75407,-1.411023 1.48961,-2.933833 2.34686,-4.275402 z"
       fill="none"
       id="path366"
       style="display:block;stroke-width:0.132292" />
    <path
       d="m -89.99292,-103.42214 c 0.77656,0.76861 1.08612,1.52598 1.62322,2.45692 2.25028,3.903397 4.05739,8.059075 6.31693,11.946069 -0.0304,-0.05093 0.31882,0.421349 0.21034,0.278474 l 0.0807,0.106891 c 0.0728,0.487231 0.0979,0.486966 -0.0384,0.982398 -0.51197,0.311018 -7.10142,0.197247 -8.16769,0.196586 -1.35864,0.0019 -7.41892,0.09326 -8.39523,-0.105305 l -0.0979,-0.212328 c 0.0516,-0.264186 1.36261,-2.524522 1.59412,-2.934758 2.37331,-4.202245 4.51908,-8.50265 6.87387,-12.714947 z"
       fill="#000000"
       id="path368"
       style="display:block;stroke-width:0.132292" />
    <path
       d="m -89.89502,-98.659113 c 1.56369,2.439855 2.85088,5.013854 4.06929,7.634685 0.19579,0.419629 0.53181,0.488156 0.30824,1.153715 -0.53975,0.189045 -3.53616,0.09631 -4.318,0.08824 -1.63909,0.01124 -3.27819,0.0016 -4.91728,-0.02884 1.42478,-2.661047 3.6539,-6.230673 4.85775,-8.847799 z"
       fill="none"
       id="path370"
       style="display:block;stroke-width:0.132292" />
    <path
       d="m -225.48922,-103.16576 c 0.83106,0.37372 3.84559,7.386769 4.93885,8.475397 -0.0142,-0.01415 -0.009,0.736865 0.1389,1.025128 1.39317,0.407988 1.3044,3.171164 2.73633,4.127236 0.33522,0.964141 0.72694,0.744802 1.04603,1.412742 -0.0425,0.408649 0.03,0.231643 -0.21987,0.552318 -1.75155,0.197644 -5.52821,0.09551 -7.42792,0.0971 -1.22092,0.0034 -8.39061,0.109273 -9.13628,-0.119459 -0.0136,-0.0504 -0.0316,-0.09975 -0.0408,-0.151209 -0.22561,-1.265503 6.7183,-13.773943 7.96475,-15.419253 z"
       fill="#000000"
       id="path372"
       style="display:block;stroke-width:0.132292" />
    <path
       d="m -225.48485,-98.768518 c 1.11866,1.509713 3.94996,7.144808 4.93871,9.029965 -1.43338,0.07078 -3.35174,0.01971 -4.82163,0.02103 -1.09935,-0.0053 -3.68697,0.0725 -4.62002,-0.09697 -0.19064,-0.342371 -0.0754,-1.021821 0.13361,-1.340776 0.2536,-2.64e-4 0.41341,-0.0078 0.66609,-0.03109 0.80327,-2.341563 1.48828,-3.511418 2.75405,-5.672535 0.3593,-0.613304 0.50218,-1.187317 0.94919,-1.90963 z"
       fill="none"
       id="path374"
       style="display:block;stroke-width:0.132292" />
    <path
       d="m -187.24462,-103.31472 c 2.19538,1.9689 5.6597,12.260394 8.3857,14.866804 0.14751,0.521097 0.1606,0.270272 -0.0523,0.77814 -0.93874,0.352822 -6.67729,0.210476 -8.0264,0.205316 -2.84612,-0.0024 -5.69211,-0.02117 -8.53797,-0.05636 0.3175,-2.180563 3.47755,-6.869112 4.47569,-9.026525 0.96481,-2.085446 2.18745,-5.131595 3.75523,-6.767375 z"
       fill="#000000"
       id="path376"
       style="display:block;stroke-width:0.132292" />
    <path
       d="m -187.45655,-98.813629 c 0.49001,0.353747 4.46563,8.159088 4.77969,9.058275 -1.51447,0.0381 -3.13676,0.01534 -4.65984,0.01931 l -4.86873,-0.02328 c 1.05146,-2.539206 3.43033,-6.210036 4.74888,-9.054305 z"
       fill="none"
       id="path378"
       style="display:block;stroke-width:0.132292" />
    <path
       d="m -206.15413,-103.26617 c 2.14127,2.13902 3.98767,7.898738 5.76369,10.654242 0.55205,0.856588 0.5879,1.752467 1.42028,2.640012 0.91308,0.973667 1.21536,1.150805 1.13784,2.450306 l -7.94054,0.04101 c -2.55786,0.01032 -5.60864,0.07157 -8.20116,-0.03969 -0.32359,-0.01389 -0.39026,-0.199231 -0.50231,-0.406135 0.0691,-0.572823 0.38602,-0.567664 0.68289,-1.19843 1.25373,-2.662635 2.78328,-5.382419 4.207,-7.968721 1.18441,-2.151724 1.98359,-4.255954 3.43231,-6.172594 z"
       fill="#000000"
       id="path380"
       style="display:block;stroke-width:0.132292" />
    <path
       d="m -206.36011,-98.905572 c 0.83185,0.893762 3.99296,6.982619 4.77137,8.373401 0.0866,0.154781 0.0808,0.473604 0.0828,0.653918 -0.30176,0.284427 -3.58921,0.164967 -4.21706,0.161395 l -5.37528,-0.0209 c 1.35956,-2.448718 4.08768,-6.628341 4.73816,-9.167812 z"
       fill="none"
       id="path382"
       style="display:block;stroke-width:0.132292" />
  </g>
</svg>
