<?xml version="1.0" encoding="UTF-8" standalone="no"?>
<svg
   xmlns:dc="http://purl.org/dc/elements/1.1/"
   xmlns:cc="http://creativecommons.org/ns#"
   xmlns:rdf="http://www.w3.org/1999/02/22-rdf-syntax-ns#"
   xmlns:svg="http://www.w3.org/2000/svg"
   xmlns="http://www.w3.org/2000/svg"
   xmlns:sodipodi="http://sodipodi.sourceforge.net/DTD/sodipodi-0.dtd"
   xmlns:inkscape="http://www.inkscape.org/namespaces/inkscape"
   width="270.93335mm"
   height="29.64259mm"
   viewBox="0 0 270.93335 29.64259"
   version="1.1"
   id="svg2549"
   inkscape:version="1.0.1 (3bc2e813f5, 2020-09-07)"
   sodipodi:docname="4,1.svg">
  <defs
     id="defs2543" />
  <sodipodi:namedview
     id="base"
     pagecolor="#ffffff"
     bordercolor="#666666"
     borderopacity="1.0"
     inkscape:pageopacity="0.0"
     inkscape:pageshadow="2"
     inkscape:zoom="0.35"
     inkscape:cx="512.00005"
     inkscape:cy="56.017499"
     inkscape:document-units="mm"
     inkscape:current-layer="layer1"
     inkscape:document-rotation="0"
     showgrid="false"
     inkscape:window-width="1463"
     inkscape:window-height="1020"
     inkscape:window-x="32"
     inkscape:window-y="0"
     inkscape:window-maximized="0" />
  <metadata
     id="metadata2546">
    <rdf:RDF>
      <cc:Work
         rdf:about="">
        <dc:format>image/svg+xml</dc:format>
        <dc:type
           rdf:resource="http://purl.org/dc/dcmitype/StillImage" />
        <dc:title></dc:title>
      </cc:Work>
    </rdf:RDF>
  </metadata>
  <g
     inkscape:label="Capa 1"
     inkscape:groupmode="layer"
     id="layer1"
     transform="translate(29.633347,-133.34537)">
    <path
       d="m 241.29998,133.34537 v 3.88011 22.38508 3.27686 l -270.933327,0.10054 v -3.27289 -22.47768 -3.81661 z"
       fill="none"
       id="path1635"
       style="display:block;stroke-width:0.132292" />
    <path
       d="m 35.055161,148.83408 c -0.02685,0.97366 -0.160469,2.36273 1.100402,2.4937 0.560388,-0.53711 -0.276489,-1.75287 0.650082,-2.52413 2.045361,-0.0701 2.499122,3.7174 0.273579,4.52702 -3.39897,1.23693 -5.254361,-2.7596 -3.912526,-5.59461 0.606557,-1.28456 1.723628,-2.25558 3.07975,-2.67891 5.342466,-1.67217 8.77742,5.37237 5.543814,9.6983 -2.68261,3.58775 -6.673717,4.65005 -10.429478,2.06508 -1.908042,-1.29646 -3.2131,-3.3073 -3.620558,-5.57874 -0.901436,-5.13424 3.11322,-10.29759 8.121914,-11.15881 2.764235,-0.44714 5.593689,0.21035 7.877837,1.8296 2.36511,1.69333 3.961871,4.49262 4.353983,7.35012 0.551657,4.02299 -0.82669,7.21387 -3.128036,10.36902 6.839876,0.0106 13.960607,0.12039 20.753784,0.15346 6.230405,-0.45773 8.853355,-9.35831 5.514045,-13.85358 -3.866749,-5.20436 -13.090124,-4.08384 -13.984283,3.03609 -0.22913,1.8296 0.303212,3.67242 1.472538,5.09852 0.93689,1.1602 2.245387,2.00687 3.756422,2.12461 1.412214,0.11774 2.811727,-0.34396 3.877072,-1.27794 1.994165,-1.75551 2.421467,-4.699 0.637117,-6.77069 -1.848909,-2.14577 -5.159111,-1.00409 -4.952339,1.86664 0.05226,0.72363 0.43008,1.64835 1.320271,1.32424 0.474662,-0.83344 -0.11893,-1.80578 0.664104,-2.44078 1.486429,-0.0661 2.323968,1.80181 1.625997,3.17103 -0.370152,0.72363 -1.030684,1.25412 -1.816497,1.46182 -3.488796,0.91017 -5.194168,-4.07591 -3.22408,-6.67808 3.105547,-4.10237 8.807979,-1.80049 9.478036,2.89322 0.285752,2.00157 -0.275299,4.04018 -1.490927,5.64224 -1.184672,1.57691 -2.96201,2.60217 -4.920456,2.83897 -2.115211,0.2593 -4.114271,-0.48154 -5.744633,-1.79916 -1.837267,-1.47505 -3.003683,-3.62744 -3.236516,-5.97297 -0.499533,-5.26521 3.993621,-9.99993 9.193609,-10.42062 2.880916,-0.23151 5.73458,0.70115 7.922815,2.58895 2.22766,1.91294 3.58669,4.64476 3.76833,7.57635 0.2835,3.96742 -1.14406,6.62384 -3.65019,9.54352 4.27619,-0.15346 8.75056,0.0595 13.05877,0 2.04457,-0.26459 7.72412,0.61515 9.36202,-0.14685 6.688797,-3.1115 7.348667,-13.28208 0.57216,-16.20043 -2.05145,-0.89562 -4.38031,-0.91282 -6.44472,-0.0463 -1.78528,0.73951 -3.17751,2.19605 -3.83712,4.01241 -3.15741,8.62542 8.24481,12.38515 10.32073,4.97814 0.31446,-1.11522 0.15108,-2.30982 -0.45098,-3.29804 -2.28388,-3.81926 -7.6024,-1.33746 -4.77996,2.53207 l 0.40521,0.0185 -0.098,0.13758 c 0.41434,-0.63897 -0.0836,-1.72641 0.56224,-2.75564 1.2196,-0.57017 2.64927,1.61793 1.77615,3.27687 -0.36685,0.69056 -1.00555,1.19724 -1.76186,1.39568 -1.72125,0.4564 -3.76463,-1.11125 -3.90922,-2.74241 -0.70617,-7.96793 9.35646,-8.02481 10.34732,-0.61913 0.25427,1.90236 -0.40825,3.86028 -1.67044,5.36972 -1.25122,1.50151 -3.05144,2.43814 -4.99838,2.60218 -2.11746,0.19182 -4.02272,-0.43921 -5.64052,-1.80313 -1.79969,-1.50945 -2.92087,-3.67639 -3.11414,-6.01795 -0.20241,-2.46195 0.93014,-5.12234 2.50944,-6.97045 1.71357,-2.01083 4.16414,-3.24776 6.79966,-3.43165 2.80259,-0.24738 5.58654,0.64559 7.72332,2.47518 5.304887,4.55348 4.710897,12.23963 0.33562,17.2257 4.593557,-0.15875 9.547887,0.0966 14.178087,0.0225 2.17488,-0.20109 6.14098,0.55562 8.12536,-0.16669 4.07194,-1.47902 5.84861,-7.56444 4.65402,-11.19981 -0.67204,-2.08095 -2.15768,-3.80074 -4.11956,-4.76647 -2.12725,-1.03452 -4.57994,-1.17607 -6.81302,-0.39423 -3.62083,1.30307 -5.37766,5.64092 -3.99521,9.15591 1.12448,2.92364 4.57729,4.8842 7.57899,3.55864 2.25028,-0.99483 3.81397,-4.26111 2.68949,-6.56696 -0.79243,-1.62321 -2.78342,-2.8059 -4.50983,-1.90896 -0.6932,0.36115 -1.20385,0.99615 -1.40758,1.75154 -0.21564,0.81491 0.0794,2.23573 1.00145,2.41167 0.69056,-0.78581 0.11642,-2.05845 1.10199,-2.77415 1.58617,0.14949 3.20278,4.0296 -0.41275,4.77573 -0.89694,0.17727 -1.82827,-0.0238 -2.57307,-0.55563 -1.87458,-1.33482 -1.90104,-4.60243 -0.52917,-6.2865 1.84944,-2.27409 5.09455,-2.4249 7.38849,-0.67865 1.36525,1.02922 2.25028,2.57175 2.44872,4.27037 0.21695,1.96718 -0.47758,3.85366 -1.74228,5.34723 -1.25148,1.50019 -3.05727,2.42887 -5.0046,2.57572 -7.74832,0.56753 -11.74618,-8.78549 -6.57886,-14.6566 1.84282,-2.13254 4.46881,-3.42767 7.28265,-3.59171 2.91703,-0.16405 5.74411,0.94588 7.88459,2.91041 2.1537,2.00554 3.41577,4.79028 3.50308,7.73245 0.13494,3.42768 -1.01203,6.48626 -3.31788,8.9998 5.19774,-0.1905 10.54894,0.1442 15.75594,0.0542 1.86135,-0.0317 5.92799,0.47096 7.493,-0.4101 6.2693,-3.52822 6.77334,-13.56651 -0.84534,-16.07741 -2.09021,-0.69188 -4.37224,-0.508 -6.32354,0.51197 -1.66291,0.85328 -2.89719,2.35744 -3.40916,4.15396 -1.41287,4.8432 3.17632,10.07666 8.12403,7.70334 2.0148,-0.96573 3.27819,-4.5839 1.9857,-6.67808 -0.52652,-0.86519 -1.39435,-1.46844 -2.38919,-1.66026 -2.84956,-0.52784 -3.79545,2.91571 -2.60879,4.41457 0.4273,0.11906 0.22225,0.13097 0.63632,-0.0437 0.26062,-0.48683 0.0238,-1.13506 0.086,-1.69862 0.0132,-0.24077 0.18918,-0.52652 0.42731,-0.61913 1.70391,-0.65484 2.37463,1.83621 1.85605,2.99112 -0.73422,1.6338 -2.91571,1.63248 -4.22275,0.89958 -2.08757,-1.25809 -2.11799,-4.0177 -0.96176,-5.89624 1.48431,-2.413 4.6646,-3.18029 7.01542,-1.50548 3.2266,2.29791 3.65787,6.59342 1.27265,9.65994 -2.6379,3.38931 -7.09613,3.70813 -10.3505,1.07024 -4.07855,-3.18294 -4.65402,-8.56324 -1.39171,-12.61534 1.67217,-2.09153 4.11427,-3.42635 6.77863,-3.70284 2.9501,-0.33205 5.90814,0.55959 8.18356,2.46856 2.16032,1.8124 3.50176,4.41854 3.72004,7.22974 0.29898,3.59437 -1.26074,7.10274 -3.56394,9.79091 4.56539,-0.0159 9.1321,-0.007 13.69748,0.0278 2.19075,0.0225 5.34591,0.19844 7.3832,0.0476 3.49118,-0.25797 7.17815,-5.47291 6.64236,-8.95218 -0.29104,-2.55852 -1.10198,-4.4741 -3.13531,-6.20183 -4.86965,-4.13544 -12.89711,-0.98293 -11.98959,5.87904 0.64426,4.86833 7.18608,8.21267 10.31081,3.15648 1.89045,-3.05858 -0.5715,-7.0829 -4.01373,-6.47435 -1.36922,0.26193 -2.2053,2.68684 -1.41155,3.83645 0.28046,0.40879 0.18521,0.3347 0.67204,0.49874 0.97764,-0.28575 -0.11906,-1.46711 0.51329,-2.39844 1.95792,-0.68528 2.85883,2.21853 2.19472,3.25305 -1.76477,2.75034 -5.20303,0.96308 -5.82083,-1.93411 -0.23813,-1.12051 -0.0159,-2.28997 0.61648,-3.24511 0.61912,-0.92604 2.08227,-1.94337 3.175,-2.06111 5.54037,-0.59134 8.64526,5.92138 5.26256,10.14942 -2.82972,3.5388 -7.13714,3.75179 -10.48015,1.016 -1.90103,-1.55575 -3.10885,-3.79942 -3.36153,-6.24152 -0.50535,-5.16996 3.67374,-9.53161 8.75374,-9.91261 2.84824,-0.21961 5.66473,0.71437 7.81712,2.59291 5.11439,4.45162 4.91596,12.17613 0.53975,17.09473 l 13.67102,0.0119 c 2.30981,0.001 5.02708,0.09 7.29324,-0.12832 3.22262,-0.31221 5.91079,-4.03622 6.35794,-7.06967 0.35983,-2.46062 -0.21696,-4.35372 -1.61396,-6.35529 -3.84175,-5.50333 -12.51215,-3.9833 -13.46597,2.98847 -0.63103,4.61433 5.21361,9.21279 9.0977,5.62769 0.87048,-0.80434 1.50151,-2.159 1.45785,-3.34301 -0.0476,-1.12713 -0.5543,-2.18679 -1.40361,-2.93159 -1.90236,-1.66952 -5.02047,-1.02261 -4.3233,1.26868 0.9062,1.11257 4.47675,-0.53314 2.80062,2.90645 -0.77391,1.19724 -2.79797,1.10331 -3.75841,0.32147 -2.91438,-2.37199 -0.88106,-7.46522 2.81517,-7.74568 5.5417,-0.41937 7.75758,6.33677 4.43706,10.34918 -1.16681,1.43801 -2.88793,2.3151 -4.73869,2.41564 -2.14709,0.12303 -4.69106,-0.83344 -6.27459,-2.29526 -3.49515,-2.95936 -3.04932,-9.54087 0.0754,-12.58094 6.96515,-6.77333 17.55113,-1.27529 17.8435,8.0063 0.1098,3.45413 -1.19857,5.97958 -3.38667,8.33437 l 14.21209,0.0661 c 1.46315,0.008 3.0017,-0.008 4.45294,0.0225 2.41697,0.0476 3.77296,-0.0767 5.62901,-1.81504 3.62876,-3.3999 4.9874,-8.53546 1.27794,-12.47511 -1.50416,-1.59808 -3.58378,-2.52677 -5.77718,-2.57836 -1.88119,-0.0463 -3.69887,0.67204 -5.04163,1.98967 -2.4937,2.45136 -3.01228,7.26942 -0.43789,9.82794 0.99351,0.99748 2.35612,1.53723 3.76238,1.49225 5.32474,-0.21431 7.43082,-7.84754 1.57691,-8.94953 -1.04907,-0.19711 -2.68949,0.79508 -2.45268,2.0492 0.82153,1.25413 2.98846,0.53578 3.70945,2.01613 0.0159,0.24341 0.0291,0.44317 -0.11906,0.65616 -2.99905,4.3352 -7.53533,-0.75803 -5.32077,-4.35901 0.67733,-1.10199 2.07301,-1.9857 3.34036,-2.21191 1.37055,-0.24342 2.78871,0.16801 3.90261,1.00012 1.26868,0.9525 2.10873,2.36802 2.33759,3.937 0.23416,1.69333 -0.36645,3.4462 -1.39567,4.78499 -1.31498,1.69995 -3.25967,2.80194 -5.39486,3.05594 -4.45426,0.51726 -7.93088,-3.24115 -8.30792,-7.4176 -0.23018,-2.54264 0.81757,-4.99798 2.42623,-6.91091 1.76213,-2.11138 4.29684,-3.43165 7.0366,-3.6658 5.88698,-0.45509 10.95507,4.62888 11.18261,10.40473 0.15611,3.98331 -1.58882,6.223 -4.03886,9.05008 l 7.39113,-0.007 v 3.27686 l -270.933357,0.10052 v -3.27289 c 4.506661,0.0291 9.022345,0.0635 13.526294,0.11112 1.832768,-0.004 3.143382,-0.16404 4.451614,-1.58221 3.3340153,-3.61156 4.2750063,-9.7155 0.448204,-13.36013 -1.583002,-1.48431 -3.70033,-2.26351 -5.868273,-2.16032 -4.093368,0.16271 -7.791489,3.26099 -7.460469,7.64381 0.254662,3.37211 3.2555,6.43599 6.759972,5.87772 3.030762,-0.48287 5.048607,-3.2385 4.357383,-6.2746 -0.57613,-2.53074 -4.199414,-4.09575 -5.808834,-1.68407 -0.317844,0.48022 -0.322713,1.51606 -0.147135,2.05184 0.132649,0.40482 0.381092,0.89826 0.785442,1.11258 l 0.218784,-0.0939 c 0.318704,-0.86784 -0.475946,-1.39039 0.160033,-2.22779 0.399428,-0.12833 0.662067,-0.086 1.062064,0.0476 0.477758,0.16007 0.863547,0.51726 1.058545,0.9816 0.926438,2.1881 -1.80594,4.27963 -3.917897,3.08769 -3.365883,-1.90103 -1.633431,-7.52211 1.81266,-8.18092 5.984161,-1.14168 8.9014573,5.73352 5.598531,10.31743 -2.478088,3.43958 -7.071135,3.89731 -10.448369,1.52267 -4.284835,-3.08504 -5.191602,-8.61748 -2.072984,-12.89844 1.523788,-2.12724 3.844819,-3.54541 6.432563,-3.93038 2.911938,-0.44582 5.882018,0.27914 8.260225,2.01877 5.7872313,4.27038 5.5287333,12.17216 1.4384073,17.55114 l 14.423629,0.0251 c 2.282957,0.0159 6.0043207,0.23151 8.1555157,-0.0397 0.928291,-0.63897 1.700345,-1.22767 2.395405,-2.12725 2.914386,-3.77296 3.211777,-9.89542 -0.765836,-13.03206 -1.636713,-1.29646 -3.725995,-1.87854 -5.7970207,-1.6166 -2.005012,0.25267 -3.942424,1.12315 -5.177763,2.7768 -1.163109,1.52532 -1.645444,3.4634 -1.333236,5.35649 0.299773,1.71847 1.277541,3.38402 2.757355,4.33917 1.164167,0.75274 2.579688,1.01335 3.935942,0.72495 2.9008917,-0.63103 4.5046637,-2.99243 3.8377807,-5.96635 -0.547555,-2.4421 -3.9172877,-4.54422 -5.3959117,-1.61131 -0.39714,0.78846 -0.301493,2.49105 0.620315,2.86411 0.547026,-0.54769 0.107157,-1.7264 0.976974,-2.40903 1.1881117,0 2.0416577,1.93146 1.4821957,2.89322 -2.5913287,4.46087 -7.1563177,-0.23283 -5.0785447,-4.35372 0.577454,-1.15755 1.612768,-2.02009 2.855251,-2.37993 1.2508177,-0.38629 2.6046907,-0.24474 3.7490137,0.39026 3.334941,1.83754 3.897312,6.41086 1.897724,9.46944 -2.425965,3.71078 -6.6358817,4.32197 -10.2404327,1.8931 -2.017845,-1.35864 -3.39989597,-3.47531 -3.83103497,-5.86979 -0.443045,-2.38521 0.188251,-4.77969 1.56911197,-6.75349 1.502701,-2.1246 3.77653,-3.57716 6.335712,-4.0468 2.7876497,-0.49874 5.6594377,0.12303 7.9910777,1.73038 5.976541,4.19497 5.639329,12.18406 1.779323,17.72311 6.712479,0.008 13.463323,-0.004 20.175141,0.21828 1.817555,-0.0317 3.609578,-1.20121 4.773612,-2.50692 4.923102,-5.52318 2.027238,-15.22413 -6.260174,-14.52431 -2.263113,0.19183 -3.50983,0.87577 -5.051028,2.56117 -3.528615,3.75841 -0.923925,11.16277 4.496726,10.78971 5.237031,-0.35983 6.741187,-9.08844 0.869553,-9.03817 -0.745198,0.005 -1.609592,0.95912 -2.005806,1.55575 z"
       fill="#000000"
       id="path1637"
       style="display:block;stroke-width:0.132292" />
    <path
       d="m 241.29998,133.34537 v 3.88011 l -270.933327,0.0119 v -3.81661 z"
       fill="#000000"
       id="path1639"
       style="display:block;stroke-width:0.132292" />
  </g>
</svg>
