<?xml version="1.0" encoding="UTF-8" standalone="no"?>
<svg
   xmlns:dc="http://purl.org/dc/elements/1.1/"
   xmlns:cc="http://creativecommons.org/ns#"
   xmlns:rdf="http://www.w3.org/1999/02/22-rdf-syntax-ns#"
   xmlns:svg="http://www.w3.org/2000/svg"
   xmlns="http://www.w3.org/2000/svg"
   xmlns:sodipodi="http://sodipodi.sourceforge.net/DTD/sodipodi-0.dtd"
   xmlns:inkscape="http://www.inkscape.org/namespaces/inkscape"
   width="270.93332mm"
   height="28.319679mm"
   viewBox="0 0 270.93332 28.319679"
   version="1.1"
   id="svg4607"
   inkscape:version="1.0.1 (3bc2e813f5, 2020-09-07)"
   sodipodi:docname="5.svg">
  <defs
     id="defs4601" />
  <sodipodi:namedview
     id="base"
     pagecolor="#ffffff"
     bordercolor="#666666"
     borderopacity="1.0"
     inkscape:pageopacity="0.0"
     inkscape:pageshadow="2"
     inkscape:zoom="0.35"
     inkscape:cx="511.99999"
     inkscape:cy="53.517493"
     inkscape:document-units="mm"
     inkscape:current-layer="layer1"
     inkscape:document-rotation="0"
     showgrid="false"
     inkscape:window-width="1463"
     inkscape:window-height="1020"
     inkscape:window-x="96"
     inkscape:window-y="0"
     inkscape:window-maximized="0" />
  <metadata
     id="metadata4604">
    <rdf:RDF>
      <cc:Work
         rdf:about="">
        <dc:format>image/svg+xml</dc:format>
        <dc:type
           rdf:resource="http://purl.org/dc/dcmitype/StillImage" />
        <dc:title></dc:title>
      </cc:Work>
    </rdf:RDF>
  </metadata>
  <g
     inkscape:label="Capa 1"
     inkscape:groupmode="layer"
     id="layer1"
     transform="translate(29.633332,-134.00683)">
    <path
       d="m 241.3,144.97381 v 11.0781 c -0.55033,-0.73951 -0.60854,-1.15887 -1.10463,-1.9513 -1.79123,-2.85353 -4.14205,-6.07219 -5.55361,-9.09108 2.12196,-0.0953 4.5138,-0.041 6.65824,-0.0357 z"
       fill="#000000"
       id="path64"
       style="display:block;stroke-width:0.132292" />
    <path
       d="m -29.633332,144.95 c 1.984812,0.003 4.195922,-0.041 6.162318,0.0331 -1.15779,2.54264 -2.941809,5.28505 -4.377015,7.73245 -0.458973,0.78316 -1.333999,2.40638 -1.785303,3.09562 z"
       fill="#000000"
       id="path66"
       style="display:block;stroke-width:0.132292" />
    <path
       d="m 38.051053,150.66764 0.209286,0.12171 c 0.50284,1.1602 2.111639,3.54938 2.886736,4.68445 1.691217,2.4765 2.701528,4.1566 4.013465,6.85271 -1.68156,-0.31883 -4.722151,-0.22225 -6.557301,-0.21829 -2.279915,0.005 -4.952736,-0.0728 -7.19164,0.0913 0.750755,-2.47517 3.602831,-6.42276 5.018881,-8.80136 0.562372,-0.94456 1.151599,-1.65629 1.620573,-2.7305 z"
       fill="#000000"
       id="path68"
       style="display:block;stroke-width:0.132292" />
    <path
       d="m -0.65920767,150.55255 c 0.426773,0.42862 0.976445,1.32027 1.221713,1.87457 1.40996497,3.18823 4.41298597,6.60268 5.50849297,9.80943 -2.221971,-0.0357 -4.444074,-0.0582 -6.66630897,-0.0675 -1.05568803,0.001 -6.19641003,0.17727 -6.68125803,-0.27782 0.12647,-0.16007 0.254132,-0.30162 0.398065,-0.44582 -0.117739,-0.36248 -0.107156,-0.22489 -0.08268,-0.59928 l 0.37293,-0.09 c 1.304793,-3.21866 4.5339,-7.04982 5.84438103,-10.00919 z"
       fill="#000000"
       id="path70"
       style="display:block;stroke-width:0.132292" />
    <path
       d="m 118.31241,144.96719 c 1.24222,-0.10318 3.42371,-0.045 4.72017,-0.0423 l 8.71934,0.0212 c -1.52003,2.48312 -2.8866,4.56274 -4.18042,7.18212 -1.02923,1.69333 -1.80181,2.9501 -2.63392,4.75191 -1.58486,-3.14325 -3.72401,-6.06292 -5.29167,-9.24851 -0.38762,-0.78845 -1.10993,-1.86399 -1.3335,-2.66435 z"
       fill="#000000"
       id="path72"
       style="display:block;stroke-width:0.132292" />
    <path
       d="m 137.82411,144.97381 c 3.91583,-0.13229 9.4443,-0.0992 13.36278,0.0212 -1.40891,2.44475 -2.84427,5.17128 -4.35504,7.50887 -0.87974,1.23825 -1.40097,2.69214 -2.33495,4.00712 -1.22634,-2.90248 -5.85258,-8.88603 -6.67279,-11.53716 z"
       fill="#000000"
       id="path74"
       style="display:block;stroke-width:0.132292" />
    <path
       d="m 157.18102,144.98175 c 4.00447,-0.15611 9.26042,-0.0688 13.2887,-0.004 -0.48022,1.21179 -3.33243,6.01265 -4.18571,7.55385 -0.74744,1.32292 -1.67084,2.77019 -2.21456,4.16454 -0.92736,-1.67613 -1.9976,-3.54012 -2.96069,-5.16202 -0.62309,-1.04907 -3.95552,-5.83935 -3.92774,-6.55241 z"
       fill="#000000"
       id="path76"
       style="display:block;stroke-width:0.132292" />
    <path
       d="m 76.879448,150.81978 0.37756,0.0939 c 0.82153,3.42238 5.39869,8.01423 6.3045,11.12176 -0.4023,0.29633 -5.699,0.17462 -6.60083,0.17198 -2.23798,0.005 -4.47596,-0.0145 -6.713669,-0.0556 1.650869,-3.34301 3.783279,-6.3553 5.576889,-9.61232 0.34158,-0.62044 0.62812,-1.14961 1.05555,-1.71979 z"
       fill="#000000"
       id="path78"
       style="display:block;stroke-width:0.132292" />
    <path
       d="m 231.71283,150.45597 c 0.0966,0.1151 0.24474,0.41672 0.29633,0.55166 0.66675,1.70656 6.19257,9.64803 6.21109,10.95772 -0.47625,0.39687 -5.30357,0.20902 -6.24681,0.19844 -1.7952,-0.004 -4.69371,0.0701 -6.3963,-0.0992 l -0.12303,-0.15346 c 0.49345,-1.47505 2.96333,-5.34591 3.81661,-7.04189 0.46302,-0.92207 1.90632,-3.61024 2.44211,-4.41325 z"
       fill="#000000"
       id="path80"
       style="display:block;stroke-width:0.132292" />
    <path
       d="m 95.949298,150.66103 0.38179,0.27119 c 0.26458,1.30969 2.95632,5.02841 3.752322,6.39895 0.91652,1.57692 1.96612,3.12473 2.74161,4.84585 -1.96413,0.10318 -4.323822,0.0476 -6.318252,0.0476 -1.21959,0 -5.62279,0.0675 -6.65413,-0.13891 -0.29806,-0.96573 5.32143,-9.49325 6.01318,-11.21436 z"
       fill="#000000"
       id="path82"
       style="display:block;stroke-width:0.132292" />
    <path
       d="m 41.59819,144.98439 c 4.154752,-0.14023 8.838009,-0.0238 13.011679,0.0569 -1.389989,2.55588 -2.801937,5.02576 -4.220236,7.56047 -0.704057,1.22767 -1.648619,2.7305 -2.111905,4.03489 -0.986631,-1.30307 -6.419056,-10.50528 -6.679538,-11.65225 z"
       fill="#000000"
       id="path84"
       style="display:block;stroke-width:0.132292" />
    <path
       d="m 176.66229,144.98042 c 3.69756,-0.11774 9.52368,-0.13097 13.1326,0.0582 -1.01071,2.14974 -2.99905,5.3221 -4.23466,7.45464 -0.74877,1.27132 -1.38774,2.7424 -1.99628,4.09443 -0.95911,-1.24752 -6.58945,-10.39152 -6.90166,-11.60728 z"
       fill="#000000"
       id="path86"
       style="display:block;stroke-width:0.132292" />
    <path
       d="m -20.237951,150.5499 c 0.311401,0.3175 0.883311,1.40758 1.172593,1.88251 1.1541,1.87722 2.278565,3.77428 3.372922,5.68722 0.570706,0.98293 1.788319,3.25967 2.509837,4.01108 l -6.277768,0.0119 c -2.37707,-0.0132 -4.754205,0.001 -7.130918,0.0437 1.608032,-3.59965 4.943383,-8.25103 6.353334,-11.63637 z"
       fill="#000000"
       id="path88"
       style="display:block;stroke-width:0.132292" />
    <path
       d="m 57.745711,150.84491 c 0.147373,0.16934 0.04366,0.0291 0.138509,0.21564 1.010047,1.99363 2.315633,4.10104 3.49078,6.01795 1.109266,1.80975 1.822186,3.31258 2.806039,5.11439 -2.089282,0.10583 -4.58007,0.0463 -6.700308,0.0463 -2.191147,0.0172 -4.382294,0.004 -6.573044,-0.0384 0.820076,-1.95395 1.719791,-2.98582 2.757487,-4.72281 1.337337,-2.23838 2.745449,-4.40267 4.080537,-6.63311 z"
       fill="#000000"
       id="path90"
       style="display:block;stroke-width:0.132292" />
    <path
       d="m 173.46745,150.85417 c 0.13494,0.15081 0.0767,0.0675 0.17198,0.23945 1.88913,3.41974 4.28228,6.61326 5.98884,10.12296 0.18257,0.37571 0.45773,0.18653 0.63236,0.77655 -0.41407,0.35057 -5.54302,0.22093 -6.46906,0.2196 l -6.89108,-0.004 c 1.02129,-2.51883 4.96094,-8.4574 6.56696,-11.35459 z"
       fill="#000000"
       id="path92"
       style="display:block;stroke-width:0.132292" />
    <path
       d="m 60.892533,144.97513 c 4.025767,-0.17462 8.941064,-0.0463 13.039855,-0.0437 -0.88887,1.86399 -3.06612,5.27844 -4.208858,7.34219 -0.823251,1.36128 -1.431528,2.82707 -2.313913,4.26773 -0.703924,-0.86122 -6.207787,-10.48809 -6.517084,-11.56626 z"
       fill="#000000"
       id="path94"
       style="display:block;stroke-width:0.132292" />
    <path
       d="m 193.03868,150.67955 c 0.55033,0.42995 6.64501,11.04635 6.52463,11.38237 -1.14168,0.17066 -4.75589,0.0807 -6.08674,0.0754 -1.75551,0.005 -5.06678,0.10716 -6.69529,-0.0608 l -0.037,-0.12435 c 0.47228,-1.18534 1.10993,-2.11005 1.72641,-3.21337 1.51738,-2.71594 3.08504,-5.31548 4.56803,-8.0592 z"
       fill="#000000"
       id="path96"
       style="display:block;stroke-width:0.132292" />
    <path
       d="m 99.246268,144.98968 c 4.130412,-0.11509 8.735482,-0.045 12.889442,0.005 -1.41155,2.7477 -2.62731,4.79028 -4.23069,7.41098 -0.73157,1.39171 -1.38377,2.6207 -2.19868,3.96743 -0.77391,-1.03849 -2.18149,-3.58643 -2.91703,-4.79557 -1.01852,-1.67482 -2.932912,-4.59846 -3.653242,-6.3381 z"
       fill="#000000"
       id="path98"
       style="display:block;stroke-width:0.132292" />
    <path
       d="m 212.38634,150.5499 0.30559,0.28178 c 0.23019,0.91943 0.88635,1.80711 1.33747,2.66436 1.5703,2.97524 3.56129,5.64488 5.08264,8.636 l -6.32089,-0.003 c -1.1139,-0.004 -5.7957,0.11774 -6.50346,-0.14156 l -0.15743,-0.38893 c 1.28588,-3.51632 4.74795,-7.36997 6.25608,-11.049 z"
       fill="#000000"
       id="path100"
       style="display:block;stroke-width:0.132292" />
    <path
       d="m 80.018468,144.96587 c 4.22712,-0.0913 8.77901,0 13.03179,0.005 -1.59279,2.5863 -2.89865,4.91199 -4.38124,7.57105 -0.71583,1.20386 -1.42319,2.78739 -2.16482,4.10104 -1.48047,-2.45797 -2.77865,-5.04825 -4.29511,-7.49564 -0.74123,-1.19724 -1.84719,-2.84956 -2.19062,-4.18174 z"
       fill="#000000"
       id="path102"
       style="display:block;stroke-width:0.132292" />
    <path
       d="m 154.10127,151.0579 0.27782,0.16404 c 0.21166,0.67866 5.30754,9.19824 5.67399,9.38477 0.0701,0.0357 0.14155,0.0635 0.21166,0.0966 -0.14949,1.01733 0.20241,0.60061 0.53578,1.26339 -0.64161,0.30559 -5.52979,0.21431 -6.58151,0.21431 -2.21588,0.0251 -4.43177,0.0145 -6.64633,-0.0304 0.20373,-0.45111 0.80169,-1.82827 1.05701,-2.33892 0.18918,-0.37835 0.0238,0.31354 0.508,-0.17859 0.0159,-1.46182 0.0595,-0.74612 0.64558,-1.21179 0.0159,-0.40217 -0.0119,-0.46831 0.17066,-0.83212 0.09,-0.0159 0.49742,-0.0992 0.55563,-0.14552 0,0 -0.0185,-0.59134 -0.0185,-0.59134 1.07818,-1.84679 2.38522,-4.08649 3.61024,-5.79437 z"
       fill="#000000"
       id="path104"
       style="display:block;stroke-width:0.132292" />
    <path
       d="m 115.36363,150.67822 c 0.19579,0.19712 0.2024,0.23416 0.25135,0.53182 0.12039,0.7276 0.56092,1.27132 0.95515,1.89441 1.81239,2.86147 3.95552,5.87508 5.24536,9.01833 l -6.5233,0.0185 -6.40821,-0.0317 c 1.51077,-3.79677 4.25186,-7.25488 6.05896,-10.92465 0.19182,-0.38761 0.004,-0.15875 0.42069,-0.50668 z"
       fill="#000000"
       id="path106"
       style="display:block;stroke-width:0.132292" />
    <path
       d="m 134.72584,150.69939 c 0.21431,0.20638 1.50018,2.71463 1.6629,3.05065 0.65088,1.34276 4.6818,7.35144 4.83923,8.23648 -0.45376,0.36512 -5.17525,0.22886 -6.09203,0.22621 -2.23044,0.0119 -4.4622,-0.004 -6.69263,-0.0489 1.32027,-3.43032 4.36033,-8.08434 6.28253,-11.46439 z"
       fill="#000000"
       id="path108"
       style="display:block;stroke-width:0.132292" />
    <path
       d="m 2.5421183,144.98307 c 4.036616,-0.16007 8.9139447,-0.0569 12.9951427,0.009 -1.33694,2.48708 -2.699412,4.96226 -4.087284,7.42288 -0.763455,1.28985 -1.5103737,2.59027 -2.2404907,3.89996 -1.737122,-2.7133 -3.3147,-5.52317 -4.975358,-8.28146 -0.600207,-0.99748 -1.191815,-1.9976 -1.69201,-3.05064 z"
       fill="#000000"
       id="path110"
       style="display:block;stroke-width:0.132292" />
    <path
       d="m 196.08007,144.93412 c 4.0124,-0.007 9.05801,-0.13097 12.99897,0.10054 -0.92736,2.07698 -2.6961,4.95036 -3.8854,6.99029 -0.84667,1.41023 -1.64571,2.84427 -2.49502,4.25318 -1.59015,-3.4925 -5.00063,-7.5221 -6.61855,-11.34401 z"
       fill="#000000"
       id="path112"
       style="display:block;stroke-width:0.132292" />
    <path
       d="m 21.912264,144.9619 c 3.920993,-0.12038 8.741304,-0.0384 12.671689,0.005 -1.125802,2.75696 -2.564606,4.86701 -4.008173,7.44141 -1.052644,1.65497 -1.505743,2.3667 -2.186913,4.191 -1.434174,-3.46737 -5.255022,-7.90972 -6.476603,-11.6377 z"
       fill="#000000"
       id="path114"
       style="display:block;stroke-width:0.132292" />
    <path
       d="m 18.261411,150.76289 c 0.320278,0.0728 0.237199,0.0503 0.532738,0.19712 0.44278,1.68671 4.087813,6.89239 5.109501,8.76696 0.48776,0.8943 1.029759,1.12316 1.251876,2.26484 -0.518451,0.15875 -5.107119,0.0688 -5.997442,0.0609 -1.509448,0.0119 -5.512991,0.18653 -6.795559,0.0172 l -0.104642,-0.15875 c 0.511439,-0.87445 0.773774,-1.80049 1.398587,-2.77945 0.883576,-1.38377 1.671902,-2.91042 2.53193,-4.32065 0.738585,-1.21179 1.66714,-2.70536 2.073011,-4.04812 z"
       fill="#000000"
       id="path116"
       style="display:block;stroke-width:0.132292" />
    <path
       d="m 215.48593,144.95926 c 3.80074,-0.0847 9.13606,-0.12039 12.89182,0.037 -1.19988,2.7305 -2.79929,4.8207 -4.14602,7.40171 -0.47757,0.84138 -1.81372,2.72257 -1.76212,3.53484 l -0.15743,0.16404 -0.18521,-0.0397 c -1.05039,-1.05172 -6.05102,-9.56204 -6.64104,-11.09795 z"
       fill="#000000"
       id="path118"
       style="display:block;stroke-width:0.132292" />
    <path
       d="m -16.409946,144.99365 c 3.884308,-0.12435 8.3892363,-0.0542 12.3033493,-0.005 -0.467915,1.26736 -3.176455,5.90815 -3.989519,7.40304 l -2.2021273,3.97272 c -0.464741,-0.70511 -1.668992,-2.82178 -2.032794,-3.5679 -0.608277,-1.24619 -4.402707,-6.858 -4.430554,-7.65705 z"
       fill="#000000"
       id="path120"
       style="display:block;stroke-width:0.132292" />
    <path
       d="m 241.3,134.00683 v 6.14495 l -270.933332,0.037 v -6.1304 z"
       fill="#000000"
       id="path180"
       style="display:block;stroke-width:0.132292" />
  </g>
</svg>
