<?xml version="1.0" encoding="UTF-8" standalone="no"?>
<svg
   xmlns:dc="http://purl.org/dc/elements/1.1/"
   xmlns:cc="http://creativecommons.org/ns#"
   xmlns:rdf="http://www.w3.org/1999/02/22-rdf-syntax-ns#"
   xmlns:svg="http://www.w3.org/2000/svg"
   xmlns="http://www.w3.org/2000/svg"
   xmlns:sodipodi="http://sodipodi.sourceforge.net/DTD/sodipodi-0.dtd"
   xmlns:inkscape="http://www.inkscape.org/namespaces/inkscape"
   width="270.93332mm"
   height="17.60541mm"
   viewBox="0 0 270.93332 17.60541"
   version="1.1"
   id="svg5251"
   inkscape:version="1.0.1 (3bc2e813f5, 2020-09-07)"
   sodipodi:docname="6.svg">
  <defs
     id="defs5245" />
  <sodipodi:namedview
     id="base"
     pagecolor="#ffffff"
     bordercolor="#666666"
     borderopacity="1.0"
     inkscape:pageopacity="0.0"
     inkscape:pageshadow="2"
     inkscape:zoom="0.35"
     inkscape:cx="511.99999"
     inkscape:cy="33.269997"
     inkscape:document-units="mm"
     inkscape:current-layer="layer1"
     inkscape:document-rotation="0"
     showgrid="false"
     inkscape:window-width="1463"
     inkscape:window-height="1020"
     inkscape:window-x="128"
     inkscape:window-y="0"
     inkscape:window-maximized="0" />
  <metadata
     id="metadata5248">
    <rdf:RDF>
      <cc:Work
         rdf:about="">
        <dc:format>image/svg+xml</dc:format>
        <dc:type
           rdf:resource="http://purl.org/dc/dcmitype/StillImage" />
        <dc:title></dc:title>
      </cc:Work>
    </rdf:RDF>
  </metadata>
  <g
     inkscape:label="Capa 1"
     inkscape:groupmode="layer"
     id="layer1"
     transform="translate(29.633332,-139.36398)">
    <path
       d="M -29.633332,139.36398 241.3,139.37721 v 2.0492 7.95734 5.64621 c -0.45905,-0.44979 -1.28719,-1.01203 -1.84017,-1.52268 -2.30717,-2.13651 -4.84982,-4.11559 -7.14905,-6.24681 -1.88118,1.15623 -8.58043,8.09228 -9.5885,8.40184 -1.43007,-0.22754 -1.11257,-0.52387 -2.12725,-1.52664 -0.87841,-0.86651 -1.89706,-1.65762 -2.83765,-2.47253 l -4.99534,-4.39738 c -1.88647,1.47902 -8.33702,7.16492 -9.62686,9.0977 -1.77139,-2.14974 -7.35939,-7.48374 -9.54617,-9.02759 -2.40109,1.73832 -8.3939,7.29854 -10.09385,9.63348 -1.25016,-2.09682 -7.43479,-7.56179 -9.56998,-9.34508 -0.70511,0.45773 -2.98979,2.42226 -3.70814,3.04536 -1.82297,1.57956 -4.17909,3.33639 -5.8539,4.9649 -1.39171,-1.02129 -9.21015,-7.44405 -9.80678,-8.37142 -0.0357,0.0198 -0.0728,0.0397 -0.10848,0.0595 l -0.1786,0.10451 c -1.64967,0.93398 -5.37236,4.40399 -7.03923,5.73881 -0.80831,0.64823 -1.81505,1.83092 -2.72389,2.34818 -1.19327,-0.21432 -8.56059,-7.56709 -10.16132,-8.01953 -0.96441,0.35984 -8.13462,6.92944 -9.4496,8.01423 -2.01612,-1.86399 -4.36959,-3.55335 -6.35132,-5.44909 -1.09405,-1.04775 -2.10873,-1.25412 -2.667,-2.41829 -0.31882,-0.12568 -0.54372,-0.13229 -0.87842,0.0635 -2.05449,1.20121 -7.21783,6.73232 -9.18765,7.53533 -0.38365,-0.0198 -0.43127,-0.0291 -0.73554,-0.3175 -2.82298,-2.67626 -5.802052,-5.06941 -8.839602,-7.50094 -0.86823,0.96176 -8.05418,7.32103 -9.08421,7.86342 -0.52361,-0.10186 -8.64526,-7.03924 -9.77079,-7.86209 -1.65074,1.07421 -9.209752,7.81447 -10.151934,7.90972 -1.618853,-1.06363 -4.136099,-3.55071 -5.729949,-4.86966 -1.119187,-0.92736 -2.640674,-2.10741 -3.666728,-3.04932 -2.308489,1.7608 -4.663678,3.85101 -6.913033,5.70045 -0.495962,0.40878 -2.150269,2.06375 -2.477558,2.22117 -1.087041,-0.31221 -8.423011,-6.38439 -10.197042,-7.72451 -1.995488,1.38642 -8.816049,7.36468 -10.216489,7.73245 0.425715,0.18389 -8.83285,-7.80785 -9.177866,-8.14784 -0.657887,0.42994 -1.487091,1.18665 -2.1209,1.7092 -1.502305,1.23164 -2.989395,2.48047 -4.460743,3.74915 -1.089687,0.94192 -2.189427,1.98702 -3.3776707,2.78871 -2.230305,-2.27542 -7.061068,-6.26004 -9.73812197,-8.1161 -1.96479603,1.06231 -8.81578403,7.31838 -9.97320433,7.42157 -0.250825,0.0225 -8.439878,-6.81567 -9.430543,-7.5909 -1.82118,1.59941 -3.768328,3.08107 -5.699549,4.54422 -1.025353,0.77788 -2.630724,2.65377 -3.682709,3.01757 v -5.05089 -8.26029 z"
       fill="none"
       id="path122"
       style="display:block;stroke-width:0.132292" />
    <path
       d="m 105.84127,150.39181 c 2.20795,-2.26351 4.96623,-4.19232 7.2271,-6.43202 0.61119,-0.60589 1.75154,-1.67613 2.61276,-1.72111 2.84824,2.78341 6.02588,5.40411 8.93498,8.1399 2.89322,-2.37066 5.81951,-4.75191 8.56059,-7.30647 0.67469,-0.63103 1.16681,-0.85592 2.0955,-0.53181 0.40746,1.17607 1.10596,1.13374 2.03862,1.96453 2.30849,2.05582 4.6302,4.08252 6.98103,6.08939 0.9181,-1.04114 8.78549,-7.82108 9.74592,-8.32512 1.19195,0.56886 8.94954,7.14375 10.09254,8.33306 2.50692,-1.81769 5.27976,-4.80881 7.76155,-6.81567 1.13109,-0.91414 -0.19976,-1.12183 2.08227,-1.34276 2.84427,2.58895 6.64633,6.05896 9.26174,8.74977 2.18413,-1.33085 5.55889,-5.12101 7.79859,-6.90563 0.9353,-0.7448 1.31763,-1.35334 2.48444,-1.99098 1.00277,-0.0132 7.47051,6.81698 8.73522,7.8568 0.23019,0.18917 0.69453,0.54769 1.01997,0.4617 0.85989,-0.22358 8.57514,-8.15711 9.51044,-8.24178 1.15226,0.63897 8.51694,7.00882 9.61761,8.08964 1.24089,-0.9816 9.15987,-8.02349 9.55807,-8.15049 0.35851,0.0463 0.63765,0.11774 0.92207,0.35586 2.64981,2.21986 5.1435,4.68313 7.88856,6.78657 L 241.3,149.38379 V 155.03 c -0.45905,-0.4498 -1.28719,-1.01204 -1.84017,-1.52268 -2.30717,-2.13651 -4.84982,-4.1156 -7.14905,-6.24681 -1.88118,1.15622 -8.58043,8.09228 -9.5885,8.40184 -1.43007,-0.22754 -1.11257,-0.52388 -2.12725,-1.52665 -0.87841,-0.86651 -1.89706,-1.65761 -2.83765,-2.47253 l -4.99533,-4.39737 c -1.88648,1.47902 -8.33703,7.16491 -9.62687,9.0977 -1.77138,-2.14974 -7.35939,-7.48374 -9.54617,-9.02759 -2.40109,1.73831 -8.3939,7.29853 -10.09385,9.63348 -1.25016,-2.09682 -7.43479,-7.56179 -9.56998,-9.34508 -0.70511,0.45773 -2.98979,2.42226 -3.70813,3.04535 -1.82298,1.57956 -4.1791,3.3364 -5.85391,4.96491 -1.39171,-1.02129 -9.21015,-7.44405 -9.80678,-8.37142 -0.0357,0.0198 -0.0728,0.0397 -0.10848,0.0595 l -0.1786,0.10451 c -1.64967,0.93398 -5.37236,4.40399 -7.03923,5.73882 -0.80831,0.64823 -1.81505,1.83091 -2.72389,2.34817 -1.19327,-0.21431 -8.56059,-7.56708 -10.16132,-8.01952 -0.96441,0.35984 -8.13462,6.92944 -9.4496,8.01423 -2.01612,-1.86399 -4.36959,-3.55335 -6.35132,-5.44909 -1.09405,-1.04775 -2.10873,-1.25413 -2.667,-2.41829 -0.31882,-0.12568 -0.54372,-0.1323 -0.87842,0.0635 -2.05449,1.2012 -7.21783,6.73232 -9.18765,7.53533 -0.38365,-0.0198 -0.43127,-0.0291 -0.73554,-0.3175 -2.82298,-2.67626 -5.802052,-5.06942 -8.839602,-7.50094 -0.86823,0.96176 -8.05418,7.32102 -9.08421,7.86342 -0.52361,-0.10187 -8.64526,-7.03924 -9.77079,-7.8621 -1.65074,1.07422 -9.209752,7.81448 -10.151934,7.90973 -1.618853,-1.06363 -4.136099,-3.55071 -5.729949,-4.86966 -1.119187,-0.92736 -2.640674,-2.10741 -3.666728,-3.04932 -2.308489,1.7608 -4.663678,3.85101 -6.913033,5.70045 -0.495962,0.40878 -2.150269,2.06375 -2.477558,2.22117 -1.087041,-0.31221 -8.423011,-6.38439 -10.197042,-7.72451 -1.995488,1.38642 -8.816049,7.36468 -10.216489,7.73245 0.425715,0.18389 -8.83285,-7.80785 -9.177866,-8.14784 -0.657887,0.42994 -1.487091,1.18665 -2.1209,1.7092 -1.502305,1.23164 -2.989395,2.48047 -4.460743,3.74915 -1.089687,0.94192 -2.189427,1.98702 -3.3776707,2.78871 -2.230305,-2.27542 -7.061068,-6.26004 -9.73812197,-8.1161 -1.96479603,1.06231 -8.81578403,7.31838 -9.97320433,7.42157 -0.250825,0.0225 -8.439878,-6.81567 -9.430543,-7.5909 -1.82118,1.59941 -3.768328,3.08107 -5.699549,4.54422 -1.025353,0.77788 -2.630724,2.65377 -3.682709,3.01757 v -5.05089 l 0.577325,-0.0516 c 0.171413,-0.26062 7.957671,-6.90828 8.711746,-7.48242 0.686581,0.45376 2.043139,1.76741 2.749828,2.34685 2.361975,1.94204 4.67655,3.93965 6.975779,5.95445 2.6255933,-2.49502 5.4676153,-4.78896 8.2535453,-7.1001 0.479425,-0.39819 0.891381,-0.74215 1.41935703,-1.07817 0.508794,0.086 8.76127997,7.15169 10.18870697,8.11477 0.8749777,-1.05304 4.1065977,-3.55468 5.2865077,-4.57465 1.085982,-0.94059 3.315758,-2.91703 4.382294,-3.61421 0.735277,0.64823 1.445418,1.49225 2.210329,2.09286 2.532591,1.99099 4.817798,4.14073 7.193227,6.30502 2.326216,-1.17475 8.381867,-7.60413 10.31068,-8.04201 0.558139,0.0952 5.427398,4.97946 6.53243,5.66737 0.485114,0.30295 2.480601,2.05053 2.87192,2.53868 1.296723,-1.03981 9.286214,-8.23383 10.061972,-8.28543 1.187714,0.3691 7.161345,6.47965 8.566811,7.56709 0.06628,0.0516 0.453893,0.35983 0.551921,0.33073 2.413132,-0.71306 8.606761,-7.83961 10.314911,-7.99439 0.56793,0.30956 1.76821,1.56766 2.35982,2.04655 2.30796,1.86664 4.55255,3.80868 6.78088,5.77057 1.13321,0.14155 8.07772,-6.85271 9.37418,-7.65043 1.03439,-0.63765 6.759052,5.62107 7.978782,6.37249 0.44582,0.27516 1.34937,1.13109 1.82165,1.4896 z"
       fill="#000000"
       id="path124"
       style="display:block;stroke-width:0.132292" />
    <path
       d="M -29.633332,139.36398 241.3,139.37721 v 2.0492 l -270.933332,-0.0185 z"
       fill="#000000"
       id="path126"
       style="display:block;stroke-width:0.132292" />
  </g>
</svg>
