<?xml version="1.0" encoding="UTF-8" standalone="no"?>
<svg
   xmlns:dc="http://purl.org/dc/elements/1.1/"
   xmlns:cc="http://creativecommons.org/ns#"
   xmlns:rdf="http://www.w3.org/1999/02/22-rdf-syntax-ns#"
   xmlns:svg="http://www.w3.org/2000/svg"
   xmlns="http://www.w3.org/2000/svg"
   xmlns:sodipodi="http://sodipodi.sourceforge.net/DTD/sodipodi-0.dtd"
   xmlns:inkscape="http://www.inkscape.org/namespaces/inkscape"
   width="270.93332mm"
   height="35.287521mm"
   viewBox="0 0 270.93332 35.287521"
   version="1.1"
   id="svg5861"
   inkscape:version="1.0.1 (3bc2e813f5, 2020-09-07)"
   sodipodi:docname="7.svg">
  <defs
     id="defs5855" />
  <sodipodi:namedview
     id="base"
     pagecolor="#ffffff"
     bordercolor="#666666"
     borderopacity="1.0"
     inkscape:pageopacity="0.0"
     inkscape:pageshadow="2"
     inkscape:zoom="0.35"
     inkscape:cx="512"
     inkscape:cy="66.685065"
     inkscape:document-units="mm"
     inkscape:current-layer="layer1"
     inkscape:document-rotation="0"
     showgrid="false"
     inkscape:window-width="1463"
     inkscape:window-height="1020"
     inkscape:window-x="160"
     inkscape:window-y="0"
     inkscape:window-maximized="0" />
  <metadata
     id="metadata5858">
    <rdf:RDF>
      <cc:Work
         rdf:about="">
        <dc:format>image/svg+xml</dc:format>
        <dc:type
           rdf:resource="http://purl.org/dc/dcmitype/StillImage" />
        <dc:title></dc:title>
      </cc:Work>
    </rdf:RDF>
  </metadata>
  <g
     inkscape:label="Capa 1"
     inkscape:groupmode="layer"
     id="layer1"
     transform="translate(29.633333,-130.52291)">
    <path
       d="M -29.633332,136.18764 241.3,136.31993 v 2.94613 2.6379 7.37658 2.00819 8.45741 6.06425 l -270.933332,-0.0265 v -6.02985 -8.28146 -2.27013 -8.3992 -1.78197 z"
       fill="none"
       id="path18"
       style="display:block;stroke-width:0.132292" />
    <path
       d="M -29.633332,159.75408 241.3,159.74618 v 6.06425 l -270.933332,-0.0265 z"
       fill="#000000"
       id="path20"
       style="display:block;stroke-width:0.132292" />
    <path
       d="m -29.633332,149.20249 9.002832,-0.045 c 0.0022,1.36393 0.259464,8.94292 -0.353973,9.61628 -1.613852,0.36513 -7.014514,-6.0325 -8.648859,-7.30117 z"
       fill="#000000"
       id="path22"
       style="display:block;stroke-width:0.132292" />
    <path
       d="m 241.3,139.26606 v 2.6379 c -1.51474,1.40626 -3.31258,2.794 -4.89743,4.14734 -0.87974,0.75274 -1.71847,1.61396 -2.5572,2.31379 -0.60722,0.10847 -0.70247,0.15213 -1.29381,0.0516 -0.381,-0.62045 -0.20241,-7.9428 -0.18124,-9.16253 2.95142,-0.0318 5.97429,0.005 8.92968,0.0119 z"
       fill="#000000"
       id="path24"
       style="display:block;stroke-width:0.132292" />
    <path
       d="m 241.3,151.28873 c -0.57679,0.30295 -1.32556,1.51077 -1.90897,1.90632 -1.28719,0.87313 -5.40676,5.98753 -6.84212,5.69516 -0.24606,-0.50932 -0.3175,-8.77094 -0.16404,-9.72079 0.0714,-0.0437 8.08302,0.10583 8.91513,0.11112 z"
       fill="#000000"
       id="path26"
       style="display:block;stroke-width:0.132292" />
    <path
       d="m -29.633332,139.02132 c 2.826663,0.0278 6.321306,-0.045 9.09537,0.10981 -0.003,3.08504 0.05416,6.43863 -0.03273,9.50251 -2.279584,-1.49754 -3.813665,-3.12209 -5.761117,-5.00063 -0.650584,-0.62838 -2.547128,-2.43549 -3.301524,-2.82972 z"
       fill="#000000"
       id="path28"
       style="display:block;stroke-width:0.132292" />
    <path
       d="m 204.53615,139.22505 c 5.94122,-0.17198 12.95532,-0.11112 18.91903,-0.0265 0.18521,4.14469 -0.0939,8.67436 -0.0265,12.86007 0.0119,0.72496 0.0463,6.06954 -0.037,6.54314 l -0.29898,0.20109 c -1.8706,0.0754 -7.35674,-6.62781 -8.67833,-7.38717 -1.60735,-0.92339 -6.71645,6.76937 -9.71947,7.41363 -0.27252,-0.84667 -0.16537,-8.32512 -0.16272,-9.64539 2.32966,0.0225 17.61728,0.30427 18.68355,-0.12435 l 0.0159,-0.25003 c -0.3056,-0.34264 -0.68792,-0.23681 -0.79904,-0.32412 -2.0836,-1.63909 -6.731,-6.02721 -8.7802,-7.21916 -0.76994,0.92208 -7.9375,6.86727 -9.04611,7.45861 -0.16668,-2.89322 -0.0701,-6.5577 -0.0701,-9.49987 z"
       fill="#000000"
       id="path30"
       style="display:block;stroke-width:0.132292" />
    <path
       d="m 69.418598,139.10202 18.55549,0.007 0.016,11.82688 c 0.01,1.38906 0.12766,6.76804 -0.11284,7.69937 l -0.19804,0.0728 c -1.25334,-0.45376 -5.47106,-4.62624 -6.85126,-5.82215 -0.50985,-0.44186 -1.1135,-1.07289 -1.72587,-1.34409 -1.35295,-0.6006 -7.55531,6.48626 -9.447746,7.30912 -0.525992,-0.635 -0.317765,-8.28543 -0.314854,-9.69698 l 12.41637,0.0609 c 0.88384,0.001 5.06399,0.0265 5.71023,-0.14949 l 0.10623,-0.25136 -0.11985,-0.22092 c -0.25136,-0.0886 -0.65829,-0.20506 -0.83648,-0.38894 -2.13254,-2.20001 -5.23359,-5.0337 -7.64553,-6.91356 -0.24779,-0.0212 -1.02315,-0.13891 -1.23892,0.0265 0,0 -0.2118,0.53842 -0.2118,0.53842 -0.8034,0.57944 -1.5949,1.30043 -2.34209,1.93146 -1.76001,1.48564 -3.35425,3.21601 -5.196546,4.58391 -0.29845,0.22225 -0.298714,0.18256 -0.521229,0.12303 -0.182959,-0.67601 -0.06257,-8.2894 -0.04127,-9.39139 z"
       fill="#000000"
       id="path32"
       style="display:block;stroke-width:0.132292" />
    <path
       d="m -11.626055,149.1681 c 6.3367713,0.20637 12.30524233,0.0688 18.6413513,-0.0661 0.0067,1.41816 0.126339,8.53545 -0.08057,9.53558 -0.179652,0.0569 -0.992981,0.14684 -1.114954,0.0608 -1.236001,-0.87313 -2.371857,-2.15503 -3.451754,-3.23718 -1.63737397,-1.50945 -3.15833097,-3.30861 -4.998111,-4.55083 -2.075127,2.46327 -4.872435,4.73604 -7.153143,7.03924 -0.4021673,0.40481 -1.0015803,0.80301 -1.5902783,0.71966 -0.370681,-0.7276 -0.251354,-8.15975 -0.252545,-9.50118 z"
       fill="#000000"
       id="path34"
       style="display:block;stroke-width:0.132292" />
    <path
       d="m 124.06181,149.15487 c 6.09203,0.1098 12.1867,0.1098 18.27873,-10e-4 l -0.008,5.90153 c 0,1.00145 0.0516,2.62334 -0.0992,3.57452 l -0.21828,0.12303 c -1.10596,-0.19976 -3.00302,-2.03994 -3.85763,-2.85089 -1.57691,-1.5822 -3.16309,-3.15515 -4.75853,-4.71884 -1.75022,1.11125 -7.88194,7.36336 -8.7802,7.5274 -0.20373,0.037 -0.16668,-0.008 -0.36248,-0.15346 -0.26723,-1.01468 -0.19182,-7.97587 -0.19446,-9.40197 z"
       fill="#000000"
       id="path36"
       style="display:block;stroke-width:0.132292" />
    <path
       d="m 151.48322,149.14825 c 6.18464,-0.0159 12.01076,0.2368 18.26419,0.0384 0.001,1.40891 0.127,8.36084 -0.1905,9.28952 -0.33734,0.22225 -0.42201,0.1958 -0.82285,0.23813 -1.13374,-0.49213 -2.41962,-2.13387 -3.3708,-3.10489 -1.06891,-0.99748 -3.34301,-3.5851 -4.33652,-4.17512 -1.43536,-0.20902 -6.44922,5.71368 -7.97454,6.76936 -0.3982,0.27649 -1.03849,0.48816 -1.49754,0.6522 -0.17727,-2.73711 -0.0701,-6.86197 -0.0714,-9.70756 z"
       fill="#000000"
       id="path38"
       style="display:block;stroke-width:0.132292" />
    <path
       d="m 16.202952,149.12444 c 5.836841,0.14949 12.235657,0.045 18.086917,0.0119 0.01495,1.16284 0.110993,9.07785 -0.18415,9.54352 l -0.342768,0.0146 c -1.168003,-0.51197 -2.930922,-2.3667 -3.915965,-3.30994 -1.525191,-1.56236 -2.957381,-2.91438 -4.563269,-4.40002 -2.503488,2.01084 -5.007504,4.99534 -7.527131,7.07761 -0.486172,0.40084 -0.744538,0.508 -1.336014,0.42201 -0.446749,-0.57679 -0.229129,-7.93883 -0.21762,-9.35964 z"
       fill="#000000"
       id="path40"
       style="display:block;stroke-width:0.132292" />
    <path
       d="m 124.12927,139.07424 c 5.98091,-0.0688 12.21317,0.0172 18.20466,0.0767 0.005,1.02394 0.0913,9.25645 -0.11509,9.64142 -1.1311,-0.1614 -3.22792,-3.12605 -4.39209,-3.62479 -0.51329,-0.78979 -3.58907,-3.26893 -4.61036,-4.31668 -2.02142,2.12196 -5.90947,5.64753 -8.19018,7.67688 -0.18918,0.16934 -0.51594,0.09 -0.75671,0.0212 -0.3003,-0.54768 -0.13229,-8.34628 -0.14023,-9.47472 z"
       fill="#000000"
       id="path42"
       style="display:block;stroke-width:0.132292" />
    <path
       d="m 96.763678,139.10202 c 6.022982,-0.0172 12.044902,-0.004 18.068142,0.0423 l -0.007,9.87822 c -1.33879,-0.9234 -3.10488,-2.70669 -4.34049,-3.88277 -1.49225,-1.32159 -3.32449,-2.83236 -4.61698,-4.29286 -0.9525,1.51739 -7.379622,7.23503 -9.090022,8.2378 0.0774,-3.25173 -0.0392,-6.68999 -0.014,-9.98273 z"
       fill="#000000"
       id="path44"
       style="display:block;stroke-width:0.132292" />
    <path
       d="m 96.755608,149.09534 c 1.09512,0.13361 3.587092,0.11244 4.761842,0.13361 4.43627,0.0675 8.87466,0.041 13.30907,-0.0794 0.005,1.33218 0.10055,8.83708 -0.0767,9.62819 l -0.23944,0.0569 c -0.95912,-0.36381 -2.94878,-2.52016 -3.83117,-3.36153 -0.15743,-0.17728 -4.61169,-4.20688 -4.5429,-4.17645 -0.46698,0.0132 -0.59002,-0.0185 -0.98557,0.2368 -0.18918,0.58208 -0.9062,1.28587 -1.39171,1.57824 -1.22012,0.73422 -5.742512,5.51524 -6.772932,5.71235 l -0.14738,-0.12303 c -0.19751,-0.80962 -0.088,-8.25367 -0.0831,-9.6057 z"
       fill="#000000"
       id="path46"
       style="display:block;stroke-width:0.132292" />
    <path
       d="m -11.504082,139.05175 c 5.9872563,0.13494 12.39109933,0.0185 18.4233343,0.0463 0.03056,2.28071 0.132953,6.71116 -0.0083,9.14533 -0.0041,0.0701 -0.08546,0.12171 -0.168407,0.11774 -1.126993,-0.0529 -3.500702,-2.53074 -4.21812,-3.22527 -0.402961,-0.42201 -4.541308,-3.94097 -4.963583,-4.20423 -2.563681,1.65893 -6.100366,6.13701 -9.0069463,7.63323 -0.207698,-2.49635 -0.0631,-6.90166 -0.05794,-9.5131 z"
       fill="#000000"
       id="path48"
       style="display:block;stroke-width:0.132292" />
    <path
       d="m 41.85338,149.11783 c 5.538259,0.24473 12.555009,0.045 18.203863,0.0331 0.01019,1.9632 0.153326,7.56708 -0.03082,9.26306 -0.147241,0.0489 -0.828543,0.10186 -0.943372,0 -1.127786,-0.99351 -2.14802,-2.09947 -3.261519,-3.13399 -1.63314,-1.45521 -3.099329,-3.01361 -4.772686,-4.45029 -1.325166,1.35599 -3.019425,2.6617 -4.393009,4.03622 -0.705512,0.70643 -3.747559,3.82587 -4.58642,3.81264 -0.313267,-0.59531 -0.21299,-8.3185 -0.216033,-9.56072 z"
       fill="#000000"
       id="path50"
       style="display:block;stroke-width:0.132292" />
    <path
       d="m 177.59892,149.17471 c 6.13436,0.17992 11.62844,0.1098 17.75619,-0.0384 0.009,1.36922 0.15875,8.74448 -0.10451,9.50119 l -0.28178,0.10054 c -1.53326,-0.2077 -2.69214,-2.20133 -3.99124,-3.48324 -1.50813,-1.5531 -2.88132,-3.09166 -4.64212,-4.3524 -1.86796,2.20134 -4.86569,4.80087 -6.91356,6.94267 -0.41011,0.42863 -0.93001,0.78052 -1.54517,0.75142 -0.50403,-0.53049 -0.27781,-8.14255 -0.27781,-9.42181 z"
       fill="#000000"
       id="path52"
       style="display:block;stroke-width:0.132292" />
    <path
       d="m 151.64197,139.14303 c 5.85523,-0.0476 12.34546,-0.11509 18.17026,0.0489 0.0423,1.15888 0.14685,9.00113 -0.18124,9.48928 -1.15887,-0.14155 -3.46736,-2.76225 -4.36165,-3.67638 -1.62719,-1.61793 -2.87338,-2.94614 -4.73472,-4.29816 -1.68804,1.48034 -3.33904,3.00038 -4.953,4.56142 -1.24354,1.19327 -2.7014,2.71595 -4.09046,3.683 -0.0529,-1.68011 -0.13758,-8.48122 0.15081,-9.80811 z"
       fill="#000000"
       id="path54"
       style="display:block;stroke-width:0.132292" />
    <path
       d="m 41.922834,139.10202 18.041143,-0.0265 c 0.111258,3.13929 0.05437,6.57225 0.04286,9.72609 -1.814116,-1.2065 -2.644643,-2.18546 -4.227777,-3.61553 -1.4478,-1.30837 -3.525838,-3.08504 -4.779698,-4.48204 -1.926961,1.35069 -4.522788,4.064 -6.440355,5.60387 -0.907918,0.72893 -1.592131,1.56501 -2.659195,2.15503 -0.09022,-2.95804 0.0013,-6.37646 0.02302,-9.36096 z"
       fill="#000000"
       id="path56"
       style="display:block;stroke-width:0.132292" />
    <path
       d="m 16.256398,139.10599 c 5.988712,0.005 12.027297,-0.0384 18.010849,0.0384 0.0094,1.29645 0.178462,8.12667 -0.139171,8.95085 l -0.322262,0.0423 c -1.026716,-0.3638 -2.899701,-2.33098 -3.762904,-3.1578 -1.682221,-1.3798 -3.312981,-2.83369 -4.990042,-4.23069 -2.540926,2.55588 -6.000618,5.54832 -8.768159,7.95999 -0.106098,-3.06916 -0.03717,-6.51536 -0.02831,-9.60305 z"
       fill="#000000"
       id="path58"
       style="display:block;stroke-width:0.132292" />
    <path
       d="m 177.88202,139.29385 c 5.81422,-0.0582 11.62976,-0.0609 17.44398,-0.007 0.0529,3.11547 0.0238,6.41482 -0.005,9.53293 -1.23031,-0.72099 -3.32581,-2.86279 -4.54025,-3.94361 -1.41949,-1.20121 -2.75167,-2.90513 -4.23862,-3.81794 -1.21576,-0.14684 -0.84535,0.40614 -1.03056,0.5543 -1.19856,0.96044 -7.02733,6.58151 -7.82637,7.22445 -0.041,-1.19856 -0.16933,-9.11622 0.19711,-9.54352 z"
       fill="#000000"
       id="path60"
       style="display:block;stroke-width:0.132292" />
    <path
       d="M -29.633332,130.52291 241.3,130.5454 v 5.77453 l -270.933332,-0.13229 z"
       fill="#000000"
       id="path128"
       style="display:block;stroke-width:0.132292" />
  </g>
</svg>
