<?xml version="1.0" encoding="UTF-8" standalone="no"?>
<svg
   xmlns:dc="http://purl.org/dc/elements/1.1/"
   xmlns:cc="http://creativecommons.org/ns#"
   xmlns:rdf="http://www.w3.org/1999/02/22-rdf-syntax-ns#"
   xmlns:svg="http://www.w3.org/2000/svg"
   xmlns="http://www.w3.org/2000/svg"
   xmlns:sodipodi="http://sodipodi.sourceforge.net/DTD/sodipodi-0.dtd"
   xmlns:inkscape="http://www.inkscape.org/namespaces/inkscape"
   width="270.93332mm"
   height="25.689079mm"
   viewBox="0 0 270.93332 25.689079"
   version="1.1"
   id="svg3841"
   inkscape:version="1.0.1 (3bc2e813f5, 2020-09-07)"
   sodipodi:docname="8.svg">
  <defs
     id="defs3835" />
  <sodipodi:namedview
     id="base"
     pagecolor="#ffffff"
     bordercolor="#666666"
     borderopacity="1.0"
     inkscape:pageopacity="0.0"
     inkscape:pageshadow="2"
     inkscape:zoom="0.35"
     inkscape:cx="511.99999"
     inkscape:cy="48.546318"
     inkscape:document-units="mm"
     inkscape:current-layer="layer1"
     inkscape:document-rotation="0"
     showgrid="false"
     inkscape:window-width="1463"
     inkscape:window-height="1020"
     inkscape:window-x="64"
     inkscape:window-y="0"
     inkscape:window-maximized="0" />
  <metadata
     id="metadata3838">
    <rdf:RDF>
      <cc:Work
         rdf:about="">
        <dc:format>image/svg+xml</dc:format>
        <dc:type
           rdf:resource="http://purl.org/dc/dcmitype/StillImage" />
        <dc:title></dc:title>
      </cc:Work>
    </rdf:RDF>
  </metadata>
  <g
     inkscape:label="Capa 1"
     inkscape:groupmode="layer"
     id="layer1"
     transform="translate(29.633332,-135.32212)">
    <path
       d="m -29.633332,146.5451 c 2.54127,4.53747 5.710172,9.70981 8.002561,14.26686 -2.667344,0.039 -5.335084,0.0446 -8.002561,0.0165 z"
       fill="#000000"
       id="path1795"
       style="display:block;stroke-width:0.132292" />
    <path
       d="m 241.3,147.10231 v 13.90889 l -7.72715,-0.0119 c 0.58869,-1.45257 1.70788,-3.36127 2.48973,-4.75999 1.71317,-3.06837 3.52689,-6.06055 5.23742,-9.13699 z"
       fill="#000000"
       id="path1797"
       style="display:block;stroke-width:0.132292" />
    <path
       d="m 131.30081,135.33352 16.8103,-0.0114 c -1.69201,2.68221 -3.70814,6.50399 -5.31151,9.32749 -1.09538,1.81028 -2.13387,3.76145 -3.15648,5.62213 -1.70656,-3.21363 -3.56659,-6.40107 -5.35252,-9.57461 -1.01071,-1.79692 -2.08227,-3.50666 -2.98979,-5.36363 z"
       fill="#000000"
       id="path1865"
       style="display:block;stroke-width:0.132292" />
    <path
       d="m 63.580435,135.33365 16.732513,0.0188 c -1.72945,3.116 -3.49223,6.21335 -5.28836,9.29151 -1.0328,1.81742 -2.08174,3.62585 -3.14629,5.42488 l -5.37263,-9.42485 c -0.902097,-1.57877 -2.225675,-3.71449 -2.925233,-5.31032 z"
       fill="#000000"
       id="path1867"
       style="display:block;stroke-width:0.132292" />
    <path
       d="m -4.1194287,135.34542 16.6911067,-0.0184 c -1.561306,3.03372 -3.6978157,6.60175 -5.4312337,9.58665 l -2.991776,5.35384 c -2.472134,-4.86978 -5.616707,-10.04543 -8.268097,-14.9221 z"
       fill="#000000"
       id="path1869"
       style="display:block;stroke-width:0.132292" />
    <path
       d="m 15.573244,146.12587 c 0.63328,0.57176 7.655057,13.39718 8.342974,14.68543 -2.607204,0.0836 -5.480315,0.0283 -8.107363,0.032 l -8.5198467,-0.0118 c 2.8127847,-4.83036 5.4209147,-9.86604 8.2842357,-14.70567 z"
       fill="#000000"
       id="path1871"
       style="display:block;stroke-width:0.132292" />
    <path
       d="m 150.97522,145.99543 c 0.32941,0.35163 1.87987,3.15079 2.23176,3.77375 2.08624,3.68882 4.07988,7.40794 6.20051,11.08168 l -7.99967,-2.7e-4 -8.55398,-0.0139 c 2.62995,-4.9694 5.50333,-9.83244 8.12138,-14.84127 z"
       fill="#000000"
       id="path1873"
       style="display:block;stroke-width:0.132292" />
    <path
       d="m -7.1875367,146.12746 c 0.312076,0.30877 1.031346,1.6891 1.278599,2.14656 2.270654,4.20106 4.79425,8.31056 7.04969,12.51493 -2.592652,0.10927 -5.472112,0.0525 -8.086063,0.054 -2.836069,0.0128 -5.6721383,0.005 -8.5080743,-0.0243 2.294467,-4.51261 5.6984633,-10.15921 8.2658483,-14.69113 z"
       fill="#000000"
       id="path1875"
       style="display:block;stroke-width:0.132292" />
    <path
       d="m -26.964916,135.36712 16.770389,-0.009 c -1.879864,3.15291 -3.696494,6.34299 -5.448829,9.56852 l -2.962129,5.30305 c -2.516611,-5.05328 -5.91148,-9.99107 -8.359431,-14.86297 z"
       fill="#000000"
       id="path1877"
       style="display:block;stroke-width:0.132292" />
    <path
       d="m 83.222838,146.02731 c 0.89178,1.3937 1.96228,3.43707 2.80485,4.92919 l 5.55651,9.87557 c -2.60853,0.0597 -5.4184,0.014 -8.04201,0.0161 l -8.50424,-0.0161 c 2.75868,-4.91807 5.48706,-9.85308 8.18489,-14.80476 z"
       fill="#000000"
       id="path1879"
       style="display:block;stroke-width:0.132292" />
    <path
       d="m 128.21312,146.1223 c 0.33205,0.30982 2.35611,4.05725 2.7596,4.77837 l 5.58536,9.92585 c -2.61012,0.0583 -5.41338,0.0184 -8.03672,0.0236 l -8.51826,-0.009 z"
       fill="#000000"
       id="path1881"
       style="display:block;stroke-width:0.132292" />
    <path
       d="m 41.033966,135.33524 16.465153,0.007 c -1.586839,3.00791 -3.589734,6.32698 -5.266399,9.37961 -0.926835,1.64716 -2.04298,3.75245 -3.097742,5.27037 -2.404268,-4.12658 -6.103011,-10.39151 -8.101012,-14.65712 z"
       fill="#000000"
       id="path1883"
       style="display:block;stroke-width:0.132292" />
    <path
       d="m 108.59294,135.36235 16.51529,-0.0111 c -1.51209,3.03861 -3.50705,6.22909 -5.1554,9.2927 -1.01865,1.84441 -2.04656,3.6826 -3.08769,5.51431 -0.32808,-0.50178 -0.66411,-1.16006 -0.94192,-1.70008 -2.28732,-4.43322 -5.06412,-8.66338 -7.33028,-13.09582 z"
       fill="#000000"
       id="path1885"
       style="display:block;stroke-width:0.132292" />
    <path
       d="m 86.398628,135.331 16.571912,0.0115 c -1.66528,3.1033 -3.644372,6.39551 -5.414562,9.46587 -0.89456,1.63697 -1.98186,3.76727 -2.97974,5.2824 -2.4888,-4.7834 -5.96662,-10.18037 -8.17761,-14.75978 z"
       fill="#000000"
       id="path1887"
       style="display:block;stroke-width:0.132292" />
    <path
       d="m 199.03546,135.33616 c 5.57742,0.0361 11.15483,0.0394 16.73225,0.01 -1.67878,2.96585 -3.39328,5.91132 -5.1435,8.83576 -1.01203,1.71265 -2.20662,3.81437 -3.38137,5.38771 -1.86928,-2.9288 -3.49383,-5.89624 -5.17261,-8.9281 -0.99219,-1.79083 -2.14709,-3.4458 -3.03477,-5.30516 z"
       fill="#000000"
       id="path1889"
       style="display:block;stroke-width:0.132292" />
    <path
       d="m 60.537594,146.12785 c 0.399653,0.36473 7.420901,13.149 8.224176,14.66559 -2.53193,0.10213 -5.355431,0.0443 -7.908528,0.0456 -2.838185,0.0195 -5.676503,0.007 -8.514424,-0.0361 2.760662,-4.87613 5.493676,-9.76788 8.198776,-14.67511 z"
       fill="#000000"
       id="path1891"
       style="display:block;stroke-width:0.132292" />
    <path
       d="m 195.84062,146.63294 c 0.54901,0.45522 7.91501,12.93456 8.66642,14.25549 l -8.48386,0.0195 -8.56324,0.0152 c 1.01865,-1.37054 2.23705,-3.5736 3.11282,-5.07643 1.78197,-3.0566 3.53748,-6.12801 5.26786,-9.21372 z"
       fill="#000000"
       id="path1893"
       style="display:block;stroke-width:0.132292" />
    <path
       d="m 105.78571,146.15484 c 0.27914,0.30268 0.7964,1.29567 1.00939,1.69307 2.33494,4.35967 4.91463,8.61073 7.25752,12.96075 -2.54265,0.0872 -5.32739,0.0351 -7.88855,0.0372 l -8.499212,-0.009 c 2.524652,-4.85908 5.435332,-9.89105 8.120852,-14.68239 z"
       fill="#000000"
       id="path1895"
       style="display:block;stroke-width:0.132292" />
    <path
       d="m 154.32352,135.33815 16.34596,-0.004 c -1.5068,2.8964 -3.65389,6.42951 -5.29431,9.32141 -1.03055,1.80578 -2.04523,3.62148 -3.04271,5.44658 -1.39568,-3.28706 -3.86953,-6.74794 -5.46497,-10.00853 -0.79242,-1.61793 -1.80446,-3.05964 -2.54397,-4.75522 z"
       fill="#000000"
       id="path1897"
       style="display:block;stroke-width:0.132292" />
    <path
       d="m 173.31267,146.38278 c 0.26987,0.27371 2.13916,3.50414 2.5228,4.15369 2.032,3.46472 4.08252,6.9182 6.15289,10.36016 l -7.82638,-0.0329 -8.80004,-0.0145 c 2.65509,-4.71448 5.46232,-9.66774 7.95073,-14.46636 z"
       fill="#000000"
       id="path1899"
       style="display:block;stroke-width:0.132292" />
    <path
       d="m 18.909111,135.34436 16.261953,1.4e-4 c -1.247775,2.63432 -3.764889,6.80627 -5.258859,9.44932 l -2.921926,5.27606 c -1.667933,-3.26853 -3.648604,-6.53071 -5.415227,-9.75161 -0.899848,-1.64055 -1.905397,-3.26338 -2.665941,-4.97391 z"
       fill="#000000"
       id="path1901"
       style="display:block;stroke-width:0.132292" />
    <path
       d="m 222.00923,135.34132 16.57218,0.007 c -1.01997,2.26046 -3.88805,6.76023 -5.26256,9.04782 -0.99748,1.75736 -2.02671,3.49647 -3.08637,5.21626 -0.41539,-0.64611 -0.84799,-1.38615 -1.22899,-2.05674 -2.3032,-4.05593 -4.84716,-8.08236 -6.99426,-12.21462 z"
       fill="#000000"
       id="path1903"
       style="display:block;stroke-width:0.132292" />
    <path
       d="m 176.27997,135.33722 16.48751,2.6e-4 c -1.62057,2.97498 -3.29935,5.9182 -5.0337,8.82796 -0.98425,1.75088 -2.00818,3.60521 -3.18293,5.23055 -1.54252,-2.20332 -3.21998,-5.34803 -4.62624,-7.71578 -1.10464,-1.85857 -2.73844,-4.47133 -3.64464,-6.34299 z"
       fill="#000000"
       id="path1905"
       style="display:block;stroke-width:0.132292" />
    <path
       d="m 38.086772,146.37683 c 0.555096,0.30096 7.295621,12.80729 8.16319,14.34557 -2.711186,0.0445 -5.422636,0.0697 -8.134086,0.0757 l -8.110934,-0.01 c 1.136385,-2.16561 2.548334,-4.48707 3.752718,-6.6499 1.396735,-2.50825 2.847445,-5.33771 4.329112,-7.76169 z"
       fill="#000000"
       id="path1907"
       style="display:block;stroke-width:0.132292" />
    <path
       d="m 218.92022,147.07771 c 0.38894,0.42995 1.56501,2.34368 1.905,2.89057 2.18546,3.55216 4.22011,7.19455 6.09997,10.91764 -2.48841,0.0668 -5.27182,-8e-4 -7.78404,-0.006 l -8.19812,-0.009 c 0.56489,-1.21973 1.59015,-2.9558 2.25161,-4.16759 1.7952,-3.28665 3.6314,-6.51867 5.72558,-9.62594 z"
       fill="#000000"
       id="path1909"
       style="display:block;stroke-width:0.132292" />
  </g>
</svg>
