<?xml version="1.0" encoding="utf-8"?>
<!DOCTYPE svg PUBLIC "-//W3C//DTD SVG 1.1//EN" "http://www.w3.org/Graphics/SVG/1.1/DTD/svg11.dtd">
<!-- exported from Silhouette Studio® Business Edition V5.0.414ssbe -->
<svg version="1.1" xmlns="http://www.w3.org/2000/svg" xmlns:xlink="http://www.w3.org/1999/xlink" width="304.8mm" height="30mm" viewBox="0 0 304.8 30">
<defs>
<path id="path_d998dfbcac66eb9bbf76104981806895" d="M 0.4071966 0.2850075 L 304.0768 0.2849345 L 304.0768 3.923007 L 0.4071957 3.911548 L 0.4071966 0.2850075 Z" fill-rule="evenodd" fill="#000000" fill-opacity="1" stroke="#000000" stroke-opacity="1" stroke-width="0.1" stroke-linecap="round" stroke-linejoin="round"/>
<path id="path_3f17684fc9a08bdf6f62e584d21feb8a" d="M 0.0656742 26.71509 L 304.0767 26.71504 L 304.0767 30.35309 L 0.0656737 30.34161 L 0.0656742 26.71509 Z" fill-rule="evenodd" fill="#000000" fill-opacity="1" stroke="#000000" stroke-opacity="1" stroke-width="0.1" stroke-linecap="round" stroke-linejoin="round"/>
<path id="path_a374eff5d032e19055c4d6edb3e85a1f" d="M 8.926086 7.899536 L 12.67282 11.64631 L 16.4196 7.899565 L 12.67284 4.152792 L 8.926086 7.899536 Z M 10.59937 7.89955 L 12.67284 9.973021 L 14.74632 7.89956 L 12.67283 5.826083 L 10.59937 7.89955 Z M 13.02804 15.73861 C 12.82495 15.53552 12.50758 15.54891 12.31788 15.73861 L 7.502951 20.55354 C 7.334234 20.43381 6.848269 19.94119 6.754335 19.80607 L 11.5698 14.99056 C 11.75729 14.80307 11.77513 14.48573 11.5698 14.2804 L 6.761862 9.47243 C 6.890028 9.31001 7.323843 8.854751 7.502757 8.71715 L 12.3179 13.53229 C 12.41834 13.63273 12.75581 13.80464 13.02811 13.53235 L 17.84126 8.719271 C 17.95498 8.81043 18.46082 9.28108 18.59137 9.465151 L 13.77613 14.28038 C 13.58868 14.46784 13.5708 14.78518 13.77611 14.99051 L 18.59104 19.80545 C 18.44409 20.01251 17.92747 20.48619 17.84255 20.55315 L 13.02804 15.73861 Z M 2.237549 14.40888 L 5.98433 18.15568 L 9.731084 14.40895 L 5.98433 10.66215 L 2.237549 14.40888 Z M 3.910853 14.40891 L 5.984334 16.4824 L 8.057809 14.40892 L 5.98433 12.33544 L 3.910853 14.40891 Z M 15.58353 14.63533 L 19.3303 18.38213 L 23.07705 14.6354 L 19.3303 10.8886 L 15.58353 14.63533 Z M 17.25683 14.63535 L 19.3303 16.70884 L 21.40376 14.63536 L 19.3303 12.56189 L 17.25683 14.63535 Z M 8.895017 21.14466 L 12.64177 24.89148 L 16.38855 21.14472 L 12.64177 17.39794 L 8.895017 21.14466 Z M 10.56831 21.14469 L 12.64177 23.21817 L 14.71529 21.14471 L 12.64177 19.07122 L 10.56831 21.14469 Z M 32.21346 7.899522 L 35.96026 11.64629 L 39.707 7.899557 L 35.96026 4.152775 L 32.21346 7.899522 Z M 33.88679 7.899536 L 35.96026 9.973012 L 38.03373 7.899546 L 35.96026 5.826061 L 33.88679 7.899536 Z M 36.31546 15.7386 C 36.11238 15.53551 35.79502 15.54889 35.60532 15.7386 L 30.79037 20.55354 C 30.62167 20.4338 30.13569 19.94117 30.04176 19.80604 L 34.85723 14.99055 C 35.04472 14.80305 35.06256 14.48571 34.85721 14.28038 L 30.04927 9.472411 C 30.17744 9.309991 30.61126 8.854739 30.79018 8.717141 L 35.60532 13.53229 C 35.70575 13.63273 36.04324 13.80464 36.31555 13.53233 L 41.12867 8.719259 C 41.24239 8.810421 41.74822 9.281071 41.87877 9.465141 L 37.06357 14.28036 C 36.8761 14.46783 36.85823 14.78518 37.06353 14.99051 L 41.87846 19.80544 C 41.73149 20.0125 41.21487 20.48618 41.12996 20.55315 L 36.31546 15.7386 Z M 25.52497 14.40886 L 29.27173 18.15567 L 33.01851 14.40895 L 29.27173 10.66214 L 25.52497 14.40886 Z M 27.19827 14.4089 L 29.27174 16.48239 L 31.34521 14.40891 L 29.27173 12.33543 L 27.19827 14.4089 Z M 38.87094 14.63533 L 42.61769 18.38211 L 46.36448 14.63536 L 42.61774 10.88858 L 38.87094 14.63533 Z M 40.54424 14.63534 L 42.61769 16.70882 L 44.6912 14.63535 L 42.61769 12.56187 L 40.54424 14.63534 Z M 32.18243 21.14465 L 35.9292 24.89145 L 39.67596 21.14472 L 35.9292 17.39794 L 32.18243 21.14465 Z M 33.85572 21.14467 L 35.9292 23.21815 L 38.00269 21.14471 L 35.9292 19.07122 L 33.85572 21.14467 Z M 55.50098 7.899537 L 59.24775 11.64632 L 62.99452 7.899585 L 59.24775 4.152797 L 55.50098 7.899537 Z M 57.17428 7.899554 L 59.24775 9.973031 L 61.32124 7.899569 L 59.24775 5.826089 L 57.17428 7.899554 Z M 59.60295 15.73863 C 59.39985 15.53554 59.0825 15.54893 58.89279 15.73863 L 54.07787 20.55356 C 53.90916 20.43383 53.42317 19.9412 53.32924 19.80607 L 58.14474 14.99056 C 58.33222 14.8031 58.35004 14.48573 58.14471 14.28041 L 53.33678 9.472442 C 53.46495 9.310021 53.89875 8.85476 54.07766 8.717159 L 58.89282 13.5323 C 58.99324 13.63275 59.33073 13.80465 59.60299 13.53236 L 64.41618 8.719279 C 64.52988 8.810441 65.03573 9.281101 65.16628 9.465172 L 60.35108 14.28038 C 60.16359 14.46786 60.14571 14.78519 60.35103 14.99052 L 65.16595 19.80546 C 65.01899 20.01251 64.5024 20.4862 64.41747 20.55317 L 59.60295 15.73863 Z M 48.81247 14.4089 L 52.5592 18.1557 L 56.306 14.40897 L 52.55923 10.66216 L 48.81247 14.4089 Z M 50.48576 14.40892 L 52.55923 16.48242 L 54.63269 14.40895 L 52.55923 12.33546 L 50.48576 14.40892 Z M 62.15844 14.63535 L 65.90523 18.38214 L 69.65196 14.6354 L 65.90519 10.8886 L 62.15844 14.63535 Z M 63.83176 14.63536 L 65.90519 16.70885 L 67.9787 14.63539 L 65.90519 12.56189 L 63.83176 14.63536 Z M 55.46994 21.14467 L 59.21667 24.89148 L 62.96346 21.14476 L 59.21667 17.39795 L 55.46994 21.14467 Z M 57.1432 21.1447 L 59.21671 23.21818 L 61.29018 21.14472 L 59.21667 19.07123 L 57.1432 21.1447 Z M 78.78841 7.899525 L 82.53519 11.64629 L 86.28182 7.899557 L 82.53519 4.152781 L 78.78841 7.899525 Z M 80.46162 7.899541 L 82.53519 9.973012 L 84.60863 7.899544 L 82.53519 5.826066 L 80.46162 7.899541 Z M 82.89036 15.73861 C 82.68728 15.53551 82.3699 15.54891 82.18015 15.73861 L 77.36523 20.55355 C 77.19655 20.43382 76.71059 19.94118 76.61665 19.80606 L 81.43212 14.99056 C 81.61967 14.80307 81.63744 14.4857 81.43212 14.28038 L 76.62421 9.472421 C 76.7523 9.31 77.1862 8.854739 77.36504 8.717141 L 82.18022 13.53229 C 82.28062 13.63273 82.61808 13.80462 82.89049 13.53233 L 87.70356 8.719271 C 87.81728 8.81043 88.32303 9.28108 88.45358 9.465151 L 83.63851 14.28035 C 83.45098 14.46784 83.43305 14.78518 83.63836 14.99051 L 88.45332 19.80545 C 88.30631 20.01251 87.78974 20.48617 87.70486 20.55315 L 82.89036 15.73861 Z M 72.09988 14.40888 L 75.84664 18.15567 L 79.59342 14.40892 L 75.84664 10.66214 L 72.09988 14.40888 Z M 73.77316 14.4089 L 75.84664 16.48238 L 77.92007 14.40891 L 75.84664 12.33542 L 73.77316 14.4089 Z M 85.44588 14.63534 L 89.19253 18.38211 L 92.93929 14.63536 L 89.19253 10.88858 L 85.44588 14.63534 Z M 87.11907 14.63535 L 89.19253 16.70883 L 91.26614 14.63535 L 89.19253 12.56186 L 87.11907 14.63535 Z M 78.75733 21.14465 L 82.50409 24.89145 L 86.25084 21.14473 L 82.50409 17.39793 L 78.75733 21.14465 Z M 80.43066 21.14469 L 82.50409 23.21817 L 84.57752 21.14472 L 82.50409 19.07122 L 80.43066 21.14469 Z M 102.0758 7.899525 L 105.8226 11.64629 L 109.5694 7.899557 L 105.8226 4.152778 L 102.0758 7.899525 Z M 103.7492 7.899541 L 105.8226 9.973021 L 107.8961 7.899546 L 105.8226 5.826069 L 103.7492 7.899541 Z M 106.1778 15.73862 C 105.9747 15.53553 105.6573 15.54891 105.4677 15.73862 L 100.6527 20.55355 C 100.484 20.43381 99.99799 19.94117 99.90406 19.80606 L 104.7195 14.99056 C 104.9071 14.80309 104.9248 14.48573 104.7195 14.2804 L 99.9116 9.472421 C 100.0398 9.31 100.4736 8.854739 100.6525 8.71715 L 105.4677 13.53229 C 105.5681 13.63273 105.9056 13.80464 106.1778 13.53234 L 110.991 8.719271 C 111.1047 8.810421 111.6105 9.281071 111.741 9.465141 L 106.9259 14.28038 C 106.7384 14.46784 106.7205 14.78518 106.9258 14.99051 L 111.7408 19.80545 C 111.5939 20.01251 111.0772 20.48616 110.9923 20.55315 L 106.1778 15.73862 Z M 95.38724 14.40888 L 99.13403 18.15568 L 102.8808 14.40895 L 99.13403 10.66215 L 95.38724 14.40888 Z M 97.06055 14.40891 L 99.13403 16.4824 L 101.2075 14.40892 L 99.13403 12.33544 L 97.06055 14.40891 Z M 108.7333 14.63533 L 112.4801 18.38212 L 116.2267 14.63536 L 112.4801 10.88858 L 108.7333 14.63533 Z M 110.4065 14.63535 L 112.4801 16.70884 L 114.5536 14.63535 L 112.4801 12.56188 L 110.4065 14.63535 Z M 102.0447 21.14467 L 105.7915 24.89146 L 109.5383 21.14473 L 105.7915 17.39794 L 102.0447 21.14467 Z M 103.718 21.14468 L 105.7915 23.21816 L 107.865 21.14472 L 105.7915 19.07121 L 103.718 21.14468 Z M 125.3632 7.899522 L 129.11 11.64629 L 132.8568 7.899546 L 129.11 4.152771 L 125.3632 7.899522 Z M 127.0365 7.899525 L 129.11 9.973012 L 131.1834 7.899537 L 129.11 5.82606 L 127.0365 7.899525 Z M 129.4652 15.73861 C 129.2621 15.53551 128.9447 15.54891 128.7551 15.73861 L 123.94 20.55354 C 123.7713 20.4338 123.2854 19.94117 123.1915 19.80604 L 128.007 14.99055 C 128.1945 14.80306 128.2122 14.4857 128.0069 14.28036 L 123.199 9.472411 C 123.3272 9.309991 123.761 8.854739 123.9399 8.717141 L 128.7551 13.53229 C 128.8556 13.63273 129.193 13.80463 129.4652 13.53232 L 134.2784 8.719259 C 134.3921 8.81041 134.898 9.28108 135.0285 9.465141 L 130.2133 14.28035 C 130.0259 14.46783 130.008 14.78518 130.2133 14.99051 L 135.0281 19.80543 C 134.8812 20.0125 134.3646 20.48617 134.2798 20.55315 L 129.4652 15.73861 Z M 118.6747 14.40888 L 122.4214 18.15566 L 126.1682 14.40892 L 122.4214 10.66214 L 118.6747 14.40888 Z M 120.348 14.4089 L 122.4216 16.48238 L 124.495 14.40892 L 122.4214 12.33544 L 120.348 14.4089 Z M 132.0208 14.63533 L 135.7675 18.3821 L 139.5142 14.63536 L 135.7675 10.88858 L 132.0208 14.63533 Z M 133.694 14.63534 L 135.7675 16.70882 L 137.8409 14.63535 L 135.7675 12.56186 L 133.694 14.63534 Z M 125.3322 21.14465 L 129.0789 24.89144 L 132.8257 21.14472 L 129.0789 17.39793 L 125.3322 21.14465 Z M 127.0054 21.14468 L 129.0789 23.21816 L 131.1524 21.14471 L 129.0789 19.07121 L 127.0054 21.14468 Z M 148.6507 7.899537 L 152.3976 11.64633 L 156.1444 7.89958 L 152.3976 4.152796 L 148.6507 7.899537 Z M 150.3241 7.899546 L 152.3976 9.973041 L 154.4711 7.899557 L 152.3976 5.826092 L 150.3241 7.899546 Z M 152.7528 15.73863 C 152.5497 15.53554 152.2323 15.54893 152.0426 15.73863 L 147.2276 20.55358 C 147.0589 20.43383 146.5729 19.9412 146.479 19.80607 L 151.2944 14.99056 C 151.4821 14.80311 151.4998 14.48573 151.2944 14.28041 L 146.4865 9.47243 C 146.6147 9.31001 147.0486 8.85476 147.2276 8.717159 L 152.0426 13.5323 C 152.1431 13.63275 152.4805 13.80465 152.7529 13.53235 L 157.5659 8.71929 C 157.6797 8.81045 158.1855 9.281101 158.316 9.465172 L 153.5009 14.28038 C 153.3134 14.46784 153.2956 14.78521 153.5009 14.99052 L 158.3158 19.80546 C 158.1689 20.01251 157.6521 20.48617 157.5673 20.55315 L 152.7528 15.73863 Z M 141.9623 14.4089 L 145.709 18.15569 L 149.4557 14.40898 L 145.709 10.66216 L 141.9623 14.4089 Z M 143.6355 14.40892 L 145.7091 16.4824 L 147.7824 14.40895 L 145.709 12.33546 L 143.6355 14.40892 Z M 155.3083 14.63535 L 159.055 18.38213 L 162.8017 14.63539 L 159.055 10.8886 L 155.3083 14.63535 Z M 156.9815 14.63536 L 159.055 16.70884 L 161.1284 14.6354 L 159.055 12.56189 L 156.9815 14.63536 Z M 148.6198 21.14466 L 152.3665 24.89148 L 156.1133 21.14474 L 152.3665 17.39795 L 148.6198 21.14466 Z M 150.293 21.14468 L 152.3665 23.21817 L 154.44 21.14471 L 152.3665 19.07125 L 150.293 21.14468 Z M 171.938 7.899518 L 175.6847 11.6463 L 179.4315 7.899544 L 175.6847 4.152769 L 171.938 7.899518 Z M 173.6112 7.899525 L 175.6847 9.973021 L 177.7583 7.89955 L 175.6847 5.826073 L 173.6112 7.899525 Z M 176.0399 15.73861 C 175.8369 15.53551 175.5196 15.54891 175.3298 15.73861 L 170.5149 20.55353 C 170.3462 20.43381 169.8603 19.94118 169.7663 19.80606 L 174.5818 14.99055 C 174.7693 14.80307 174.7871 14.48571 174.5818 14.28038 L 169.7738 9.472411 C 169.9019 9.309991 170.3359 8.854731 170.5147 8.717141 L 175.3298 13.53226 C 175.4303 13.63271 175.7677 13.80464 176.04 13.53235 L 180.8531 8.719259 C 180.9669 8.81041 181.4727 9.281071 181.6033 9.465141 L 176.788 14.28035 C 176.6006 14.46782 176.5827 14.78518 176.788 14.99051 L 181.6031 19.80545 C 181.456 20.01249 180.9394 20.48614 180.8545 20.55313 L 176.0399 15.73861 Z M 165.2495 14.40886 L 168.9963 18.15566 L 172.7431 14.40892 L 168.9963 10.66214 L 165.2495 14.40886 Z M 166.9228 14.4089 L 168.9963 16.48238 L 171.0697 14.40895 L 168.9963 12.33542 L 166.9228 14.4089 Z M 178.5955 14.63533 L 182.3422 18.38209 L 186.089 14.63539 L 182.3422 10.88858 L 178.5955 14.63533 Z M 180.2687 14.63534 L 182.3422 16.70881 L 184.4157 14.63536 L 182.3422 12.56186 L 180.2687 14.63534 Z M 171.907 21.14466 L 175.6538 24.89145 L 179.4005 21.14473 L 175.6538 17.39793 L 171.907 21.14466 Z M 173.5803 21.14466 L 175.6538 23.21814 L 177.7272 21.14471 L 175.6538 19.07121 L 173.5803 21.14466 Z M 195.2254 7.899522 L 198.9722 11.6463 L 202.719 7.899562 L 198.9722 4.152771 L 195.2254 7.899522 Z M 196.8988 7.899531 L 198.9722 9.973021 L 201.0456 7.899541 L 198.9722 5.826075 L 196.8988 7.899531 Z M 199.3275 15.73862 C 199.1243 15.53552 198.8069 15.54892 198.6173 15.73863 L 193.8023 20.55355 C 193.6336 20.43382 193.1476 19.94119 193.0536 19.80607 L 197.8691 14.99055 C 198.0567 14.80307 198.0744 14.48571 197.8691 14.28038 L 193.0612 9.472411 C 193.1895 9.309991 193.6232 8.85475 193.8022 8.717159 L 198.6173 13.53229 C 198.7177 13.63272 199.0551 13.80464 199.3275 13.53235 L 204.1406 8.719271 C 204.2543 8.81043 204.7602 9.28108 204.8908 9.465141 L 200.0756 14.28038 C 199.888 14.46784 199.8701 14.78518 200.0756 14.99051 L 204.8904 19.80546 C 204.7436 20.0125 204.2269 20.48618 204.1419 20.55315 L 199.3275 15.73862 Z M 188.537 14.40888 L 192.2836 18.15567 L 196.0304 14.40892 L 192.2836 10.66214 L 188.537 14.40888 Z M 190.2102 14.40891 L 192.2836 16.4824 L 194.3571 14.40895 L 192.2836 12.33543 L 190.2102 14.40891 Z M 201.883 14.63533 L 205.6296 18.38211 L 209.3765 14.63539 L 205.6296 10.88859 L 201.883 14.63533 Z M 203.5562 14.63535 L 205.6296 16.70882 L 207.703 14.63536 L 205.6296 12.56187 L 203.5562 14.63535 Z M 195.1945 21.14466 L 198.9411 24.89145 L 202.6879 21.14473 L 198.9411 17.39793 L 195.1945 21.14466 Z M 196.8677 21.14467 L 198.9411 23.21815 L 201.0147 21.14471 L 198.9411 19.07121 L 196.8677 21.14467 Z M 218.5128 7.899525 L 222.2595 11.6463 L 226.0063 7.89955 L 222.2595 4.152775 L 218.5128 7.899525 Z M 220.1861 7.899536 L 222.2595 9.973021 L 224.333 7.899544 L 222.2595 5.826078 L 220.1861 7.899536 Z M 222.6147 15.73861 C 222.4117 15.53551 222.0943 15.54891 221.9046 15.73861 L 217.0896 20.55355 C 216.9209 20.43381 216.4349 19.94118 216.341 19.80606 L 221.1565 14.99055 C 221.344 14.80307 221.3618 14.48571 221.1565 14.28038 L 216.3486 9.472411 C 216.4768 9.309991 216.9105 8.854739 217.0894 8.717141 L 221.9046 13.53229 C 222.0051 13.63273 222.3425 13.80465 222.6148 13.53235 L 227.4279 8.719271 C 227.5416 8.81043 228.0475 9.28108 228.1781 9.465141 L 223.3628 14.28035 C 223.1753 14.46782 223.1576 14.78518 223.3628 14.99051 L 228.1777 19.80546 C 228.0306 20.01251 227.5141 20.48618 227.4292 20.55315 L 222.6147 15.73861 Z M 211.8244 14.40888 L 215.571 18.15568 L 219.3177 14.40892 L 215.5711 10.66214 L 211.8244 14.40888 Z M 213.4975 14.40891 L 215.5711 16.48239 L 217.6444 14.40895 L 215.571 12.33544 L 213.4975 14.40891 Z M 225.1702 14.63533 L 228.9171 18.38212 L 232.6637 14.63539 L 228.9169 10.8886 L 225.1702 14.63533 Z M 226.8436 14.63536 L 228.9171 16.70882 L 230.9904 14.63536 L 228.9171 12.56188 L 226.8436 14.63536 Z M 218.4817 21.14466 L 222.2285 24.89148 L 225.9753 21.14474 L 222.2285 17.39793 L 218.4817 21.14466 Z M 220.155 21.14468 L 222.2285 23.21816 L 224.3019 21.14471 L 222.2285 19.07122 L 220.155 21.14468 Z M 241.8002 7.899525 L 245.5469 11.64631 L 249.2937 7.899575 L 245.5469 4.152785 L 241.8002 7.899525 Z M 243.4734 7.899544 L 245.5469 9.973031 L 247.6204 7.89955 L 245.5469 5.826076 L 243.4734 7.899544 Z M 245.9019 15.73863 C 245.699 15.53554 245.3818 15.54892 245.1919 15.73862 L 240.3772 20.55358 C 240.2083 20.43384 239.7223 19.94119 239.6286 19.80606 L 244.444 14.99056 C 244.6314 14.80307 244.6491 14.48573 244.4438 14.2804 L 239.636 9.472442 C 239.7641 9.310021 240.1979 8.854751 240.3769 8.71715 L 245.1919 13.53229 C 245.2924 13.63273 245.6299 13.80464 245.9022 13.53235 L 250.7153 8.71929 C 250.8289 8.81044 251.3349 9.28109 251.4655 9.46516 L 246.6502 14.28038 C 246.4629 14.46786 246.4449 14.7852 246.6502 14.99052 L 251.4652 19.80546 C 251.3182 20.01251 250.8016 20.48618 250.7167 20.55316 L 245.9019 15.73863 Z M 235.1116 14.4089 L 238.8583 18.15569 L 242.6053 14.40898 L 238.8583 10.66215 L 235.1116 14.4089 Z M 236.785 14.40892 L 238.8583 16.48238 L 240.9319 14.40892 L 238.8583 12.33545 L 236.785 14.40892 Z M 248.4576 14.63535 L 252.2044 18.38213 L 255.9513 14.63539 L 252.2044 10.8886 L 248.4576 14.63535 Z M 250.1309 14.63535 L 252.2044 16.70884 L 254.2779 14.63536 L 252.2044 12.56189 L 250.1309 14.63535 Z M 241.7692 21.14466 L 245.5159 24.89148 L 249.2626 21.14473 L 245.5159 17.39796 L 241.7692 21.14466 Z M 243.4423 21.14469 L 245.5159 23.21817 L 247.5893 21.14471 L 245.516 19.07125 L 243.4423 21.14469 Z M 265.0875 7.899522 L 268.8343 11.64632 L 272.5809 7.899575 L 268.8343 4.152797 L 265.0875 7.899522 Z M 266.7606 7.899554 L 268.8343 9.973041 L 270.9075 7.89956 L 268.8343 5.826087 L 266.7606 7.899554 Z M 269.1895 15.73861 C 268.9863 15.53552 268.6689 15.54891 268.4792 15.73861 L 263.6644 20.55358 C 263.4958 20.43384 263.0098 19.94121 262.9158 19.80607 L 267.7313 14.99056 C 267.9187 14.80307 267.9365 14.48573 267.7313 14.2804 L 262.9233 9.472442 C 263.0516 9.310021 263.4853 8.85476 263.6641 8.717159 L 268.4792 13.53229 C 268.5797 13.63272 268.9172 13.80465 269.1895 13.53235 L 274.0026 8.719271 C 274.1164 8.81043 274.6222 9.28109 274.7528 9.46516 L 269.9376 14.28038 C 269.7502 14.46784 269.7321 14.78519 269.9376 14.99051 L 274.7525 19.80546 C 274.6055 20.01251 274.089 20.48619 274.004 20.55317 L 269.1895 15.73861 Z M 258.3991 14.4089 L 262.1456 18.1557 L 265.8924 14.40895 L 262.1456 10.66216 L 258.3991 14.4089 Z M 260.0722 14.40892 L 262.1456 16.48241 L 264.2194 14.40892 L 262.1456 12.33546 L 260.0722 14.40892 Z M 271.745 14.63535 L 275.4918 18.38213 L 279.2385 14.63536 L 275.4918 10.8886 L 271.745 14.63535 Z M 273.4182 14.63535 L 275.4918 16.70884 L 277.5652 14.63536 L 275.4918 12.56188 L 273.4182 14.63535 Z M 265.0565 21.14467 L 268.8034 24.89148 L 272.55 21.14475 L 268.8034 17.39795 L 265.0565 21.14467 Z M 266.7298 21.1447 L 268.8034 23.21818 L 270.8768 21.14471 L 268.8034 19.07123 L 266.7298 21.1447 Z M 183.3151 7.899494 L 187.0619 11.64624 L 190.8086 7.899531 L 187.0619 4.152731 L 183.3151 7.899494 Z M 184.9884 7.899483 L 187.0619 9.972961 L 189.1354 7.899525 L 187.0618 5.826016 L 184.9884 7.899483 Z M 183.3151 21.14473 L 187.0619 24.89148 L 190.8086 21.14476 L 187.0619 17.39795 L 183.3151 21.14473 Z M 184.9884 21.14471 L 187.0618 23.21819 L 189.1354 21.14476 L 187.0619 19.07126 L 184.9884 21.14471 Z M 207.055 7.899531 L 210.8017 11.64628 L 214.5483 7.899544 L 210.8017 4.15274 L 207.055 7.899531 Z M 208.7282 7.899522 L 210.8017 9.972972 L 212.875 7.899546 L 210.8017 5.826041 L 208.7282 7.899522 Z M 207.0549 21.14473 L 210.8017 24.89148 L 214.5484 21.14475 L 210.8017 17.39796 L 207.0549 21.14473 Z M 208.7282 21.14471 L 210.8017 23.2182 L 212.8751 21.14476 L 210.8017 19.07123 L 208.7282 21.14471 Z M 230.0462 7.910681 L 233.793 11.65744 L 237.5397 7.910716 L 233.793 4.163904 L 230.0462 7.910681 Z M 231.7195 7.910673 L 233.793 9.984153 L 235.8666 7.910697 L 233.793 5.837218 L 231.7195 7.910673 Z M 230.0462 21.15586 L 233.7928 24.90262 L 237.5397 21.15588 L 233.7928 17.4091 L 230.0462 21.15586 Z M 231.7195 21.15586 L 233.7928 23.22934 L 235.8663 21.15588 L 233.7928 19.08241 L 231.7195 21.15586 Z M 253.1709 7.848015 L 256.9178 11.59477 L 260.6645 7.848042 L 256.9177 4.101249 L 253.1709 7.848015 Z M 254.8442 7.848019 L 256.9177 9.921481 L 258.9911 7.848035 L 256.9177 5.774539 L 254.8442 7.848019 Z M 253.171 21.09323 L 256.9178 24.83998 L 260.6644 21.09324 L 256.9177 17.34645 L 253.171 21.09323 Z M 254.8442 21.09324 L 256.9177 23.16669 L 258.9911 21.09324 L 256.9177 19.01975 L 254.8442 21.09324 Z M 160.2496 7.954854 L 163.9964 11.70161 L 167.743 7.954882 L 163.9963 4.20809 L 160.2496 7.954854 Z M 161.9228 7.954856 L 163.9963 10.02834 L 166.0698 7.954876 L 163.9963 5.881392 L 161.9228 7.954856 Z M 160.2496 21.20007 L 163.9964 24.94682 L 167.743 21.2001 L 163.9963 17.45329 L 160.2496 21.20007 Z M 161.9228 21.20007 L 163.9963 23.27352 L 166.0698 21.20007 L 163.9963 19.12659 L 161.9228 21.20007 Z M 137.1593 7.669785 L 140.9061 11.41654 L 144.6527 7.669818 L 140.9061 3.923007 L 137.1593 7.669785 Z M 138.8324 7.669776 L 140.9061 9.743261 L 142.9794 7.669818 L 140.9061 5.596321 L 138.8324 7.669776 Z M 137.1593 20.91499 L 140.9061 24.66175 L 144.6527 20.91502 L 140.9061 17.16824 L 137.1593 20.91499 Z M 138.8324 20.91499 L 140.9061 22.98847 L 142.9794 20.91502 L 140.9061 18.84152 L 138.8324 20.91499 Z M 113.6792 7.669792 L 117.426 11.41654 L 121.1727 7.669818 L 117.426 3.923012 L 113.6792 7.669792 Z M 115.3525 7.669781 L 117.426 9.743251 L 119.4994 7.669808 L 117.426 5.596315 L 115.3525 7.669781 Z M 113.6792 20.915 L 117.426 24.66175 L 121.1727 20.91504 L 117.426 17.16822 L 113.6792 20.915 Z M 115.3525 20.915 L 117.426 22.98846 L 119.4994 20.91501 L 117.426 18.84153 L 115.3525 20.915 Z M 90.54307 7.920077 L 94.28983 11.66683 L 98.03647 7.920103 L 94.28983 4.173304 L 90.54307 7.920077 Z M 92.21625 7.920066 L 94.28973 9.99353 L 96.36328 7.920092 L 94.28973 5.846604 L 92.21625 7.920066 Z M 90.54304 21.16529 L 94.28983 24.91206 L 98.03647 21.16533 L 94.28983 17.41853 L 90.54304 21.16529 Z M 92.21624 21.16529 L 94.28973 23.23876 L 96.36328 21.16531 L 94.28973 19.09182 L 92.21624 21.16529 Z M 67.05319 7.917653 L 70.79997 11.66441 L 74.5466 7.917682 L 70.79997 4.170893 L 67.05319 7.917653 Z M 68.72639 7.917653 L 70.7999 9.99112 L 72.87344 7.917682 L 70.7999 5.844177 L 68.72639 7.917653 Z M 67.05319 21.16289 L 70.79997 24.90964 L 74.5466 21.1629 L 70.79997 17.41612 L 67.05319 21.16289 Z M 68.72639 21.16287 L 70.7999 23.23635 L 72.87344 21.1629 L 70.7999 19.08941 L 68.72639 21.16287 Z M 43.45642 8.204383 L 47.2032 11.95114 L 50.94992 8.204406 L 47.20316 4.457613 L 43.45642 8.204383 Z M 45.12968 8.204373 L 47.20314 10.27785 L 49.27662 8.204403 L 47.20314 6.130904 L 45.12968 8.204373 Z M 43.45641 21.44958 L 47.2032 25.19637 L 50.94992 21.44963 L 47.20316 17.70283 L 43.45641 21.44958 Z M 45.12966 21.44958 L 47.20314 23.52306 L 49.27662 21.44962 L 47.20314 19.37612 L 45.12966 21.44958 Z M 20.25155 8.201974 L 23.99834 11.94874 L 27.74505 8.201998 L 23.99831 4.455197 L 20.25155 8.201974 Z M 21.9248 8.201965 L 23.99828 10.27544 L 26.07175 8.201989 L 23.99828 6.128496 L 21.9248 8.201965 Z M 20.25155 21.44718 L 23.9983 25.19394 L 27.74501 21.4472 L 23.99828 17.70041 L 20.25155 21.44718 Z M 21.9248 21.44718 L 23.99827 23.52065 L 26.07175 21.4472 L 23.99827 19.37371 L 21.9248 21.44718 Z" fill-rule="evenodd" fill="#000000" fill-opacity="1" stroke="#000000" stroke-opacity="1" stroke-width="0.1" stroke-linecap="round" stroke-linejoin="round"/>
<path id="path_ac218cde0b2bd69f8b8f17a4002842b3" d="M 287.7539 8.204468 L 291.5007 11.95125 L 295.2473 8.204517 L 291.5007 4.457748 L 287.7539 8.204468 Z M 289.4269 8.204494 L 291.5007 10.27797 L 293.5739 8.204506 L 291.5007 6.13103 L 289.4269 8.204494 Z M 291.8558 16.04352 C 291.6527 15.84043 291.3353 15.85382 291.1456 16.04352 L 286.3308 20.85848 C 286.1622 20.73874 285.6761 20.24612 285.5822 20.11098 L 290.3976 15.29549 C 290.5851 15.10801 290.6028 14.79066 290.3976 14.58533 L 285.5897 9.777382 C 285.718 9.614962 286.1517 9.159706 286.3304 9.022104 L 291.1456 13.83723 C 291.246 13.93766 291.5836 14.10958 291.8558 13.83728 L 296.6689 9.024214 C 296.7828 9.115374 297.2886 9.586035 297.4192 9.770103 L 292.6039 14.58529 C 292.4164 14.77275 292.3985 15.09012 292.6039 15.29543 L 297.4189 20.11038 C 297.2719 20.31743 296.7554 20.79111 296.6704 20.85809 L 291.8558 16.04352 Z M 281.0654 14.71382 L 284.812 18.46061 L 288.5588 14.71387 L 284.812 10.96709 L 281.0654 14.71382 Z M 282.7386 14.71384 L 284.812 16.78732 L 286.8858 14.71384 L 284.812 12.64038 L 282.7386 14.71384 Z M 294.4114 14.94026 L 298.1581 18.68704 L 301.9048 14.94028 L 298.1581 11.19354 L 294.4114 14.94026 Z M 296.0845 14.94027 L 298.1581 17.01375 L 300.2316 14.94028 L 298.1581 12.86679 L 296.0845 14.94027 Z M 287.7229 21.44957 L 291.4698 25.19636 L 295.2164 21.44965 L 291.4698 17.70286 L 287.7229 21.44957 Z M 289.3962 21.4496 L 291.4698 23.52308 L 293.5432 21.44961 L 291.4698 19.37613 L 289.3962 21.4496 Z M 275.8373 8.152948 L 279.5842 11.8997 L 283.3309 8.152981 L 279.5842 4.406201 L 275.8373 8.152948 Z M 277.5106 8.152969 L 279.5841 10.22642 L 281.6575 8.152981 L 279.5841 6.079494 L 277.5106 8.152969 Z M 275.8374 21.39812 L 279.5842 25.14487 L 283.3307 21.39814 L 279.5841 17.65135 L 275.8374 21.39812 Z M 277.5106 21.39815 L 279.5841 23.47159 L 281.6575 21.39815 L 279.5841 19.32465 L 277.5106 21.39815 Z" fill-rule="evenodd" fill="#000000" fill-opacity="1" stroke="#000000" stroke-opacity="1" stroke-width="0.1" stroke-linecap="round" stroke-linejoin="round"/>
</defs>
<g>
<g>
<g>
<use xlink:href="#path_d998dfbcac66eb9bbf76104981806895"/>
</g>
</g>
</g>
<g>
<g>
<g>
<use xlink:href="#path_3f17684fc9a08bdf6f62e584d21feb8a"/>
</g>
</g>
</g>
<g>
<g>
<g>
<g>
<use xlink:href="#path_a374eff5d032e19055c4d6edb3e85a1f"/>
</g>
</g>
</g>
<g>
<use xlink:href="#path_ac218cde0b2bd69f8b8f17a4002842b3"/>
</g>
</g>
</svg>