<?xml version="1.0" encoding="utf-8"?>
<!DOCTYPE svg PUBLIC "-//W3C//DTD SVG 1.1//EN" "http://www.w3.org/Graphics/SVG/1.1/DTD/svg11.dtd">
<!-- exported from Silhouette Studio® Business Edition V5.0.414ssbe -->
<svg version="1.1" xmlns="http://www.w3.org/2000/svg" xmlns:xlink="http://www.w3.org/1999/xlink" width="270.9mm" height="35.3mm" viewBox="0 0 270.9 35.3">
<defs>
<path id="path_c7e6a59c192fc4066d38773ecb182abb" d="M 11.16232 9.009006 L 16.38537 3.785975 L 21.60842 9.009047 L 16.38534 14.23208 L 11.16232 9.009006 Z M 13.49491 9.009027 L 16.38537 11.89948 L 19.27583 9.009043 L 16.38535 6.118574 L 13.49491 9.009027 Z" fill-rule="evenodd" fill="#000000" fill-opacity="1" stroke="#000000" stroke-opacity="1" stroke-width="0.1" stroke-linecap="round" stroke-linejoin="round"/>
<path id="path_b532dac3869b0f583996c8a0de6659fa" d="M 15.89055 19.93681 L 9.178451 26.64892 C 8.943255 26.48201 8.265811 25.79529 8.134868 25.60692 L 14.84771 18.89402 C 15.10907 18.63266 15.13394 18.19027 14.84771 17.90404 L 8.145361 11.20165 C 8.324027 10.97523 8.928769 10.34059 9.17818 10.14877 L 15.89058 16.86116 C 16.03059 17.00118 16.50103 17.24083 16.88062 16.86126 L 23.59024 10.15173 C 23.74877 10.27881 24.45393 10.9349 24.63592 11.1915 L 17.92337 17.90401 C 17.66207 18.16534 17.63715 18.60772 17.92335 18.89394 L 24.63545 25.60606 C 24.4306 25.89472 23.71041 26.55503 23.59204 26.64837 L 16.88052 19.93681 C 16.59741 19.6537 16.155 19.67237 15.89055 19.93681 Z" fill-rule="evenodd" fill="#000000" fill-opacity="1" stroke="#000000" stroke-opacity="1" stroke-width="0.1" stroke-linecap="round" stroke-linejoin="round"/>
<path id="path_dccb39cbde6eb1bfc582dfc7b31709b1" d="M 1.838379 18.08315 L 7.061464 12.86014 L 12.28451 18.08325 L 7.061464 23.30626 L 1.838379 18.08315 Z M 4.170996 18.08319 L 7.061468 20.97368 L 9.95193 18.08321 L 7.061464 15.19274 L 4.170996 18.08319 Z" fill-rule="evenodd" fill="#000000" fill-opacity="1" stroke="#000000" stroke-opacity="1" stroke-width="0.1" stroke-linecap="round" stroke-linejoin="round"/>
<path id="path_d4ce3ceb1fec3ca423835f79dbd95347" d="M 20.44292 18.39884 L 25.66599 13.17582 L 30.88903 18.39894 L 25.66599 23.62195 L 20.44292 18.39884 Z M 22.77554 18.39886 L 25.66599 21.28935 L 28.55643 18.39888 L 25.66599 15.50842 L 22.77554 18.39886 Z" fill-rule="evenodd" fill="#000000" fill-opacity="1" stroke="#000000" stroke-opacity="1" stroke-width="0.1" stroke-linecap="round" stroke-linejoin="round"/>
<path id="path_cd8e8e0888b0af0265e7421faa528fd5" d="M 11.11901 27.47295 L 16.34206 22.24996 L 21.56513 27.47304 L 16.34206 32.69609 L 11.11901 27.47295 Z M 13.45162 27.47299 L 16.34206 30.36347 L 19.23259 27.47303 L 16.34206 24.58254 L 13.45162 27.47299 Z" fill-rule="evenodd" fill="#000000" fill-opacity="1" stroke="#000000" stroke-opacity="1" stroke-width="0.1" stroke-linecap="round" stroke-linejoin="round"/>
<path id="path_e9ea99cd5825321f785d39e78ca77e67" d="M 43.62535 9.008993 L 48.84847 3.785952 L 54.07149 9.009039 L 48.84847 14.23205 L 43.62535 9.008993 Z M 45.958 9.009008 L 48.84847 11.89947 L 51.73892 9.009024 L 48.84847 6.118546 L 45.958 9.009008 Z" fill-rule="evenodd" fill="#000000" fill-opacity="1" stroke="#000000" stroke-opacity="1" stroke-width="0.1" stroke-linecap="round" stroke-linejoin="round"/>
<path id="path_28304c1554d5bce4bd013a2da1ef51a0" d="M 50.18116 18.38964 C 50.17804 18.56868 50.24336 18.75084 50.38646 18.89396 L 57.09856 25.60606 C 56.89368 25.8947 56.1735 26.55502 56.05514 26.64838 L 49.34363 19.93681 C 49.06054 19.6537 48.61811 19.67234 48.35367 19.93681 L 41.64155 26.64892 C 41.40636 26.482 40.72892 25.79526 40.59798 25.60689 L 47.31083 18.89401 C 47.57219 18.63264 47.59707 18.19026 47.3108 17.90402 L 40.60845 11.20163 C 40.78712 10.97521 41.39186 10.34058 41.64128 10.14877 L 48.35367 16.86117 C 48.49368 17.00119 48.96416 17.24084 49.34376 16.86123 L 56.05334 10.15171 C 56.21186 10.2788 56.917 10.93489 57.09899 11.19149 L 50.38652 17.904 C 50.25584 18.03467 50.18427 18.21059 50.18116 18.38964 Z" fill-rule="evenodd" fill="#000000" fill-opacity="1" stroke="#000000" stroke-opacity="1" stroke-width="0.1" stroke-linecap="round" stroke-linejoin="round"/>
<path id="path_0f15f3c15aba35b7f51ad8bbeeabbf76" d="M 34.30169 18.08313 L 39.52474 12.86012 L 44.74781 18.08325 L 39.52474 23.30625 L 34.30169 18.08313 Z M 36.6343 18.08318 L 39.52475 20.97367 L 42.41521 18.08319 L 39.52474 15.19272 L 36.6343 18.08318 Z" fill-rule="evenodd" fill="#000000" fill-opacity="1" stroke="#000000" stroke-opacity="1" stroke-width="0.1" stroke-linecap="round" stroke-linejoin="round"/>
<path id="path_e1045c3063f526a4e8966e0d79112691" d="M 52.90602 18.39883 L 58.12914 13.17579 L 63.35217 18.39887 L 58.12906 23.6219 L 52.90602 18.39883 Z M 55.23864 18.39884 L 58.12906 21.28931 L 61.01957 18.39885 L 58.12906 15.50838 L 55.23864 18.39884 Z" fill-rule="evenodd" fill="#000000" fill-opacity="1" stroke="#000000" stroke-opacity="1" stroke-width="0.1" stroke-linecap="round" stroke-linejoin="round"/>
<path id="path_ae521af093134954481134190622144d" d="M 43.58212 27.47294 L 48.80519 22.24996 L 54.02824 27.47304 L 48.80519 32.69606 L 43.58212 27.47294 Z M 45.91471 27.47297 L 48.80519 30.36345 L 51.69568 27.47303 L 48.80519 24.58254 L 45.91471 27.47297 Z" fill-rule="evenodd" fill="#000000" fill-opacity="1" stroke="#000000" stroke-opacity="1" stroke-width="0.1" stroke-linecap="round" stroke-linejoin="round"/>
<path id="path_b8b4ee0cb5f6705fccc6f01e1a2694a2" d="M 76.08859 9.009008 L 81.31168 3.785981 L 86.53475 9.009075 L 81.31168 14.23209 L 76.08859 9.009008 Z M 78.42123 9.009033 L 81.31168 11.8995 L 84.20217 9.00905 L 81.31168 6.118583 L 78.42123 9.009033 Z" fill-rule="evenodd" fill="#000000" fill-opacity="1" stroke="#000000" stroke-opacity="1" stroke-width="0.1" stroke-linecap="round" stroke-linejoin="round"/>
<path id="path_e6ac54d4eb704b3016d8c2abd07a00e0" d="M 80.81686 19.93686 L 74.10476 26.64894 C 73.86957 26.48204 73.19208 25.79532 73.06117 25.60693 L 79.77406 18.89402 C 80.03541 18.6327 80.06025 18.19028 79.77403 17.90406 L 73.07167 11.20166 C 73.25036 10.97525 73.85506 10.34061 74.10448 10.14879 L 80.81687 16.86118 C 80.95689 17.00121 81.42735 17.24085 81.80688 16.86127 L 88.51657 10.15175 C 88.67509 10.27883 89.38024 10.93493 89.56223 11.19153 L 82.84975 17.90402 C 82.58837 18.16538 82.56345 18.60774 82.84968 18.89398 L 89.56175 25.60608 C 89.3569 25.89472 88.63674 26.55505 88.51837 26.64841 L 81.80683 19.93686 C 81.52371 19.65374 81.08131 19.67241 80.81686 19.93686 Z" fill-rule="evenodd" fill="#000000" fill-opacity="1" stroke="#000000" stroke-opacity="1" stroke-width="0.1" stroke-linecap="round" stroke-linejoin="round"/>
<path id="path_e1ab41e043523dfe035c37322fe2e761" d="M 66.76501 18.08318 L 71.98809 12.86016 L 77.21115 18.08327 L 71.98803 23.30629 L 66.76501 18.08318 Z M 69.0976 18.08321 L 71.98809 20.97371 L 74.87852 18.08325 L 71.98809 15.19277 L 69.0976 18.08321 Z" fill-rule="evenodd" fill="#000000" fill-opacity="1" stroke="#000000" stroke-opacity="1" stroke-width="0.1" stroke-linecap="round" stroke-linejoin="round"/>
<path id="path_cdcf8442389af81c1809619890f07119" d="M 85.36922 18.39886 L 90.59227 13.17582 L 95.81533 18.39894 L 90.59232 23.62196 L 85.36922 18.39886 Z M 87.70187 18.39888 L 90.59227 21.28937 L 93.48277 18.39892 L 90.59227 15.50842 L 87.70187 18.39888 Z" fill-rule="evenodd" fill="#000000" fill-opacity="1" stroke="#000000" stroke-opacity="1" stroke-width="0.1" stroke-linecap="round" stroke-linejoin="round"/>
<path id="path_4608fb5cabc0bc89b8bacb06d0e49631" d="M 76.04533 27.47298 L 81.26835 22.24997 L 86.49143 27.47309 L 81.26835 32.69609 L 76.04533 27.47298 Z M 78.37789 27.47301 L 81.26839 30.36349 L 84.15885 27.47305 L 81.26835 24.58256 L 78.37789 27.47301 Z" fill-rule="evenodd" fill="#000000" fill-opacity="1" stroke="#000000" stroke-opacity="1" stroke-width="0.1" stroke-linecap="round" stroke-linejoin="round"/>
<path id="path_39d13c99b7e0b8e92422d7f2823ce8d0" d="M 108.5517 9.008991 L 113.7749 3.785961 L 118.9977 9.009035 L 113.7749 14.23205 L 108.5517 9.008991 Z M 110.8842 9.009012 L 113.7749 11.89947 L 116.6653 9.009018 L 113.7749 6.118551 L 110.8842 9.009012 Z" fill-rule="evenodd" fill="#000000" fill-opacity="1" stroke="#000000" stroke-opacity="1" stroke-width="0.1" stroke-linecap="round" stroke-linejoin="round"/>
<path id="path_55e85f8035a8a11f87851c4c7a23263f" d="M 113.2799 19.93682 L 106.5678 26.64894 C 106.3326 26.48203 105.6552 25.79529 105.5243 25.60691 L 112.2371 18.89402 C 112.4985 18.63266 112.5233 18.19023 112.2371 17.90401 L 105.5348 11.20164 C 105.7133 10.97522 106.3182 10.34057 106.5675 10.14876 L 113.28 16.86117 C 113.4199 17.00118 113.8904 17.24081 114.2701 16.86123 L 120.9796 10.15173 C 121.1381 10.27881 121.8432 10.93489 122.0251 11.1915 L 115.3128 17.90398 C 115.0514 18.16534 115.0265 18.60772 115.3126 18.89395 L 122.0248 25.60606 C 121.8198 25.89472 121.0998 26.55501 120.9814 26.64838 L 114.2699 19.93682 C 113.9868 19.6537 113.5444 19.67237 113.2799 19.93682 Z" fill-rule="evenodd" fill="#000000" fill-opacity="1" stroke="#000000" stroke-opacity="1" stroke-width="0.1" stroke-linecap="round" stroke-linejoin="round"/>
<path id="path_55bb02bd60c2db8eb1d3649e3ca62541" d="M 99.22826 18.08315 L 104.4513 12.86012 L 109.6744 18.08321 L 104.4513 23.30625 L 99.22826 18.08315 Z M 101.5608 18.08318 L 104.4513 20.97365 L 107.3417 18.08319 L 104.4513 15.19271 L 101.5608 18.08318 Z" fill-rule="evenodd" fill="#000000" fill-opacity="1" stroke="#000000" stroke-opacity="1" stroke-width="0.1" stroke-linecap="round" stroke-linejoin="round"/>
<path id="path_991d3e96c5bb66e2c943fdcc9408b585" d="M 117.8323 18.39884 L 123.0553 13.17579 L 128.2783 18.39887 L 123.0553 23.6219 L 117.8323 18.39884 Z M 120.1649 18.39885 L 123.0553 21.28932 L 125.9459 18.39885 L 123.0553 15.50837 L 120.1649 18.39885 Z" fill-rule="evenodd" fill="#000000" fill-opacity="1" stroke="#000000" stroke-opacity="1" stroke-width="0.1" stroke-linecap="round" stroke-linejoin="round"/>
<path id="path_d17df57a7588bad6f1c2c88747bb1fde" d="M 108.5084 27.47294 L 113.7315 22.24995 L 118.9545 27.47305 L 113.7315 32.69606 L 108.5084 27.47294 Z M 110.8411 27.473 L 113.7315 30.36347 L 116.6219 27.47305 L 113.7315 24.58254 L 110.8411 27.473 Z" fill-rule="evenodd" fill="#000000" fill-opacity="1" stroke="#000000" stroke-opacity="1" stroke-width="0.1" stroke-linecap="round" stroke-linejoin="round"/>
<path id="path_f1293055b1476ef86aef8aa166e3c9a3" d="M 141.0147 9.008993 L 146.2379 3.785956 L 151.461 9.009039 L 146.2379 14.23205 L 141.0147 9.008993 Z M 143.3475 9.009012 L 146.2379 11.89948 L 149.1284 9.00902 L 146.2379 6.118556 L 143.3475 9.009012 Z" fill-rule="evenodd" fill="#000000" fill-opacity="1" stroke="#000000" stroke-opacity="1" stroke-width="0.1" stroke-linecap="round" stroke-linejoin="round"/>
<path id="path_86322c46745b981c2516df6eb0469103" d="M 131.6911 18.08315 L 136.9142 12.86015 L 142.1372 18.08326 L 136.9142 23.30626 L 131.6911 18.08315 Z M 134.0238 18.0832 L 136.9142 20.97368 L 139.8047 18.08321 L 136.9142 15.19274 L 134.0238 18.0832 Z" fill-rule="evenodd" fill="#000000" fill-opacity="1" stroke="#000000" stroke-opacity="1" stroke-width="0.1" stroke-linecap="round" stroke-linejoin="round"/>
<path id="path_606662bd6a5125b3e9c14ad3fd748550" d="M 150.2955 18.39883 L 155.5186 13.17579 L 160.7414 18.39887 L 155.5186 23.62191 L 150.2955 18.39883 Z M 152.6279 18.39885 L 155.5186 21.28934 L 158.4091 18.39885 L 155.5186 15.50839 L 152.6279 18.39885 Z" fill-rule="evenodd" fill="#000000" fill-opacity="1" stroke="#000000" stroke-opacity="1" stroke-width="0.1" stroke-linecap="round" stroke-linejoin="round"/>
<path id="path_6a3c4a20af4dc00b61e74a37b8ccbcad" d="M 140.9714 27.47299 L 146.1945 22.24997 L 151.4176 27.47306 L 146.1945 32.69609 L 140.9714 27.47299 Z M 143.304 27.473 L 146.1945 30.36347 L 149.085 27.47306 L 146.1945 24.58254 L 143.304 27.473 Z" fill-rule="evenodd" fill="#000000" fill-opacity="1" stroke="#000000" stroke-opacity="1" stroke-width="0.1" stroke-linecap="round" stroke-linejoin="round"/>
<path id="path_85550d50b7c473598497e9c5d35eb0ea" d="M 173.4778 9.008986 L 178.701 3.785945 L 183.924 9.009017 L 178.701 14.23205 L 173.4778 9.008986 Z M 175.8105 9.00899 L 178.701 11.89947 L 181.5914 9.009009 L 178.701 6.118541 L 175.8105 9.00899 Z" fill-rule="evenodd" fill="#000000" fill-opacity="1" stroke="#000000" stroke-opacity="1" stroke-width="0.1" stroke-linecap="round" stroke-linejoin="round"/>
<path id="path_a8dc52a67914f08b6492e5e3a02a5e72" d="M 164.1541 18.08315 L 169.3771 12.86012 L 174.6003 18.08321 L 169.3771 23.30624 L 164.1541 18.08315 Z M 166.4868 18.08319 L 169.3774 20.97366 L 172.2677 18.08321 L 169.3771 15.19274 L 166.4868 18.08319 Z" fill-rule="evenodd" fill="#000000" fill-opacity="1" stroke="#000000" stroke-opacity="1" stroke-width="0.1" stroke-linecap="round" stroke-linejoin="round"/>
<path id="path_b8e9b17a33f8ab03b9814e2efe71b178" d="M 182.7587 18.39883 L 187.9816 13.17579 L 193.2046 18.39887 L 187.9816 23.62189 L 182.7587 18.39883 Z M 185.0911 18.39884 L 187.9816 21.28931 L 190.872 18.39885 L 187.9816 15.50837 L 185.0911 18.39884 Z" fill-rule="evenodd" fill="#000000" fill-opacity="1" stroke="#000000" stroke-opacity="1" stroke-width="0.1" stroke-linecap="round" stroke-linejoin="round"/>
<path id="path_5ffe2d84b1a657980b32a2fa6097cd40" d="M 173.4347 27.47295 L 178.6575 22.24995 L 183.8807 27.47305 L 178.6575 32.69604 L 173.4347 27.47295 Z M 175.7671 27.47299 L 178.6575 30.36347 L 181.5482 27.47304 L 178.6575 24.58253 L 175.7671 27.47299 Z" fill-rule="evenodd" fill="#000000" fill-opacity="1" stroke="#000000" stroke-opacity="1" stroke-width="0.1" stroke-linecap="round" stroke-linejoin="round"/>
<path id="path_ace99d81143dc8ba304a3bb281f52522" d="M 205.941 9.00901 L 211.1642 3.785979 L 216.3874 9.009069 L 211.1642 14.2321 L 205.941 9.00901 Z M 208.2738 9.009019 L 211.1642 11.89951 L 214.0547 9.009035 L 211.1642 6.118586 L 208.2738 9.009019 Z" fill-rule="evenodd" fill="#000000" fill-opacity="1" stroke="#000000" stroke-opacity="1" stroke-width="0.1" stroke-linecap="round" stroke-linejoin="round"/>
<path id="path_85ba7a2b3f3cf04fb1cdc3aec44e0f2c" d="M 212.497 18.38967 C 212.4939 18.56872 212.5594 18.75087 212.7024 18.89398 L 219.4145 25.60608 C 219.2097 25.89472 218.4892 26.55501 218.371 26.64838 L 211.6595 19.93686 C 211.3764 19.65374 210.934 19.6724 210.6695 19.93686 L 203.9573 26.64898 C 203.7222 26.48204 203.0446 25.79531 202.9138 25.60693 L 209.6265 18.89402 C 209.8882 18.63271 209.9128 18.19028 209.6265 17.90406 L 202.9242 11.20165 C 203.1029 10.97523 203.7078 10.34061 203.9573 10.14879 L 210.6695 16.86118 C 210.8096 17.00121 211.28 17.24085 211.6597 16.86126 L 218.369 10.15176 C 218.5278 10.27884 219.2328 10.93493 219.4147 11.19153 L 212.7024 17.90401 C 212.5717 18.03469 212.5002 18.21063 212.497 18.38967 Z" fill-rule="evenodd" fill="#000000" fill-opacity="1" stroke="#000000" stroke-opacity="1" stroke-width="0.1" stroke-linecap="round" stroke-linejoin="round"/>
<path id="path_7301a97fea86f15ef0be429d7de73147" d="M 196.6173 18.08319 L 201.8402 12.86016 L 207.0632 18.08329 L 201.8402 23.30628 L 196.6173 18.08319 Z M 198.9497 18.08321 L 201.8403 20.97368 L 204.7305 18.08325 L 201.8402 15.19277 L 198.9497 18.08321 Z" fill-rule="evenodd" fill="#000000" fill-opacity="1" stroke="#000000" stroke-opacity="1" stroke-width="0.1" stroke-linecap="round" stroke-linejoin="round"/>
<path id="path_8510f17f77a2d6d9a4909638e0dcf951" d="M 215.2218 18.39885 L 220.4449 13.17581 L 225.6678 18.39891 L 220.4449 23.62194 L 215.2218 18.39885 Z M 217.5544 18.39888 L 220.4449 21.28935 L 223.3352 18.39893 L 220.4449 15.50842 L 217.5544 18.39888 Z" fill-rule="evenodd" fill="#000000" fill-opacity="1" stroke="#000000" stroke-opacity="1" stroke-width="0.1" stroke-linecap="round" stroke-linejoin="round"/>
<path id="path_28179c691801202f90ade3c9f41ec9a3" d="M 205.898 27.47296 L 211.1209 22.24997 L 216.344 27.47307 L 211.1209 32.69609 L 205.898 27.47296 Z M 208.2305 27.47299 L 211.1209 30.36348 L 214.0114 27.47304 L 211.1209 24.58259 L 208.2305 27.47299 Z" fill-rule="evenodd" fill="#000000" fill-opacity="1" stroke="#000000" stroke-opacity="1" stroke-width="0.1" stroke-linecap="round" stroke-linejoin="round"/>
<path id="path_d847faf393c45b630803bf719cb27623" d="M 238.4041 9.008978 L 243.6271 3.785941 L 248.8501 9.009016 L 243.6271 14.23207 L 238.4041 9.008978 Z M 240.7365 9.008989 L 243.6271 11.89948 L 246.5177 9.009024 L 243.6271 6.118557 L 240.7365 9.008989 Z" fill-rule="evenodd" fill="#000000" fill-opacity="1" stroke="#000000" stroke-opacity="1" stroke-width="0.1" stroke-linecap="round" stroke-linejoin="round"/>
<path id="path_67db82f288b969ea044242a2da96fe24" d="M 244.9598 18.38963 C 244.9566 18.56868 245.0219 18.75085 245.1651 18.89396 L 251.8773 25.60607 C 251.6723 25.89469 250.9521 26.55497 250.8338 26.64836 L 244.1221 19.93682 C 243.8392 19.6537 243.3968 19.67238 243.1322 19.93682 L 236.4202 26.64892 C 236.1849 26.48202 235.5077 25.79529 235.3767 25.60692 L 242.0895 18.89401 C 242.3508 18.63267 242.3757 18.19026 242.0895 17.90402 L 235.3871 11.20163 C 235.5657 10.97521 236.1707 10.34056 236.42 10.14877 L 243.1322 16.86113 C 243.2724 17.00115 243.7427 17.24084 244.1223 16.86127 L 250.8318 10.15172 C 250.9904 10.27878 251.6955 10.93489 251.8776 11.19149 L 245.1651 17.90398 C 245.0344 18.03465 244.9628 18.21059 244.9598 18.38963 Z" fill-rule="evenodd" fill="#000000" fill-opacity="1" stroke="#000000" stroke-opacity="1" stroke-width="0.1" stroke-linecap="round" stroke-linejoin="round"/>
<path id="path_bb2b9d0981f2b8ebd61304b976c144ab" d="M 229.0802 18.08313 L 234.3033 12.86012 L 239.5264 18.08321 L 234.3033 23.30624 L 229.0802 18.08313 Z M 231.4128 18.08319 L 234.3033 20.97366 L 237.1936 18.08325 L 234.3033 15.19272 L 231.4128 18.08319 Z" fill-rule="evenodd" fill="#000000" fill-opacity="1" stroke="#000000" stroke-opacity="1" stroke-width="0.1" stroke-linecap="round" stroke-linejoin="round"/>
<path id="path_d371daed789dfb52761843721755042d" d="M 247.6847 18.39884 L 252.9076 13.17579 L 258.1308 18.39891 L 252.9076 23.62189 L 247.6847 18.39884 Z M 250.0172 18.39885 L 252.9076 21.28931 L 255.7981 18.39888 L 252.9076 15.50838 L 250.0172 18.39885 Z" fill-rule="evenodd" fill="#000000" fill-opacity="1" stroke="#000000" stroke-opacity="1" stroke-width="0.1" stroke-linecap="round" stroke-linejoin="round"/>
<path id="path_e36045043c0c6c73d00937661fbf2db0" d="M 238.3608 27.47296 L 243.5839 22.24995 L 248.8068 27.47305 L 243.5839 32.69607 L 238.3608 27.47296 Z M 240.6934 27.47296 L 243.5839 30.36344 L 246.4743 27.47304 L 243.5839 24.58253 L 240.6934 27.47296 Z" fill-rule="evenodd" fill="#000000" fill-opacity="1" stroke="#000000" stroke-opacity="1" stroke-width="0.1" stroke-linecap="round" stroke-linejoin="round"/>
<path id="path_b41dbb9c01378566f8e68256b2f9957e" d="M 261.5435 18.08315 L 266.7663 12.86012 L 271.9893 18.08321 L 266.7663 23.30624 L 261.5435 18.08315 Z M 263.8759 18.08319 L 266.7663 20.97368 L 269.6568 18.08325 L 266.7663 15.19272 L 263.8759 18.08319 Z" fill-rule="evenodd" fill="#000000" fill-opacity="1" stroke="#000000" stroke-opacity="1" stroke-width="0.1" stroke-linecap="round" stroke-linejoin="round"/>
<path id="path_a64971e423c696f9e6de69cc5c73bbb7" d="M 254.2639 9.008945 L 259.4869 3.785889 L 264.71 9.008997 L 259.4869 14.23198 L 254.2639 9.008945 Z M 256.5964 9.008929 L 259.4869 11.8994 L 262.3774 9.008988 L 259.4868 6.118479 L 256.5964 9.008929 Z" fill-rule="evenodd" fill="#000000" fill-opacity="1" stroke="#000000" stroke-opacity="1" stroke-width="0.1" stroke-linecap="round" stroke-linejoin="round"/>
<path id="path_8c4e2f4750e323a39f453589549a17d8" d="M 254.2639 27.47305 L 259.4869 22.24997 L 264.71 27.47309 L 259.4869 32.69609 L 254.2639 27.47305 Z M 256.5965 27.47304 L 259.4868 30.36351 L 262.3774 27.47309 L 259.4869 24.5826 L 256.5965 27.47304 Z" fill-rule="evenodd" fill="#000000" fill-opacity="1" stroke="#000000" stroke-opacity="1" stroke-width="0.1" stroke-linecap="round" stroke-linejoin="round"/>
<path id="path_c1f5f9c85306cb21e6805fa61bb326a4" d="M 222.1102 9.086119 L 227.3331 3.86306 L 232.5561 9.086159 L 227.3332 14.30916 L 222.1102 9.086119 Z M 224.4426 9.086124 L 227.3331 11.9766 L 230.2236 9.086147 L 227.3331 6.195672 L 224.4426 9.086124 Z" fill-rule="evenodd" fill="#000000" fill-opacity="1" stroke="#000000" stroke-opacity="1" stroke-width="0.1" stroke-linecap="round" stroke-linejoin="round"/>
<path id="path_4af5ad0bd61e45293f2a1f5caa9e0f34" d="M 222.1103 27.55021 L 227.3332 22.32713 L 232.5562 27.55026 L 227.3333 32.77325 L 222.1103 27.55021 Z M 224.4427 27.55021 L 227.3332 30.44065 L 230.2237 27.55021 L 227.3332 24.65974 L 224.4427 27.55021 Z" fill-rule="evenodd" fill="#000000" fill-opacity="1" stroke="#000000" stroke-opacity="1" stroke-width="0.1" stroke-linecap="round" stroke-linejoin="round"/>
<path id="path_a8895db6f30887b3680e5c748a7fefcf" d="M 189.9218 8.688729 L 195.145 3.465651 L 200.3678 8.688777 L 195.145 13.91177 L 189.9218 8.688729 Z M 192.2541 8.688719 L 195.145 11.5792 L 198.0352 8.688777 L 195.145 5.798282 L 192.2541 8.688719 Z" fill-rule="evenodd" fill="#000000" fill-opacity="1" stroke="#000000" stroke-opacity="1" stroke-width="0.1" stroke-linecap="round" stroke-linejoin="round"/>
<path id="path_28ee50baeed4a22d12689596592dab89" d="M 189.9218 27.1528 L 195.145 21.92976 L 200.3678 27.15283 L 195.145 32.37585 L 189.9218 27.1528 Z M 192.2541 27.1528 L 195.145 30.04327 L 198.0352 27.15283 L 195.145 24.26234 L 192.2541 27.1528 Z" fill-rule="evenodd" fill="#000000" fill-opacity="1" stroke="#000000" stroke-opacity="1" stroke-width="0.1" stroke-linecap="round" stroke-linejoin="round"/>
<path id="path_598c5836d58239158d8d36c9ebc1dcc6" d="M 157.1902 8.688742 L 162.4132 3.465657 L 167.6362 8.688778 L 162.4132 13.91178 L 157.1902 8.688742 Z M 159.5227 8.688726 L 162.4132 11.57919 L 165.3036 8.688765 L 162.4132 5.798273 L 159.5227 8.688726 Z" fill-rule="evenodd" fill="#000000" fill-opacity="1" stroke="#000000" stroke-opacity="1" stroke-width="0.1" stroke-linecap="round" stroke-linejoin="round"/>
<path id="path_0e63a20d5005bd6c5ca5aaa412f651fb" d="M 179.1961 19.93682 C 178.9129 19.65369 178.4705 19.67238 178.2063 19.93682 L 171.4938 26.64892 C 171.2587 26.482 170.5814 25.79527 170.4504 25.60689 L 177.1633 18.89401 C 177.4247 18.63265 177.4494 18.19023 177.1632 17.90399 L 170.4609 11.20163 C 170.6396 10.97521 171.2443 10.34057 171.4937 10.14876 L 178.2063 16.86117 C 178.3464 17.00118 178.8167 17.24082 179.1961 16.86121 L 185.9058 10.15171 C 186.0643 10.27878 186.7695 10.9349 186.9515 11.19148 L 180.239 17.90398 C 179.9778 18.16534 179.9528 18.60772 180.239 18.89395 L 186.9509 25.60604 C 186.7462 25.89471 186.026 26.55501 185.9078 26.64838 L 179.1961 19.93682 Z" fill-rule="evenodd" fill="#000000" fill-opacity="1" stroke="#000000" stroke-opacity="1" stroke-width="0.1" stroke-linecap="round" stroke-linejoin="round"/>
<path id="path_f61f938004cd30056d783ff2c8d1fc17" d="M 157.1902 27.1528 L 162.4133 21.92972 L 167.6362 27.15286 L 162.4133 32.37585 L 157.1902 27.1528 Z M 159.5227 27.1528 L 162.4133 30.04325 L 165.3036 27.15281 L 162.4133 24.26234 L 159.5227 27.1528 Z" fill-rule="evenodd" fill="#000000" fill-opacity="1" stroke="#000000" stroke-opacity="1" stroke-width="0.1" stroke-linecap="round" stroke-linejoin="round"/>
<path id="path_1854afcc0f0cec8275ec18cba717405b" d="M 124.9379 9.037639 L 130.1609 3.814569 L 135.3839 9.037676 L 130.1609 14.26068 L 124.9379 9.037639 Z M 127.2704 9.037624 L 130.1608 11.92808 L 133.0514 9.037661 L 130.1608 6.147178 L 127.2704 9.037624 Z" fill-rule="evenodd" fill="#000000" fill-opacity="1" stroke="#000000" stroke-opacity="1" stroke-width="0.1" stroke-linecap="round" stroke-linejoin="round"/>
<path id="path_acc8e0b47e07376553f2d6debe6d94f9" d="M 146.7331 19.93684 C 146.4499 19.65373 146.0074 19.67238 145.7432 19.93684 L 139.0309 26.64894 C 138.7957 26.48202 138.1183 25.79527 137.9873 25.60692 L 144.7001 18.89402 C 144.9616 18.63269 144.9862 18.19028 144.7001 17.90405 L 137.9978 11.20164 C 138.1765 10.97522 138.7812 10.34057 139.0306 10.14878 L 145.7432 16.86117 C 145.8831 17.00118 146.3536 17.24083 146.7331 16.86124 L 153.4427 10.15173 C 153.6012 10.2788 154.3062 10.93489 154.4882 11.19148 L 147.7759 17.90401 C 147.5146 18.16535 147.4895 18.60772 147.7758 18.89395 L 154.4879 25.60606 C 154.2832 25.89472 153.5629 26.555 153.4446 26.64838 L 146.7331 19.93684 Z" fill-rule="evenodd" fill="#000000" fill-opacity="1" stroke="#000000" stroke-opacity="1" stroke-width="0.1" stroke-linecap="round" stroke-linejoin="round"/>
<path id="path_a08b1c40c1465d7722170cb4c820d675" d="M 124.9379 27.50171 L 130.161 22.27866 L 135.3839 27.50177 L 130.161 32.72478 L 124.9379 27.50171 Z M 127.2703 27.50171 L 130.1609 30.39217 L 133.0515 27.50175 L 130.1609 24.61127 L 127.2703 27.50171 Z" fill-rule="evenodd" fill="#000000" fill-opacity="1" stroke="#000000" stroke-opacity="1" stroke-width="0.1" stroke-linecap="round" stroke-linejoin="round"/>
<path id="path_ad95361c00e8a3a1eebbcb3502ffb833" d="M 92.1926 9.03426 L 97.4157 3.811206 L 102.6386 9.034298 L 97.4157 14.2573 L 92.1926 9.03426 Z M 94.52509 9.03426 L 97.4156 11.92471 L 100.3061 9.034298 L 97.4156 6.143795 L 94.52509 9.03426 Z" fill-rule="evenodd" fill="#000000" fill-opacity="1" stroke="#000000" stroke-opacity="1" stroke-width="0.1" stroke-linecap="round" stroke-linejoin="round"/>
<path id="path_697593bfe11c45d6c9fec6ea6de336d6" d="M 92.19257 27.49838 L 97.41566 22.2753 L 102.6385 27.49839 L 97.41566 32.72141 L 92.19257 27.49838 Z M 94.52505 27.49835 L 97.41557 30.38882 L 100.3061 27.49839 L 97.41557 24.6079 L 94.52505 27.49835 Z" fill-rule="evenodd" fill="#000000" fill-opacity="1" stroke="#000000" stroke-opacity="1" stroke-width="0.1" stroke-linecap="round" stroke-linejoin="round"/>
<path id="path_5d2196bfd6d34d436c2c2d988a7732a8" d="M 59.29825 9.433967 L 64.52126 4.2109 L 69.74432 9.434002 L 64.52132 14.65702 L 59.29825 9.433967 Z M 61.6308 9.433953 L 64.52124 12.32442 L 67.4117 9.433994 L 64.52124 6.543499 L 61.6308 9.433953 Z" fill-rule="evenodd" fill="#000000" fill-opacity="1" stroke="#000000" stroke-opacity="1" stroke-width="0.1" stroke-linecap="round" stroke-linejoin="round"/>
<path id="path_383324962c2093dd7bfd9dd9e801981e" d="M 59.29824 27.89802 L 64.52127 22.67498 L 69.74433 27.8981 L 64.52133 33.12112 L 59.29824 27.89802 Z M 61.63079 27.89802 L 64.52125 30.7885 L 67.41171 27.89808 L 64.52125 25.00758 L 61.63079 27.89802 Z" fill-rule="evenodd" fill="#000000" fill-opacity="1" stroke="#000000" stroke-opacity="1" stroke-width="0.1" stroke-linecap="round" stroke-linejoin="round"/>
<path id="path_247b3185e25994f4b7dd6593cc21a4c7" d="M 26.95023 9.430611 L 32.1733 4.207531 L 37.39631 9.430647 L 32.17333 14.65368 L 26.95023 9.430611 Z M 29.28278 9.430597 L 32.17325 12.32106 L 35.0637 9.430632 L 32.17325 6.540143 L 29.28278 9.430597 Z" fill-rule="evenodd" fill="#000000" fill-opacity="1" stroke="#000000" stroke-opacity="1" stroke-width="0.1" stroke-linecap="round" stroke-linejoin="round"/>
<path id="path_eb0be738b71ea35566c9cdeb58348c64" d="M 26.95023 27.89468 L 32.17324 22.67162 L 37.39626 27.89471 L 32.17329 33.11774 L 26.95023 27.89468 Z M 29.28278 27.89468 L 32.17324 30.78514 L 35.0637 27.89471 L 32.17324 25.00423 L 29.28278 27.89468 Z" fill-rule="evenodd" fill="#000000" fill-opacity="1" stroke="#000000" stroke-opacity="1" stroke-width="0.1" stroke-linecap="round" stroke-linejoin="round"/>
<path id="path_bb4849a16d40bd09bec925cf143f337f" d="M 270.9 -0.2212895 L 270.9 1.671339 L 270.8011 1.671319 L 270.8012 -0.1987554 L 270.7973 -0.2008615 C 270.7973 -0.1981834 270.7911 -0.1992015 270.7911 -0.1939684 L 270.7911 1.671316 L -0.0000153 1.627981 L 3.822148e-6 -0.2286665 L 270.9 -0.2212895 Z" fill-rule="evenodd" fill="#000000" fill-opacity="1" stroke="none" stroke-opacity="1" stroke-width="0.132292" stroke-linecap="butt" stroke-linejoin="miter"/>
<path id="path_e6c3eee308249627a43cbcb859fc297e" d="M 270.9 34.60303 L 270.8005 34.60301 L 270.8005 32.7104 L 270.9 32.7104 L 270.9 34.60303 Z" fill-rule="evenodd" fill="#000000" fill-opacity="1" stroke="none" stroke-opacity="1" stroke-width="0.132292" stroke-linecap="butt" stroke-linejoin="miter"/>
<path id="path_d57a5a14c45dda09cc0e64d40cbe2241" d="M 270.7911 35.8136 L -0.0000153 35.77026 L 1.832843e-6 33.91362 L 270.7911 33.92099 L 270.7911 35.8136 Z" fill-rule="evenodd" fill="#000000" fill-opacity="1" stroke="none" stroke-opacity="1" stroke-width="0.132292" stroke-linecap="butt" stroke-linejoin="miter"/>
</defs>
<g>
<g>
<g>
<use xlink:href="#path_c7e6a59c192fc4066d38773ecb182abb"/>
</g>
</g>
</g>
<g>
<g>
<g>
<use xlink:href="#path_b532dac3869b0f583996c8a0de6659fa"/>
</g>
</g>
</g>
<g>
<g>
<g>
<use xlink:href="#path_dccb39cbde6eb1bfc582dfc7b31709b1"/>
</g>
</g>
</g>
<g>
<g>
<g>
<use xlink:href="#path_d4ce3ceb1fec3ca423835f79dbd95347"/>
</g>
</g>
</g>
<g>
<g>
<g>
<use xlink:href="#path_cd8e8e0888b0af0265e7421faa528fd5"/>
</g>
</g>
</g>
<g>
<g>
<g>
<use xlink:href="#path_e9ea99cd5825321f785d39e78ca77e67"/>
</g>
</g>
</g>
<g>
<g>
<g>
<use xlink:href="#path_28304c1554d5bce4bd013a2da1ef51a0"/>
</g>
</g>
</g>
<g>
<g>
<g>
<use xlink:href="#path_0f15f3c15aba35b7f51ad8bbeeabbf76"/>
</g>
</g>
</g>
<g>
<g>
<g>
<use xlink:href="#path_e1045c3063f526a4e8966e0d79112691"/>
</g>
</g>
</g>
<g>
<g>
<g>
<use xlink:href="#path_ae521af093134954481134190622144d"/>
</g>
</g>
</g>
<g>
<g>
<g>
<use xlink:href="#path_b8b4ee0cb5f6705fccc6f01e1a2694a2"/>
</g>
</g>
</g>
<g>
<g>
<g>
<use xlink:href="#path_e6ac54d4eb704b3016d8c2abd07a00e0"/>
</g>
</g>
</g>
<g>
<g>
<g>
<use xlink:href="#path_e1ab41e043523dfe035c37322fe2e761"/>
</g>
</g>
</g>
<g>
<g>
<g>
<use xlink:href="#path_cdcf8442389af81c1809619890f07119"/>
</g>
</g>
</g>
<g>
<g>
<g>
<use xlink:href="#path_4608fb5cabc0bc89b8bacb06d0e49631"/>
</g>
</g>
</g>
<g>
<g>
<g>
<use xlink:href="#path_39d13c99b7e0b8e92422d7f2823ce8d0"/>
</g>
</g>
</g>
<g>
<g>
<g>
<use xlink:href="#path_55e85f8035a8a11f87851c4c7a23263f"/>
</g>
</g>
</g>
<g>
<g>
<g>
<use xlink:href="#path_55bb02bd60c2db8eb1d3649e3ca62541"/>
</g>
</g>
</g>
<g>
<g>
<g>
<use xlink:href="#path_991d3e96c5bb66e2c943fdcc9408b585"/>
</g>
</g>
</g>
<g>
<g>
<g>
<use xlink:href="#path_d17df57a7588bad6f1c2c88747bb1fde"/>
</g>
</g>
</g>
<g>
<g>
<g>
<use xlink:href="#path_f1293055b1476ef86aef8aa166e3c9a3"/>
</g>
</g>
</g>
<g>
<g>
<g>
<use xlink:href="#path_86322c46745b981c2516df6eb0469103"/>
</g>
</g>
</g>
<g>
<g>
<g>
<use xlink:href="#path_606662bd6a5125b3e9c14ad3fd748550"/>
</g>
</g>
</g>
<g>
<g>
<g>
<use xlink:href="#path_6a3c4a20af4dc00b61e74a37b8ccbcad"/>
</g>
</g>
</g>
<g>
<g>
<g>
<use xlink:href="#path_85550d50b7c473598497e9c5d35eb0ea"/>
</g>
</g>
</g>
<g>
<g>
<g>
<use xlink:href="#path_a8dc52a67914f08b6492e5e3a02a5e72"/>
</g>
</g>
</g>
<g>
<g>
<g>
<use xlink:href="#path_b8e9b17a33f8ab03b9814e2efe71b178"/>
</g>
</g>
</g>
<g>
<g>
<g>
<use xlink:href="#path_5ffe2d84b1a657980b32a2fa6097cd40"/>
</g>
</g>
</g>
<g>
<g>
<g>
<use xlink:href="#path_ace99d81143dc8ba304a3bb281f52522"/>
</g>
</g>
</g>
<g>
<g>
<g>
<use xlink:href="#path_85ba7a2b3f3cf04fb1cdc3aec44e0f2c"/>
</g>
</g>
</g>
<g>
<g>
<g>
<use xlink:href="#path_7301a97fea86f15ef0be429d7de73147"/>
</g>
</g>
</g>
<g>
<g>
<g>
<use xlink:href="#path_8510f17f77a2d6d9a4909638e0dcf951"/>
</g>
</g>
</g>
<g>
<g>
<g>
<use xlink:href="#path_28179c691801202f90ade3c9f41ec9a3"/>
</g>
</g>
</g>
<g>
<g>
<g>
<use xlink:href="#path_d847faf393c45b630803bf719cb27623"/>
</g>
</g>
</g>
<g>
<g>
<g>
<use xlink:href="#path_67db82f288b969ea044242a2da96fe24"/>
</g>
</g>
</g>
<g>
<g>
<g>
<use xlink:href="#path_bb2b9d0981f2b8ebd61304b976c144ab"/>
</g>
</g>
</g>
<g>
<g>
<g>
<use xlink:href="#path_d371daed789dfb52761843721755042d"/>
</g>
</g>
</g>
<g>
<g>
<g>
<use xlink:href="#path_e36045043c0c6c73d00937661fbf2db0"/>
</g>
</g>
</g>
<g>
<g>
<g>
<use xlink:href="#path_b41dbb9c01378566f8e68256b2f9957e"/>
</g>
</g>
</g>
<g>
<g>
<g>
<use xlink:href="#path_a64971e423c696f9e6de69cc5c73bbb7"/>
</g>
</g>
</g>
<g>
<g>
<g>
<use xlink:href="#path_8c4e2f4750e323a39f453589549a17d8"/>
</g>
</g>
</g>
<g>
<g>
<g>
<use xlink:href="#path_c1f5f9c85306cb21e6805fa61bb326a4"/>
</g>
</g>
</g>
<g>
<g>
<g>
<use xlink:href="#path_4af5ad0bd61e45293f2a1f5caa9e0f34"/>
</g>
</g>
</g>
<g>
<g>
<g>
<use xlink:href="#path_a8895db6f30887b3680e5c748a7fefcf"/>
</g>
</g>
</g>
<g>
<g>
<g>
<use xlink:href="#path_28ee50baeed4a22d12689596592dab89"/>
</g>
</g>
</g>
<g>
<g>
<g>
<use xlink:href="#path_598c5836d58239158d8d36c9ebc1dcc6"/>
</g>
</g>
</g>
<g>
<g>
<g>
<use xlink:href="#path_0e63a20d5005bd6c5ca5aaa412f651fb"/>
</g>
</g>
</g>
<g>
<g>
<g>
<use xlink:href="#path_f61f938004cd30056d783ff2c8d1fc17"/>
</g>
</g>
</g>
<g>
<g>
<g>
<use xlink:href="#path_1854afcc0f0cec8275ec18cba717405b"/>
</g>
</g>
</g>
<g>
<g>
<g>
<use xlink:href="#path_acc8e0b47e07376553f2d6debe6d94f9"/>
</g>
</g>
</g>
<g>
<g>
<g>
<use xlink:href="#path_a08b1c40c1465d7722170cb4c820d675"/>
</g>
</g>
</g>
<g>
<g>
<g>
<use xlink:href="#path_ad95361c00e8a3a1eebbcb3502ffb833"/>
</g>
</g>
</g>
<g>
<g>
<g>
<use xlink:href="#path_697593bfe11c45d6c9fec6ea6de336d6"/>
</g>
</g>
</g>
<g>
<g>
<g>
<use xlink:href="#path_5d2196bfd6d34d436c2c2d988a7732a8"/>
</g>
</g>
</g>
<g>
<g>
<g>
<use xlink:href="#path_383324962c2093dd7bfd9dd9e801981e"/>
</g>
</g>
</g>
<g>
<g>
<g>
<use xlink:href="#path_247b3185e25994f4b7dd6593cc21a4c7"/>
</g>
</g>
</g>
<g>
<g>
<g>
<use xlink:href="#path_eb0be738b71ea35566c9cdeb58348c64"/>
</g>
</g>
</g>
<g>
<g>
<g>
<use xlink:href="#path_bb4849a16d40bd09bec925cf143f337f"/>
</g>
</g>
</g>
<g>
<g>
<g>
<use xlink:href="#path_e6c3eee308249627a43cbcb859fc297e"/>
</g>
</g>
</g>
<g>
<g>
<g>
<use xlink:href="#path_d57a5a14c45dda09cc0e64d40cbe2241"/>
</g>
</g>
</g>
</svg>