<?xml version="1.0" encoding="utf-8"?>
<!DOCTYPE svg PUBLIC "-//W3C//DTD SVG 1.1//EN" "http://www.w3.org/Graphics/SVG/1.1/DTD/svg11.dtd">
<!-- exported from Silhouette Studio® Business Edition V5.0.414ssbe -->
<svg version="1.1" xmlns="http://www.w3.org/2000/svg" xmlns:xlink="http://www.w3.org/1999/xlink" width="270.9333mm" height="34.78112mm" viewBox="0 0 270.9333 34.78112">
<defs>
<path id="path_08816cd74696462780f27929fcb65953" d="M 19.68318 31.93699 C 19.00514 30.89692 20.55959 29.93912 21.33453 30.80425 C 22.32326 31.90805 20.47058 33.14481 19.68318 31.93699 Z M 11.48984 31.04407 C 11.07889 29.83794 12.60588 29.38429 13.15839 29.95786 C 14.15289 30.99026 12.02921 32.62711 11.48984 31.04407 Z M 15.64685 19.77641 C 16.30679 21.99233 20.98277 23.68811 22.0692 19.72385 C 20.20056 18.02084 18.49118 18.99769 18.6779 17.45941 C 18.9243 15.42951 24.67601 16.31505 24.6373 19.76543 C 24.5844 24.47969 15.65466 26.79729 13.44881 20.67178 C 11.24348 14.54781 19.90662 10.08406 25.19887 12.7879 C 32.85515 16.69952 29.59612 24.15085 26.24471 26.61559 C 18.89886 32.01794 8.151047 28.06648 7.800827 19.35148 C 7.400146 9.380638 21.38116 5.452801 25.19887 7.971428 C 22.6862 9.37088 3.641448 12.26294 11.51944 23.29813 C 17.51303 31.69375 31.40208 23.70412 26.94943 17.0744 C 22.93231 11.09314 14.45273 15.76686 15.64685 19.77641 Z M 5.614624 28.30598 C 4.829361 27.33594 6.250031 25.95441 7.312332 26.60948 C 8.905823 27.59208 6.581085 29.49991 5.614624 28.30598 Z M 2.905502 21.55198 C 1.414902 20.3289 3.158768 18.48352 4.397858 19.32832 C 5.592728 20.14295 4.561752 22.91094 2.905502 21.55198 Z M 4.682938 14.18464 C 3.079971 13.45348 4.375793 11.13909 5.582275 11.28316 C 7.271393 11.48486 6.562271 15.04187 4.682938 14.18464 Z M 10.32031 8.696625 C 9.05043 7.78997 10.76253 5.55056 11.82834 6.102497 C 13.10732 6.764824 11.68787 9.673031 10.32031 8.696625 Z M 18.46034 5.573708 C 17.20935 4.483112 18.76932 3.204674 19.89761 3.852005 C 21.68735 4.878811 19.71135 6.664299 18.46034 5.573708 Z" fill-rule="evenodd" fill="#000000" fill-opacity="1" stroke="#000000" stroke-opacity="1" stroke-width="0.1" stroke-linecap="round" stroke-linejoin="round"/>
<path id="path_96acb8dd3d1a07ac6532b0254ca3502a" d="M 35.00246 14.73232 C 36.05265 15.39455 36.98685 13.8258 36.1101 13.06401 C 34.9915 12.09208 33.78288 13.96324 35.00246 14.73232 Z M 36.01904 22.91119 C 37.23124 23.30386 37.66179 21.77015 37.07994 21.22639 C 36.03262 20.24759 34.42803 22.39579 36.01904 22.91119 Z M 47.22263 18.5844 C 44.99699 17.95801 43.23075 13.30822 47.17813 12.16202 C 48.90918 14.00471 47.95826 15.72865 49.49354 15.51872 C 51.51948 15.24168 50.54714 9.504023 47.09773 9.594879 C 42.38483 9.719006 40.20243 18.68268 46.36055 20.79573 C 52.51714 22.90824 56.84946 14.17871 54.06598 8.927933 C 50.03912 1.33166 42.6379 4.702872 40.22408 8.091125 C 34.93335 15.51774 39.04675 26.20463 47.76602 26.42313 C 57.74177 26.67309 61.4579 12.63438 58.88189 8.855164 C 57.52056 11.38866 54.9166 30.47491 43.76365 22.76457 C 35.27844 16.89852 43.05728 2.890399 49.75352 7.242355 C 55.79478 11.16861 51.24975 19.7178 47.22263 18.5844 Z M 38.84559 28.74437 C 39.82739 29.51487 41.18731 28.07352 40.51627 27.02122 C 39.5097 25.44278 37.6372 27.79606 38.84559 28.74437 Z M 45.63976 31.3511 C 46.88521 32.82306 48.70404 31.05153 47.84061 29.82533 C 47.00803 28.64292 44.25593 29.71559 45.63976 31.3511 Z M 52.97937 29.46255 C 53.73467 31.05431 56.02921 29.72365 55.86693 28.51947 C 55.63974 26.83362 52.09386 27.59639 52.97937 29.46255 Z M 58.38158 23.74294 C 59.30732 24.99896 61.52061 23.25318 60.95263 22.19583 C 60.27106 20.92702 57.38463 22.39029 58.38158 23.74294 Z M 61.38115 15.55664 C 62.49052 16.79103 63.74523 15.21194 63.08092 14.09355 C 62.02719 12.31957 60.27179 14.32227 61.38115 15.55664 Z" fill-rule="evenodd" fill="#000000" fill-opacity="1" stroke="#000000" stroke-opacity="1" stroke-width="0.1" stroke-linecap="round" stroke-linejoin="round"/>
<path id="path_fc363a2f8595c8465e920ad35184f42c" d="M 78.4218 3.615311 C 79.07025 4.674055 77.48944 5.587697 76.73918 4.701088 C 75.78194 3.56989 77.66872 2.38579 78.4218 3.615311 Z M 86.58669 4.738617 C 86.96349 5.955835 85.42438 6.366315 84.88824 5.77742 C 83.92319 4.717412 86.0921 3.141008 86.58669 4.738617 Z M 82.11398 15.88472 C 81.51671 13.65109 76.89039 11.82429 75.69275 15.75637 C 77.51268 17.51133 79.24891 16.58301 79.01895 18.11542 C 78.71548 20.13757 72.99101 19.0904 73.12688 15.64249 C 73.31252 10.93161 82.30392 8.866431 84.33641 15.05161 C 86.36838 21.23524 77.58302 25.45321 72.36903 22.60142 C 64.82598 18.47573 68.29356 11.11918 71.71303 8.749817 C 79.20808 3.556501 89.84029 7.809047 89.94493 16.53043 C 90.06467 26.50858 75.97867 30.0411 72.23341 27.41597 C 74.78446 26.08784 93.90303 23.73327 86.33897 12.48061 C 80.58421 3.919558 66.47572 11.51484 70.73988 18.26732 C 74.58693 24.35933 83.19471 19.92629 82.11398 15.88472 Z M 92.38248 7.641068 C 93.14009 8.632852 91.68108 9.973803 90.63765 9.289085 C 89.07246 8.261993 91.45002 6.420399 92.38248 7.641068 Z M 94.90028 14.46868 C 96.35585 15.73325 94.56071 17.52877 93.34589 16.64941 C 92.17446 15.80146 93.28297 13.06361 94.90028 14.46868 Z M 92.91608 21.78301 C 94.49782 22.55902 93.13737 24.836 91.93539 24.65801 C 90.25266 24.40882 91.06161 20.87321 92.91608 21.78301 Z M 87.12642 27.11008 C 88.37025 28.05214 86.59573 30.24243 85.54588 29.6607 C 84.28608 28.96262 85.78687 26.09555 87.12642 27.11008 Z M 78.90166 30.00251 C 80.12142 31.1279 78.52612 32.36189 77.41649 31.68304 C 75.65641 30.60625 77.68186 28.87712 78.90166 30.00251 Z" fill-rule="evenodd" fill="#000000" fill-opacity="1" stroke="#000000" stroke-opacity="1" stroke-width="0.1" stroke-linecap="round" stroke-linejoin="round"/>
<path id="path_83da27ee119ca4cae0c1548d216a7f74" d="M 117.3968 31.93697 C 116.7188 30.8969 118.2733 29.93912 119.0482 30.80425 C 120.0369 31.90804 118.1843 33.14479 117.3968 31.93697 Z M 109.2035 31.04407 C 108.7926 29.83794 110.3196 29.38428 110.8721 29.95784 C 111.8666 30.99025 109.7429 32.62711 109.2035 31.04407 Z M 113.3605 19.77639 C 114.0205 21.99232 118.6964 23.68811 119.7829 19.72385 C 117.9142 18.02084 116.2049 18.99769 116.3916 17.45941 C 116.638 15.42951 122.3897 16.31504 122.351 19.76543 C 122.298 24.47968 113.3683 26.79728 111.1625 20.67178 C 108.9572 14.54781 117.6203 10.08406 122.9125 12.7879 C 130.5688 16.69952 127.3098 24.15083 123.9584 26.61557 C 116.6125 32.01793 105.8647 28.06647 105.5145 19.35148 C 105.1138 9.380634 119.0948 5.452797 122.9125 7.97142 C 120.3999 9.370876 101.3551 12.26293 109.2331 23.29813 C 115.2267 31.69374 129.1157 23.70412 124.6631 17.07439 C 120.646 11.09313 112.1664 15.76685 113.3605 19.77639 Z M 103.3283 28.30598 C 102.543 27.33593 103.9637 25.9544 105.026 26.60947 C 106.6195 27.59206 104.2948 29.49991 103.3283 28.30598 Z M 100.6192 21.55197 C 99.1286 20.3289 100.8724 18.48352 102.1116 19.32832 C 103.3064 20.14294 102.2755 22.91094 100.6192 21.55197 Z M 102.3966 14.18464 C 100.7936 13.45348 102.0895 11.13909 103.296 11.28316 C 104.9851 11.48486 104.276 15.04186 102.3966 14.18464 Z M 108.034 8.696621 C 106.7641 7.789963 108.4762 5.550549 109.542 6.102493 C 110.821 6.764812 109.4015 9.673027 108.034 8.696621 Z M 116.174 5.5737 C 114.923 4.483109 116.483 3.204666 117.6113 3.851997 C 119.401 4.878807 117.425 6.664295 116.174 5.5737 Z" fill-rule="evenodd" fill="#000000" fill-opacity="1" stroke="#000000" stroke-opacity="1" stroke-width="0.1" stroke-linecap="round" stroke-linejoin="round"/>
<path id="path_0eff3eb0ace72e0abc49688fafae179a" d="M 132.7161 14.73232 C 133.7663 15.39456 134.7005 13.82581 133.8238 13.06403 C 132.7052 12.09209 131.4965 13.96325 132.7161 14.73232 Z M 133.7327 22.91121 C 134.9449 23.30389 135.3755 21.7702 134.7936 21.22643 C 133.7463 20.24762 132.1417 22.39582 133.7327 22.91121 Z M 144.9363 18.58441 C 142.7107 17.95803 140.9444 13.30825 144.8918 12.16203 C 146.6228 14.00473 145.6719 15.72868 147.2072 15.51874 C 149.2332 15.24171 148.2608 9.504024 144.8114 9.594879 C 140.0985 9.719006 137.9161 18.6827 144.0742 20.79576 C 150.2308 22.90829 154.5631 14.17874 151.7797 8.927948 C 147.7528 1.33166 140.3516 4.702872 137.9378 8.091156 C 132.647 15.51778 136.7604 26.20463 145.4797 26.42313 C 155.4554 26.67312 159.1716 12.63439 156.5956 8.855179 C 155.2342 11.38867 152.6303 30.47493 141.4773 22.76459 C 132.9921 16.89855 140.771 2.890399 147.4672 7.242355 C 153.5085 11.16863 148.9634 19.71782 144.9363 18.58441 Z M 136.5593 28.7444 C 137.5411 29.5149 138.901 28.07354 138.2299 27.02124 C 137.2234 25.44278 135.3509 27.79607 136.5593 28.7444 Z M 143.3534 31.35114 C 144.5989 32.82309 146.4177 31.05155 145.5543 29.82535 C 144.7217 28.64295 141.9696 29.71561 143.3534 31.35114 Z M 150.6931 29.46255 C 151.4483 31.05431 153.7429 29.72368 153.5806 28.5195 C 153.3534 26.83364 149.8075 27.59639 150.6931 29.46255 Z M 156.0953 23.74295 C 157.021 24.99897 159.2343 23.2532 158.6663 22.19586 C 157.9847 20.92704 155.0983 22.39029 156.0953 23.74295 Z M 159.0948 15.55666 C 160.2042 16.79104 161.4589 15.21194 160.7946 14.09355 C 159.7409 12.31955 157.9854 14.32229 159.0948 15.55666 Z" fill-rule="evenodd" fill="#000000" fill-opacity="1" stroke="#000000" stroke-opacity="1" stroke-width="0.1" stroke-linecap="round" stroke-linejoin="round"/>
<path id="path_831daf8e184da1f63aed00630cd0a617" d="M 176.1355 3.615311 C 176.7839 4.674063 175.2031 5.587712 174.4529 4.701096 C 173.4956 3.569898 175.3824 2.385798 176.1355 3.615311 Z M 184.3004 4.738617 C 184.6772 5.955835 183.138 6.3663 182.6019 5.777412 C 181.6369 4.717397 183.8058 3.141016 184.3004 4.738617 Z M 179.8277 15.88472 C 179.2304 13.65109 174.6041 11.82429 173.4064 15.75636 C 175.2263 17.51132 176.9626 16.583 176.7326 18.11541 C 176.4292 20.13756 170.7047 19.0904 170.8405 15.64248 C 171.0262 10.9316 180.0176 8.866417 182.0501 15.0516 C 184.082 21.23524 175.2967 25.45322 170.0827 22.60142 C 162.5396 18.47573 166.0072 11.11918 169.4267 8.749817 C 176.9217 3.556493 187.554 7.809039 187.6586 16.53042 C 187.7783 26.50857 173.6923 30.0411 169.9471 27.41597 C 172.4981 26.08784 191.6167 23.73327 184.0526 12.48061 C 178.2979 3.919558 164.1894 11.51484 168.4535 18.26732 C 172.3006 24.35933 180.9084 19.92628 179.8277 15.88472 Z M 190.0961 7.641068 C 190.8538 8.632844 189.3948 9.973803 188.3513 9.289078 C 186.7861 8.261993 189.1637 6.420406 190.0961 7.641068 Z M 192.614 14.46868 C 194.0695 15.73325 192.2744 17.52877 191.0596 16.6494 C 189.8881 15.80145 190.9967 13.06361 192.614 14.46868 Z M 190.6297 21.783 C 192.2115 22.55901 190.851 24.83599 189.649 24.658 C 187.9663 24.40882 188.7753 20.8732 190.6297 21.783 Z M 184.8401 27.11008 C 186.0839 28.05214 184.3094 30.24244 183.2596 29.6607 C 181.9998 28.96262 183.5006 26.09555 184.8401 27.11008 Z M 176.6153 30.00251 C 177.8351 31.12789 176.2398 32.36189 175.1302 31.68304 C 173.3701 30.60625 175.3955 28.87712 176.6153 30.00251 Z" fill-rule="evenodd" fill="#000000" fill-opacity="1" stroke="#000000" stroke-opacity="1" stroke-width="0.1" stroke-linecap="round" stroke-linejoin="round"/>
<path id="path_c828378a0b0d7babecc2a20efc7b293a" d="M 215.1111 31.4113 C 214.433 30.37123 215.9875 29.41344 216.7625 30.27858 C 217.7512 31.38237 215.8985 32.61912 215.1111 31.4113 Z M 206.9178 30.51839 C 206.5068 29.31226 208.0338 28.8586 208.5863 29.43217 C 209.5808 30.46458 207.4571 32.10144 206.9178 30.51839 Z M 211.0748 19.25072 C 211.7347 21.46665 216.4107 23.16244 217.4971 19.19818 C 215.6285 17.49517 213.9191 18.47202 214.1058 16.93373 C 214.3522 14.90384 220.1039 15.78937 220.0652 19.23976 C 220.0123 23.95401 211.0826 26.2716 208.8767 20.1461 C 206.6714 14.02213 215.3345 9.558388 220.6268 12.26222 C 228.283 16.17385 225.024 23.62516 221.6726 26.0899 C 214.3267 31.49226 203.5789 27.54079 203.2287 18.82581 C 202.828 8.854961 216.8091 4.927124 220.6268 7.445747 C 218.1141 8.845203 199.0693 11.73726 206.9473 22.77245 C 212.9409 31.16807 226.8299 23.17844 222.3773 16.54872 C 218.3602 10.56746 209.8806 15.24118 211.0748 19.25072 Z M 201.0425 27.78031 C 200.2572 26.81026 201.6779 25.42873 202.7402 26.0838 C 204.3337 27.06639 202.009 28.97424 201.0425 27.78031 Z M 198.3334 21.02629 C 196.8428 19.80322 198.5866 17.95785 199.8258 18.80264 C 201.0206 19.61727 199.9896 22.38526 198.3334 21.02629 Z M 200.1108 13.65897 C 198.5078 12.92781 199.8037 10.61342 201.0102 10.75749 C 202.6993 10.95918 201.9902 14.51619 200.1108 13.65897 Z M 205.7482 8.170944 C 204.4783 7.264286 206.1904 5.024876 207.2562 5.57682 C 208.5352 6.23914 207.1158 9.14735 205.7482 8.170944 Z M 213.8882 5.048027 C 212.6372 3.957436 214.1972 2.678993 215.3255 3.326324 C 217.1152 4.353134 215.1393 6.138622 213.8882 5.048027 Z" fill-rule="evenodd" fill="#000000" fill-opacity="1" stroke="#000000" stroke-opacity="1" stroke-width="0.1" stroke-linecap="round" stroke-linejoin="round"/>
<path id="path_6f1c28e54493131685122cafd96dba7b" d="M 230.4303 14.20665 C 231.4805 14.8689 232.4147 13.30015 231.5379 12.53836 C 230.4193 11.56643 229.2107 13.43759 230.4303 14.20665 Z M 231.4469 22.38554 C 232.6591 22.77822 233.0896 21.24454 232.5078 20.70076 C 231.4605 19.72195 229.8559 21.87016 231.4469 22.38554 Z M 242.6505 18.05875 C 240.4248 17.43236 238.6586 12.78258 242.606 11.63637 C 244.337 13.47906 243.3861 15.20302 244.9214 14.99307 C 246.9473 14.71605 245.975 8.978358 242.5256 9.069214 C 237.8127 9.19334 235.6303 18.15703 241.7884 20.2701 C 247.945 22.38262 252.2773 13.65308 249.4938 8.402283 C 245.467 0.805995 238.0658 4.177207 235.6519 7.565491 C 230.3612 14.99212 234.4746 25.67896 243.1939 25.89746 C 253.1696 26.14746 256.8857 12.10873 254.3097 8.329514 C 252.9484 10.86301 250.3445 29.94926 239.1915 22.23892 C 230.7063 16.37288 238.4851 2.364734 245.1813 6.71669 C 251.2226 10.64296 246.6776 19.19215 242.6505 18.05875 Z M 234.2734 28.21873 C 235.2552 28.98923 236.6152 27.54787 235.9441 26.49557 C 234.9375 24.91711 233.065 27.27041 234.2734 28.21873 Z M 241.0676 30.82547 C 242.313 32.29742 244.1319 30.52588 243.2685 29.29968 C 242.4359 28.11729 239.6838 29.18994 241.0676 30.82547 Z M 248.4072 28.93692 C 249.1625 30.52866 251.4571 29.19802 251.2948 27.99384 C 251.0676 26.30797 247.5217 27.07074 248.4072 28.93692 Z M 253.8094 23.21729 C 254.7352 24.47331 256.9485 22.72753 256.3805 21.6702 C 255.6989 20.40137 252.8125 21.86463 253.8094 23.21729 Z M 256.809 15.03099 C 257.9184 16.26538 259.1731 14.68627 258.5088 13.56789 C 257.4551 11.79389 255.6996 13.79662 256.809 15.03099 Z" fill-rule="evenodd" fill="#000000" fill-opacity="1" stroke="#000000" stroke-opacity="1" stroke-width="0.1" stroke-linecap="round" stroke-linejoin="round"/>
<path id="path_2c557eb2804815da6e7025b134065e0b" d="M 273.8497 3.08963 C 274.4982 4.148382 272.9174 5.062024 272.1671 4.175407 C 271.2099 3.04421 273.0967 1.860117 273.8497 3.08963 Z M 282.0147 4.212936 C 282.3915 5.430154 280.8524 5.840627 280.3162 5.251732 C 279.3512 4.191724 281.5201 2.615335 282.0147 4.212936 Z M 277.5419 15.35903 C 276.9447 13.1254 272.3184 11.29861 271.1207 15.23067 C 272.9406 16.98564 274.6769 16.05731 274.4469 17.58972 C 274.1434 19.61188 268.419 18.56471 268.5548 15.11679 C 268.7405 10.40591 277.7319 8.340744 279.7643 14.52592 C 281.7963 20.70956 273.011 24.92754 267.797 22.07574 C 260.2539 17.95005 263.7215 10.59349 267.141 8.224129 C 274.636 3.030805 285.2682 7.283359 285.3729 16.00474 C 285.4926 25.98288 271.4066 29.51542 267.6614 26.89028 C 270.2124 25.56215 289.331 23.2076 281.7669 11.95493 C 276.0122 3.393877 261.9037 10.98916 266.1678 17.74164 C 270.0149 23.83364 278.6227 19.4006 277.5419 15.35903 Z M 287.8105 7.115379 C 288.5681 8.107156 287.1091 9.448122 286.0656 8.763397 C 284.5004 7.736313 286.878 5.894719 287.8105 7.115379 Z M 290.3282 13.94299 C 291.7838 15.20756 289.9886 17.00308 288.7738 16.12372 C 287.6024 15.27577 288.7109 12.53793 290.3282 13.94299 Z M 288.344 21.25732 C 289.9258 22.03333 288.5653 24.31031 287.3633 24.13232 C 285.6806 23.88314 286.4896 20.34752 288.344 21.25732 Z M 282.5544 26.58439 C 283.7982 27.52645 282.0237 29.71675 280.9739 29.13502 C 279.7141 28.43694 281.2148 25.56986 282.5544 26.58439 Z M 274.3296 29.47683 C 275.5494 30.60221 273.9541 31.83621 272.8445 31.15736 C 271.0844 30.08056 273.1098 28.35144 274.3296 29.47683 Z" fill-rule="evenodd" fill="#000000" fill-opacity="1" stroke="#000000" stroke-opacity="1" stroke-width="0.1" stroke-linecap="round" stroke-linejoin="round"/>
</defs>
<g>
<use xlink:href="#path_08816cd74696462780f27929fcb65953"/>
</g>
<g>
<use xlink:href="#path_96acb8dd3d1a07ac6532b0254ca3502a"/>
</g>
<g>
<use xlink:href="#path_fc363a2f8595c8465e920ad35184f42c"/>
</g>
<g>
<use xlink:href="#path_83da27ee119ca4cae0c1548d216a7f74"/>
</g>
<g>
<use xlink:href="#path_0eff3eb0ace72e0abc49688fafae179a"/>
</g>
<g>
<use xlink:href="#path_831daf8e184da1f63aed00630cd0a617"/>
</g>
<g>
<use xlink:href="#path_c828378a0b0d7babecc2a20efc7b293a"/>
</g>
<g>
<use xlink:href="#path_6f1c28e54493131685122cafd96dba7b"/>
</g>
<g>
<use xlink:href="#path_2c557eb2804815da6e7025b134065e0b"/>
</g>
</svg>