<?xml version="1.0" encoding="utf-8"?>
<!DOCTYPE svg PUBLIC "-//W3C//DTD SVG 1.1//EN" "http://www.w3.org/Graphics/SVG/1.1/DTD/svg11.dtd">
<!-- exported from Silhouette Studio® Business Edition V5.0.414ssbe -->
<svg version="1.1" xmlns="http://www.w3.org/2000/svg" xmlns:xlink="http://www.w3.org/1999/xlink" width="270.9333mm" height="35.3mm" viewBox="0 0 270.9333 35.3">
<defs>
<path id="path_40c598a1127674075bb40af5159ca623" d="M 19.34904 31.60463 C 18.7287 30.65306 20.15087 29.77678 20.85986 30.56828 C 21.76446 31.57815 20.06944 32.70966 19.34904 31.60463 Z M 11.85293 30.78769 C 11.47696 29.6842 12.874 29.26915 13.3795 29.79391 C 14.28937 30.73846 12.34641 32.23602 11.85293 30.78769 Z M 15.65619 20.47888 C 16.25998 22.50624 20.53804 24.0577 21.53202 20.4308 C 19.82239 18.87271 18.25848 19.76643 18.42931 18.35906 C 18.65475 16.5019 23.91699 17.31208 23.88158 20.46884 C 23.83317 24.78193 15.66334 26.9023 13.6452 21.29806 C 11.62754 15.69523 19.55347 11.61133 24.39536 14.08508 C 31.40011 17.66383 28.41841 24.48107 25.3522 26.73606 C 18.63146 31.6787 8.798264 28.06349 8.477846 20.09012 C 8.111261 10.96777 20.90253 7.37418 24.39536 9.678476 C 22.09651 10.95884 4.67242 13.6048 11.88002 23.70091 C 17.36356 31.38208 30.07068 24.07236 25.99695 18.00681 C 22.32168 12.53454 14.56369 16.81054 15.65619 20.47888 Z M 6.477684 28.2826 C 5.759246 27.39511 7.05902 26.13116 8.030921 26.73047 C 9.48881 27.62946 7.361902 29.37494 6.477684 28.2826 Z M 3.999102 22.10336 C 2.635349 20.98436 4.230817 19.29602 5.364462 20.06893 C 6.457651 20.81423 5.514408 23.34668 3.999102 22.10336 Z M 5.625282 15.36296 C 4.158724 14.69403 5.344275 12.57658 6.448088 12.70839 C 7.993467 12.89293 7.344688 16.14725 5.625282 15.36296 Z M 10.78293 10.34196 C 9.621112 9.512461 11.18752 7.463619 12.16263 7.968588 C 13.33277 8.574553 12.03411 11.23528 10.78293 10.34196 Z M 18.23026 7.484797 C 17.08573 6.487008 18.51295 5.31736 19.54522 5.909605 C 21.18266 6.849033 19.37481 8.482581 18.23026 7.484797 Z" fill-rule="evenodd" fill="#000000" fill-opacity="1" stroke="#000000" stroke-opacity="1" stroke-width="0.1" stroke-linecap="round" stroke-linejoin="round"/>
<path id="path_7f3150ffb970207f20be5e7373cd4af6" d="M 33.36469 15.86404 C 34.32551 16.46992 35.18021 15.03466 34.37807 14.3377 C 33.35466 13.44848 32.24889 15.16041 33.36469 15.86404 Z M 34.29476 23.34691 C 35.4038 23.70617 35.79771 22.30297 35.26537 21.80548 C 34.30718 20.90998 32.83914 22.87537 34.29476 23.34691 Z M 44.54494 19.38832 C 42.50871 18.81523 40.89276 14.56113 44.50423 13.51247 C 46.08797 15.19835 45.21797 16.77559 46.6226 16.58352 C 48.47614 16.33006 47.58654 11.08066 44.43067 11.16378 C 40.11883 11.27735 38.12215 19.47824 43.75623 21.41147 C 49.38892 23.34421 53.35255 15.35754 50.80595 10.55359 C 47.12177 3.603738 40.35037 6.688069 38.14196 9.787991 C 33.30146 16.58262 37.06481 26.36009 45.04209 26.56 C 54.16894 26.78869 57.56884 13.94463 55.21204 10.48701 C 53.96656 12.80492 51.58418 30.26698 41.38032 23.21277 C 33.61718 17.8459 40.73407 5.029832 46.86048 9.01145 C 52.38764 12.60359 48.22937 20.42527 44.54494 19.38832 Z M 36.88078 28.68371 C 37.77903 29.38864 39.02322 28.06994 38.40929 27.10719 C 37.48837 25.66307 35.77522 27.81609 36.88078 28.68371 Z M 43.09677 31.06861 C 44.23624 32.41531 45.9003 30.79453 45.11034 29.67268 C 44.34861 28.59089 41.8307 29.57228 43.09677 31.06861 Z M 49.81181 29.34077 C 50.50284 30.79708 52.6021 29.57965 52.45365 28.47794 C 52.24578 26.93556 49.00165 27.63342 49.81181 29.34077 Z M 54.7543 24.10788 C 55.60126 25.25702 57.62621 23.6598 57.10656 22.69242 C 56.483 21.53158 53.8422 22.87034 54.7543 24.10788 Z M 57.49862 16.61821 C 58.51359 17.74756 59.66151 16.30285 59.05373 15.27963 C 58.08968 13.65661 56.48367 15.48889 57.49862 16.61821 Z" fill-rule="evenodd" fill="#000000" fill-opacity="1" stroke="#000000" stroke-opacity="1" stroke-width="0.1" stroke-linecap="round" stroke-linejoin="round"/>
<path id="path_82f1a07d0a5e2b19e2c8b63c28049c93" d="M 73.08916 5.693056 C 73.68243 6.661704 72.23613 7.497597 71.54973 6.686436 C 70.67394 5.651499 72.40018 4.568164 73.08916 5.693056 Z M 80.55923 6.720771 C 80.90396 7.834406 79.49583 8.209957 79.0053 7.671175 C 78.12238 6.701372 80.10673 5.259115 80.55923 6.720771 Z M 76.46713 16.91837 C 75.92069 14.87482 71.68807 13.20348 70.59235 16.80095 C 72.25742 18.40656 73.84589 17.55724 73.6355 18.95924 C 73.35785 20.80932 68.12051 19.85126 68.24483 16.69676 C 68.41467 12.38676 76.64091 10.49732 78.50043 16.15616 C 80.3595 21.81358 72.32176 25.67261 67.55147 23.0635 C 60.65031 19.28889 63.8228 12.55837 66.95129 10.39063 C 73.80853 5.639249 83.53594 9.529918 83.63168 17.50913 C 83.74124 26.63817 70.85394 29.87009 67.42738 27.46835 C 69.76135 26.25323 87.25298 24.09903 80.33259 13.80395 C 75.06754 5.971414 62.15965 12.92036 66.06094 19.09822 C 69.58064 24.67182 77.45589 20.61602 76.46713 16.91837 Z M 85.86182 9.376232 C 86.55495 10.28362 85.2201 11.51046 84.26546 10.88401 C 82.83347 9.944319 85.00871 8.259439 85.86182 9.376232 Z M 88.16535 15.62284 C 89.49705 16.77979 87.85467 18.42252 86.74323 17.61799 C 85.67149 16.8422 86.68567 14.33734 88.16535 15.62284 Z M 86.35001 22.31473 C 87.79714 23.02471 86.55247 25.10792 85.45277 24.94508 C 83.91322 24.71709 84.65334 21.48235 86.35001 22.31473 Z M 81.05303 27.18849 C 82.19102 28.05038 80.5675 30.05428 79.60699 29.52205 C 78.45439 28.88338 79.82746 26.26029 81.05303 27.18849 Z M 73.52819 29.83478 C 74.64414 30.8644 73.18462 31.99338 72.1694 31.3723 C 70.5591 30.38714 72.41219 28.80515 73.52819 29.83478 Z" fill-rule="evenodd" fill="#000000" fill-opacity="1" stroke="#000000" stroke-opacity="1" stroke-width="0.1" stroke-linecap="round" stroke-linejoin="round"/>
<path id="path_bb7eaaac7dc4f5d2f72336c366977617" d="M 108.7474 31.60461 C 108.1271 30.65305 109.5494 29.77678 110.2583 30.56828 C 111.1629 31.57815 109.4679 32.70965 108.7474 31.60461 Z M 101.2514 30.78769 C 100.8754 29.6842 102.2725 29.26915 102.778 29.79391 C 103.6878 30.73846 101.7449 32.23602 101.2514 30.78769 Z M 105.0546 20.47887 C 105.6585 22.50623 109.9364 24.05772 110.9305 20.4308 C 109.2208 18.87271 107.6571 19.76644 107.8278 18.35906 C 108.0533 16.5019 113.3156 17.31207 113.2801 20.46884 C 113.2317 24.78193 105.0618 26.9023 103.0437 21.29807 C 101.026 15.69523 108.9519 11.61133 113.7938 14.08508 C 120.7985 17.66384 117.8169 24.48105 114.7507 26.73606 C 108.0299 31.67869 98.19675 28.06349 97.87635 20.09012 C 97.50975 10.96776 110.301 7.374176 113.7938 9.678473 C 111.495 10.95884 94.07088 13.60478 101.2785 23.70091 C 106.762 31.38208 119.4691 24.07236 115.3954 18.0068 C 111.7201 12.53453 103.9622 16.81053 105.0546 20.47887 Z M 95.87618 28.28262 C 95.1577 27.39511 96.45752 26.13114 97.42941 26.73047 C 98.88731 27.62945 96.76045 29.37494 95.87618 28.28262 Z M 93.39763 22.10335 C 92.03387 20.98436 93.62925 19.29602 94.76302 20.06893 C 95.85615 20.81423 94.91298 23.34668 93.39763 22.10335 Z M 95.02377 15.36297 C 93.55719 14.69403 94.74281 12.57658 95.84663 12.70839 C 97.39199 12.89293 96.74324 16.14724 95.02377 15.36297 Z M 100.1814 10.34196 C 99.0196 9.512456 100.586 7.46361 101.5611 7.968585 C 102.7312 8.574543 101.4325 11.23528 100.1814 10.34196 Z M 107.6287 7.48479 C 106.4842 6.487005 107.9114 5.317354 108.9437 5.909599 C 110.5811 6.84903 108.7732 8.482578 107.6287 7.48479 Z" fill-rule="evenodd" fill="#000000" fill-opacity="1" stroke="#000000" stroke-opacity="1" stroke-width="0.1" stroke-linecap="round" stroke-linejoin="round"/>
<path id="path_2278340349756860111a610a128b02d2" d="M 122.7631 15.86403 C 123.7239 16.46991 124.5786 15.03467 123.7765 14.33772 C 122.7531 13.44848 121.6473 15.16041 122.7631 15.86403 Z M 123.6932 23.34692 C 124.8022 23.70619 125.1962 22.30301 124.6638 21.80551 C 123.7056 20.91 122.2376 22.87539 123.6932 23.34692 Z M 133.9435 19.38832 C 131.9073 18.81525 130.2912 14.56115 133.9027 13.51247 C 135.4864 15.19836 134.6164 16.7756 136.0211 16.58353 C 137.8746 16.33007 136.985 11.08066 133.8291 11.16378 C 129.5173 11.27734 127.5206 19.47825 133.1547 21.41149 C 138.7873 23.34425 142.751 15.35756 140.2044 10.5536 C 136.5202 3.603735 129.7489 6.688066 127.5405 9.788017 C 122.7 16.58265 126.4633 26.36009 134.4406 26.55999 C 143.5673 26.78871 146.9673 13.94464 144.6105 10.48702 C 143.3651 12.80492 140.9827 30.26699 130.7787 23.21278 C 123.0156 17.84593 130.1326 5.029829 136.2589 9.011444 C 141.7861 12.60361 137.6279 20.42528 133.9435 19.38832 Z M 126.2792 28.68373 C 127.1775 29.38866 128.4218 28.06996 127.8077 27.1072 C 126.8868 25.66307 125.1737 27.81609 126.2792 28.68373 Z M 132.4952 31.06864 C 133.6347 32.41533 135.2988 30.79455 134.5089 29.67269 C 133.7471 28.59091 131.2292 29.57229 132.4952 31.06864 Z M 139.2103 29.34077 C 139.9012 30.79707 142.0006 29.57967 141.8521 28.47797 C 141.6442 26.93557 138.4001 27.63341 139.2103 29.34077 Z M 144.1528 24.10789 C 144.9997 25.25702 147.0247 23.65981 146.505 22.69245 C 145.8814 21.5316 143.2406 22.87033 144.1528 24.10789 Z M 146.897 16.61823 C 147.912 17.74757 149.0599 16.30285 148.4522 15.27963 C 147.4882 13.65659 145.882 15.4889 146.897 16.61823 Z" fill-rule="evenodd" fill="#000000" fill-opacity="1" stroke="#000000" stroke-opacity="1" stroke-width="0.1" stroke-linecap="round" stroke-linejoin="round"/>
<path id="path_d1eb22ac361e0d3ec894dbf1405abb59" d="M 162.4877 5.693055 C 163.081 6.661709 161.6347 7.497609 160.9483 6.686442 C 160.0724 5.651507 161.7987 4.56817 162.4877 5.693055 Z M 169.9578 6.72077 C 170.3025 7.834405 168.8943 8.209942 168.4038 7.671167 C 167.521 6.701356 169.5053 5.259121 169.9578 6.72077 Z M 165.8657 16.91837 C 165.3193 14.87482 161.0867 13.20347 159.9909 16.80093 C 161.6559 18.40655 163.2444 17.55723 163.034 18.95924 C 162.7564 20.80931 157.5191 19.85126 157.6433 16.69674 C 157.8132 12.38675 166.0395 10.49731 167.899 16.15615 C 169.758 21.81358 161.7203 25.67262 156.95 23.0635 C 150.0488 19.28889 153.2213 12.55837 156.3497 10.39063 C 163.207 5.639241 172.9345 9.529908 173.0302 17.50912 C 173.1397 26.63816 160.2524 29.87009 156.8259 27.46835 C 159.1599 26.25322 176.6515 24.09903 169.7311 13.80394 C 164.4661 5.971411 151.5582 12.92036 155.4594 19.09822 C 158.9792 24.67181 166.8545 20.616 165.8657 16.91837 Z M 175.2603 9.37623 C 175.9535 10.28361 174.6187 11.51046 173.664 10.884 C 172.232 9.944318 174.4073 8.259443 175.2603 9.37623 Z M 177.5639 15.62284 C 178.8956 16.77979 177.2533 18.42252 176.1418 17.61798 C 175.07 16.84219 176.0843 14.33733 177.5639 15.62284 Z M 175.7485 22.31473 C 177.1957 23.0247 175.951 25.1079 174.8513 24.94506 C 173.3117 24.71708 174.0519 21.48235 175.7485 22.31473 Z M 170.4516 27.18849 C 171.5895 28.05037 169.9661 30.05429 169.0056 29.52205 C 167.853 28.88338 169.2261 26.26029 170.4516 27.18849 Z M 162.9267 29.83478 C 164.0427 30.86439 162.5832 31.99338 161.568 31.3723 C 159.9576 30.38713 161.8107 28.80515 162.9267 29.83478 Z" fill-rule="evenodd" fill="#000000" fill-opacity="1" stroke="#000000" stroke-opacity="1" stroke-width="0.1" stroke-linecap="round" stroke-linejoin="round"/>
<path id="path_62ee8f164daa6bcfb34c45ca6dc752d8" d="M 198.1465 31.12368 C 197.5262 30.17211 198.9484 29.29583 199.6574 30.08735 C 200.562 31.09721 198.8669 32.22871 198.1465 31.12368 Z M 190.6506 30.30675 C 190.2744 29.20326 191.6715 28.7882 192.177 29.31296 C 193.0868 30.25752 191.1439 31.75509 190.6506 30.30675 Z M 194.4538 19.99793 C 195.0575 22.02529 199.3355 23.57677 200.3295 19.94986 C 198.6199 18.39177 197.056 19.28549 197.2268 17.87811 C 197.4523 16.02096 202.7146 16.83113 202.679 19.9879 C 202.6306 24.30098 194.4608 26.42135 192.4427 20.81711 C 190.425 15.21428 198.351 11.13039 203.1929 13.60413 C 210.1975 17.18289 207.2159 24.00012 204.1497 26.25511 C 197.4289 31.19775 187.5957 27.58253 187.2753 19.60918 C 186.9088 10.48682 199.7 6.893233 203.1929 9.197527 C 200.894 10.47789 183.4698 13.12385 190.6775 23.21997 C 196.161 30.90114 208.8681 23.59141 204.7944 17.52586 C 201.1192 12.05359 193.3611 16.32959 194.4538 19.99793 Z M 185.2751 27.80167 C 184.5567 26.91417 185.8566 25.65021 186.8285 26.24953 C 188.2863 27.14851 186.1594 28.894 185.2751 27.80167 Z M 182.7966 21.6224 C 181.4328 20.50341 183.0282 18.81508 184.162 19.58798 C 185.2551 20.33329 184.3119 22.86573 182.7966 21.6224 Z M 184.4228 14.88202 C 182.9561 14.21309 184.1417 12.09564 185.2457 12.22745 C 186.791 12.41198 186.1422 15.6663 184.4228 14.88202 Z M 189.5804 9.861012 C 188.4185 9.031507 189.985 6.982667 190.96 7.487642 C 192.1302 8.0936 190.8316 10.75433 189.5804 9.861012 Z M 197.0277 7.003847 C 195.8832 6.006063 197.3104 4.836413 198.3427 5.428658 C 199.9801 6.368089 198.1723 8.001635 197.0277 7.003847 Z" fill-rule="evenodd" fill="#000000" fill-opacity="1" stroke="#000000" stroke-opacity="1" stroke-width="0.1" stroke-linecap="round" stroke-linejoin="round"/>
<path id="path_e1886cb78973f392e19ec13f8b39e33f" d="M 212.162 15.3831 C 213.123 15.989 213.9776 14.55375 213.1754 13.85678 C 212.152 12.96756 211.0462 14.67949 212.162 15.3831 Z M 213.0921 22.86598 C 214.2012 23.22525 214.595 21.82208 214.0627 21.32458 C 213.1046 20.42906 211.6365 22.39446 213.0921 22.86598 Z M 223.3423 18.90739 C 221.306 18.3343 219.6901 14.08022 223.3016 13.03155 C 224.8853 14.71743 224.0153 16.29469 225.42 16.10259 C 227.2735 15.84914 226.3839 10.59972 223.2281 10.68285 C 218.9162 10.79641 216.9195 18.99731 222.5536 20.93057 C 228.1863 22.86331 232.1499 14.87663 229.6033 10.07267 C 225.9192 3.122802 219.1478 6.207134 216.9393 9.307085 C 212.0988 16.10173 215.8622 25.87914 223.8395 26.07905 C 232.9663 26.30777 236.3661 13.46371 234.0094 10.00609 C 232.7639 12.324 230.3816 29.78605 220.1777 22.73185 C 212.4146 17.36498 219.5314 4.548899 225.6578 8.530516 C 231.185 12.12267 227.0267 19.94434 223.3423 18.90739 Z M 215.6781 28.20278 C 216.5764 28.90772 217.8206 27.58901 217.2066 26.62626 C 216.2857 25.18212 214.5725 27.33517 215.6781 28.20278 Z M 221.8941 30.58769 C 223.0336 31.93439 224.6977 30.3136 223.9077 29.19175 C 223.146 28.10998 220.6281 29.09135 221.8941 30.58769 Z M 228.6091 28.85985 C 229.3002 30.31614 231.3995 29.09873 231.251 27.99703 C 231.0431 26.45462 227.799 27.15248 228.6091 28.85985 Z M 233.5516 23.62696 C 234.3987 24.77609 236.4236 23.17887 235.9039 22.21151 C 235.2803 21.05066 232.6396 22.3894 233.5516 23.62696 Z M 236.296 16.1373 C 237.311 17.26663 238.4589 15.82191 237.8511 14.7987 C 236.8871 13.17565 235.281 15.00797 236.296 16.1373 Z" fill-rule="evenodd" fill="#000000" fill-opacity="1" stroke="#000000" stroke-opacity="1" stroke-width="0.1" stroke-linecap="round" stroke-linejoin="round"/>
<path id="path_eb27bd00b5ea04e40525f02ca58ce6f8" d="M 251.8867 5.212106 C 252.48 6.180761 251.0337 7.016656 250.3473 6.205487 C 249.4715 5.170551 251.1978 4.087222 251.8867 5.212106 Z M 259.3569 6.239822 C 259.7016 7.353459 258.2934 7.729002 257.8029 7.190219 C 256.92 6.220415 258.9043 4.778173 259.3569 6.239822 Z M 255.2647 16.43742 C 254.7183 14.39386 250.4857 12.72253 249.3899 16.31998 C 251.055 17.92561 252.6435 17.07627 252.4331 18.47828 C 252.1554 20.32836 246.9181 19.3703 247.0424 16.21579 C 247.2123 11.90579 255.4385 10.01637 257.298 15.6752 C 259.157 21.33263 251.1194 25.19167 246.3491 22.58255 C 239.4479 18.80794 242.6204 12.07741 245.7489 9.909674 C 252.6061 5.158288 262.3335 9.048962 262.4293 17.02818 C 262.5388 26.1572 249.6515 29.38913 246.225 26.98739 C 248.5589 25.77228 266.0506 23.61808 259.1301 13.323 C 253.8652 5.490462 240.9573 12.43941 244.8585 18.61727 C 248.3782 24.19086 256.2534 20.13506 255.2647 16.43742 Z M 264.6594 8.895277 C 265.3526 9.802655 264.0178 11.02951 263.063 10.40305 C 261.631 9.46337 263.8063 7.778491 264.6594 8.895277 Z M 266.9629 15.14188 C 268.2946 16.29884 266.6522 17.94156 265.5408 17.13703 C 264.469 16.36124 265.4832 13.85639 266.9629 15.14188 Z M 265.1476 21.83377 C 266.5946 22.54375 265.35 24.62696 264.2503 24.46412 C 262.7108 24.23614 263.4508 21.0014 265.1476 21.83377 Z M 259.8506 26.70753 C 260.9886 27.56942 259.3651 29.57333 258.4046 29.04111 C 257.252 28.40242 258.6249 25.77933 259.8506 26.70753 Z M 252.3258 29.35383 C 253.4417 30.38343 251.9822 31.51243 250.967 30.89134 C 249.3567 29.90618 251.2098 28.32421 252.3258 29.35383 Z" fill-rule="evenodd" fill="#000000" fill-opacity="1" stroke="#000000" stroke-opacity="1" stroke-width="0.1" stroke-linecap="round" stroke-linejoin="round"/>
<path id="path_7668b57957bd35a626bff9285c455bd8" d="M 0.0166816 -0.2289618 L 270.9166 -0.2215878 L 270.9166 1.67104 L 0.0166626 1.627683 L 0.0166816 -0.2289618 Z" fill-rule="evenodd" fill="#000000" fill-opacity="1" stroke="none" stroke-opacity="1" stroke-width="0.132292" stroke-linecap="butt" stroke-linejoin="miter"/>
<path id="path_ed1c184a25f62d3f410e1c053ac3cfab" d="M 0.016693 33.91375 L 270.9166 33.92112 L 270.9166 35.81375 L 0.0166779 35.77039 L 0.016693 33.91375 Z" fill-rule="evenodd" fill="#000000" fill-opacity="1" stroke="none" stroke-opacity="1" stroke-width="0.132292" stroke-linecap="butt" stroke-linejoin="miter"/>
</defs>
<g>
<g>
<g>
<g>
<g>
<g>
<use xlink:href="#path_40c598a1127674075bb40af5159ca623"/>
</g>
</g>
</g>
</g>
</g>
<g>
<g>
<g>
<g>
<g>
<use xlink:href="#path_7f3150ffb970207f20be5e7373cd4af6"/>
</g>
</g>
</g>
</g>
</g>
<g>
<g>
<g>
<g>
<g>
<use xlink:href="#path_82f1a07d0a5e2b19e2c8b63c28049c93"/>
</g>
</g>
</g>
</g>
</g>
<g>
<g>
<g>
<g>
<g>
<use xlink:href="#path_bb7eaaac7dc4f5d2f72336c366977617"/>
</g>
</g>
</g>
</g>
</g>
<g>
<g>
<g>
<g>
<g>
<use xlink:href="#path_2278340349756860111a610a128b02d2"/>
</g>
</g>
</g>
</g>
</g>
<g>
<g>
<g>
<g>
<g>
<use xlink:href="#path_d1eb22ac361e0d3ec894dbf1405abb59"/>
</g>
</g>
</g>
</g>
</g>
<g>
<g>
<g>
<g>
<g>
<use xlink:href="#path_62ee8f164daa6bcfb34c45ca6dc752d8"/>
</g>
</g>
</g>
</g>
</g>
<g>
<g>
<g>
<g>
<g>
<use xlink:href="#path_e1886cb78973f392e19ec13f8b39e33f"/>
</g>
</g>
</g>
</g>
</g>
<g>
<g>
<g>
<g>
<g>
<use xlink:href="#path_eb27bd00b5ea04e40525f02ca58ce6f8"/>
</g>
</g>
</g>
</g>
</g>
</g>
<g>
<g>
<g>
<use xlink:href="#path_7668b57957bd35a626bff9285c455bd8"/>
</g>
</g>
</g>
<g>
<g>
<g>
<use xlink:href="#path_ed1c184a25f62d3f410e1c053ac3cfab"/>
</g>
</g>
</g>
</svg>