<?xml version="1.0" encoding="utf-8"?>
<!DOCTYPE svg PUBLIC "-//W3C//DTD SVG 1.1//EN" "http://www.w3.org/Graphics/SVG/1.1/DTD/svg11.dtd">
<!-- exported from Silhouette Studio® Business Edition V5.0.414ssbe -->
<svg version="1.1" xmlns="http://www.w3.org/2000/svg" xmlns:xlink="http://www.w3.org/1999/xlink" width="270.9333mm" height="35.3mm" viewBox="0 0 270.9333 35.3">
<defs>
<path id="path_123bc2c8c772c9f7a37bb546825cca37" d="M 7.103586 26.96011 C 6.278157 25.52788 9.166031 25.95126 10.0148 25.68312 C 10.0905 25.33916 10.21585 25.30817 9.990808 24.21583 C 6.120788 24.21583 2.857734 24.55182 4.060153 23.03575 C 4.574537 22.38721 8.359949 23.05067 9.958148 22.61864 C 10.09793 22.10781 10.11015 23.04443 10.10689 17.32452 C 4.120975 11.31066 4.476498 11.66538 3.88763 11.30066 C 3.43854 18.81204 4.570381 18.5644 2.993266 19.43073 C 2.932017 19.38723 2.564518 19.12606 2.380793 18.99547 C 2.386418 14.40737 2.385751 14.50934 2.387058 13.89759 C 2.39792 8.76338 2.395547 9.14809 2.642003 8.555521 C 3.521186 8.461895 3.521601 8.52177 7.54296 12.53871 C 7.608577 12.60424 7.608479 12.60434 10.81839 15.82063 C 11.00286 15.67736 10.75335 15.9781 12.25079 14.50274 C 12.71417 14.04618 15.55346 11.21235 16.09391 10.67953 C 17.66715 9.128458 18.536 8.087964 19.10319 8.557674 C 19.47116 8.862411 19.39739 10.46451 19.36718 16.51637 C 19.35932 18.09453 19.48515 20.05175 18.27791 19.22837 C 17.6179 18.77819 18.16495 14.10846 17.83368 11.25146 C 17.29554 11.68121 17.75503 11.17144 11.65498 17.24601 C 11.65498 22.62982 11.60598 21.89557 11.78271 22.62829 C 14.45977 23.20681 17.1938 22.28978 17.71924 23.08443 C 17.92807 23.40029 17.88122 23.59239 17.46033 24.16764 C 14.0061 24.22549 15.15751 24.20616 11.70327 24.26402 C 11.67003 25.09163 11.63779 25.63633 11.74068 25.74259 C 11.93692 25.9453 14.20394 25.69039 14.54304 26.06843 C 15.89161 27.57184 12.14496 27.43482 11.70327 27.44463 C 11.679 29.5579 11.9843 33.64708 10.3607 32.29414 C 9.844448 31.86395 10.28286 27.79056 10.02505 27.50598 C 9.745694 27.19763 7.548798 27.7326 7.103586 26.96011 Z M 10.03583 10.57714 C 6.901176 9.70599 7.155821 4.89842 10.51386 4.571207 C 15.43098 4.092086 14.67973 11.86773 10.03583 10.57714 Z M 11.12578 6.067678 C 10.66068 5.991931 10.10445 6.244107 9.924722 6.376483 C 8.583941 7.364025 9.727047 9.725865 11.39721 9.085936 C 11.9947 8.856995 12.70137 7.90766 12.299 6.986184 C 12.04858 6.412672 11.39049 6.110797 11.12578 6.067678 Z" fill-rule="evenodd" fill="#000000" fill-opacity="1" stroke="#000000" stroke-opacity="1" stroke-width="0.1" stroke-linecap="round" stroke-linejoin="round"/>
<path id="path_db7cc52c2aa9c8a866008f603e7df417" d="M 27.86901 26.89242 C 27.04358 25.46019 29.93147 25.88357 30.78024 25.61543 C 30.85592 25.27148 30.98129 25.24048 30.75623 24.14813 C 26.88621 24.14813 23.62317 24.48413 24.8256 22.96807 C 25.33999 22.31952 29.12538 22.98297 30.72356 22.55096 C 30.86338 22.04011 30.8756 22.97675 30.87233 17.25684 C 24.88643 11.24296 25.24192 11.5977 24.65307 11.23297 C 24.20395 18.74435 25.33584 18.49671 23.7587 19.36305 C 23.69746 19.31954 23.32999 19.05837 23.14623 18.92779 C 23.15188 14.33968 23.1512 14.44163 23.15249 13.82989 C 23.16335 8.695688 23.16099 9.0804 23.40743 8.487831 C 24.28664 8.394204 24.28704 8.454079 28.30842 12.47101 C 28.37402 12.53654 28.3739 12.53665 31.5838 15.75294 C 31.7683 15.60965 31.51878 15.91041 33.01622 14.43505 C 33.4796 13.97848 36.31891 11.14466 36.85935 10.61184 C 38.43259 9.060765 39.30142 8.020275 39.86861 8.489985 C 40.23658 8.794722 40.16281 10.39682 40.13261 16.44868 C 40.12473 18.02684 40.25056 19.98406 39.04335 19.16068 C 38.38333 18.71051 38.93035 14.04075 38.59911 11.18376 C 38.06094 11.61351 38.52046 11.10373 32.42041 17.17833 C 32.42041 22.56213 32.3714 21.82788 32.54815 22.56059 C 35.22519 23.13912 37.95925 22.22209 38.48466 23.01675 C 38.69349 23.33261 38.64665 23.52468 38.22578 24.09994 C 34.77153 24.15779 35.92294 24.13846 32.46869 24.19633 C 32.43547 25.02393 32.40324 25.56863 32.50611 25.67489 C 32.70235 25.8776 34.96937 25.6227 35.30845 26.00073 C 36.65701 27.50416 32.91039 27.36713 32.46869 27.37693 C 32.44441 29.4902 32.74973 33.57939 31.12613 32.22645 C 30.60988 31.79626 31.04832 27.72288 30.79049 27.43829 C 30.51113 27.12994 28.31425 27.66492 27.86901 26.89242 Z M 30.80127 10.50945 C 27.6666 9.638303 27.92125 4.830735 31.27929 4.503521 C 36.19643 4.024401 35.44519 11.80003 30.80127 10.50945 Z M 31.8912 5.999987 C 31.42609 5.924241 30.8699 6.176423 30.69015 6.3088 C 29.34938 7.29634 30.49248 9.658174 32.16262 9.018244 C 32.76011 8.789301 33.46682 7.839979 33.06443 6.918502 C 32.814 6.344989 32.15592 6.043106 31.8912 5.999987 Z" fill-rule="evenodd" fill="#000000" fill-opacity="1" stroke="#000000" stroke-opacity="1" stroke-width="0.1" stroke-linecap="round" stroke-linejoin="round"/>
<path id="path_3df66b6660ce93c81dfef9b307400a2e" d="M 48.63403 27.22095 C 47.80862 25.78873 50.69652 26.21211 51.54529 25.94396 C 51.62098 25.6 51.74634 25.56903 51.52127 24.47668 C 47.65126 24.47668 44.38819 24.81267 45.59062 23.2966 C 46.10501 22.64804 49.89042 23.31152 51.48861 22.87949 C 51.62841 22.36867 51.64063 23.30529 51.63737 17.58538 C 45.65146 11.57151 46.00695 11.92625 45.41811 11.56151 C 44.969 19.07291 46.10088 18.82525 44.52374 19.69159 C 44.46251 19.64808 44.095 19.3869 43.91127 19.25631 C 43.91689 14.66821 43.91623 14.77019 43.91753 14.15845 C 43.92839 9.024235 43.92604 9.408941 44.17248 8.816376 C 45.05167 8.72275 45.05208 8.782623 49.07345 12.79956 C 49.13905 12.86509 49.13894 12.8652 52.34885 16.08148 C 52.53333 15.93821 52.28382 16.23895 53.78125 14.76359 C 54.24465 14.30704 57.08397 11.47321 57.6244 10.94039 C 59.19763 9.389311 60.06646 8.348818 60.63366 8.818528 C 61.00164 9.123264 60.92785 10.72535 60.89766 16.77721 C 60.88978 18.35538 61.01562 20.3126 59.8084 19.48922 C 59.14837 19.03904 59.69541 14.3693 59.36415 11.51232 C 58.82599 11.94207 59.28552 11.43229 53.18546 17.50686 C 53.18546 22.89068 53.13643 22.15644 53.31319 22.88914 C 55.99023 23.46767 58.7243 22.55063 59.2497 23.34528 C 59.45854 23.66114 59.41169 23.85323 58.99081 24.42849 C 55.53658 24.48634 56.688 24.46701 53.23373 24.52488 C 53.20052 25.35248 53.16829 25.89717 53.27116 26.00343 C 53.46738 26.20614 55.73441 25.95123 56.0735 26.32927 C 57.42207 27.8327 53.67543 27.69569 53.23373 27.70547 C 53.20946 29.81876 53.51476 33.90794 51.89117 32.55499 C 51.37491 32.1248 51.81336 28.05143 51.55554 27.76685 C 51.27617 27.45849 49.07929 27.99346 48.63403 27.22095 Z M 51.56631 10.83799 C 48.43166 9.966839 48.68628 5.159272 52.04433 4.832058 C 56.96146 4.352938 56.21024 12.12856 51.56631 10.83799 Z M 52.65625 6.328529 C 52.19114 6.252783 51.63493 6.50496 51.45518 6.637336 C 50.11441 7.624878 51.25751 9.98672 52.92767 9.346788 C 53.52517 9.117847 54.23186 8.168512 53.82948 7.247037 C 53.57903 6.673523 52.92096 6.371647 52.65625 6.328529 Z" fill-rule="evenodd" fill="#000000" fill-opacity="1" stroke="#000000" stroke-opacity="1" stroke-width="0.1" stroke-linecap="round" stroke-linejoin="round"/>
<path id="path_596f2536167efe057b6b42a006a87be8" d="M 69.39953 27.10925 C 68.5741 25.67701 71.462 26.1004 72.31075 25.83226 C 72.38644 25.48831 72.5118 25.45732 72.28674 24.36496 C 68.41673 24.36496 65.15368 24.70096 66.35611 23.18489 C 66.87048 22.53634 70.65591 23.19981 72.2541 22.76778 C 72.3939 22.25694 72.40611 23.19356 72.40284 17.47366 C 66.41695 11.45979 66.77243 11.81452 66.18358 11.44981 C 65.73447 18.96118 66.86634 18.71354 65.28921 19.57987 C 65.22798 19.53635 64.8605 19.27519 64.67676 19.1446 C 64.68238 14.55651 64.68172 14.65847 64.683 14.04673 C 64.69386 8.912518 64.6915 9.297233 64.93794 8.704664 C 65.81713 8.611035 65.81756 8.670906 69.83891 12.68785 C 69.90453 12.75338 69.90442 12.75349 73.11432 15.96977 C 73.29881 15.8265 73.04931 16.12724 74.54674 14.65189 C 75.01012 14.19533 77.84943 11.3615 78.38985 10.82868 C 79.96309 9.277598 80.83193 8.237102 81.39912 8.706812 C 81.76711 9.01155 81.69333 10.61365 81.66313 16.6655 C 81.65523 18.24367 81.78107 20.20089 80.57387 19.37749 C 79.91383 18.92733 80.46088 14.25759 80.12962 11.4006 C 79.59147 11.83034 80.05098 11.32057 73.95093 17.39516 C 73.95093 22.77895 73.90192 22.0447 74.07867 22.77742 C 76.75571 23.35594 79.48977 22.43892 80.01517 23.23358 C 80.22401 23.54944 80.17715 23.74151 79.75628 24.31677 C 76.30206 24.37461 77.45345 24.3553 73.9992 24.41315 C 73.96598 25.24076 73.93377 25.78546 74.03664 25.89173 C 74.23287 26.09444 76.49988 25.83954 76.83898 26.21757 C 78.18754 27.72098 74.44092 27.58397 73.9992 27.59375 C 73.97495 29.70704 74.28026 33.79622 72.65665 32.44328 C 72.14038 32.01309 72.57883 27.9397 72.32101 27.65512 C 72.04166 27.34677 69.84476 27.88174 69.39953 27.10925 Z M 72.33178 10.72628 C 69.19711 9.855134 69.45175 5.04756 72.8098 4.720346 C 77.72696 4.241226 76.97569 12.01686 72.33178 10.72628 Z M 73.42171 6.216812 C 72.95661 6.141065 72.40043 6.393248 72.22066 6.525623 C 70.8799 7.513165 72.02298 9.875008 73.69314 9.235078 C 74.29063 9.006135 74.99734 8.056802 74.59495 7.135324 C 74.34453 6.561812 73.68642 6.25993 73.42171 6.216812 Z" fill-rule="evenodd" fill="#000000" fill-opacity="1" stroke="#000000" stroke-opacity="1" stroke-width="0.1" stroke-linecap="round" stroke-linejoin="round"/>
<path id="path_92b9a175a1c1ce15d9ba1128dc32526e" d="M 90.16489 27.08558 C 89.33944 25.65335 92.22739 26.07673 93.07613 25.80858 C 93.15184 25.46463 93.27715 25.43364 93.05209 24.34131 C 89.18208 24.34131 85.919 24.6773 87.12149 23.16124 C 87.63588 22.51267 91.42127 23.17616 93.01942 22.74412 C 93.15923 22.23327 93.17152 23.16991 93.16821 17.45 C 87.18232 11.43615 87.5378 11.79087 86.94893 11.42612 C 86.49981 18.93752 87.63169 18.68987 86.05453 19.55621 C 85.99331 19.51269 85.62582 19.25153 85.44213 19.12094 C 85.44774 14.53284 85.44708 14.6348 85.44839 14.02305 C 85.45926 8.888847 85.45686 9.273557 85.70333 8.680988 C 86.58252 8.587362 86.58291 8.647239 90.60431 12.66417 C 90.6699 12.7297 90.66982 12.7298 93.87967 15.94609 C 94.06416 15.80282 93.81466 16.10357 95.31208 14.62819 C 95.77546 14.17166 98.61477 11.33783 99.15524 10.805 C 100.7284 9.25392 101.5973 8.213428 102.1645 8.683143 C 102.5325 8.987881 102.4587 10.58998 102.4285 16.64185 C 102.4206 18.22 102.5465 20.17721 101.3392 19.35384 C 100.6792 18.90366 101.2262 14.23392 100.895 11.37693 C 100.3568 11.80667 100.8163 11.29691 94.71632 17.37148 C 94.71632 22.75528 94.66726 22.02104 94.84401 22.75376 C 97.52106 23.33228 100.2551 22.41525 100.7805 23.20991 C 100.9894 23.52577 100.9425 23.71785 100.5216 24.29311 C 97.06739 24.35095 98.21878 24.33165 94.76453 24.3895 C 94.73137 25.2171 94.69911 25.7618 94.80198 25.86806 C 94.99825 26.07077 97.26522 25.81588 97.60432 26.1939 C 98.95289 27.69732 95.20626 27.56029 94.76453 27.5701 C 94.74026 29.68338 95.04564 33.77254 93.42199 32.4196 C 92.90577 31.98942 93.34424 27.91603 93.0864 27.63145 C 92.80703 27.3231 90.61016 27.85807 90.16489 27.08558 Z M 93.0971 10.70261 C 89.96245 9.831463 90.21714 5.023882 93.57511 4.696675 C 98.49232 4.217555 97.74108 11.9932 93.0971 10.70261 Z M 94.1871 6.193146 C 93.72202 6.117393 93.16582 6.369569 92.98602 6.501951 C 91.64529 7.4895 92.78836 9.851327 94.45849 9.211403 C 95.056 8.98246 95.76269 8.033123 95.36031 7.111653 C 95.10991 6.538139 94.45184 6.236259 94.1871 6.193146 Z" fill-rule="evenodd" fill="#000000" fill-opacity="1" stroke="#000000" stroke-opacity="1" stroke-width="0.1" stroke-linecap="round" stroke-linejoin="round"/>
<path id="path_9c09a71e96facfb2a598c443ce7a12d3" d="M 110.93 27.23801 C 110.1046 25.80578 112.9925 26.22918 113.8412 25.96104 C 113.9169 25.61708 114.0424 25.58608 113.8173 24.49374 C 109.9472 24.49374 106.6842 24.82973 107.8866 23.31368 C 108.401 22.66512 112.1864 23.3286 113.7846 22.89656 C 113.9244 22.38571 113.9366 23.32235 113.9333 17.60244 C 107.9474 11.5886 108.3029 11.94331 107.7141 11.57858 C 107.265 19.08997 108.3969 18.84231 106.8197 19.70864 C 106.7585 19.66512 106.391 19.40397 106.2073 19.27339 C 106.2129 14.68528 106.2122 14.78724 106.2135 14.1755 C 106.2244 9.041299 106.222 9.426009 106.4685 8.833441 C 107.3476 8.739816 107.348 8.79969 111.3694 12.81662 C 111.435 12.88216 111.4349 12.88226 114.6449 16.09854 C 114.8294 15.95525 114.5798 16.25601 116.0773 14.78065 C 116.5407 14.3241 119.38 11.49028 119.9204 10.95745 C 121.4937 9.406369 122.3625 8.365881 122.9296 8.835594 C 123.2976 9.140331 123.2239 10.74242 123.1937 16.7943 C 123.1858 18.37245 123.3116 20.32966 122.1044 19.50629 C 121.4444 19.05611 121.9914 14.38636 121.6601 11.52938 C 121.1219 11.95912 121.5815 11.44935 115.4814 17.52393 C 115.4814 22.90773 115.4325 22.17349 115.6092 22.90621 C 118.2863 23.48472 121.0203 22.5677 121.5457 23.36234 C 121.7545 23.67822 121.7077 23.87031 121.2868 24.44555 C 117.8326 24.50341 118.984 24.48409 115.5297 24.54194 C 115.4965 25.36955 115.4643 25.91424 115.5672 26.0205 C 115.7634 26.22322 118.0304 25.96832 118.3695 26.34632 C 119.718 27.84975 115.9715 27.71273 115.5297 27.72252 C 115.5055 29.83582 115.8108 33.92498 114.1872 32.57206 C 113.6709 32.14187 114.1093 28.06848 113.8515 27.78388 C 113.5722 27.47553 111.3753 28.01052 110.93 27.23801 Z M 113.8623 10.85505 C 110.7277 9.983906 110.9823 5.176329 114.3403 4.849122 C 119.2574 4.369994 118.5062 12.14563 113.8623 10.85505 Z M 114.9522 6.3456 C 114.4871 6.269847 113.9309 6.522017 113.7512 6.654399 C 112.4104 7.641946 113.5535 10.00378 115.2236 9.363853 C 115.8211 9.134913 116.5278 8.18557 116.1254 7.2641 C 115.875 6.690586 115.217 6.388712 114.9522 6.3456 Z" fill-rule="evenodd" fill="#000000" fill-opacity="1" stroke="#000000" stroke-opacity="1" stroke-width="0.1" stroke-linecap="round" stroke-linejoin="round"/>
<path id="path_877820cb925d78fd340638156e38705b" d="M 131.6957 26.90618 C 130.8702 25.47393 133.7582 25.89733 134.6069 25.62918 C 134.6826 25.28522 134.808 25.25424 134.583 24.16189 C 130.7129 24.16189 127.4499 24.49789 128.6523 22.98183 C 129.1667 22.33326 132.9521 22.99675 134.5504 22.5647 C 134.6901 22.05386 134.7023 22.99049 134.699 17.27059 C 128.7132 11.25673 129.0686 11.61146 128.4798 11.24673 C 128.0307 18.75811 129.1625 18.51047 127.5854 19.3768 C 127.5242 19.33327 127.1567 19.07212 126.973 18.94153 C 126.9785 14.35343 126.9779 14.45539 126.9792 13.84365 C 126.9901 8.709441 126.9877 9.094149 127.2342 8.50158 C 128.1133 8.407953 128.1137 8.467831 132.1351 12.48476 C 132.2008 12.55031 132.2007 12.5504 135.4106 15.76667 C 135.595 15.62341 135.3455 15.92417 136.8429 14.4488 C 137.3063 13.99224 140.1457 11.15842 140.686 10.62559 C 142.2592 9.074512 143.1283 8.034019 143.6953 8.503736 C 144.0633 8.808473 143.9896 10.41057 143.9594 16.46243 C 143.9515 18.0406 144.0772 19.9978 142.8701 19.17443 C 142.2101 18.72425 142.7571 14.05452 142.4258 11.19752 C 141.8876 11.62727 142.3471 11.1175 136.2471 17.19207 C 136.2471 22.57587 136.1981 21.84163 136.3748 22.57434 C 139.0519 23.15287 141.786 22.23584 142.3113 23.0305 C 142.5203 23.34636 142.4734 23.53845 142.0525 24.11369 C 138.5983 24.17154 139.7497 24.15224 136.2954 24.21008 C 136.2623 25.03769 136.2299 25.58238 136.3328 25.68864 C 136.529 25.89136 138.7962 25.63647 139.1351 26.01449 C 140.4837 27.5179 136.7372 27.38089 136.2954 27.39068 C 136.2711 29.50396 136.5764 33.59314 134.9529 32.2402 C 134.4367 31.81002 134.875 27.73662 134.6172 27.45205 C 134.3378 27.14368 132.141 27.67867 131.6957 26.90618 Z M 134.628 10.5232 C 131.4933 9.652058 131.7479 4.844471 135.106 4.517265 C 140.0231 4.038144 139.2719 11.81379 134.628 10.5232 Z M 135.7179 6.013738 C 135.2528 5.937984 134.6966 6.19016 134.5168 6.322542 C 133.1761 7.31009 134.3191 9.67192 135.9893 9.031997 C 136.5868 8.803056 137.2935 7.853714 136.8911 6.932243 C 136.6408 6.35873 135.9826 6.056849 135.7179 6.013738 Z" fill-rule="evenodd" fill="#000000" fill-opacity="1" stroke="#000000" stroke-opacity="1" stroke-width="0.1" stroke-linecap="round" stroke-linejoin="round"/>
<path id="path_3db8de351dac4568451bcd7761d56f0d" d="M 152.4608 27.23472 C 151.6353 25.80249 154.5233 26.22588 155.3721 25.95774 C 155.4477 25.61377 155.573 25.58278 155.348 24.49044 C 151.478 24.49044 148.215 24.82644 149.4174 23.31039 C 149.9318 22.66182 153.7171 23.32531 155.3155 22.89327 C 155.4552 22.38242 155.4674 23.31905 155.4641 17.59914 C 149.4783 11.58528 149.8338 11.94001 149.2448 11.57528 C 148.7959 19.08666 149.9276 18.83902 148.3506 19.70535 C 148.2894 19.66183 147.9218 19.40067 147.738 19.27008 C 147.7437 14.68199 147.743 14.78393 147.7444 14.17219 C 147.7552 9.037986 147.7527 9.422702 147.9993 8.830127 C 148.8784 8.736506 148.8788 8.79638 152.9002 12.81331 C 152.9659 12.87886 152.9658 12.87895 156.1757 16.09525 C 156.3602 15.95195 156.1105 16.2527 157.608 14.77735 C 158.0715 14.3208 160.9106 11.48697 161.4511 10.95413 C 163.0244 9.403063 163.8932 8.36257 164.4603 8.83228 C 164.8284 9.137023 164.7546 10.73912 164.7244 16.79099 C 164.7165 18.36915 164.8425 20.32636 163.6353 19.50299 C 162.9751 19.05282 163.5221 14.38307 163.1909 11.52605 C 162.6528 11.9558 163.1123 11.44606 157.0123 17.52063 C 157.0123 22.90443 156.9631 22.17018 157.14 22.90289 C 159.817 23.48142 162.5511 22.56439 163.0764 23.35905 C 163.2854 23.67493 163.2384 23.86702 162.8176 24.44226 C 159.3634 24.50011 160.5147 24.48079 157.0605 24.53864 C 157.0272 25.36625 156.9951 25.91095 157.0978 26.01722 C 157.2941 26.21992 159.5612 25.96503 159.9002 26.34303 C 161.2488 27.84646 157.5021 27.70944 157.0605 27.71923 C 157.0363 29.83253 157.3415 33.9217 155.7179 32.56875 C 155.2018 32.13857 155.6401 28.06518 155.3823 27.78059 C 155.103 27.47225 152.9061 28.00723 152.4608 27.23472 Z M 155.3931 10.85176 C 152.2585 9.980611 152.513 5.173025 155.8712 4.845818 C 160.7882 4.36669 160.037 12.14233 155.3931 10.85176 Z M 156.483 6.34229 C 156.0179 6.266536 155.4617 6.518713 155.282 6.651096 C 153.9411 7.638643 155.0842 10.00047 156.7544 9.36054 C 157.3519 9.131605 158.0587 8.182268 157.6562 7.260798 C 157.4059 6.687284 156.7478 6.385402 156.483 6.34229 Z" fill-rule="evenodd" fill="#000000" fill-opacity="1" stroke="#000000" stroke-opacity="1" stroke-width="0.1" stroke-linecap="round" stroke-linejoin="round"/>
<path id="path_43266f26798314711f7bfe9715ed29ac" d="M 173.2263 27.07897 C 172.4009 25.64674 175.2887 26.07015 176.1376 25.80201 C 176.2132 25.45804 176.3386 25.42704 176.1135 24.3347 C 172.2434 24.3347 168.9805 24.6707 170.1829 23.15465 C 170.6973 22.50608 174.4826 23.16957 176.0809 22.73752 C 176.2207 22.22668 176.2328 23.1633 176.2296 17.4434 C 170.2437 11.42954 170.5992 11.78427 170.0104 11.41954 C 169.5612 18.93091 170.6932 18.68328 169.116 19.54961 C 169.0548 19.50608 168.6873 19.24492 168.5035 19.11433 C 168.5092 14.52625 168.5085 14.6282 168.5098 14.01646 C 168.5206 8.882253 168.5183 9.266973 168.7647 8.674406 C 169.6439 8.580779 169.6444 8.640656 173.6657 12.65759 C 173.7313 12.72312 173.7312 12.72322 176.9411 15.9395 C 177.1256 15.79622 176.8761 16.09697 178.3735 14.62161 C 178.8369 14.16506 181.6762 11.33124 182.2166 10.79841 C 183.7899 9.247336 184.6587 8.206842 185.2259 8.676559 C 185.5939 8.981298 185.5201 10.5834 185.4899 16.63526 C 185.482 18.21341 185.6079 20.17062 184.4006 19.34725 C 183.7406 18.89707 184.2877 14.22732 183.9564 11.37033 C 183.4182 11.80007 183.8778 11.2903 177.7777 17.36488 C 177.7777 22.74869 177.7287 22.01444 177.9055 22.74715 C 180.5825 23.32568 183.3166 22.40865 183.842 23.20331 C 184.0507 23.51918 184.0039 23.71128 183.5831 24.28652 C 180.1288 24.34437 181.2802 24.32505 177.826 24.3829 C 177.7928 25.21051 177.7606 25.75521 177.8634 25.86147 C 178.0597 26.06418 180.3266 25.80929 180.6658 26.18729 C 182.0143 27.69073 178.2677 27.5537 177.826 27.56349 C 177.8017 29.67679 178.107 33.76597 176.4834 32.41301 C 175.9671 31.98284 176.4056 27.90944 176.1477 27.62485 C 175.8684 27.31651 173.6715 27.85149 173.2263 27.07897 Z M 176.1585 10.69601 C 173.0239 9.824872 173.2785 5.017292 176.6366 4.690084 C 181.5538 4.210958 180.8025 11.98659 176.1585 10.69601 Z M 177.2485 6.186556 C 176.7834 6.110803 176.2272 6.36298 176.0475 6.495362 C 174.7066 7.48291 175.8498 9.844747 177.5199 9.204821 C 178.1174 8.975881 178.8241 8.026534 178.4217 7.105063 C 178.1713 6.531549 177.5132 6.229668 177.2485 6.186556 Z" fill-rule="evenodd" fill="#000000" fill-opacity="1" stroke="#000000" stroke-opacity="1" stroke-width="0.1" stroke-linecap="round" stroke-linejoin="round"/>
<path id="path_b9b94784508e8a27cb3d41cbd3855066" d="M 193.9914 27.40755 C 193.1659 25.9753 196.0538 26.3987 196.9026 26.13055 C 196.9782 25.7866 197.1037 25.7556 196.8786 24.66325 C 193.0086 24.66325 189.7455 24.99925 190.9479 23.4832 C 191.4623 22.83463 195.2478 23.49812 196.8459 23.06607 C 196.9857 22.55523 196.998 23.49187 196.9947 17.77196 C 191.0088 11.7581 191.3643 12.11281 190.7754 11.74809 C 190.3263 19.25948 191.4582 19.01184 189.881 19.87817 C 189.8198 19.83465 189.4523 19.57349 189.2686 19.44291 C 189.2743 14.8548 189.2736 14.95675 189.2748 14.34501 C 189.2857 9.210813 189.2834 9.595524 189.5298 9.002956 C 190.409 8.909331 190.4094 8.969204 194.4307 12.98613 C 194.4964 13.05167 194.4962 13.05176 197.7062 16.26805 C 197.8906 16.12477 197.6411 16.42552 199.1386 14.95016 C 199.6019 14.49362 202.4412 11.65978 202.9817 11.12696 C 204.5549 9.575882 205.4237 8.535392 205.991 9.005108 C 206.3589 9.309844 206.2852 10.91194 206.255 16.96382 C 206.2471 18.54197 206.3729 20.49917 205.1657 19.6758 C 204.5057 19.22563 205.0527 14.55588 204.7215 11.69888 C 204.1833 12.12863 204.6428 11.61885 198.5428 17.69342 C 198.5428 23.07724 198.4938 22.343 198.6705 23.07572 C 201.3475 23.65424 204.0816 22.73721 204.607 23.53187 C 204.8158 23.84774 204.769 24.03982 204.3482 24.61507 C 200.8939 24.67292 202.0453 24.65361 198.591 24.71146 C 198.5579 25.53906 198.5256 26.08376 198.6285 26.19003 C 198.8247 26.39274 201.0917 26.13784 201.4308 26.51585 C 202.7794 28.01928 199.0328 27.88225 198.591 27.89204 C 198.5667 30.00533 198.872 34.09451 197.2485 32.74157 C 196.7322 32.31139 197.1706 28.23799 196.9128 27.9534 C 196.6335 27.64506 194.4366 28.18003 193.9914 27.40755 Z M 196.9236 11.02456 C 193.7889 10.15342 194.0436 5.345842 197.4016 5.018636 C 202.3188 4.539508 201.5675 12.31515 196.9236 11.02456 Z M 198.0135 6.515113 C 197.5484 6.43936 196.9922 6.691531 196.8125 6.823911 C 195.4718 7.811461 196.6148 10.1733 198.285 9.533369 C 198.8825 9.30443 199.5892 8.355083 199.1868 7.433613 C 198.9364 6.860099 198.2782 6.558226 198.0135 6.515113 Z" fill-rule="evenodd" fill="#000000" fill-opacity="1" stroke="#000000" stroke-opacity="1" stroke-width="0.1" stroke-linecap="round" stroke-linejoin="round"/>
<path id="path_abb40142ae656d949ea0dbbb3ce4b148" d="M 214.7572 27.03167 C 213.9318 25.59944 216.8196 26.02282 217.6684 25.75467 C 217.7441 25.41072 217.8695 25.37974 217.6444 24.28739 C 213.7743 24.28739 210.5113 24.62339 211.7137 23.10732 C 212.2281 22.45877 216.0135 23.12224 217.6117 22.6902 C 217.7516 22.17937 217.7637 23.11599 217.7605 17.39609 C 211.7746 11.38223 212.1301 11.73695 211.5413 11.37223 C 211.0921 18.88361 212.224 18.63597 210.6469 19.50229 C 210.5856 19.45879 210.2181 19.19761 210.0344 19.06703 C 210.04 14.47893 210.0393 14.58089 210.0406 13.96916 C 210.0515 8.834949 210.0491 9.219657 210.2956 8.627089 C 211.1748 8.533462 211.1752 8.593336 215.1966 12.61027 C 215.2622 12.67581 215.262 12.6759 218.472 15.89219 C 218.6564 15.74891 218.407 16.04966 219.9044 14.5743 C 220.3678 14.11775 223.2071 11.28392 223.7475 10.7511 C 225.3208 9.200017 226.1896 8.159525 226.7568 8.629242 C 227.1248 8.93398 227.051 10.53608 227.0208 16.58793 C 227.0129 18.1661 227.1387 20.12332 225.9315 19.29992 C 225.2715 18.84975 225.8185 14.18002 225.4873 11.32303 C 224.9491 11.75277 225.4087 11.24301 219.3086 17.31758 C 219.3086 22.70138 219.2596 21.96714 219.4363 22.69986 C 222.1134 23.27837 224.8474 22.36134 225.3728 23.156 C 225.5816 23.47188 225.5348 23.66396 225.1139 24.2392 C 221.6597 24.29704 222.8111 24.27773 219.3569 24.33558 C 219.3236 25.16319 219.2914 25.70789 219.3943 25.81415 C 219.5905 26.01686 221.8575 25.76196 222.1966 26.13999 C 223.5452 27.6434 219.7986 27.50639 219.3569 27.51619 C 219.3326 29.62946 219.6379 33.71865 218.0143 32.36571 C 217.498 31.93552 217.9365 27.86213 217.6786 27.57755 C 217.3993 27.26918 215.2024 27.80416 214.7572 27.03167 Z M 217.6894 10.6487 C 214.5548 9.777556 214.8094 4.969974 218.1674 4.642766 C 223.0845 4.163646 222.3333 11.93929 217.6894 10.6487 Z M 218.7793 6.139237 C 218.3142 6.063486 217.758 6.31566 217.5783 6.448042 C 216.2375 7.43559 217.3807 9.797428 219.0508 9.157502 C 219.6482 8.928561 220.3549 7.979215 219.9526 7.057745 C 219.7022 6.484232 219.0441 6.182351 218.7793 6.139237 Z" fill-rule="evenodd" fill="#000000" fill-opacity="1" stroke="#000000" stroke-opacity="1" stroke-width="0.1" stroke-linecap="round" stroke-linejoin="round"/>
<path id="path_3122e52694ab031505dec255dbea812f" d="M 0.016695 -0.7620016 L 270.9166 -0.7546239 L 270.9166 1.137999 L 0.0166779 1.094641 L 0.016695 -0.7620016 Z" fill-rule="evenodd" fill="#000000" fill-opacity="1" stroke="none" stroke-opacity="1" stroke-width="0.132292" stroke-linecap="butt" stroke-linejoin="miter"/>
<path id="path_acd145d9145766e68841f8d2d8ae62c2" d="M 0.2588386 34.10714 L 271.1587 34.11451 L 271.1587 36.00714 L 0.2588196 35.96378 L 0.2588386 34.10714 Z" fill-rule="evenodd" fill="#000000" fill-opacity="1" stroke="none" stroke-opacity="1" stroke-width="0.132292" stroke-linecap="butt" stroke-linejoin="miter"/>
<path id="path_5dccab5b2b19910f3b8eb61a83a04ba8" d="M 235.5226 27.12632 C 234.6971 25.69408 237.585 26.11747 238.4338 25.84933 C 238.5094 25.50537 238.6349 25.47437 238.4098 24.38202 C 234.5398 24.38202 231.2766 24.71802 232.4791 23.20197 C 232.9935 22.5534 236.7789 23.21688 238.3771 22.78484 C 238.5169 22.27399 238.5292 23.21064 238.5259 17.4907 C 232.54 11.47683 232.8954 11.83155 232.3066 11.46683 C 231.8575 18.97823 232.9894 18.73059 231.4122 19.59692 C 231.351 19.55341 230.9835 19.29225 230.7997 19.16166 C 230.8054 14.57355 230.8047 14.67551 230.806 14.06376 C 230.8168 8.929544 230.8145 9.314251 231.061 8.721683 C 231.9402 8.628057 231.9406 8.687931 235.9619 12.70487 C 236.0276 12.7704 236.0274 12.7705 239.2373 15.98679 C 239.4218 15.84352 239.1723 16.14426 240.6698 14.66891 C 241.1331 14.21236 243.9725 11.37852 244.513 10.84569 C 246.0862 9.294614 246.955 8.25412 247.5222 8.723838 C 247.8902 9.028574 247.8164 10.63067 247.7861 16.68256 C 247.7783 18.26073 247.9042 20.21793 246.6969 19.39455 C 246.0369 18.94438 246.5839 14.27462 246.2527 11.41762 C 245.7145 11.84737 246.174 11.33759 240.074 17.41217 C 240.074 22.796 240.0249 22.06176 240.2017 22.79448 C 242.8787 23.373 245.6128 22.45598 246.1382 23.25063 C 246.347 23.5665 246.3002 23.7586 245.8794 24.33384 C 242.4251 24.39169 243.5765 24.37237 240.1222 24.43023 C 240.0891 25.25783 240.0568 25.80254 240.1597 25.9088 C 240.3559 26.11151 242.6229 25.85661 242.962 26.23462 C 244.3106 27.73806 240.5639 27.60103 240.1222 27.61082 C 240.0979 29.72412 240.4032 33.81331 238.7796 32.46037 C 238.2634 32.03018 238.7018 27.95678 238.444 27.67219 C 238.1647 27.36384 235.9678 27.89881 235.5226 27.12632 Z M 238.4548 10.74329 C 235.3201 9.872152 235.5748 5.064559 238.9328 4.737352 C 243.85 4.258224 243.0987 12.03389 238.4548 10.74329 Z M 239.5447 6.233834 C 239.0796 6.158081 238.5234 6.410251 238.3437 6.542633 C 237.0029 7.530184 238.146 9.892024 239.8162 9.252096 C 240.4137 9.023157 241.1204 8.07381 240.718 7.152337 C 240.4675 6.578824 239.8094 6.276947 239.5447 6.233834 Z" fill-rule="evenodd" fill="#000000" fill-opacity="1" stroke="#000000" stroke-opacity="1" stroke-width="0.1" stroke-linecap="round" stroke-linejoin="round"/>
<path id="path_a27bf45a8638486d391c0f8350dde46f" d="M 256.2882 26.75044 C 255.4628 25.3182 258.3507 25.74159 259.1994 25.47345 C 259.2751 25.12949 259.4005 25.0985 259.1754 24.00615 C 255.3054 24.00615 252.0424 24.34215 253.2448 22.8261 C 253.7592 22.17753 257.5445 22.841 259.1428 22.40896 C 259.2826 21.89814 259.2948 22.83475 259.2916 17.11483 C 253.3057 11.10096 253.6611 11.45568 253.0723 11.09095 C 252.6231 18.60235 253.7551 18.35472 252.1779 19.22105 C 252.1167 19.17754 251.7492 18.91637 251.5654 18.78578 C 251.571 14.19767 251.5703 14.29962 251.5717 13.68789 C 251.5825 8.553671 251.5801 8.938381 251.8266 8.345812 C 252.7058 8.252185 252.7062 8.312061 256.7276 12.32899 C 256.7932 12.39454 256.7931 12.39464 260.003 15.61093 C 260.1875 15.46764 259.938 15.7684 261.4354 14.29303 C 261.8988 13.83648 264.7382 11.00265 265.2785 10.46982 C 266.8517 8.918742 267.7206 7.878248 268.2878 8.347965 C 268.6558 8.652703 268.582 10.25481 268.5518 16.30667 C 268.5439 17.88485 268.6698 19.84206 267.4626 19.01867 C 266.8026 18.56851 267.3495 13.89875 267.0182 11.04175 C 266.4802 11.47149 266.9397 10.96173 260.8397 17.03632 C 260.8397 22.42014 260.7906 21.68589 260.9674 22.41861 C 263.6443 22.99713 266.3784 22.08011 266.9038 22.87476 C 267.1127 23.19064 267.0658 23.38272 266.645 23.95796 C 263.1908 24.01581 264.3422 23.9965 260.8879 24.05434 C 260.8546 24.88195 260.8225 25.42665 260.9253 25.53292 C 261.1215 25.73563 263.3885 25.48074 263.7276 25.85876 C 265.0763 27.36218 261.3296 27.22516 260.8879 27.23495 C 260.8636 29.34824 261.1689 33.43745 259.5453 32.0845 C 259.0291 31.65431 259.4675 27.5809 259.2097 27.29632 C 258.9303 26.98796 256.7334 27.52293 256.2882 26.75044 Z M 259.2205 10.36743 C 256.0858 9.496283 256.3404 4.688687 259.6985 4.36148 C 264.6156 3.882358 263.8644 11.65801 259.2205 10.36743 Z M 260.3104 5.857956 C 259.8453 5.782203 259.2891 6.03438 259.1094 6.166762 C 257.7686 7.154312 258.9117 9.516153 260.5818 8.876226 C 261.1793 8.647286 261.8859 7.697937 261.4837 6.776465 C 261.2332 6.202951 260.5751 5.901068 260.3104 5.857956 Z" fill-rule="evenodd" fill="#000000" fill-opacity="1" stroke="#000000" stroke-opacity="1" stroke-width="0.1" stroke-linecap="round" stroke-linejoin="round"/>
</defs>
<g>
<g>
<g>
<g>
<g>
<use xlink:href="#path_123bc2c8c772c9f7a37bb546825cca37"/>
</g>
</g>
</g>
</g>
</g>
<g>
<g>
<g>
<g>
<g>
<use xlink:href="#path_db7cc52c2aa9c8a866008f603e7df417"/>
</g>
</g>
</g>
</g>
</g>
<g>
<g>
<g>
<g>
<g>
<use xlink:href="#path_3df66b6660ce93c81dfef9b307400a2e"/>
</g>
</g>
</g>
</g>
</g>
<g>
<g>
<g>
<g>
<g>
<use xlink:href="#path_596f2536167efe057b6b42a006a87be8"/>
</g>
</g>
</g>
</g>
</g>
<g>
<g>
<g>
<g>
<g>
<use xlink:href="#path_92b9a175a1c1ce15d9ba1128dc32526e"/>
</g>
</g>
</g>
</g>
</g>
<g>
<g>
<g>
<g>
<g>
<use xlink:href="#path_9c09a71e96facfb2a598c443ce7a12d3"/>
</g>
</g>
</g>
</g>
</g>
<g>
<g>
<g>
<g>
<g>
<use xlink:href="#path_877820cb925d78fd340638156e38705b"/>
</g>
</g>
</g>
</g>
</g>
<g>
<g>
<g>
<g>
<g>
<use xlink:href="#path_3db8de351dac4568451bcd7761d56f0d"/>
</g>
</g>
</g>
</g>
</g>
<g>
<g>
<g>
<g>
<g>
<use xlink:href="#path_43266f26798314711f7bfe9715ed29ac"/>
</g>
</g>
</g>
</g>
</g>
<g>
<g>
<g>
<g>
<g>
<use xlink:href="#path_b9b94784508e8a27cb3d41cbd3855066"/>
</g>
</g>
</g>
</g>
</g>
<g>
<g>
<g>
<g>
<g>
<use xlink:href="#path_abb40142ae656d949ea0dbbb3ce4b148"/>
</g>
</g>
</g>
</g>
</g>
<g>
<g>
<g>
<use xlink:href="#path_3122e52694ab031505dec255dbea812f"/>
</g>
</g>
</g>
<g>
<g>
<g>
<use xlink:href="#path_acd145d9145766e68841f8d2d8ae62c2"/>
</g>
</g>
</g>
<g>
<g>
<g>
<g>
<g>
<use xlink:href="#path_5dccab5b2b19910f3b8eb61a83a04ba8"/>
</g>
</g>
</g>
</g>
</g>
<g>
<g>
<g>
<g>
<g>
<use xlink:href="#path_a27bf45a8638486d391c0f8350dde46f"/>
</g>
</g>
</g>
</g>
</g>
</svg>