<?xml version="1.0" encoding="utf-8"?>
<!DOCTYPE svg PUBLIC "-//W3C//DTD SVG 1.1//EN" "http://www.w3.org/Graphics/SVG/1.1/DTD/svg11.dtd">
<!-- exported from Silhouette Studio® Business Edition V5.0.414ssbe -->
<svg version="1.1" xmlns="http://www.w3.org/2000/svg" xmlns:xlink="http://www.w3.org/1999/xlink" width="270.9333mm" height="40.74743mm" viewBox="0 0 270.9333 40.74743">
<defs>
<path id="path_f781a5b60972b1d7c746e29bb5cb0005" d="M -0.0000305 4.768372e-7 L 270.9333 0.0088155 L 270.9333 3.474872 L -0.0000305 3.469944 L -0.0000305 4.768372e-7 Z" fill-rule="evenodd" fill="#000000" fill-opacity="1" stroke="none" stroke-opacity="1" stroke-width="0.132292" stroke-linecap="butt" stroke-linejoin="miter"/>
<path id="path_4d61488f9f8028325eda35531fbb5148" d="M -7.629395e-6 37.82641 L 179.6362 37.82565 L 270.9333 37.8634 L 270.9333 40.74741 L -7.629395e-6 40.74462 L -7.629395e-6 37.82641 Z" fill-rule="evenodd" fill="#000000" fill-opacity="1" stroke="none" stroke-opacity="1" stroke-width="0.132292" stroke-linecap="butt" stroke-linejoin="miter"/>
<path id="path_53d012205d6c992dd72630017e70892a" d="M 8.571167 30.82748 C 7.568085 29.08701 11.0775 29.60152 12.10895 29.27567 C 12.20094 28.85768 12.35326 28.82002 12.07979 27.49258 C 7.376846 27.49258 3.411499 27.90089 4.872711 26.05853 C 5.497803 25.2704 10.09793 26.07666 12.0401 25.55165 C 12.20996 24.93088 12.22482 26.06908 12.22086 19.11813 C 4.946624 11.80996 5.378662 12.24104 4.663055 11.79782 C 4.11731 20.92581 5.492752 20.62486 3.576202 21.67764 C 3.50177 21.62477 3.055176 21.30739 2.831909 21.1487 C 2.838745 15.57315 2.837936 15.69706 2.839523 14.95365 C 2.852722 8.714461 2.849838 9.181969 3.149338 8.461868 C 4.217743 8.348091 4.218246 8.420853 9.105103 13.30231 C 9.184845 13.38195 9.184723 13.38207 13.08548 17.29057 C 13.30965 17.11646 13.00644 17.48193 14.82617 15.68904 C 15.38928 15.13422 18.83966 11.69051 19.49644 11.04301 C 21.40828 9.158112 22.46411 7.893684 23.15338 8.464485 C 23.60054 8.834808 23.51091 10.78171 23.47418 18.13605 C 23.46463 20.05386 23.61754 22.43231 22.15048 21.43172 C 21.34842 20.88466 22.0132 15.2099 21.61064 11.73802 C 20.95667 12.26026 21.51506 11.64078 14.10213 19.02272 C 14.10213 25.56523 14.04259 24.67296 14.25735 25.56337 C 17.51057 26.2664 20.83304 25.15201 21.47156 26.11769 C 21.72534 26.50154 21.66841 26.73497 21.15695 27.43402 C 16.95926 27.50432 18.35849 27.48083 14.16081 27.55115 C 14.12042 28.55687 14.08125 29.2188 14.20627 29.34793 C 14.44475 29.59427 17.19969 29.2845 17.61177 29.7439 C 19.25058 31.57088 14.69756 31.40437 14.16081 31.41628 C 14.13132 33.98438 14.50233 38.95363 12.5293 37.30951 C 11.90193 36.78674 12.43471 31.83667 12.1214 31.49084 C 11.78192 31.11612 9.112198 31.76624 8.571167 30.82748 Z M 12.13451 10.91858 C 8.325195 9.85994 8.634644 4.017685 12.71542 3.620049 C 18.69083 3.037811 17.77789 12.48692 12.13451 10.91858 Z M 13.45903 5.438591 C 12.89383 5.346542 12.2179 5.652992 11.99948 5.813858 C 10.37013 7.013939 11.75926 9.884094 13.78888 9.106438 C 14.51497 8.828224 15.37373 7.674576 14.88477 6.554779 C 14.58044 5.857834 13.78072 5.49099 13.45903 5.438591 Z" fill-rule="evenodd" fill="#000000" fill-opacity="1" stroke="#000000" stroke-opacity="1" stroke-width="0.1" stroke-linecap="round" stroke-linejoin="round"/>
<path id="path_4d2cf913022c68f550118f8761a07526" d="M 33.32051 30.74522 C 32.31743 29.00475 35.82687 29.51926 36.85832 29.19341 C 36.95029 28.77542 37.10263 28.73776 36.82913 27.41032 C 32.12619 27.41032 28.16086 27.81863 29.62209 25.97627 C 30.24718 25.18814 34.84729 25.99438 36.78944 25.46939 C 36.95934 24.8486 36.9742 25.98682 36.97023 19.03587 C 29.69601 11.7277 30.12801 12.15878 29.41243 11.71555 C 28.86665 20.84354 30.24213 20.5426 28.32555 21.59538 C 28.25114 21.5425 27.80457 21.22513 27.58128 21.06644 C 27.58813 15.49089 27.58731 15.61478 27.58888 14.87138 C 27.60208 8.632195 27.59921 9.099701 27.8987 8.379601 C 28.96712 8.265823 28.96762 8.338585 33.85448 13.22004 C 33.9342 13.29968 33.93407 13.29981 37.83482 17.20831 C 38.05902 17.03419 37.75581 17.39967 39.57553 15.60678 C 40.13866 15.05196 43.58905 11.60824 44.2458 10.96074 C 46.15764 9.075844 47.21347 7.811417 47.90273 8.382217 C 48.34991 8.752541 48.26025 10.69944 48.22356 18.05379 C 48.21397 19.9716 48.3669 22.35004 46.89986 21.34946 C 46.09778 20.8024 46.76254 15.12763 46.36 11.65575 C 45.70601 12.17799 46.26443 11.5585 38.8515 18.94046 C 38.8515 25.48296 38.79193 24.5907 39.00673 25.48111 C 42.25993 26.18414 45.58243 25.06975 46.22092 26.03543 C 46.4747 26.41927 46.41777 26.65269 45.90631 27.35176 C 41.70863 27.42206 43.10786 27.39857 38.91016 27.46889 C 38.8698 28.47461 38.83063 29.13654 38.95564 29.26567 C 39.19411 29.51201 41.94905 29.20224 42.36111 29.66164 C 43.99992 31.48862 39.44693 31.32211 38.91016 31.33401 C 38.88066 33.90211 39.25168 38.87137 37.27864 37.22725 C 36.65128 36.70448 37.18408 31.75441 36.87077 31.40858 C 36.53128 31.03386 33.86157 31.68398 33.32051 30.74522 Z M 36.88387 10.83632 C 33.07455 9.777679 33.38399 3.935425 37.46477 3.537788 C 43.4402 2.955551 42.52728 12.40466 36.88387 10.83632 Z M 38.20839 5.356323 C 37.64317 5.264275 36.96727 5.570732 36.74883 5.731598 C 35.11949 6.931679 36.50861 9.801826 38.53822 9.02417 C 39.26431 8.745956 40.12311 7.592316 39.63412 6.472519 C 39.32979 5.775574 38.53008 5.408722 38.20839 5.356323 Z" fill-rule="evenodd" fill="#000000" fill-opacity="1" stroke="#000000" stroke-opacity="1" stroke-width="0.1" stroke-linecap="round" stroke-linejoin="round"/>
<path id="path_d0091212c5912f4e6deee4b428aaa82f" d="M 58.06953 31.14448 C 57.06645 29.404 60.5759 29.91851 61.60735 29.59266 C 61.69931 29.17467 61.85167 29.13702 61.57817 27.80959 C 56.87523 27.80959 52.90987 28.21789 54.37109 26.37553 C 54.99619 25.58739 59.59631 26.39365 61.53847 25.86864 C 61.70836 25.24787 61.72321 26.38607 61.71924 19.43513 C 54.44502 12.12695 54.87703 12.55804 54.16145 12.11481 C 53.61568 21.24281 54.99117 20.94186 53.07458 21.99464 C 53.00018 21.94176 52.55357 21.62438 52.33029 21.46569 C 52.33713 15.89014 52.33633 16.01405 52.33791 15.27065 C 52.3511 9.031456 52.34824 9.498962 52.64772 8.778862 C 53.71614 8.665085 53.71664 8.737846 58.6035 13.6193 C 58.68323 13.69894 58.68309 13.69907 62.58385 17.60756 C 62.80804 17.43345 62.50484 17.79892 64.32455 16.00603 C 64.88768 15.45122 68.33807 12.0075 68.99483 11.36 C 70.90666 9.475105 71.96249 8.210678 72.65175 8.781479 C 73.09894 9.151802 73.00928 11.0987 72.97258 18.45304 C 72.963 20.37086 73.11592 22.74931 71.64888 21.74871 C 70.8468 21.20165 71.51157 15.52689 71.10902 12.05502 C 70.45503 12.57726 71.01346 11.95777 63.60052 19.33971 C 63.60052 25.88223 63.54095 24.98997 63.75575 25.88036 C 67.00896 26.5834 70.33145 25.469 70.96994 26.43468 C 71.22372 26.81853 71.16679 27.05196 70.65533 27.75101 C 66.45766 27.82131 67.85689 27.79783 63.65918 27.86814 C 63.61882 28.87386 63.57965 29.53579 63.70467 29.66492 C 63.94313 29.91126 66.69807 29.60149 67.11014 30.06089 C 68.74895 31.88787 64.19595 31.72138 63.65918 31.73328 C 63.62968 34.30138 64.0007 39.27062 62.02766 37.6265 C 61.4003 37.10374 61.93311 32.15368 61.6198 31.80785 C 61.2803 31.43313 58.6106 32.08323 58.06953 31.14448 Z M 61.63289 11.23557 C 57.82358 10.17693 58.13301 4.334679 62.21379 3.937042 C 68.18922 3.354805 67.27631 12.80391 61.63289 11.23557 Z M 62.95741 5.755585 C 62.3922 5.663536 61.71629 5.969986 61.49785 6.130852 C 59.86852 7.330933 61.25763 10.20109 63.28725 9.423431 C 64.01334 9.145218 64.87213 7.99157 64.38315 6.871773 C 64.07881 6.174828 63.2791 5.807983 62.95741 5.755585 Z" fill-rule="evenodd" fill="#000000" fill-opacity="1" stroke="#000000" stroke-opacity="1" stroke-width="0.1" stroke-linecap="round" stroke-linejoin="round"/>
<path id="path_ec42479b6bfa2b32732236812370ec73" d="M 82.81904 31.00872 C 81.81596 29.26824 85.32539 29.78275 86.35683 29.4569 C 86.4488 29.03892 86.60116 29.00126 86.32766 27.67382 C 81.62472 27.67382 77.65937 28.08213 79.1206 26.23977 C 79.74569 25.45164 84.34582 26.2579 86.28797 25.73289 C 86.45786 25.11211 86.47271 26.25031 86.46874 19.29937 C 79.19453 11.9912 79.62652 12.42227 78.91094 11.97905 C 78.36517 21.10703 79.74065 20.8061 77.82407 21.85888 C 77.74967 21.80599 77.30308 21.48862 77.0798 21.32993 C 77.08665 15.75439 77.08582 15.87828 77.08739 15.13488 C 77.10059 8.895691 77.09772 9.363205 77.39721 8.643105 C 78.46563 8.529327 78.46615 8.602081 83.353 13.48354 C 83.43273 13.56318 83.43259 13.56331 87.33335 17.4718 C 87.55755 17.29769 87.25434 17.66316 89.07406 15.87028 C 89.63718 15.31546 93.08756 11.87174 93.74432 11.22424 C 95.65615 9.339348 96.712 8.074913 97.40125 8.645714 C 97.84844 9.016037 97.75877 10.96294 97.72207 18.31728 C 97.71249 20.2351 97.86541 22.61355 96.39837 21.61295 C 95.59629 21.0659 96.26107 15.39114 95.85853 11.91926 C 95.20454 12.4415 95.76296 11.822 88.35003 19.20396 C 88.35003 25.74645 88.29044 24.85419 88.50524 25.74461 C 91.75845 26.44764 95.08094 25.33324 95.71943 26.29893 C 95.97321 26.68278 95.91628 26.91619 95.40482 27.61526 C 91.20715 27.68555 92.60639 27.66207 88.40868 27.73238 C 88.36832 28.73811 88.32915 29.40003 88.45417 29.52917 C 88.69263 29.77551 91.44758 29.46574 91.85964 29.92513 C 93.49845 31.75211 88.94546 31.58561 88.40868 31.59751 C 88.37919 34.16561 88.75021 39.13486 86.77717 37.49075 C 86.1498 36.96798 86.68261 32.01791 86.3693 31.67208 C 86.02981 31.29736 83.3601 31.94747 82.81904 31.00872 Z M 86.38238 11.09982 C 82.57307 10.04118 82.88251 4.198921 86.96329 3.801285 C 92.93873 3.219048 92.02579 12.66815 86.38238 11.09982 Z M 87.7069 5.61982 C 87.14169 5.527771 86.4658 5.834229 86.24735 5.995094 C 84.61802 7.195175 86.00713 10.06533 88.03675 9.287674 C 88.76284 9.00946 89.62164 7.855812 89.13265 6.736015 C 88.82832 6.03907 88.02859 5.672218 87.7069 5.61982 Z" fill-rule="evenodd" fill="#000000" fill-opacity="1" stroke="#000000" stroke-opacity="1" stroke-width="0.1" stroke-linecap="round" stroke-linejoin="round"/>
<path id="path_034e7a8952d700df4c075cf19e85942b" d="M 107.5684 30.97997 C 106.5653 29.23949 110.0748 29.754 111.1062 29.42815 C 111.1982 29.01016 111.3505 28.9725 111.077 27.64507 C 106.3741 27.64507 102.4087 28.05338 103.87 26.21103 C 104.4951 25.42288 109.0952 26.22916 111.0373 25.70413 C 111.2072 25.08334 111.2221 26.22156 111.2181 19.27061 C 103.9439 11.96246 104.3759 12.39352 103.6603 11.95029 C 103.1145 21.07828 104.49 20.77734 102.5734 21.83012 C 102.499 21.77724 102.0524 21.45987 101.8292 21.30118 C 101.836 15.72563 101.8352 15.84952 101.8368 15.10612 C 101.85 8.866936 101.8471 9.334442 102.1466 8.614342 C 103.215 8.500565 103.2155 8.573326 108.1024 13.45478 C 108.1821 13.53442 108.182 13.53455 112.0827 17.44304 C 112.3069 17.26893 112.0037 17.63441 113.8234 15.84151 C 114.3865 15.28671 117.8369 11.84298 118.4937 11.19548 C 120.4055 9.310577 121.4614 8.04615 122.1506 8.616959 C 122.5978 8.987282 122.5081 10.93418 122.4714 18.28853 C 122.4619 20.20634 122.6148 22.58478 121.1477 21.5842 C 120.3457 21.03714 121.0104 15.36237 120.6079 11.8905 C 119.9539 12.41273 120.5123 11.79326 113.0994 19.1752 C 113.0994 25.7177 113.0398 24.82544 113.2546 25.71585 C 116.5078 26.41888 119.8303 25.30449 120.4688 26.27017 C 120.7226 26.65402 120.6656 26.88745 120.1542 27.5865 C 115.9565 27.6568 117.3557 27.63333 113.158 27.70363 C 113.1177 28.70935 113.0785 29.37128 113.2035 29.50041 C 113.442 29.74675 116.1969 29.437 116.609 29.89638 C 118.2478 31.72336 113.6948 31.55685 113.158 31.56876 C 113.1285 34.13686 113.4996 39.10611 111.5265 37.46199 C 110.8992 36.93922 111.432 31.98915 111.1187 31.64333 C 110.7792 31.2686 108.1095 31.91872 107.5684 30.97997 Z M 111.1317 11.07105 C 107.3224 10.01242 107.6319 4.170151 111.7126 3.772522 C 117.6881 3.190285 116.7752 12.6394 111.1317 11.07105 Z M 112.4563 5.591064 C 111.8911 5.499008 111.2152 5.805458 110.9967 5.966331 C 109.3674 7.16642 110.7565 10.03656 112.7861 9.258911 C 113.5122 8.980698 114.371 7.827042 113.882 6.707253 C 113.5777 6.010307 112.778 5.643456 112.4563 5.591064 Z" fill-rule="evenodd" fill="#000000" fill-opacity="1" stroke="#000000" stroke-opacity="1" stroke-width="0.1" stroke-linecap="round" stroke-linejoin="round"/>
<path id="path_2929c49f8282cf4954bd163323c1f262" d="M 132.3175 31.1652 C 131.3145 29.42472 134.8239 29.93925 135.8553 29.6134 C 135.9473 29.19541 136.0997 29.15774 135.8262 27.8303 C 131.1232 27.8303 127.1579 28.23861 128.6191 26.39628 C 129.2442 25.60812 133.8443 26.41441 135.7865 25.88938 C 135.9564 25.26859 135.9712 26.40681 135.9672 19.45586 C 128.693 12.14771 129.125 12.57877 128.4095 12.13554 C 127.8637 21.26353 129.2392 20.96258 127.3226 22.01536 C 127.2482 21.96247 126.8016 21.64512 126.5783 21.48643 C 126.5851 15.91088 126.5843 16.03477 126.5859 15.29137 C 126.5991 9.052185 126.5962 9.519691 126.8957 8.799591 C 127.9641 8.685814 127.9646 8.758575 132.8515 13.64003 C 132.9312 13.71967 132.9311 13.71979 136.8319 17.62828 C 137.0561 17.45417 136.7528 17.81964 138.5726 16.02676 C 139.1357 15.47195 142.5861 12.02823 143.2428 11.38073 C 145.1547 9.495827 146.2105 8.2314 146.8997 8.802208 C 147.3469 9.172531 147.2573 11.11943 147.2206 18.47378 C 147.211 20.39159 147.3639 22.77003 145.8969 21.76945 C 145.0948 21.22239 145.7596 15.54762 145.357 12.07574 C 144.703 12.59798 145.2615 11.97849 137.8485 19.36044 C 137.8485 25.90295 137.789 25.01069 138.0038 25.9011 C 141.257 26.60413 144.5795 25.48974 145.2179 26.45542 C 145.4717 26.83927 145.4148 27.0727 144.9033 27.77175 C 140.7057 27.84205 142.1049 27.81858 137.9072 27.88888 C 137.8668 28.8946 137.8277 29.55653 137.9527 29.68566 C 138.1911 29.932 140.9461 29.62225 141.3581 30.08161 C 142.9969 31.90861 138.444 31.74209 137.9072 31.75399 C 137.8777 34.32211 138.2487 39.29136 136.2757 37.64724 C 135.6483 37.12447 136.1811 32.1744 135.8678 31.82856 C 135.5283 31.45385 132.8586 32.10397 132.3175 31.1652 Z M 135.8809 11.25629 C 132.0716 10.19766 132.381 4.355392 136.4618 3.957764 C 142.4372 3.375519 141.5243 12.82463 135.8809 11.25629 Z M 137.2054 5.776314 C 136.6402 5.684258 135.9643 5.9907 135.7459 6.151573 C 134.1165 7.351662 135.5056 10.22181 137.5352 9.44416 C 138.2613 9.165947 139.1201 8.012283 138.6311 6.892494 C 138.3268 6.195549 137.5271 5.828705 137.2054 5.776314 Z" fill-rule="evenodd" fill="#000000" fill-opacity="1" stroke="#000000" stroke-opacity="1" stroke-width="0.1" stroke-linecap="round" stroke-linejoin="round"/>
<path id="path_6bcd7286e4cc75e4f71a3f8ce791273f" d="M 157.0672 30.76195 C 156.0641 29.02147 159.5736 29.53598 160.605 29.21013 C 160.697 28.79214 160.8493 28.75449 160.5759 27.42705 C 155.8729 27.42705 151.9076 27.83536 153.3688 25.99301 C 153.9939 25.20486 158.594 26.01114 160.5362 25.48611 C 160.7061 24.86533 160.7209 26.00354 160.7169 19.0526 C 153.4427 11.74444 153.8747 12.1755 153.1591 11.73228 C 152.6134 20.86026 153.9888 20.55933 152.0723 21.61211 C 151.9979 21.55922 151.5513 21.24185 151.328 21.08316 C 151.3348 15.50761 151.334 15.6315 151.3356 14.88811 C 151.3488 8.648918 151.3459 9.116425 151.6454 8.396324 C 152.7138 8.282547 152.7143 8.355309 157.6012 13.23676 C 157.6809 13.31641 157.6808 13.31652 161.5815 17.22501 C 161.8057 17.0509 161.5025 17.41639 163.3222 15.6235 C 163.8854 15.06869 167.3358 11.62496 167.9925 10.97746 C 169.9043 9.09256 170.9602 7.828133 171.6494 8.398941 C 172.0966 8.769264 172.007 10.71616 171.9703 18.07051 C 171.9607 19.98833 172.1136 22.36676 170.6466 21.36618 C 169.8445 20.81912 170.5092 15.14436 170.1067 11.67248 C 169.4527 12.19471 170.0111 11.57524 162.5982 18.95718 C 162.5982 25.49968 162.5386 24.60742 162.7534 25.49783 C 166.0066 26.20087 169.3291 25.08647 169.9676 26.05215 C 170.2214 26.436 170.1645 26.66943 169.653 27.36848 C 165.4553 27.43878 166.8546 27.41531 162.6569 27.48561 C 162.6165 28.49133 162.5773 29.15326 162.7023 29.28239 C 162.9408 29.52873 165.6958 29.21898 166.1078 29.67836 C 167.7466 31.50534 163.1936 31.33884 162.6569 31.35074 C 162.6274 33.91884 162.9984 38.88809 161.0254 37.24397 C 160.398 36.72121 160.9308 31.77113 160.6175 31.42531 C 160.278 31.05058 157.6083 31.7007 157.0672 30.76195 Z M 160.6306 10.85303 C 156.8213 9.794403 157.1307 3.952133 161.2115 3.554504 C 167.1869 2.972267 166.274 12.42138 160.6306 10.85303 Z M 161.9551 5.373047 C 161.3899 5.280991 160.714 5.58744 160.4955 5.748314 C 158.8662 6.948402 160.2553 9.818542 162.2849 9.040894 C 163.011 8.76268 163.8698 7.609024 163.3808 6.489235 C 163.0765 5.79229 162.2768 5.425438 161.9551 5.373047 Z" fill-rule="evenodd" fill="#000000" fill-opacity="1" stroke="#000000" stroke-opacity="1" stroke-width="0.1" stroke-linecap="round" stroke-linejoin="round"/>
<path id="path_2f149e6ff0c581e3b54af1418c57aa53" d="M 181.8162 31.16119 C 180.8131 29.42072 184.3226 29.93523 185.354 29.60938 C 185.446 29.19139 185.5983 29.15373 185.3248 27.82629 C 180.6219 27.82629 176.6566 28.2346 178.1178 26.39227 C 178.7429 25.60411 183.343 26.4104 185.2852 25.88538 C 185.455 25.26459 185.4699 26.40279 185.4659 19.45184 C 178.1917 12.14368 178.6237 12.57475 177.9081 12.13153 C 177.3624 21.25951 178.7378 20.95857 176.8213 22.01135 C 176.7469 21.95847 176.3003 21.6411 176.077 21.48241 C 176.0838 15.90687 176.083 16.03075 176.0846 15.28736 C 176.0978 9.048164 176.0949 9.515678 176.3944 8.79557 C 177.4628 8.681801 177.4633 8.754562 182.3502 13.63601 C 182.4299 13.71566 182.4298 13.71578 186.3305 17.62428 C 186.5547 17.45016 186.2515 17.81564 188.0712 16.02275 C 188.6344 15.46794 192.0847 12.02422 192.7415 11.37671 C 194.6533 9.491814 195.7092 8.227386 196.3984 8.798187 C 196.8456 9.168518 196.756 11.11542 196.7193 18.46976 C 196.7097 20.38757 196.8626 22.76602 195.3956 21.76544 C 194.5935 21.21838 195.2582 15.54361 194.8557 12.07172 C 194.2017 12.59396 194.7601 11.97449 187.3472 19.35643 C 187.3472 25.89894 187.2876 25.00667 187.5024 25.89708 C 190.7556 26.60011 194.0781 25.48572 194.7166 26.4514 C 194.9704 26.83527 194.9135 27.0687 194.402 27.76775 C 190.2043 27.83804 191.6036 27.81458 187.4059 27.88487 C 187.3655 28.89059 187.3263 29.55252 187.4513 29.68166 C 187.6898 29.92799 190.4448 29.61824 190.8568 30.07761 C 192.4956 31.9046 187.9426 31.73808 187.4059 31.74998 C 187.3764 34.3181 187.7474 39.28734 185.7744 37.64322 C 185.147 37.12045 185.6798 32.17039 185.3665 31.82455 C 185.027 31.44984 182.3573 32.09996 181.8162 31.16119 Z M 185.3796 11.25229 C 181.5703 10.19366 181.8797 4.351387 185.9605 3.953758 C 191.9359 3.371513 191.023 12.82063 185.3796 11.25229 Z M 186.7041 5.772301 C 186.1389 5.680244 185.463 5.986694 185.2445 6.147568 C 183.6152 7.347656 185.0043 10.2178 187.0339 9.44014 C 187.76 9.161934 188.6188 8.008278 188.1298 6.888489 C 187.8255 6.191544 187.0258 5.824692 186.7041 5.772301 Z" fill-rule="evenodd" fill="#000000" fill-opacity="1" stroke="#000000" stroke-opacity="1" stroke-width="0.1" stroke-linecap="round" stroke-linejoin="round"/>
<path id="path_96b4efdaca9349d1e94deaa06ad9a22b" d="M 206.5658 30.97194 C 205.5627 29.23146 209.0721 29.74599 210.1036 29.42014 C 210.1955 29.00215 210.3479 28.96448 210.0744 27.63704 C 205.3714 27.63704 201.4061 28.04535 202.8673 26.20302 C 203.4924 25.41486 208.0925 26.22115 210.0347 25.69612 C 210.2046 25.07533 210.2194 26.21353 210.2155 19.26259 C 202.9413 11.95443 203.3733 12.3855 202.6577 11.94228 C 202.1119 21.07025 203.4874 20.76932 201.5708 21.8221 C 201.4964 21.76921 201.0498 21.45184 200.8265 21.29315 C 200.8334 15.71761 200.8326 15.8415 200.8341 15.09811 C 200.8473 8.85891 200.8445 9.326431 201.1439 8.606331 C 202.2124 8.492554 202.2129 8.565315 207.0997 13.44677 C 207.1795 13.52641 207.1793 13.52653 211.0801 17.43502 C 211.3043 17.26091 211.0011 17.62638 212.8208 15.8335 C 213.3839 15.27869 216.8343 11.83497 217.491 11.18747 C 219.4029 9.302567 220.4587 8.038139 221.148 8.608948 C 221.5952 8.979271 221.5055 10.92617 221.4688 18.28052 C 221.4592 20.19833 221.6122 22.57677 220.1451 21.57619 C 219.343 21.02913 220.0078 15.35435 219.6052 11.88247 C 218.9512 12.40471 219.5097 11.78523 212.0968 19.16718 C 212.0968 25.70969 212.0372 24.81741 212.252 25.70782 C 215.5052 26.41086 218.8277 25.29646 219.4662 26.26215 C 219.7199 26.64601 219.663 26.87944 219.1516 27.57849 C 214.9539 27.64879 216.3531 27.62532 212.1554 27.69562 C 212.1151 28.70134 212.0759 29.36327 212.2009 29.4924 C 212.4394 29.73874 215.1943 29.42899 215.6064 29.88835 C 217.2452 31.71535 212.6922 31.54883 212.1554 31.56073 C 212.1259 34.12885 212.4969 39.0981 210.5239 37.45398 C 209.8965 36.93121 210.4293 31.98114 210.116 31.6353 C 209.7765 31.26059 207.1068 31.91071 206.5658 30.97194 Z M 210.1291 11.06303 C 206.3198 10.0044 206.6292 4.162132 210.71 3.764503 C 216.6855 3.182259 215.7725 12.63137 210.1291 11.06303 Z M 211.4536 5.583046 C 210.8884 5.49099 210.2125 5.79744 209.9941 5.958313 C 208.3647 7.158401 209.7539 10.02855 211.7835 9.2509 C 212.5096 8.972687 213.3684 7.819023 212.8794 6.699234 C 212.575 6.002289 211.7753 5.635437 211.4536 5.583046 Z" fill-rule="evenodd" fill="#000000" fill-opacity="1" stroke="#000000" stroke-opacity="1" stroke-width="0.1" stroke-linecap="round" stroke-linejoin="round"/>
<path id="path_c6c0d279fd90ca2b9f8194933842b7e7" d="M 231.3147 31.37122 C 230.3116 29.63074 233.821 30.14526 234.8525 29.8194 C 234.9444 29.40142 235.0968 29.36375 234.8233 28.03631 C 230.1204 28.03631 226.155 28.44462 227.6162 26.60229 C 228.2413 25.81413 232.8415 26.62041 234.7836 26.09539 C 234.9535 25.4746 234.9684 26.61282 234.9644 19.66187 C 227.6902 12.35371 228.1222 12.78477 227.4066 12.34155 C 226.8608 21.46954 228.2363 21.1686 226.3197 22.22138 C 226.2453 22.1685 225.7987 21.85113 225.5754 21.69244 C 225.5823 16.11689 225.5815 16.24078 225.583 15.49738 C 225.5962 9.258194 225.5934 9.7257 225.8929 9.0056 C 226.9613 8.891823 226.9618 8.964584 231.8486 13.84604 C 231.9284 13.92568 231.9282 13.9258 235.829 17.83429 C 236.0532 17.66018 235.75 18.02565 237.5697 16.23277 C 238.1328 15.67796 241.5832 12.23424 242.24 11.58674 C 244.1518 9.701836 245.2076 8.437408 245.8969 9.008217 C 246.3441 9.37854 246.2544 11.32544 246.2177 18.67979 C 246.2081 20.5976 246.3611 22.97604 244.894 21.97546 C 244.0919 21.4284 244.7567 15.75363 244.3542 12.28175 C 243.7002 12.80399 244.2586 12.1845 236.8457 19.56644 C 236.8457 26.10896 236.7861 25.2167 237.0009 26.10711 C 240.2541 26.81014 243.5766 25.69575 244.2151 26.66143 C 244.4689 27.04528 244.4119 27.27871 243.9005 27.97776 C 239.7028 28.04806 241.102 28.02459 236.9043 28.09489 C 236.864 29.10061 236.8248 29.76254 236.9498 29.89167 C 237.1883 30.13801 239.9432 29.82825 240.3553 30.28762 C 241.9941 32.11462 237.4411 31.9481 236.9043 31.96 C 236.8748 34.52811 237.2458 39.49737 235.2728 37.85325 C 234.6454 37.33048 235.1782 32.38041 234.8649 32.03457 C 234.5254 31.65986 231.8557 32.30997 231.3147 31.37122 Z M 234.878 11.4623 C 231.0687 10.40367 231.3782 4.561401 235.4589 4.163773 C 241.4344 3.581528 240.5214 13.03064 234.878 11.4623 Z M 236.2025 5.982323 C 235.6373 5.890266 234.9614 6.196709 234.743 6.357582 C 233.1137 7.557671 234.5028 10.42782 236.5324 9.650169 C 237.2585 9.371956 238.1173 8.218292 237.6283 7.098503 C 237.324 6.401558 236.5242 6.034714 236.2025 5.982323 Z" fill-rule="evenodd" fill="#000000" fill-opacity="1" stroke="#000000" stroke-opacity="1" stroke-width="0.1" stroke-linecap="round" stroke-linejoin="round"/>
<path id="path_7febadee93761842366326aa165453ef" d="M 256.0645 30.91445 C 255.0614 29.17397 258.5708 29.68848 259.6022 29.36263 C 259.6942 28.94465 259.8466 28.90699 259.5731 27.57955 C 254.8701 27.57955 250.9048 27.98786 252.366 26.14552 C 252.9911 25.35737 257.5912 26.16364 259.5334 25.63862 C 259.7033 25.01785 259.7181 26.15604 259.7142 19.2051 C 252.44 11.89694 252.8719 12.328 252.1564 11.88478 C 251.6106 21.01276 252.9861 20.71183 251.0695 21.76461 C 250.9951 21.71174 250.5485 21.39436 250.3252 21.23566 C 250.332 15.66012 250.3312 15.78401 250.3328 15.04062 C 250.346 8.80143 250.3431 9.268936 250.6426 8.548836 C 251.711 8.435059 251.7115 8.50782 256.5984 13.38927 C 256.6781 13.46892 256.678 13.46903 260.5788 17.37753 C 260.8029 17.20341 260.4998 17.56889 262.3195 15.776 C 262.8826 15.22119 266.333 11.77747 266.9897 11.12997 C 268.9016 9.245071 269.9574 7.980644 270.6467 8.551453 C 271.0939 8.921776 271.0042 10.86868 270.9675 18.22301 C 270.9579 20.14083 271.1108 22.51928 269.6438 21.51868 C 268.8417 20.97163 269.5065 15.29687 269.1039 11.82499 C 268.45 12.34722 269.0084 11.72775 261.5955 19.10969 C 261.5955 25.6522 261.5359 24.75993 261.7507 25.65034 C 265.0039 26.35337 268.3264 25.23898 268.9648 26.20466 C 269.2186 26.58852 269.1617 26.82194 268.6502 27.52099 C 264.4526 27.59129 265.8518 27.56782 261.6541 27.63811 C 261.6137 28.64384 261.5746 29.30576 261.6996 29.4349 C 261.938 29.68124 264.693 29.37148 265.105 29.83086 C 266.7439 31.65784 262.1909 31.49134 261.6541 31.50324 C 261.6246 34.07134 261.9956 39.0406 260.0226 37.39648 C 259.3952 36.87371 259.928 31.92364 259.6147 31.57781 C 259.2752 31.20309 256.6055 31.8532 256.0645 30.91445 Z M 259.6278 11.00554 C 255.8185 9.946907 256.1279 4.104637 260.2087 3.707008 C 266.1841 3.124771 265.2712 12.57388 259.6278 11.00554 Z M 260.9523 5.525551 C 260.3871 5.433495 259.7112 5.739944 259.4928 5.900818 C 257.8634 7.100906 259.2526 9.971054 261.2822 9.193405 C 262.0082 8.915192 262.867 7.761528 262.3781 6.641739 C 262.0737 5.944794 261.274 5.577942 260.9523 5.525551 Z" fill-rule="evenodd" fill="#000000" fill-opacity="1" stroke="#000000" stroke-opacity="1" stroke-width="0.1" stroke-linecap="round" stroke-linejoin="round"/>
</defs>
<g>
<use xlink:href="#path_f781a5b60972b1d7c746e29bb5cb0005"/>
</g>
<g>
<use xlink:href="#path_4d61488f9f8028325eda35531fbb5148"/>
</g>
<g>
<use xlink:href="#path_53d012205d6c992dd72630017e70892a"/>
</g>
<g>
<use xlink:href="#path_4d2cf913022c68f550118f8761a07526"/>
</g>
<g>
<use xlink:href="#path_d0091212c5912f4e6deee4b428aaa82f"/>
</g>
<g>
<use xlink:href="#path_ec42479b6bfa2b32732236812370ec73"/>
</g>
<g>
<use xlink:href="#path_034e7a8952d700df4c075cf19e85942b"/>
</g>
<g>
<use xlink:href="#path_2929c49f8282cf4954bd163323c1f262"/>
</g>
<g>
<use xlink:href="#path_6bcd7286e4cc75e4f71a3f8ce791273f"/>
</g>
<g>
<use xlink:href="#path_2f149e6ff0c581e3b54af1418c57aa53"/>
</g>
<g>
<use xlink:href="#path_96b4efdaca9349d1e94deaa06ad9a22b"/>
</g>
<g>
<use xlink:href="#path_c6c0d279fd90ca2b9f8194933842b7e7"/>
</g>
<g>
<use xlink:href="#path_7febadee93761842366326aa165453ef"/>
</g>
</svg>