<?xml version="1.0" encoding="utf-8"?>
<!DOCTYPE svg PUBLIC "-//W3C//DTD SVG 1.1//EN" "http://www.w3.org/Graphics/SVG/1.1/DTD/svg11.dtd">
<!-- exported from Silhouette Studio® Business Edition V5.0.414ssbe -->
<svg version="1.1" xmlns="http://www.w3.org/2000/svg" xmlns:xlink="http://www.w3.org/1999/xlink" width="270.9333mm" height="29.64259mm" viewBox="0 0 270.9333 29.64259">
<defs>
<path id="path_e1552aa8bf1278558672518d035a22e7" d="M 17.06685 20.33182 C 16.68549 19.87354 14.35658 17.39392 13.52982 16.84268 C 13.36234 16.94562 13.56916 16.67719 12.45972 17.75183 C 12.21935 17.98468 9.832893 20.33081 9.472235 20.67998 C 8.863609 21.2692 7.288164 23.19489 6.921001 21.89018 C 6.741167 21.25111 9.02035 19.76038 12.52682 15.77151 C 12.20314 15.39107 9.803593 12.80231 8.947351 12.28767 C 6.59374 13.8698 3.331589 18.74323 2.455 17.52431 C 2.010294 16.90593 8.403316 10.56152 8.974077 10.58527 C 9.248972 10.59671 9.379999 10.75523 11.54109 12.87399 C 17.17355 18.39612 17.35033 18.78415 18.14943 19.23434 C 18.33847 19.08315 18.06958 19.38429 19.62452 17.85838 C 19.68621 17.79785 22.6352 14.87996 22.69659 14.81914 C 27.46693 10.09251 26.79721 10.80254 27.23784 10.5717 C 27.73455 10.81837 27.36855 10.4346 30.64766 13.69139 C 30.7104 13.75371 30.71035 13.75377 33.7808 16.81111 C 33.77974 17.32195 33.79599 17.49989 33.66688 17.62712 C 33.47126 17.81984 33.24685 18.03795 31.67137 16.50677 C 31.31012 16.15567 29.17155 14.01961 28.69008 13.55127 C 27.28328 12.18282 27.42699 12.41835 27.18031 12.29735 C 26.48101 12.85651 24.32003 14.9308 23.62403 15.77531 C 27.21086 19.38672 26.19753 18.36577 27.52143 19.70209 C 29.2367 21.43341 29.28088 21.55327 29.2702 21.76964 C 29.16481 23.90245 25.95732 19.6024 22.70723 16.83168 C 22.00124 17.21452 19.56664 19.6821 19.13871 20.36171 C 19.9091 21.37718 19.04407 20.34355 20.00864 21.32861 C 20.06828 21.38951 22.95036 24.29391 23.00999 24.35483 C 23.73467 25.09485 25.04823 26.54611 25.06785 26.80428 C 25.1501 27.8858 11.38234 27.19861 11.31057 27.04956 C 12.06184 25.41365 13.76282 24.18155 17.06685 20.33182 Z M 18.12909 21.36806 C 17.09778 22.13484 14.54717 24.7382 13.98436 25.48439 C 14.5726 25.76581 21.2098 25.83305 22.13538 25.51674 C 21.81304 24.90431 19.16187 22.2896 18.12909 21.36806 Z M 18.03261 1.832504 C 18.41149 1.783875 18.22722 1.626145 21.60196 5.004059 C 22.82274 6.225952 24.69888 8.053055 24.70466 8.325745 C 24.71658 8.887772 18.74612 14.56537 18.15268 15.02325 C 17.6995 14.88 17.85988 15.05287 14.65494 11.80539 C 14.19668 11.34105 11.51052 8.744202 11.50483 8.37146 C 11.49921 8.001923 17.48275 1.903076 18.03261 1.832504 Z M 18.08467 3.404465 C 17.22364 4.123779 13.8541 7.511063 13.13929 8.375839 C 13.91288 9.359161 17.19181 12.59268 18.06997 13.2751 C 19.08817 12.5452 22.40118 9.131378 23.00183 8.36412 C 22.30329 7.491913 18.95086 4.110428 18.08467 3.404465 Z M 18.09266 7.362259 C 19.42761 7.326416 19.33337 9.659882 17.88127 9.314728 C 17.39302 9.198685 17.08065 8.607101 17.06685 8.440384 C 17.0349 8.054779 17.61661 7.375046 18.09266 7.362259 Z" fill-rule="evenodd" fill="#000000" fill-opacity="1" stroke="#000000" stroke-opacity="1" stroke-width="0.1" stroke-linecap="round" stroke-linejoin="round"/>
<path id="path_531f3bfd19ab3e0af1e5b52c43dbc563" d="M 50.6215 20.33177 C 50.24014 19.87349 47.91124 17.39388 47.08448 16.84264 C 46.91699 16.94556 47.12382 16.67714 46.01439 17.75179 C 45.77401 17.98463 43.38755 20.33076 43.02689 20.67992 C 42.41827 21.26913 40.84282 23.19481 40.47566 21.89012 C 40.29583 21.25107 42.57501 19.76033 46.08147 15.77148 C 45.7578 15.39104 43.35825 12.80228 42.50201 12.28764 C 40.1484 13.86977 36.88625 18.74318 36.00967 17.52428 C 35.56496 16.9059 41.95798 10.56151 42.52874 10.58527 C 42.80363 10.59669 42.93466 10.7552 45.09575 12.87396 C 50.7282 18.39607 50.90499 18.7841 51.70409 19.2343 C 51.89313 19.0831 51.62423 19.38423 53.17917 17.85832 C 53.24086 17.79779 56.18984 14.87993 56.25123 14.81909 C 61.02157 10.09248 60.35185 10.80254 60.79248 10.57169 C 61.2892 10.81836 60.92319 10.43457 64.2023 13.69135 C 64.26505 13.75366 64.26498 13.75374 67.33543 16.81107 C 67.33437 17.3219 67.35063 17.49986 67.22151 17.62708 C 67.0259 17.81982 66.80149 18.0379 65.22601 16.50674 C 64.86476 16.15565 62.72618 14.01956 62.24472 13.55124 C 60.83792 12.18279 60.98162 12.4183 60.73495 12.2973 C 60.03564 12.85646 57.87468 14.93079 57.17868 15.77528 C 60.7655 19.38667 59.75217 18.36572 61.07607 19.70201 C 62.79134 21.43336 62.83553 21.55322 62.82483 21.76959 C 62.71944 23.90242 59.51196 19.60239 56.26187 16.83165 C 55.55589 17.21449 53.12129 19.68202 52.69336 20.36165 C 53.46375 21.37714 52.59872 20.34348 53.56328 21.32855 C 53.62292 21.38945 56.505 24.29387 56.56464 24.35477 C 57.28931 25.09479 58.60287 26.54607 58.6225 26.80423 C 58.70474 27.88576 44.937 27.19855 44.86523 27.0495 C 45.6165 25.4136 47.31747 24.18149 50.6215 20.33177 Z M 51.68374 21.368 C 50.65244 22.13478 48.10183 24.73814 47.53902 25.48434 C 48.12725 25.76573 54.76444 25.83298 55.69002 25.51669 C 55.36768 24.90424 52.71653 22.28954 51.68374 21.368 Z M 51.58727 1.832489 C 51.96614 1.783875 51.78187 1.62616 55.15662 5.004044 C 56.37739 6.225937 58.25352 8.05307 58.25931 8.325729 C 58.27123 8.887772 52.30077 14.56532 51.70734 15.02321 C 51.25415 14.87996 51.41453 15.05286 48.20959 11.80537 C 47.75134 11.341 45.06517 8.744186 45.05949 8.371429 C 45.05386 8.001892 51.0374 1.903061 51.58727 1.832489 Z M 51.63933 3.404449 C 50.77829 4.123749 47.40875 7.511032 46.69394 8.375824 C 47.46753 9.359146 50.74646 12.59265 51.62462 13.27505 C 52.64282 12.54517 55.95583 9.131363 56.55647 8.364105 C 55.85794 7.491898 52.50552 4.110413 51.63933 3.404449 Z M 51.64731 7.362228 C 52.98227 7.32637 52.88802 9.659851 51.43592 9.314713 C 50.94767 9.198654 50.6353 8.607086 50.6215 8.440384 C 50.58956 8.054779 51.17126 7.375015 51.64731 7.362228 Z" fill-rule="evenodd" fill="#000000" fill-opacity="1" stroke="#000000" stroke-opacity="1" stroke-width="0.1" stroke-linecap="round" stroke-linejoin="round"/>
<path id="path_0e1c880bfca627d60417f3fce253c3af" d="M 84.17613 20.33186 C 83.79477 19.87358 81.46587 17.39397 80.63911 16.84273 C 80.47163 16.94565 80.67844 16.67725 79.56902 17.75188 C 79.32864 17.98474 76.94218 20.33087 76.58152 20.68004 C 75.9729 21.26926 74.39745 23.19492 74.03029 21.89021 C 73.85046 21.25116 76.12965 19.76042 79.63611 15.77156 C 79.31244 15.39111 76.91288 12.80235 76.05664 12.28772 C 73.70303 13.86984 70.44087 18.74327 69.56429 17.52435 C 69.11958 16.90598 75.5126 10.56158 76.08337 10.58533 C 76.35826 10.59676 76.48929 10.75528 78.65038 12.87404 C 84.28284 18.39616 84.45963 18.78419 85.25873 19.23439 C 85.44777 19.08319 85.17887 19.38434 86.73381 17.85843 C 86.7955 17.7979 89.74448 14.88002 89.80588 14.8192 C 94.57622 10.09258 93.9065 10.80261 94.34713 10.57176 C 94.84384 10.81844 94.47783 10.43465 97.75694 13.69144 C 97.81969 13.75375 97.81964 13.75383 100.8901 16.81116 C 100.889 17.32199 100.9053 17.49995 100.7762 17.62717 C 100.5806 17.81992 100.3561 18.03799 98.78065 16.50682 C 98.4194 16.15573 96.28084 14.01965 95.79937 13.55132 C 94.39256 12.18286 94.53627 12.4184 94.2896 12.29739 C 93.59029 12.85655 91.42932 14.93086 90.73332 15.77538 C 94.32014 19.38676 93.30682 18.36581 94.63072 19.70213 C 96.34599 21.43349 96.39017 21.55331 96.37949 21.76968 C 96.2741 23.90253 93.0666 19.60248 89.81651 16.83174 C 89.11053 17.21458 86.67593 19.68213 86.248 20.36176 C 87.0184 21.37723 86.15335 20.34358 87.11792 21.32867 C 87.17756 21.38956 90.05964 24.29399 90.11928 24.35487 C 90.84395 25.09491 92.15751 26.54617 92.17714 26.80434 C 92.25938 27.88586 78.49163 27.19867 78.41986 27.04961 C 79.17113 25.41371 80.87211 24.18159 84.17613 20.33186 Z M 85.23837 21.36812 C 84.20707 22.1349 81.65646 24.73825 81.09366 25.48445 C 81.68188 25.76585 88.31908 25.8331 89.24467 25.5168 C 88.92233 24.90434 86.27116 22.28966 85.23837 21.36812 Z M 85.14189 1.83255 C 85.52077 1.78392 85.33652 1.626206 88.71126 5.004105 C 89.93204 6.225998 91.80817 8.053146 91.81395 8.32579 C 91.82587 8.887833 85.85542 14.56543 85.26198 15.02332 C 84.80879 14.88007 84.96916 15.05295 81.76422 11.80547 C 81.30597 11.34109 78.6198 8.744263 78.61412 8.371506 C 78.60849 8.001984 84.59203 1.903122 85.14189 1.83255 Z M 85.19395 3.40451 C 84.33292 4.12381 80.96339 7.511108 80.24857 8.375885 C 81.02217 9.359207 84.3011 12.59274 85.17926 13.27515 C 86.19746 12.54526 89.51047 9.131424 90.11111 8.364182 C 89.41257 7.491959 86.06015 4.110474 85.19395 3.40451 Z M 85.20193 7.362305 C 86.5369 7.326462 86.44265 9.659927 84.99055 9.314789 C 84.5023 9.19873 84.18994 8.607162 84.17613 8.440445 C 84.14419 8.05484 84.72589 7.375092 85.20193 7.362305 Z" fill-rule="evenodd" fill="#000000" fill-opacity="1" stroke="#000000" stroke-opacity="1" stroke-width="0.1" stroke-linecap="round" stroke-linejoin="round"/>
<path id="path_a423af54fb408ea8b33aa86701a4cf0c" d="M 117.7308 20.33183 C 117.3494 19.87354 115.0205 17.39394 114.1937 16.84271 C 114.0263 16.94563 114.2331 16.6772 113.1237 17.75185 C 112.8833 17.9847 110.4968 20.33083 110.1362 20.67999 C 109.5275 21.26921 107.9521 23.19487 107.5849 21.89017 C 107.4051 21.25111 109.6843 19.76041 113.1907 15.77155 C 112.8671 15.3911 110.4675 12.80235 109.6113 12.28772 C 107.2577 13.86984 103.9955 18.74323 103.1189 17.52432 C 102.6742 16.90596 109.0672 10.56157 109.638 10.58531 C 109.9129 10.59674 110.0439 10.75526 112.205 12.87404 C 117.8375 18.39613 118.0142 18.78418 118.8133 19.23436 C 119.0024 19.08318 118.7335 19.38431 120.2884 17.85841 C 120.3501 17.79787 123.2991 14.87999 123.3605 14.81917 C 128.1308 10.09256 127.4611 10.8026 127.9017 10.57176 C 128.3985 10.81844 128.0325 10.43463 131.3116 13.69144 C 131.3743 13.75375 131.3743 13.75378 134.4447 16.81113 C 134.4436 17.32196 134.4599 17.49991 134.3308 17.62712 C 134.1352 17.81989 133.9108 18.03795 132.3353 16.50679 C 131.974 16.1557 129.8355 14.01964 129.354 13.5513 C 127.9472 12.18286 128.0909 12.4184 127.8442 12.29739 C 127.1449 12.85654 124.9839 14.93085 124.2879 15.77534 C 127.8748 19.38675 126.8614 18.3658 128.1853 19.7021 C 129.9006 21.43344 129.9448 21.55328 129.9341 21.76965 C 129.8287 23.90247 126.6212 19.60245 123.3711 16.83171 C 122.6652 17.21455 120.2306 19.6821 119.8026 20.36171 C 120.573 21.37718 119.708 20.34357 120.6725 21.32863 C 120.7322 21.38953 123.6143 24.29395 123.6739 24.35484 C 124.3986 25.09488 125.7121 26.54613 125.7318 26.80431 C 125.814 27.88582 112.0463 27.19862 111.9745 27.04956 C 112.7258 25.41367 114.4267 24.18156 117.7308 20.33183 Z M 118.793 21.36807 C 117.7617 22.13486 115.2111 24.73822 114.6483 25.48441 C 115.2365 25.76581 121.8737 25.83305 122.7993 25.51674 C 122.477 24.90433 119.8258 22.28961 118.793 21.36807 Z M 118.6965 1.832565 C 119.0754 1.783936 118.8911 1.626221 122.2659 5.004089 C 123.4867 6.225998 125.3628 8.053116 125.3686 8.325806 C 125.3805 8.887817 119.41 14.56541 118.8166 15.02328 C 118.3634 14.88005 118.5238 15.0529 115.3189 11.80542 C 114.8606 11.34108 112.1744 8.744263 112.1688 8.371521 C 112.1631 8.001984 118.1467 1.903152 118.6965 1.832565 Z M 118.7486 3.404526 C 117.8876 4.123825 114.518 7.511108 113.8032 8.37587 C 114.5768 9.359207 117.8557 12.59274 118.7339 13.27515 C 119.7521 12.54526 123.0651 9.131424 123.6657 8.364182 C 122.9672 7.491989 119.6148 4.110489 118.7486 3.404526 Z M 118.7566 7.36232 C 120.0915 7.326462 119.9973 9.659927 118.5452 9.314789 C 118.0569 9.198746 117.7446 8.607162 117.7308 8.44043 C 117.6988 8.05484 118.2805 7.375107 118.7566 7.36232 Z" fill-rule="evenodd" fill="#000000" fill-opacity="1" stroke="#000000" stroke-opacity="1" stroke-width="0.1" stroke-linecap="round" stroke-linejoin="round"/>
<path id="path_4143b2ffce34a3a102326942c31a59ff" d="M 151.2854 20.33195 C 150.9041 19.87367 148.5751 17.39406 147.7484 16.84282 C 147.5809 16.94574 147.7877 16.67732 146.6783 17.75195 C 146.4379 17.98482 144.0515 20.33095 143.6908 20.68011 C 143.0822 21.26933 141.5067 23.19501 141.1396 21.8903 C 140.9597 21.25125 143.2389 19.76051 146.7454 15.77165 C 146.4217 15.3912 144.0222 12.80244 143.1659 12.28781 C 140.8123 13.86993 137.5502 18.74336 136.6736 17.52444 C 136.2289 16.90607 142.6219 10.56168 143.1926 10.58542 C 143.4675 10.59685 143.5986 10.75537 145.7597 12.87413 C 151.3921 18.39626 151.5689 18.78429 152.368 19.23448 C 152.5571 19.08328 152.2881 19.38443 153.8431 17.85852 C 153.9048 17.79799 156.8538 14.8801 156.9152 14.81927 C 161.6855 10.09265 161.0158 10.8027 161.4564 10.57185 C 161.9531 10.81853 161.5871 10.43472 164.8662 13.69151 C 164.929 13.75383 164.9289 13.75391 167.9994 16.81123 C 167.9983 17.32207 168.0146 17.50003 167.8854 17.62724 C 167.6898 17.81999 167.4654 18.03807 165.8899 16.5069 C 165.5287 16.15581 163.3901 14.01974 162.9087 13.55141 C 161.5019 12.18295 161.6456 12.41849 161.3989 12.29749 C 160.6996 12.85664 158.5386 14.93094 157.8426 15.77545 C 161.4294 19.38684 160.4161 18.36589 161.74 19.70221 C 163.4553 21.43356 163.4995 21.55341 163.4888 21.76978 C 163.3834 23.90262 160.1759 19.60255 156.9258 16.83182 C 156.2198 17.21466 153.7852 19.68222 153.3573 20.36185 C 154.1277 21.37732 153.2626 20.34366 154.2272 21.32875 C 154.2868 21.38963 157.1689 24.29408 157.2286 24.35497 C 157.9532 25.095 159.2668 26.54626 159.2864 26.80443 C 159.3687 27.88596 145.6009 27.19876 145.5291 27.0497 C 146.2804 25.4138 147.9814 24.18169 151.2854 20.33195 Z M 152.3477 21.36819 C 151.3163 22.13498 148.7657 24.73834 148.2029 25.48454 C 148.7912 25.76595 155.4284 25.83319 156.3539 25.51689 C 156.0316 24.90443 153.3804 22.28973 152.3477 21.36819 Z M 152.2512 1.832642 C 152.6301 1.784012 152.4458 1.626282 155.8205 5.004181 C 157.0413 6.226074 158.9174 8.053223 158.9232 8.325867 C 158.9352 8.887909 152.9647 14.56551 152.3713 15.02339 C 151.9181 14.88014 152.0784 15.05302 148.8735 11.80554 C 148.4153 11.34117 145.7291 8.744339 145.7234 8.371582 C 145.7178 8.00206 151.7013 1.903198 152.2512 1.832642 Z M 152.3033 3.404602 C 151.4422 4.123901 148.0727 7.5112 147.3578 8.375977 C 148.1314 9.359299 151.4104 12.59282 152.2885 13.27522 C 153.3067 12.54533 156.6198 9.131516 157.2204 8.364273 C 156.5219 7.49205 153.1694 4.110565 152.3033 3.404602 Z M 152.3112 7.362381 C 153.6462 7.326538 153.5519 9.660019 152.0999 9.31488 C 151.6116 9.198822 151.2992 8.607239 151.2854 8.440536 C 151.2535 8.054932 151.8352 7.375168 152.3112 7.362381 Z" fill-rule="evenodd" fill="#000000" fill-opacity="1" stroke="#000000" stroke-opacity="1" stroke-width="0.1" stroke-linecap="round" stroke-linejoin="round"/>
<path id="path_ab7356f7029f66ff36e63a5ad7a06199" d="M 184.84 20.33191 C 184.4586 19.87361 182.1297 17.39403 181.303 16.84279 C 181.1355 16.94571 181.3423 16.67729 180.2329 17.75192 C 179.9925 17.98477 177.606 20.3309 177.2454 20.68007 C 176.6368 21.26929 175.0613 23.19495 174.6942 21.89024 C 174.5143 21.25119 176.7935 19.76048 180.3 15.77164 C 179.9763 15.39119 177.5768 12.80243 176.7205 12.2878 C 174.3669 13.86992 171.1048 18.7433 170.2282 17.52441 C 169.7835 16.90604 176.1765 10.56165 176.7472 10.58539 C 177.0221 10.59682 177.1532 10.75534 179.3142 12.87411 C 184.9467 18.39622 185.1235 18.78426 185.9226 19.23445 C 186.1116 19.08325 185.8427 19.3844 187.3977 17.85849 C 187.4594 17.79796 190.4083 14.88007 190.4697 14.81924 C 195.2401 10.09264 194.5704 10.80269 195.011 10.57184 C 195.5077 10.81851 195.1417 10.43472 198.4208 13.69151 C 198.4836 13.75383 198.4835 13.75386 201.5539 16.81122 C 201.5529 17.32204 201.5691 17.5 201.44 17.6272 C 201.2444 17.81996 201.02 18.03802 199.4445 16.50688 C 199.0833 16.15579 196.9447 14.01971 196.4632 13.55138 C 195.0564 12.18294 195.2001 12.41847 194.9535 12.29747 C 194.2542 12.85661 192.0932 14.93092 191.3972 15.77542 C 194.984 19.38683 193.9707 18.36588 195.2946 19.70218 C 197.0099 21.43352 197.054 21.55338 197.0433 21.76974 C 196.9379 23.90256 193.7305 19.60252 190.4804 16.83179 C 189.7744 17.21463 187.3398 19.68217 186.9119 20.36179 C 187.6823 21.37726 186.8172 20.34364 187.7818 21.3287 C 187.8414 21.38962 190.7235 24.29402 190.7831 24.3549 C 191.5078 25.09496 192.8214 26.5462 192.841 26.80438 C 192.9232 27.88589 179.1555 27.19868 179.0837 27.04962 C 179.835 25.41373 181.536 24.18164 184.84 20.33191 Z M 185.9023 21.36815 C 184.871 22.13493 182.3203 24.7383 181.7575 25.48448 C 182.3457 25.76588 188.983 25.83313 189.9085 25.51682 C 189.5862 24.9044 186.935 22.28969 185.9023 21.36815 Z M 185.8058 1.832626 C 186.1846 1.783997 186.0004 1.626312 189.3751 5.004166 C 190.5959 6.226074 192.472 8.053192 192.4778 8.325882 C 192.4897 8.887909 186.5193 14.56549 185.9258 15.02336 C 185.4727 14.88013 185.633 15.05298 182.4281 11.8055 C 181.9698 11.34116 179.2837 8.744339 179.278 8.371597 C 179.2724 8.00206 185.2559 1.903214 185.8058 1.832626 Z M 185.8578 3.404602 C 184.9968 4.123917 181.6273 7.511185 180.9124 8.375946 C 181.686 9.359299 184.965 12.59282 185.8431 13.27522 C 186.8613 12.54533 190.1743 9.1315 190.775 8.364258 C 190.0764 7.492065 186.724 4.110565 185.8578 3.404602 Z M 185.8658 7.362396 C 187.2008 7.326538 187.1065 9.660019 185.6544 9.314865 C 185.1662 9.198822 184.8538 8.607239 184.84 8.440521 C 184.8081 8.054932 185.3898 7.375183 185.8658 7.362396 Z" fill-rule="evenodd" fill="#000000" fill-opacity="1" stroke="#000000" stroke-opacity="1" stroke-width="0.1" stroke-linecap="round" stroke-linejoin="round"/>
<path id="path_3aee550b854c4ef8a5f496c8d39bbadf" d="M 218.3946 20.33185 C 218.0133 19.87357 215.6844 17.39395 214.8576 16.84271 C 214.6901 16.94563 214.8969 16.67722 213.7875 17.75185 C 213.5471 17.98471 211.1607 20.33084 210.8 20.68001 C 210.1914 21.26923 208.6159 23.1949 208.2488 21.8902 C 208.0689 21.25114 210.3481 19.76039 213.8546 15.77153 C 213.5309 15.39108 211.1314 12.80234 210.2751 12.2877 C 207.9215 13.86983 204.6594 18.74326 203.7828 17.52434 C 203.3381 16.90596 209.7311 10.56155 210.3019 10.5853 C 210.5768 10.59673 210.7078 10.75526 212.8689 12.87402 C 218.5013 18.39615 218.6781 18.78418 219.4772 19.23438 C 219.6663 19.08318 219.3974 19.38432 220.9523 17.85841 C 221.014 17.79788 223.963 14.87999 224.0244 14.81917 C 228.7947 10.09254 228.125 10.8026 228.5656 10.57175 C 229.0623 10.81842 228.6963 10.43462 231.9754 13.69141 C 232.0382 13.75372 232.0381 13.7538 235.1086 16.81113 C 235.1075 17.32196 235.1238 17.49992 234.9947 17.62714 C 234.799 17.81989 234.5746 18.03796 232.9992 16.50679 C 232.6379 16.1557 230.4994 14.01964 230.0179 13.5513 C 228.6111 12.18285 228.7548 12.41838 228.5081 12.29738 C 227.8088 12.85654 225.6478 14.93083 224.9518 15.77534 C 228.5387 19.38673 227.5253 18.36578 228.8492 19.7021 C 230.5645 21.43346 230.6087 21.5533 230.598 21.76967 C 230.4926 23.90251 227.2851 19.60245 224.035 16.83171 C 223.329 17.21455 220.8944 19.68211 220.4665 20.36174 C 221.2369 21.37721 220.3719 20.34355 221.3364 21.32864 C 221.3961 21.38953 224.2782 24.29398 224.3378 24.35486 C 225.0625 25.09489 226.376 26.54616 226.3957 26.80432 C 226.4779 27.88585 212.7101 27.19865 212.6384 27.04959 C 213.3896 25.4137 215.0906 24.18158 218.3946 20.33185 Z M 219.4569 21.36809 C 218.4256 22.13487 215.875 24.73824 215.3122 25.48444 C 215.9004 25.76584 222.5376 25.83308 223.4632 25.51678 C 223.1408 24.90433 220.4897 22.28963 219.4569 21.36809 Z M 219.3604 1.832535 C 219.7393 1.783905 219.555 1.626175 222.9297 5.004074 C 224.1505 6.225967 226.0267 8.053116 226.0325 8.32576 C 226.0444 8.887802 220.0739 14.5654 219.4805 15.02328 C 219.0273 14.88004 219.1877 15.05292 215.9827 11.80544 C 215.5245 11.34106 212.8383 8.744232 212.8326 8.371475 C 212.827 8.001953 218.8105 1.903091 219.3604 1.832535 Z M 219.4125 3.404495 C 218.5514 4.123795 215.1819 7.511093 214.4671 8.37587 C 215.2407 9.359192 218.5196 12.59271 219.3978 13.27512 C 220.416 12.54523 223.729 9.131409 224.3296 8.364166 C 223.6311 7.491943 220.2787 4.110458 219.4125 3.404495 Z M 219.4204 7.362274 C 220.7554 7.326431 220.6612 9.659912 219.2091 9.314774 C 218.7208 9.198715 218.4084 8.607132 218.3946 8.44043 C 218.3627 8.054825 218.9444 7.375061 219.4204 7.362274 Z" fill-rule="evenodd" fill="#000000" fill-opacity="1" stroke="#000000" stroke-opacity="1" stroke-width="0.1" stroke-linecap="round" stroke-linejoin="round"/>
<path id="path_d08b594b8a7947ec38e81cc1cc280a7e" d="M 251.9493 20.33179 C 251.5679 19.87349 249.239 17.39389 248.4122 16.84265 C 248.2448 16.94559 248.4516 16.67717 247.3422 17.7518 C 247.1018 17.98465 244.7153 20.33078 244.3547 20.67995 C 243.746 21.26917 242.1706 23.19482 241.8034 21.89012 C 241.6236 21.25107 243.9028 19.76036 247.4092 15.77151 C 247.0856 15.39107 244.686 12.80231 243.8298 12.28767 C 241.4762 13.8698 238.214 18.74318 237.3374 17.52429 C 236.8927 16.90591 243.2858 10.56152 243.8565 10.58527 C 244.1314 10.59669 244.2624 10.75522 246.4235 12.87399 C 252.056 18.3961 252.2328 18.78413 253.0319 19.23433 C 253.2209 19.08313 252.952 19.38428 254.507 17.85837 C 254.5686 17.79784 257.5176 14.87994 257.579 14.81912 C 262.3494 10.09251 261.6796 10.80255 262.1203 10.5717 C 262.617 10.81837 262.251 10.4346 265.5301 13.69139 C 265.5928 13.75371 265.5927 13.75374 268.6632 16.8111 C 268.6621 17.32191 268.6784 17.49988 268.5493 17.62708 C 268.3537 17.81984 268.1293 18.0379 266.5538 16.50676 C 266.1925 16.15567 264.054 14.01959 263.5725 13.55125 C 262.1657 12.18282 262.3094 12.41835 262.0627 12.29735 C 261.3634 12.85649 259.2024 14.9308 258.5064 15.7753 C 262.0933 19.3867 261.08 18.36574 262.4038 19.70204 C 264.1191 21.43338 264.1633 21.55325 264.1526 21.76962 C 264.0472 23.90244 260.8397 19.6024 257.5896 16.83167 C 256.8837 17.21451 254.4491 19.68205 254.0211 20.36166 C 254.7915 21.37714 253.9265 20.34351 254.8911 21.32857 C 254.9507 21.38948 257.8328 24.2939 257.8924 24.35478 C 258.6171 25.09483 259.9307 26.54608 259.9503 26.80426 C 260.0325 27.88577 246.2648 27.19856 246.193 27.0495 C 246.9443 25.4136 248.6452 24.18152 251.9493 20.33179 Z M 253.0115 21.36801 C 251.9802 22.1348 249.4296 24.73817 248.8668 25.48436 C 249.455 25.76576 256.0922 25.83301 257.0178 25.51669 C 256.6954 24.90428 254.0443 22.28955 253.0115 21.36801 Z M 252.9151 1.832504 C 253.2939 1.783875 253.1097 1.62619 256.4844 5.004044 C 257.7052 6.225952 259.5813 8.05307 259.5871 8.32576 C 259.599 8.887787 253.6285 14.56535 253.0351 15.02322 C 252.5819 14.87999 252.7423 15.05286 249.5374 11.80537 C 249.0791 11.34103 246.393 8.744217 246.3873 8.371475 C 246.3817 8.001938 252.3652 1.903091 252.9151 1.832504 Z M 252.9671 3.40448 C 252.1061 4.123795 248.7365 7.511063 248.0217 8.375824 C 248.7953 9.359177 252.0742 12.59268 252.9524 13.27509 C 253.9706 12.5452 257.2836 9.131363 257.8843 8.36412 C 257.1857 7.491928 253.8333 4.110443 252.9671 3.40448 Z M 252.9751 7.362274 C 254.3101 7.326416 254.2158 9.659897 252.7637 9.314743 C 252.2755 9.1987 251.9631 8.607117 251.9493 8.440399 C 251.9173 8.05481 252.4991 7.375061 252.9751 7.362274 Z" fill-rule="evenodd" fill="#000000" fill-opacity="1" stroke="#000000" stroke-opacity="1" stroke-width="0.1" stroke-linecap="round" stroke-linejoin="round"/>
</defs>
<g>
<use xlink:href="#path_e1552aa8bf1278558672518d035a22e7"/>
</g>
<g>
<use xlink:href="#path_531f3bfd19ab3e0af1e5b52c43dbc563"/>
</g>
<g>
<use xlink:href="#path_0e1c880bfca627d60417f3fce253c3af"/>
</g>
<g>
<use xlink:href="#path_a423af54fb408ea8b33aa86701a4cf0c"/>
</g>
<g>
<use xlink:href="#path_4143b2ffce34a3a102326942c31a59ff"/>
</g>
<g>
<use xlink:href="#path_ab7356f7029f66ff36e63a5ad7a06199"/>
</g>
<g>
<use xlink:href="#path_3aee550b854c4ef8a5f496c8d39bbadf"/>
</g>
<g>
<use xlink:href="#path_d08b594b8a7947ec38e81cc1cc280a7e"/>
</g>
</svg>