<?xml version="1.0" encoding="utf-8"?>
<!DOCTYPE svg PUBLIC "-//W3C//DTD SVG 1.1//EN" "http://www.w3.org/Graphics/SVG/1.1/DTD/svg11.dtd">
<!-- exported from Silhouette Studio® Business Edition V5.0.414ssbe -->
<svg version="1.1" xmlns="http://www.w3.org/2000/svg" xmlns:xlink="http://www.w3.org/1999/xlink" width="270.9333mm" height="35.3mm" viewBox="0 0 270.9333 35.3">
<defs>
<path id="path_6c640e31624f82ec0ef88b548776d23a" d="M 17.09853 23.24436 C 16.71716 22.78608 14.38826 20.30646 13.5615 19.75522 C 13.39402 19.85816 13.60084 19.58972 12.4914 20.66437 C 12.25103 20.89721 9.864566 23.24335 9.503909 23.59252 C 8.895282 24.18174 7.319839 26.10743 6.952674 24.80272 C 6.772841 24.16365 9.052022 22.67291 12.5585 18.68405 C 12.23481 18.30361 9.835266 15.71485 8.979024 15.20021 C 6.625413 16.78235 3.363262 21.65577 2.486672 20.43685 C 2.041966 19.81847 8.434989 13.47406 9.00575 13.49781 C 9.280645 13.50925 9.411674 13.66776 11.57277 15.78653 C 17.20523 21.30866 17.38201 21.6967 18.18111 22.14688 C 18.37015 21.99568 18.10125 22.29683 19.6562 20.77093 C 19.71789 20.71039 22.66687 17.7925 22.72826 17.73168 C 27.49859 13.00504 26.82888 13.71508 27.26952 13.48424 C 27.76623 13.73091 27.40023 13.34713 30.67934 16.60392 C 30.74208 16.66626 30.74203 16.66631 33.81248 19.72364 C 33.81142 20.23448 33.82766 20.41244 33.69855 20.53966 C 33.50293 20.73239 33.27853 20.95048 31.70305 19.41931 C 31.3418 19.0682 29.20323 16.93215 28.72176 16.46382 C 27.31496 15.09536 27.45867 15.33089 27.21199 15.20989 C 26.51269 15.76905 24.3517 17.84334 23.65571 18.68785 C 27.24253 22.29926 26.2292 21.27831 27.55311 22.61463 C 29.26838 24.34595 29.31256 24.46581 29.30188 24.68219 C 29.19649 26.81499 25.98899 22.51494 22.73891 19.74422 C 22.03292 20.12707 19.59832 22.59464 19.17039 23.27426 C 19.94078 24.28973 19.07574 23.2561 20.04031 24.24116 C 20.09995 24.30205 22.98203 27.20645 23.04166 27.26737 C 23.76634 28.00739 25.07991 29.45865 25.09953 29.71683 C 25.18178 30.79834 11.41401 30.11115 11.34225 29.9621 C 12.09352 28.32619 13.79449 27.09409 17.09853 23.24436 Z M 18.16077 24.28061 C 17.12945 25.04738 14.57885 27.65074 14.01604 28.39694 C 14.60428 28.67835 21.24147 28.7456 22.16705 28.42928 C 21.84472 27.81686 19.19354 25.20214 18.16077 24.28061 Z M 18.06429 4.745042 C 18.44316 4.696413 18.2589 4.538682 21.63364 7.916598 C 22.85441 9.138491 24.73056 10.96559 24.73634 11.23828 C 24.74826 11.80031 18.7778 17.47791 18.18436 17.93578 C 17.73118 17.79254 17.89156 17.96542 14.68661 14.71793 C 14.22835 14.25359 11.5422 11.65674 11.53651 11.284 C 11.53089 10.91446 17.51442 4.815614 18.06429 4.745042 Z M 18.11634 6.317005 C 17.25531 7.036318 13.88578 10.4236 13.17097 11.28838 C 13.94455 12.2717 17.22349 15.50522 18.10165 16.18764 C 19.11985 15.45774 22.43286 12.04392 23.0335 11.27666 C 22.33496 10.40445 18.98253 7.022967 18.11634 6.317005 Z M 18.12434 10.27479 C 19.45929 10.23895 19.36504 12.57242 17.91294 12.22726 C 17.4247 12.11122 17.11232 11.51964 17.09853 11.35292 C 17.06657 10.96732 17.64829 10.28758 18.12434 10.27479 Z" fill-rule="evenodd" fill="#000000" fill-opacity="1" stroke="#000000" stroke-opacity="1" stroke-width="0.79375" stroke-linecap="round" stroke-linejoin="round"/>
<path id="path_05f55898621630994221d3c69fbb3470" d="M 50.65314 23.2443 C 50.27177 22.78602 47.94288 20.30641 47.11611 19.75517 C 46.94863 19.85809 47.15546 19.58967 46.04603 20.66432 C 45.80565 20.89716 43.41919 23.24329 43.05854 23.59245 C 42.44992 24.18166 40.87446 26.10734 40.50731 24.80265 C 40.32748 24.1636 42.60666 22.67286 46.11311 18.68401 C 45.78944 18.30357 43.3899 15.71481 42.53365 15.20017 C 40.18004 16.7823 36.91789 21.65571 36.04131 20.43681 C 35.5966 19.81843 41.98962 13.47404 42.56038 13.4978 C 42.83527 13.50922 42.9663 13.66773 45.12738 15.78649 C 50.75984 21.3086 50.93662 21.69663 51.73572 22.14683 C 51.92476 21.99563 51.65586 22.29676 53.2108 20.77085 C 53.27249 20.71032 56.22147 17.79246 56.28286 17.73162 C 61.05321 13.00501 60.38348 13.71507 60.82412 13.48422 C 61.32084 13.73089 60.95481 13.3471 64.23393 16.60388 C 64.29668 16.66619 64.2966 16.66627 67.36706 19.7236 C 67.366 20.23443 67.38226 20.41239 67.25314 20.53961 C 67.05753 20.73235 66.83312 20.95043 65.25764 19.41927 C 64.89639 19.06818 62.75781 16.93209 62.27635 16.46377 C 60.86955 15.09532 61.01325 15.33083 60.76658 15.20983 C 60.06728 15.76899 57.90631 17.84332 57.21032 18.68781 C 60.79714 22.2992 59.78379 21.27825 61.1077 22.61454 C 62.82298 24.34589 62.86716 24.46575 62.85646 24.68212 C 62.75108 26.81495 59.54359 22.51492 56.2935 19.74418 C 55.58752 20.12702 53.15292 22.59455 52.72499 23.27418 C 53.49538 24.28967 52.63035 23.25601 53.59492 24.24108 C 53.65456 24.30198 56.53664 27.2064 56.59629 27.2673 C 57.32095 28.00732 58.63449 29.4586 58.65414 29.71676 C 58.73638 30.79829 44.96864 30.11108 44.89687 29.96203 C 45.64814 28.32613 47.34911 27.09402 50.65314 23.2443 Z M 51.71538 24.28053 C 50.68407 25.04731 48.13347 27.65067 47.57067 28.39687 C 48.1589 28.67826 54.79608 28.74551 55.72167 28.42922 C 55.39932 27.81677 52.74816 25.20207 51.71538 24.28053 Z M 51.61892 4.745025 C 51.99778 4.696411 51.8135 4.538696 55.18826 7.916579 C 56.40903 9.138473 58.28515 10.9656 58.29094 11.23826 C 58.30286 11.8003 52.33241 17.47785 51.73898 17.93574 C 51.28579 17.79249 51.44616 17.96539 48.24122 14.7179 C 47.78297 14.25353 45.09681 11.65672 45.09114 11.28396 C 45.0855 10.91442 51.06903 4.815597 51.61892 4.745025 Z M 51.67096 6.316984 C 50.80992 7.036284 47.4404 10.42356 46.72557 11.28836 C 47.49916 12.27168 50.77811 15.50518 51.65626 16.18758 C 52.67445 15.4577 55.98746 12.04389 56.58811 11.27664 C 55.88957 10.40443 52.53716 7.022949 51.67096 6.316984 Z M 51.67894 10.27476 C 53.0139 10.2389 52.91965 12.57238 51.46755 12.22725 C 50.9793 12.11119 50.66693 11.51962 50.65314 11.35292 C 50.6212 10.96731 51.20289 10.28755 51.67894 10.27476 Z" fill-rule="evenodd" fill="#000000" fill-opacity="1" stroke="#000000" stroke-opacity="1" stroke-width="0.79375" stroke-linecap="round" stroke-linejoin="round"/>
<path id="path_d5bfe65a9732e3a2c1f1b24fa4439f96" d="M 84.20773 23.24439 C 83.82637 22.78611 81.49747 20.3065 80.67072 19.75526 C 80.50323 19.85818 80.71004 19.58978 79.60062 20.66441 C 79.36024 20.89727 76.97378 23.24341 76.61311 23.59258 C 76.00449 24.18179 74.42905 26.10745 74.0619 24.80274 C 73.88206 24.16369 76.16125 22.67295 79.66771 18.68409 C 79.34404 18.30364 76.9445 15.71488 76.08825 15.20025 C 73.73463 16.78237 70.47247 21.6558 69.59589 20.43688 C 69.15118 19.81851 75.5442 13.47411 76.11497 13.49786 C 76.38987 13.50929 76.52089 13.66781 78.68198 15.78657 C 84.31444 21.30869 84.49123 21.69672 85.29032 22.14692 C 85.47936 21.99572 85.21048 22.29687 86.7654 20.77096 C 86.8271 20.71043 89.77607 17.79255 89.83748 17.73173 C 94.60781 13.00511 93.93811 13.71514 94.37873 13.48429 C 94.87543 13.73097 94.50942 13.34718 97.78854 16.60397 C 97.85129 16.66628 97.85124 16.66636 100.9217 19.72369 C 100.9206 20.23452 100.9369 20.41248 100.8078 20.5397 C 100.6122 20.73245 100.3877 20.95052 98.81226 19.41935 C 98.451 19.06826 96.31243 16.93218 95.83097 16.46385 C 94.42416 15.09539 94.56787 15.33093 94.32121 15.20992 C 93.62189 15.76908 91.46092 17.84339 90.76492 18.68791 C 94.35175 22.29929 93.33842 21.27834 94.66232 22.61466 C 96.37761 24.34602 96.42177 24.46584 96.41109 24.68221 C 96.30569 26.81506 93.0982 22.51501 89.84811 19.74428 C 89.14214 20.12711 86.70753 22.59466 86.27959 23.27431 C 87.05 24.28977 86.18496 23.25611 87.14953 24.2412 C 87.20917 24.30209 90.09124 27.20652 90.15089 27.2674 C 90.87554 28.00744 92.18911 29.4587 92.20875 29.71687 C 92.29098 30.79839 78.52324 30.1112 78.45145 29.96214 C 79.20274 28.32624 80.90371 27.09412 84.20773 23.24439 Z M 85.26997 24.28065 C 84.23867 25.04743 81.68806 27.65078 81.12527 28.39698 C 81.71349 28.67838 88.35067 28.74563 89.27627 28.42933 C 88.95393 27.81688 86.30276 25.20219 85.26997 24.28065 Z M 85.17348 4.745087 C 85.55237 4.696456 85.36813 4.538743 88.74286 7.916642 C 89.96364 9.138533 91.83978 10.96568 91.84555 11.23832 C 91.85747 11.80037 85.88702 17.47796 85.29358 17.93585 C 84.84039 17.7926 85.00076 17.96548 81.79583 14.718 C 81.33758 14.25362 78.6514 11.6568 78.64571 11.28404 C 78.6401 10.91452 84.62363 4.81566 85.17348 4.745087 Z M 85.22556 6.317047 C 84.36452 7.036347 80.995 10.42364 80.28017 11.28842 C 81.05376 12.27174 84.3327 15.50527 85.21087 16.18768 C 86.22906 15.45779 89.54208 12.04396 90.14272 11.27672 C 89.44418 10.40449 86.09176 7.023011 85.22556 6.317047 Z M 85.23354 10.27484 C 86.5685 10.239 86.47426 12.57246 85.02215 12.22732 C 84.53391 12.11126 84.22153 11.5197 84.20773 11.35298 C 84.1758 10.96737 84.75749 10.28763 85.23354 10.27484 Z" fill-rule="evenodd" fill="#000000" fill-opacity="1" stroke="#000000" stroke-opacity="1" stroke-width="0.79375" stroke-linecap="round" stroke-linejoin="round"/>
<path id="path_fc87aeaf033189a22f38f5d70aa16da6" d="M 117.7624 23.24437 C 117.381 22.78608 115.0521 20.30649 114.2253 19.75526 C 114.0579 19.85818 114.2647 19.58975 113.1553 20.6644 C 112.9149 20.89725 110.5284 23.24337 110.1678 23.59253 C 109.5591 24.18175 107.9837 26.10742 107.6165 24.80272 C 107.4367 24.16366 109.7159 22.67295 113.2223 18.68409 C 112.8987 18.30364 110.4991 15.71489 109.6429 15.20026 C 107.2893 16.78238 104.0271 21.65577 103.1505 20.43686 C 102.7058 19.8185 109.0988 13.47411 109.6696 13.49785 C 109.9445 13.50928 110.0755 13.6678 112.2366 15.78658 C 117.8691 21.30867 118.0458 21.69672 118.8449 22.1469 C 119.034 21.99572 118.7651 22.29686 120.32 20.77096 C 120.3817 20.71042 123.3307 17.79253 123.3921 17.73171 C 128.1624 13.0051 127.4927 13.71514 127.9333 13.4843 C 128.4302 13.73098 128.0642 13.34718 131.3432 16.60398 C 131.4059 16.66629 131.4059 16.66632 134.4763 19.72367 C 134.4752 20.2345 134.4915 20.41245 134.3624 20.53967 C 134.1668 20.73244 133.9424 20.9505 132.3669 19.41934 C 132.0056 19.06825 129.8671 16.93218 129.3856 16.46384 C 127.9788 15.0954 128.1226 15.33094 127.8758 15.20993 C 127.1765 15.76908 125.0155 17.84339 124.3195 18.68789 C 127.9064 22.2993 126.893 21.27835 128.2169 22.61465 C 129.9322 24.34599 129.9764 24.46582 129.9658 24.68219 C 129.8603 26.81501 126.6528 22.51499 123.4027 19.74425 C 122.6968 20.12709 120.2622 22.59464 119.8342 23.27425 C 120.6046 24.28972 119.7396 23.25612 120.7041 24.24118 C 120.7638 24.30207 123.6459 27.20649 123.7055 27.26738 C 124.4302 28.00742 125.7437 29.45867 125.7634 29.71685 C 125.8456 30.79836 112.0779 30.11116 112.0061 29.96209 C 112.7574 28.32621 114.4583 27.0941 117.7624 23.24437 Z M 118.8246 24.28062 C 117.7933 25.04741 115.2427 27.65076 114.6799 28.39695 C 115.2681 28.67835 121.9053 28.74559 122.8309 28.42927 C 122.5086 27.81687 119.8574 25.20216 118.8246 24.28062 Z M 118.7281 4.745105 C 119.107 4.696476 118.9227 4.538761 122.2975 7.916629 C 123.5183 9.138536 125.3944 10.96565 125.4002 11.23834 C 125.4121 11.80035 119.4416 17.47795 118.8482 17.93582 C 118.395 17.79259 118.5554 17.96545 115.3505 14.71796 C 114.8922 14.25362 112.206 11.6568 112.2004 11.28406 C 112.1947 10.91452 118.1783 4.815692 118.7281 4.745105 Z M 118.7802 6.317067 C 117.9192 7.036366 114.5496 10.42364 113.8348 11.28841 C 114.6084 12.27174 117.8873 15.50528 118.7655 16.18769 C 119.7837 15.4578 123.0967 12.04396 123.6973 11.27672 C 122.9988 10.40453 119.6464 7.023029 118.7802 6.317067 Z M 118.7882 10.27486 C 120.1231 10.239 120.0289 12.57246 118.5768 12.22733 C 118.0885 12.11128 117.7762 11.5197 117.7624 11.35297 C 117.7304 10.96738 118.3121 10.28764 118.7882 10.27486 Z" fill-rule="evenodd" fill="#000000" fill-opacity="1" stroke="#000000" stroke-opacity="1" stroke-width="0.79375" stroke-linecap="round" stroke-linejoin="round"/>
<path id="path_256d91b2244e6a4ad902f9e83893cc9d" d="M 151.317 23.24448 C 150.9357 22.7862 148.6067 20.30659 147.78 19.75535 C 147.6125 19.85827 147.8193 19.58985 146.7099 20.66448 C 146.4695 20.89735 144.0831 23.24349 143.7224 23.59264 C 143.1138 24.18186 141.5383 26.10754 141.1712 24.80283 C 140.9913 24.16378 143.2705 22.67304 146.777 18.68418 C 146.4533 18.30373 144.0538 15.71498 143.1975 15.20035 C 140.8439 16.78246 137.5818 21.65589 136.7052 20.43697 C 136.2605 19.8186 142.6535 13.47421 143.2242 13.49795 C 143.4991 13.50938 143.6302 13.6679 145.7913 15.78666 C 151.4237 21.30879 151.6005 21.69682 152.3996 22.14701 C 152.5887 21.99581 152.3197 22.29696 153.8747 20.77105 C 153.9364 20.71052 156.8854 17.79264 156.9468 17.73181 C 161.7171 13.00519 161.0474 13.71523 161.488 13.48438 C 161.9847 13.73106 161.6187 13.34725 164.8978 16.60404 C 164.9606 16.66636 164.9605 16.66644 168.031 19.72376 C 168.0299 20.2346 168.0462 20.41256 167.917 20.53977 C 167.7214 20.73252 167.497 20.9506 165.9215 19.41943 C 165.5603 19.06834 163.4217 16.93228 162.9403 16.46394 C 161.5335 15.09548 161.6772 15.33102 161.4305 15.21002 C 160.7312 15.76917 158.5702 17.84347 157.8742 18.68798 C 161.461 22.29937 160.4477 21.27842 161.7716 22.61474 C 163.4869 24.34609 163.5311 24.46594 163.5204 24.68231 C 163.415 26.81515 160.2075 22.51508 156.9574 19.74435 C 156.2514 20.12719 153.8168 22.59475 153.3889 23.27438 C 154.1593 24.28986 153.2942 23.25619 154.2588 24.24128 C 154.3184 24.30216 157.2005 27.20661 157.2602 27.2675 C 157.9848 28.00753 159.2984 29.45879 159.318 29.71696 C 159.4003 30.79849 145.6325 30.11129 145.5607 29.96223 C 146.312 28.32633 148.013 27.09422 151.317 23.24448 Z M 152.3793 24.28072 C 151.3479 25.04751 148.7973 27.65087 148.2345 28.39707 C 148.8228 28.67848 155.46 28.74572 156.3855 28.42942 C 156.0632 27.81696 153.412 25.20226 152.3793 24.28072 Z M 152.2828 4.745177 C 152.6617 4.696548 152.4774 4.538817 155.8521 7.916716 C 157.0729 9.138609 158.949 10.96576 158.9548 11.2384 C 158.9668 11.80044 152.9963 17.47804 152.4029 17.93592 C 151.9497 17.79267 152.11 17.96555 148.9051 14.71807 C 148.4469 14.2537 145.7607 11.65687 145.755 11.28412 C 145.7494 10.91459 151.7329 4.815733 152.2828 4.745177 Z M 152.3349 6.317138 C 151.4738 7.036437 148.1043 10.42373 147.3894 11.28851 C 148.163 12.27183 151.442 15.50535 152.3201 16.18775 C 153.3383 15.45786 156.6514 12.04405 157.252 11.27681 C 156.5535 10.40458 153.201 7.0231 152.3349 6.317138 Z M 152.3428 10.27491 C 153.6778 10.23907 153.5835 12.57255 152.1315 12.22741 C 151.6432 12.11136 151.3308 11.51977 151.317 11.35307 C 151.2851 10.96747 151.8668 10.2877 152.3428 10.27491 Z" fill-rule="evenodd" fill="#000000" fill-opacity="1" stroke="#000000" stroke-opacity="1" stroke-width="0.79375" stroke-linecap="round" stroke-linejoin="round"/>
<path id="path_205c4fa4e9c8b83c6d069526c7a0d6d3" d="M 184.8716 23.24445 C 184.4902 22.78615 182.1613 20.30657 181.3346 19.75533 C 181.1671 19.85825 181.3739 19.58982 180.2645 20.66445 C 180.0241 20.89731 177.6376 23.24344 177.277 23.59261 C 176.6684 24.18183 175.0929 26.10749 174.7258 24.80278 C 174.5459 24.16373 176.8251 22.67301 180.3316 18.68417 C 180.0079 18.30372 177.6084 15.71496 176.7521 15.20033 C 174.3985 16.78245 171.1364 21.65584 170.2598 20.43694 C 169.8151 19.81857 176.2081 13.47418 176.7788 13.49792 C 177.0537 13.50935 177.1848 13.66788 179.3458 15.78665 C 184.9783 21.30876 185.1551 21.69679 185.9542 22.14699 C 186.1432 21.99579 185.8743 22.29694 187.4293 20.77102 C 187.491 20.71049 190.4399 17.7926 190.5013 17.73177 C 195.2717 13.00517 194.602 13.71522 195.0426 13.48438 C 195.5393 13.73105 195.1733 13.34725 198.4524 16.60405 C 198.5152 16.66637 198.5151 16.66639 201.5855 19.72376 C 201.5845 20.23457 201.6007 20.41254 201.4716 20.53974 C 201.276 20.73249 201.0516 20.95056 199.4761 19.41941 C 199.1149 19.06832 196.9764 16.93224 196.4948 16.46391 C 195.0881 15.09547 195.2318 15.33101 194.9851 15.21 C 194.2858 15.76914 192.1249 17.84346 191.4288 18.68796 C 195.0156 22.29937 194.0023 21.27842 195.3262 22.61472 C 197.0416 24.34606 197.0857 24.46591 197.0749 24.68228 C 196.9695 26.8151 193.7621 22.51506 190.512 19.74433 C 189.806 20.12716 187.3714 22.59471 186.9435 23.27433 C 187.7139 24.2898 186.8488 23.25618 187.8134 24.24124 C 187.8731 24.30215 190.7551 27.20656 190.8147 27.26744 C 191.5394 28.0075 192.853 29.45874 192.8726 29.71692 C 192.9549 30.79843 179.1871 30.11122 179.1153 29.96216 C 179.8666 28.32627 181.5676 27.09418 184.8716 23.24445 Z M 185.9339 24.28068 C 184.9026 25.04747 182.3519 27.65084 181.7891 28.39702 C 182.3773 28.67842 189.0147 28.74567 189.9401 28.42936 C 189.6179 27.81694 186.9666 25.20223 185.9339 24.28068 Z M 185.8374 4.745164 C 186.2162 4.696534 186.0322 4.53885 189.4067 7.916704 C 190.6276 9.138613 192.5036 10.96573 192.5095 11.23842 C 192.5214 11.80044 186.551 17.47802 185.9575 17.9359 C 185.5044 17.79267 185.6647 17.96551 182.4598 14.71804 C 182.0014 14.2537 179.3153 11.65687 179.3096 11.28413 C 179.304 10.91459 185.2875 4.815753 185.8374 4.745164 Z M 185.8895 6.317139 C 185.0284 7.036455 181.6589 10.42372 180.944 11.28848 C 181.7176 12.27183 184.9966 15.50536 185.8747 16.18775 C 186.893 15.45786 190.2059 12.04404 190.8066 11.2768 C 190.108 10.4046 186.7557 7.023102 185.8895 6.317139 Z M 185.8974 10.27493 C 187.2325 10.23907 187.1382 12.57255 185.686 12.2274 C 185.1978 12.11137 184.8854 11.51977 184.8716 11.35306 C 184.8397 10.96747 185.4215 10.28772 185.8974 10.27493 Z" fill-rule="evenodd" fill="#000000" fill-opacity="1" stroke="#000000" stroke-opacity="1" stroke-width="0.79375" stroke-linecap="round" stroke-linejoin="round"/>
<path id="path_c36f61a097f796661fe678425f6bf6bb" d="M 218.4263 23.24439 C 218.0451 22.78612 215.716 20.30649 214.8893 19.75524 C 214.7218 19.85817 214.9286 19.58977 213.8192 20.66439 C 213.5788 20.89725 211.1924 23.24338 210.8318 23.59254 C 210.2231 24.18176 208.6476 26.10743 208.2804 24.80274 C 208.1006 24.16367 210.3799 22.67294 213.8863 18.68407 C 213.5626 18.30362 211.1631 15.71488 210.3069 15.20024 C 207.9533 16.78237 204.6911 21.65579 203.8145 20.43687 C 203.3698 19.81849 209.7628 13.47409 210.3335 13.49784 C 210.6084 13.50927 210.7395 13.6678 212.9007 15.78656 C 218.5331 21.30869 218.7098 21.69672 219.509 22.14692 C 219.6981 21.99572 219.4292 22.29687 220.9841 20.77095 C 221.0457 20.71041 223.9948 17.79254 224.0561 17.73171 C 228.8264 13.00508 228.1568 13.71514 228.5974 13.48429 C 229.094 13.73096 228.728 13.34716 232.0072 16.60395 C 232.0699 16.66626 232.0699 16.66634 235.1404 19.72367 C 235.1393 20.2345 235.1556 20.41246 235.0264 20.53968 C 234.8307 20.73242 234.6064 20.95049 233.031 19.41933 C 232.6696 19.06823 230.5312 16.93218 230.0497 16.46384 C 228.6429 15.09539 228.7864 15.33092 228.5398 15.20992 C 227.8405 15.76907 225.6796 17.84337 224.9836 18.68788 C 228.5704 22.29927 227.557 21.27832 228.881 22.61463 C 230.5963 24.34599 230.6404 24.46583 230.6297 24.6822 C 230.5243 26.81505 227.3167 22.515 224.0667 19.74425 C 223.3606 20.12709 220.9261 22.59464 220.4981 23.27427 C 221.2686 24.28974 220.4036 23.25609 221.3681 24.24118 C 221.4279 24.30207 224.3098 27.20653 224.3696 27.2674 C 225.0942 28.00742 226.4076 29.4587 226.4274 29.71686 C 226.5096 30.79838 212.7419 30.11118 212.6702 29.96212 C 213.4212 28.32623 215.1223 27.09412 218.4263 23.24439 Z M 219.4886 24.28063 C 218.4574 25.04741 215.9066 27.65078 215.3439 28.39698 C 215.9321 28.67838 222.5694 28.74562 223.4948 28.42932 C 223.1725 27.81688 220.5214 25.20216 219.4886 24.28063 Z M 219.3922 4.745074 C 219.771 4.696445 219.5867 4.538713 222.9614 7.916613 C 224.1823 9.138506 226.0584 10.96565 226.0642 11.2383 C 226.076 11.80034 220.1057 17.47795 219.5123 17.93583 C 219.0591 17.79259 219.2195 17.96546 216.0145 14.71798 C 215.5562 14.2536 212.8701 11.65677 212.8643 11.28401 C 212.8587 10.91449 218.8422 4.815631 219.3922 4.745074 Z M 219.4442 6.317033 C 218.583 7.036334 215.2136 10.42363 214.4989 11.28841 C 215.2724 12.27173 218.5513 15.50525 219.4296 16.18766 C 220.4478 15.45777 223.7607 12.04394 224.3613 11.2767 C 223.6628 10.40448 220.3103 7.022997 219.4442 6.317033 Z M 219.4522 10.27481 C 220.7872 10.23897 220.6929 12.57245 219.2408 12.22731 C 218.7526 12.11125 218.4402 11.51967 218.4263 11.35297 C 218.3944 10.96736 218.9762 10.2876 219.4522 10.27481 Z" fill-rule="evenodd" fill="#000000" fill-opacity="1" stroke="#000000" stroke-opacity="1" stroke-width="0.79375" stroke-linecap="round" stroke-linejoin="round"/>
<path id="path_eda3d04f07d9c6db523f81c09dcee770" d="M 251.981 23.24434 C 251.5996 22.78604 249.2707 20.30644 248.4439 19.7552 C 248.2765 19.85814 248.4833 19.58972 247.3739 20.66435 C 247.1335 20.8972 244.747 23.24332 244.3864 23.5925 C 243.7777 24.18172 242.2023 26.10737 241.8351 24.80267 C 241.6553 24.16362 243.9345 22.6729 247.4409 18.68406 C 247.1173 18.30362 244.7177 15.71486 243.8615 15.20022 C 241.5079 16.78235 238.2457 21.65573 237.3691 20.43684 C 236.9244 19.81846 243.3175 13.47406 243.8882 13.49781 C 244.1631 13.50923 244.2941 13.66777 246.4552 15.78654 C 252.0877 21.30865 252.2645 21.69668 253.0636 22.14688 C 253.2526 21.99568 252.9837 22.29683 254.5387 20.77092 C 254.6003 20.71039 257.5494 17.79249 257.6108 17.73166 C 262.3812 13.00505 261.7114 13.71509 262.152 13.48424 C 262.6487 13.73091 262.2828 13.34715 265.5619 16.60394 C 265.6246 16.66626 265.6245 16.66629 268.6949 19.72365 C 268.6938 20.23446 268.7101 20.41243 268.5811 20.53963 C 268.3854 20.73239 268.1611 20.95045 266.5856 19.41931 C 266.2243 19.06822 264.0858 16.93214 263.6042 16.4638 C 262.1975 15.09537 262.3412 15.3309 262.0945 15.2099 C 261.3952 15.76904 259.2342 17.84335 258.5381 18.68785 C 262.1251 22.29925 261.1118 21.27829 262.4355 22.61459 C 264.1508 24.34593 264.1951 24.46581 264.1844 24.68217 C 264.079 26.81499 260.8715 22.51495 257.6214 19.74422 C 256.9155 20.12706 254.4808 22.59459 254.0528 23.27421 C 254.8232 24.28969 253.9582 23.25606 254.9228 24.24112 C 254.9824 24.30202 257.8646 27.20645 257.9242 27.26733 C 258.6489 28.00738 259.9625 29.45863 259.9821 29.71681 C 260.0643 30.79832 246.2965 30.11111 246.2247 29.96205 C 246.976 28.32615 248.6769 27.09407 251.981 23.24434 Z M 253.0432 24.28056 C 252.0119 25.04735 249.4613 27.65072 248.8985 28.39692 C 249.4867 28.67831 256.124 28.74556 257.0496 28.42924 C 256.7272 27.81684 254.076 25.2021 253.0432 24.28056 Z M 252.9468 4.74504 C 253.3256 4.696412 253.1415 4.538728 256.5162 7.916584 C 257.737 9.138492 259.6131 10.9656 259.6189 11.23829 C 259.6308 11.80032 253.6602 17.4779 253.0668 17.93577 C 252.6136 17.79254 252.774 17.9654 249.5691 14.71792 C 249.1108 14.25358 246.4247 11.65675 246.4191 11.28401 C 246.4135 10.91447 252.3969 4.815627 252.9468 4.74504 Z M 252.9988 6.31702 C 252.1378 7.036335 248.7682 10.4236 248.0534 11.28836 C 248.827 12.27172 252.1059 15.50523 252.9841 16.18764 C 254.0023 15.45774 257.3155 12.0439 257.9161 11.27665 C 257.2175 10.40446 253.865 7.022983 252.9988 6.31702 Z M 253.0068 10.27482 C 254.3418 10.23895 254.2475 12.57244 252.7954 12.22729 C 252.3072 12.11124 251.9948 11.51966 251.981 11.35293 C 251.949 10.96734 252.5308 10.2876 253.0068 10.27482 Z" fill-rule="evenodd" fill="#000000" fill-opacity="1" stroke="#000000" stroke-opacity="1" stroke-width="0.79375" stroke-linecap="round" stroke-linejoin="round"/>
<path id="path_53feddae13c7ef6834f4b24dd3859137" d="M 0.016695 -0.5198544 L 270.9166 -0.5124766 L 270.9166 1.380147 L 0.0166779 1.336788 L 0.016695 -0.5198544 Z" fill-rule="evenodd" fill="#000000" fill-opacity="1" stroke="none" stroke-opacity="1" stroke-width="0.132292" stroke-linecap="butt" stroke-linejoin="miter"/>
<path id="path_594f268fcc76f38cb86d9883cfdb8b9b" d="M 0.0166969 33.865 L 270.9166 33.87237 L 270.9166 35.765 L 0.0166779 35.72164 L 0.0166969 33.865 Z" fill-rule="evenodd" fill="#000000" fill-opacity="1" stroke="none" stroke-opacity="1" stroke-width="0.132292" stroke-linecap="butt" stroke-linejoin="miter"/>
</defs>
<g>
<g>
<g>
<g>
<g>
<use xlink:href="#path_6c640e31624f82ec0ef88b548776d23a"/>
</g>
</g>
</g>
</g>
</g>
<g>
<g>
<g>
<g>
<g>
<use xlink:href="#path_05f55898621630994221d3c69fbb3470"/>
</g>
</g>
</g>
</g>
</g>
<g>
<g>
<g>
<g>
<g>
<use xlink:href="#path_d5bfe65a9732e3a2c1f1b24fa4439f96"/>
</g>
</g>
</g>
</g>
</g>
<g>
<g>
<g>
<g>
<g>
<use xlink:href="#path_fc87aeaf033189a22f38f5d70aa16da6"/>
</g>
</g>
</g>
</g>
</g>
<g>
<g>
<g>
<g>
<g>
<use xlink:href="#path_256d91b2244e6a4ad902f9e83893cc9d"/>
</g>
</g>
</g>
</g>
</g>
<g>
<g>
<g>
<g>
<g>
<use xlink:href="#path_205c4fa4e9c8b83c6d069526c7a0d6d3"/>
</g>
</g>
</g>
</g>
</g>
<g>
<g>
<g>
<g>
<g>
<use xlink:href="#path_c36f61a097f796661fe678425f6bf6bb"/>
</g>
</g>
</g>
</g>
</g>
<g>
<g>
<g>
<g>
<g>
<use xlink:href="#path_eda3d04f07d9c6db523f81c09dcee770"/>
</g>
</g>
</g>
</g>
</g>
<g>
<g>
<g>
<use xlink:href="#path_53feddae13c7ef6834f4b24dd3859137"/>
</g>
</g>
</g>
<g>
<g>
<g>
<use xlink:href="#path_594f268fcc76f38cb86d9883cfdb8b9b"/>
</g>
</g>
</g>
</svg>