<?xml version="1.0" encoding="utf-8"?>
<!DOCTYPE svg PUBLIC "-//W3C//DTD SVG 1.1//EN" "http://www.w3.org/Graphics/SVG/1.1/DTD/svg11.dtd">
<!-- exported from Silhouette Studio® Business Edition V5.0.414ssbe -->
<svg version="1.1" xmlns="http://www.w3.org/2000/svg" xmlns:xlink="http://www.w3.org/1999/xlink" width="270.9333mm" height="35.3mm" viewBox="0 0 270.9333 35.3">
<defs>
<path id="path_961c48783454366d95f7eb920967ee67" d="M 0.0166951 -0.5198504 L 270.9166 -0.5124763 L 270.9166 1.38015 L 0.0166779 1.336793 L 0.0166951 -0.5198504 Z" fill-rule="evenodd" fill="#000000" fill-opacity="1" stroke="none" stroke-opacity="1" stroke-width="0.132292" stroke-linecap="butt" stroke-linejoin="miter"/>
<path id="path_978f24b1d8b693628b9d8dc06ca40e70" d="M 0.0166951 34.10715 L 270.9166 34.11452 L 270.9166 36.00715 L 0.0166779 35.96379 L 0.0166951 34.10715 Z" fill-rule="evenodd" fill="#000000" fill-opacity="1" stroke="none" stroke-opacity="1" stroke-width="0.132292" stroke-linecap="butt" stroke-linejoin="miter"/>
<path id="path_2d695ad93abf89e2f5ecc3f6b2c7de84" d="M 20.5568 23.90684 C 20.65996 23.39705 20.67451 24.34188 20.67451 19.57405 C 22.4224 19.87175 25.66452 21.06476 26.7976 21.18857 C 26.88051 20.10345 26.93239 15.88012 26.83463 14.38693 C 25.3545 14.64787 22.49238 15.60257 20.79324 16.03557 C 20.69587 15.52211 20.67891 16.03857 20.62195 11.68383 C 16.45509 11.6297 16.9684 11.64518 16.28393 11.52738 C 16.45851 10.42908 17.3084 8.092089 17.94167 5.575682 C 16.59282 5.318778 11.62384 5.479986 11.0763 5.52325 C 11.34018 6.976719 12.39173 9.888744 12.7168 11.45571 C 12.30038 11.55993 13.15073 11.56895 8.430199 11.68383 C 8.367146 16.30697 8.324475 15.62243 8.282849 15.96238 C 7.022479 15.91423 4.045023 14.68211 2.176086 14.38799 C 1.975232 15.73774 2.097075 20.53094 2.152047 21.21101 C 4.159326 20.95097 6.636139 19.70404 8.27951 19.642 C 8.428325 20.49171 8.386292 20.58855 8.430199 23.95258 C 13.16392 24.01383 12.13574 24.00248 12.73172 24.09103 C 12.56244 25.06378 11.40234 28.34317 11.11891 30.04766 C 12.03991 30.29113 17.12265 30.22939 17.92341 30.0696 C 17.75666 28.82169 16.98254 26.93289 16.23574 24.005 C 20.12572 24.005 19.9582 23.99535 20.5568 23.90684 Z M 7.188703 27.95799 C 10.05205 26.25457 7.47787 22.12519 4.78793 23.51735 C 2.187657 24.8631 3.631216 30.07434 7.188703 27.95799 Z M 24.46852 27.92468 C 27.06973 26.19635 24.6888 21.67432 21.69428 23.72033 C 18.61657 25.82318 22.20296 29.42999 24.46852 27.92468 Z M 6.878022 12.08774 C 9.746463 10.89292 8.170411 6.234787 4.892783 7.485863 C 1.989742 8.593958 3.639456 13.43673 6.878022 12.08774 Z M 24.19541 12.06356 C 26.97097 10.89532 25.43169 6.125072 22.09244 7.506382 C 19.40248 8.619101 20.77221 13.50439 24.19541 12.06356 Z M 9.165908 23.00884 C 9.143338 21.19112 9.248176 18.65446 8.934841 18.47005 C 8.723221 18.34551 8.606933 18.66839 3.023371 20.12516 C 2.873115 19.01834 2.87575 16.48782 2.997433 15.47118 C 4.843913 15.84902 7.702581 16.91854 9.078555 17.049 C 9.111725 16.68835 9.152184 17.32145 9.165908 12.52272 C 14.28509 12.46096 13.35824 12.44292 13.81744 12.36718 C 13.54426 10.75236 12.30364 7.404797 12.21969 6.27407 C 13.21975 6.148974 15.62172 6.148957 16.80065 6.31886 C 16.68052 7.553192 15.68259 10.00248 15.18792 12.30628 C 15.82561 12.43639 15.18523 12.41821 19.83371 12.4743 C 19.83371 17.50026 19.84124 16.50093 19.92748 17.04239 C 21.4327 16.9772 24.51447 15.65428 26.01349 15.50307 C 26.24017 16.66856 26.11674 19.43491 26.03976 20.06959 C 22.96604 19.48398 21.10905 18.51182 19.98271 18.49636 C 19.83381 19.02333 19.83371 18.0376 19.83371 23.05726 C 14.8382 23.11757 15.75792 23.11398 15.21023 23.20439 C 15.34416 24.70508 16.4662 27.2944 16.82401 29.27115 C 15.99207 29.35245 13.18475 29.42945 12.18019 29.2433 C 12.37711 28.0086 13.56021 24.81283 13.79976 23.20518 C 13.169 23.05103 13.61807 23.06379 9.165908 23.00884 Z M 14.4864 14.3712 C 13.30314 15.41325 11.57406 17.17294 10.96717 17.81967 C 14.31184 21.16966 14.11613 20.94759 14.48162 21.27862 C 15.06767 20.75335 17.06687 18.84642 17.9419 17.78288 C 17.33588 17.02396 15.48546 15.14315 14.4864 14.3712 Z M 5.138379 27.28908 C 3.284115 26.37881 4.429808 23.49624 6.435413 24.22023 C 7.582518 24.63431 7.743769 26.03147 7.271389 26.73617 C 7.001467 27.13885 6.087831 27.75515 5.138379 27.28908 Z M 24.40446 24.65187 C 25.18042 25.52737 24.53391 26.79732 24.44775 26.90122 C 23.92329 27.53367 22.78029 27.48746 22.44116 27.3402 C 20.05946 26.30597 22.54974 22.55919 24.40446 24.65187 Z M 5.70158 8.107231 C 6.486209 8.041856 7.094893 8.608769 7.251508 8.833426 C 7.464571 9.139054 7.72718 10.00392 7.287859 10.69588 C 7.103833 10.98574 6.391747 11.63901 5.53522 11.44864 C 3.219962 10.93407 4.348387 8.451076 5.428885 8.156256 L 5.70158 8.107231 Z M 22.83272 8.11096 C 25.11409 7.66576 25.53839 11.41255 23.21592 11.50765 C 22.55464 11.53473 21.63353 10.83938 21.47612 10.15121 C 21.32312 9.482451 21.82273 8.308054 22.83272 8.11096 Z M 14.52618 15.51127 C 14.77671 15.71042 15.91285 16.67279 16.78577 17.7778 C 15.99601 18.76559 14.93354 19.68651 14.5359 19.99922 C 14.21323 19.778 14.68704 20.31458 12.11634 17.81419 C 14.6137 15.31475 14.31853 15.67856 14.52618 15.51127 Z" fill-rule="evenodd" fill="#000000" fill-opacity="1" stroke="#000000" stroke-opacity="1" stroke-width="0.5291666" stroke-linecap="round" stroke-linejoin="round"/>
<path id="path_e6e92f4c9f99c53432783e2baf97c27a" d="M 50.77326 23.90684 C 50.87641 23.39704 50.89095 24.34188 50.89095 19.57405 C 52.63884 19.87174 55.88098 21.06477 57.01406 21.18857 C 57.09697 20.10346 57.14884 15.88012 57.05109 14.38694 C 55.57096 14.64787 52.70882 15.60257 51.00968 16.03558 C 50.91232 15.52211 50.89536 16.03857 50.83841 11.68384 C 46.67155 11.62971 47.18485 11.64518 46.50039 11.52738 C 46.67497 10.42909 47.52486 8.09209 48.15813 5.575683 C 46.80927 5.31878 41.84029 5.479989 41.29276 5.523252 C 41.55663 6.97672 42.60819 9.888753 42.93325 11.45571 C 42.51684 11.55993 43.3672 11.56896 38.64666 11.68384 C 38.5836 16.30697 38.54094 15.62243 38.4993 15.96238 C 37.23893 15.91423 34.26148 14.68211 32.39254 14.38799 C 32.19169 15.73773 32.31353 20.53093 32.3685 21.21102 C 34.37577 20.95097 36.85259 19.70404 38.49597 19.64199 C 38.64478 20.4917 38.60275 20.58856 38.64666 23.95257 C 43.38038 24.01383 42.35219 24.00249 42.94817 24.09103 C 42.77889 25.0638 41.61879 28.34317 41.33536 30.04767 C 42.25636 30.29113 47.33911 30.22939 48.13986 30.06961 C 47.97313 28.82169 47.19899 26.9329 46.45219 24.005 C 50.34216 24.005 50.17465 23.99534 50.77326 23.90684 Z M 37.40516 27.95799 C 40.2685 26.25457 37.69432 22.12519 35.00438 23.51736 C 32.40411 24.8631 33.84767 30.07436 37.40516 27.95799 Z M 54.68497 27.92468 C 57.28617 26.19635 54.90525 21.67432 51.91072 23.72034 C 48.83303 25.82318 52.41941 29.43 54.68497 27.92468 Z M 37.09447 12.08774 C 39.96291 10.89293 38.38686 6.234788 35.10923 7.485864 C 32.2062 8.593958 33.85591 13.43672 37.09447 12.08774 Z M 54.41186 12.06356 C 57.18743 10.89531 55.64814 6.125074 52.3089 7.506383 C 49.61893 8.619102 50.98867 13.50439 54.41186 12.06356 Z M 39.38236 23.00883 C 39.35979 21.19111 39.46463 18.65446 39.15129 18.47005 C 38.93968 18.34551 38.82339 18.66839 33.23983 20.12516 C 33.08957 19.01835 33.09221 16.48782 33.21389 15.47119 C 35.06037 15.84903 37.91904 16.91854 39.29501 17.049 C 39.32817 16.68835 39.36864 17.32146 39.38236 12.52273 C 44.50155 12.46096 43.57469 12.44292 44.03391 12.36718 C 43.76071 10.75235 42.5201 7.4048 42.43614 6.274073 C 43.4362 6.148976 45.83818 6.14896 47.01711 6.318862 C 46.89698 7.553193 45.89904 10.00248 45.40438 12.30629 C 46.04207 12.43639 45.40169 12.41822 50.05016 12.47431 C 50.05016 17.50026 50.05769 16.50093 50.14392 17.04239 C 51.64915 16.9772 54.73093 15.65428 56.22994 15.50308 C 56.45663 16.66855 56.33318 19.43491 56.25621 20.06959 C 53.18249 19.48399 51.3255 18.51182 50.19916 18.49636 C 50.05027 19.02333 50.05016 18.03761 50.05016 23.05725 C 45.05464 23.11757 45.97437 23.11398 45.42669 23.20439 C 45.56062 24.70509 46.68265 27.2944 47.04048 29.27115 C 46.20853 29.35246 43.4012 29.42946 42.39664 29.24331 C 42.59356 28.0086 43.77666 24.81283 44.01622 23.20518 C 43.38545 23.05104 43.83452 23.06379 39.38236 23.00883 Z M 44.70286 14.37121 C 43.5196 15.41325 41.79052 17.17295 41.18363 17.81967 C 44.52829 21.16966 44.33258 20.9476 44.69808 21.27863 C 45.28413 20.75336 47.28332 18.84643 48.15834 17.78288 C 47.55232 17.02395 45.70191 15.14316 44.70286 14.37121 Z M 35.35484 27.28907 C 33.50057 26.37882 34.64626 23.49625 36.65187 24.22023 C 37.79897 24.63431 37.96022 26.03147 37.48784 26.73617 C 37.21791 27.13885 36.30429 27.75516 35.35484 27.28907 Z M 54.62091 24.65187 C 55.39688 25.52739 54.75037 26.79733 54.6642 26.90123 C 54.13975 27.53369 52.99674 27.48747 52.6576 27.3402 C 50.27591 26.30597 52.76621 22.5592 54.62091 24.65187 Z M 35.91803 8.107233 C 36.70267 8.041858 37.31135 8.608771 37.46796 8.833427 C 37.68103 9.139056 37.94364 10.00392 37.50431 10.69588 C 37.32029 10.98575 36.6082 11.639 35.75167 11.44864 C 33.43641 10.93407 34.56485 8.451077 35.64534 8.156258 L 35.91803 8.107233 Z M 53.04917 8.110962 C 55.33054 7.665763 55.75483 11.41255 53.43237 11.50765 C 52.77109 11.53473 51.84998 10.83939 51.69256 10.1512 C 51.53957 9.482452 52.03918 8.308055 53.04917 8.110962 Z M 44.74263 15.51126 C 44.99318 15.71041 46.1293 16.6728 47.00223 17.77781 C 46.21247 18.76559 45.15001 19.68651 44.75235 19.99921 C 44.4297 19.778 44.90349 20.31458 42.33281 17.81419 C 44.83015 15.31476 44.53498 15.67856 44.74263 15.51126 Z" fill-rule="evenodd" fill="#000000" fill-opacity="1" stroke="#000000" stroke-opacity="1" stroke-width="0.5291666" stroke-linecap="round" stroke-linejoin="round"/>
<path id="path_a7f56afede046aa7fb3a99e58ab2a1bb" d="M 80.9897 23.90684 C 81.09285 23.39704 81.10741 24.34187 81.10741 19.57404 C 82.8553 19.87174 86.09743 21.06476 87.23051 21.18856 C 87.31343 20.10345 87.3653 15.88012 87.26755 14.38693 C 85.78742 14.64786 82.92527 15.60256 81.22614 16.03557 C 81.12877 15.5221 81.11183 16.03857 81.05486 11.68383 C 76.888 11.6297 77.40129 11.64518 76.71684 11.52738 C 76.89141 10.42908 77.74131 8.092087 78.37457 5.575679 C 77.0257 5.318775 72.05675 5.479984 71.50922 5.523248 C 71.77309 6.976717 72.82465 9.888742 73.14972 11.45571 C 72.73329 11.55993 73.58364 11.56895 68.86311 11.68383 C 68.80005 16.30697 68.75738 15.62243 68.71574 15.96238 C 67.45538 15.91423 64.47794 14.68211 62.609 14.38798 C 62.40815 15.73773 62.52998 20.53093 62.58496 21.21101 C 64.59222 20.95096 67.06905 19.70404 68.71242 19.64199 C 68.86124 20.4917 68.8192 20.58855 68.86311 23.95257 C 73.59683 24.01382 72.56864 24.00247 73.16463 24.09103 C 72.99535 25.06378 71.83524 28.34316 71.55182 30.04766 C 72.47282 30.29113 77.55556 30.22938 78.35631 30.0696 C 78.18957 28.82169 77.41544 26.93289 76.66864 24.005 C 80.55862 24.005 80.3911 23.99534 80.9897 23.90684 Z M 67.62161 27.95798 C 70.48495 26.25456 67.91078 22.12519 65.22084 23.51735 C 62.62056 24.8631 64.06413 30.07434 67.62161 27.95798 Z M 84.90143 27.92468 C 87.50265 26.19635 85.1217 21.67432 82.12718 23.72033 C 79.04949 25.82318 82.63586 29.42998 84.90143 27.92468 Z M 67.31093 12.08774 C 70.17937 10.89292 68.60332 6.234785 65.3257 7.48586 C 62.42266 8.593956 64.07236 13.43673 67.31093 12.08774 Z M 84.62831 12.06356 C 87.40389 10.89531 85.8646 6.12507 82.52534 7.50638 C 79.83539 8.619099 81.20513 13.50439 84.62831 12.06356 Z M 69.59882 23.00883 C 69.57625 21.19111 69.68108 18.65445 69.36774 18.47004 C 69.15612 18.34551 69.03984 18.66839 63.45627 20.12516 C 63.30602 19.01834 63.30867 16.48782 63.43034 15.47118 C 65.27682 15.84901 68.13549 16.91853 69.51146 17.049 C 69.54464 16.68834 69.58511 17.32145 69.59882 12.52272 C 74.71799 12.46095 73.79115 12.44292 74.25035 12.36718 C 73.97717 10.75235 72.73655 7.404795 72.65259 6.274068 C 73.65266 6.148972 76.05464 6.148954 77.23357 6.318857 C 77.11343 7.553189 76.11549 10.00248 75.62083 12.30628 C 76.25852 12.43639 75.61814 12.41821 80.26662 12.4743 C 80.26662 17.50026 80.27416 16.50092 80.36038 17.04239 C 81.86562 16.9772 84.94737 15.65427 86.4464 15.50307 C 86.67307 16.66855 86.54964 19.43491 86.47266 20.06958 C 83.39896 19.48397 81.54196 18.51182 80.41562 18.49636 C 80.26673 19.02333 80.26662 18.0376 80.26662 23.05725 C 75.2711 23.11757 76.19082 23.11398 75.64313 23.20439 C 75.77707 24.70508 76.8991 27.2944 77.25693 29.27114 C 76.42497 29.35245 73.61766 29.42945 72.6131 29.24329 C 72.81001 28.00859 73.99312 24.81283 74.23268 23.20517 C 73.60191 23.05103 74.05097 23.06379 69.59882 23.00883 Z M 74.91931 14.3712 C 73.73606 15.41325 72.00699 17.17294 71.40009 17.81967 C 74.74476 21.16966 74.54903 20.94759 74.91452 21.27861 C 75.50057 20.75335 77.49979 18.84642 78.3748 17.78287 C 77.76879 17.02395 75.91836 15.14315 74.91931 14.3712 Z M 65.57129 27.28907 C 63.71701 26.37881 64.86272 23.49624 66.86833 24.22022 C 68.01543 24.63431 68.17667 26.03147 67.7043 26.73617 C 67.43437 27.13884 66.52074 27.75515 65.57129 27.28907 Z M 84.83736 24.65187 C 85.61332 25.52737 84.9668 26.79732 84.88065 26.90122 C 84.35619 27.53367 83.21318 27.48745 82.87405 27.34019 C 80.49236 26.30597 82.98265 22.55918 84.83736 24.65187 Z M 66.13449 8.107229 C 66.91911 8.041854 67.52779 8.608767 67.68442 8.833424 C 67.89748 9.139051 68.16009 10.00392 67.72076 10.69588 C 67.53674 10.98574 66.82465 11.639 65.96814 11.44864 C 63.65288 10.93407 64.7813 8.451075 65.8618 8.156254 L 66.13449 8.107229 Z M 83.26562 8.110958 C 85.547 7.665758 85.97128 11.41255 83.64882 11.50765 C 82.98755 11.53473 82.06644 10.83937 81.90901 10.1512 C 81.75603 9.48245 82.25564 8.308051 83.26562 8.110958 Z M 74.95908 15.51126 C 75.20962 15.71041 76.34576 16.67279 77.21869 17.7778 C 76.42893 18.76559 75.36646 19.68651 74.96881 19.99921 C 74.64615 19.778 75.11995 20.31458 72.54926 17.81418 C 75.04659 15.31475 74.75143 15.67856 74.95908 15.51126 Z" fill-rule="evenodd" fill="#000000" fill-opacity="1" stroke="#000000" stroke-opacity="1" stroke-width="0.5291666" stroke-linecap="round" stroke-linejoin="round"/>
<path id="path_b9ea2c143460de659b61532c0dec88f5" d="M 111.2061 23.90684 C 111.3093 23.39705 111.3238 24.34188 111.3238 19.57405 C 113.0718 19.87175 116.3139 21.06478 117.447 21.18857 C 117.5299 20.10346 117.5817 15.88012 117.484 14.38694 C 116.0039 14.64788 113.1417 15.60257 111.4426 16.03558 C 111.3452 15.52211 111.3283 16.03857 111.2713 11.68385 C 107.1044 11.62971 107.6177 11.64518 106.9333 11.52738 C 107.1079 10.42909 107.9578 8.092093 108.591 5.575686 C 107.2422 5.318783 102.2732 5.479991 101.7257 5.523256 C 101.9895 6.976723 103.0411 9.888757 103.3662 11.45572 C 102.9498 11.55994 103.8001 11.56896 99.07958 11.68385 C 99.01653 16.30697 98.97384 15.62244 98.93224 15.96238 C 97.67187 15.91423 94.69439 14.68212 92.82547 14.388 C 92.6246 15.73774 92.74645 20.53094 92.80143 21.21103 C 94.8087 20.95098 97.28551 19.70405 98.92889 19.642 C 99.07771 20.49171 99.03566 20.58857 99.07958 23.95258 C 103.8133 24.01383 102.7851 24.00249 103.3811 24.09104 C 103.2118 25.0638 102.0517 28.34317 101.7683 30.04768 C 102.6893 30.29114 107.772 30.22939 108.5728 30.06962 C 108.4061 28.82169 107.632 26.9329 106.8851 24.005 C 110.7751 24.005 110.6076 23.99535 111.2061 23.90684 Z M 97.83807 27.95799 C 100.7015 26.25457 98.12724 22.12519 95.43731 23.51736 C 92.83704 24.8631 94.28059 30.07436 97.83807 27.95799 Z M 115.1179 27.92468 C 117.7191 26.19635 115.3381 21.67432 112.3437 23.72034 C 109.2659 25.82318 112.8523 29.43 115.1179 27.92468 Z M 97.52739 12.08775 C 100.3959 10.89294 98.81979 6.234793 95.54216 7.485868 C 92.63913 8.593964 94.28883 13.43673 97.52739 12.08775 Z M 114.8447 12.06356 C 117.6204 10.89532 116.081 6.125078 112.7418 7.506387 C 110.0519 8.619106 111.4216 13.50439 114.8447 12.06356 Z M 99.8153 23.00884 C 99.79271 21.19112 99.89756 18.65447 99.58422 18.47006 C 99.3726 18.34551 99.2563 18.66839 93.67274 20.12516 C 93.52249 19.01835 93.52512 16.48782 93.64681 15.4712 C 95.49329 15.84903 98.35197 16.91855 99.72794 17.049 C 99.76112 16.68836 99.80157 17.32146 99.8153 12.52274 C 104.9345 12.46096 104.0076 12.44292 104.4668 12.36718 C 104.1936 10.75236 102.953 7.404804 102.869 6.274076 C 103.8692 6.148979 106.2711 6.148962 107.45 6.318865 C 107.3299 7.553195 106.332 10.00248 105.8373 12.30629 C 106.475 12.43639 105.8346 12.41822 110.4831 12.47432 C 110.4831 17.50026 110.4906 16.50093 110.5769 17.04239 C 112.0821 16.9772 115.1638 15.65428 116.6629 15.50308 C 116.8896 16.66856 116.7661 19.43491 116.6892 20.06959 C 113.6154 19.48399 111.7584 18.51182 110.6321 18.49637 C 110.4832 19.02333 110.4831 18.03761 110.4831 23.05726 C 105.4876 23.11757 106.4073 23.11398 105.8596 23.20439 C 105.9935 24.70509 107.1156 27.2944 107.4734 29.27116 C 106.6414 29.35246 103.8342 29.42947 102.8296 29.24331 C 103.0265 28.0086 104.2096 24.81284 104.4491 23.20518 C 103.8184 23.05104 104.2674 23.0638 99.8153 23.00884 Z M 105.1358 14.37121 C 103.9525 15.41325 102.2235 17.17295 101.6166 17.81967 C 104.9612 21.16967 104.7655 20.94761 105.131 21.27863 C 105.717 20.75336 107.7162 18.84643 108.5913 17.78288 C 107.9853 17.02396 106.1348 15.14317 105.1358 14.37121 Z M 95.78776 27.28908 C 93.9335 26.37882 95.07919 23.49625 97.08479 24.22023 C 98.2319 24.63431 98.39314 26.03147 97.92075 26.73618 C 97.65084 27.13885 96.73722 27.75517 95.78776 27.28908 Z M 115.0538 24.65187 C 115.8298 25.52739 115.1832 26.79733 115.0971 26.90123 C 114.5727 27.53369 113.4297 27.48747 113.0906 27.3402 C 110.7089 26.30597 113.1991 22.5592 115.0538 24.65187 Z M 96.35097 8.107237 C 97.13558 8.041862 97.74426 8.608775 97.90088 8.833431 C 98.11395 9.139059 98.37655 10.00392 97.93723 10.69589 C 97.7532 10.98575 97.04114 11.63901 96.1846 11.44864 C 93.86935 10.93407 94.99778 8.45108 96.07826 8.156261 L 96.35097 8.107237 Z M 113.4821 8.110966 C 115.7635 7.665767 116.1878 11.41255 113.8653 11.50765 C 113.204 11.53474 112.2829 10.83939 112.1255 10.15121 C 111.9725 9.482456 112.4721 8.308059 113.4821 8.110966 Z M 105.1755 15.51127 C 105.4261 15.71042 106.5623 16.67281 107.4352 17.77781 C 106.6454 18.76559 105.5829 19.68651 105.1853 19.99922 C 104.8626 19.778 105.3365 20.31459 102.7658 17.81419 C 105.263 15.31476 104.9679 15.67856 105.1755 15.51127 Z" fill-rule="evenodd" fill="#000000" fill-opacity="1" stroke="#000000" stroke-opacity="1" stroke-width="0.5291666" stroke-linecap="round" stroke-linejoin="round"/>
<path id="path_2932d0f3bd7feba62db81361f1ee9b76" d="M 141.4225 23.90684 C 141.5257 23.39704 141.5402 24.34188 141.5402 19.57405 C 143.2881 19.87174 146.5303 21.06476 147.6634 21.18856 C 147.7463 20.10345 147.7981 15.88012 147.7003 14.38693 C 146.2202 14.64787 143.3581 15.60257 141.659 16.03557 C 141.5616 15.5221 141.5446 16.03857 141.4877 11.68383 C 137.3208 11.6297 137.8341 11.64518 137.1496 11.52738 C 137.3242 10.42908 138.1742 8.092089 138.8074 5.575681 C 137.4585 5.318777 132.4896 5.479986 131.9421 5.52325 C 132.2059 6.976718 133.2574 9.888746 133.5826 11.45572 C 133.1661 11.55994 134.0165 11.56895 129.296 11.68383 C 129.2329 16.30697 129.1902 15.62243 129.1486 15.96238 C 127.8882 15.91423 124.9107 14.68211 123.0418 14.38799 C 122.841 15.73774 122.9628 20.53094 123.0178 21.21101 C 125.0251 20.95096 127.5019 19.70404 129.1453 19.64199 C 129.2941 20.4917 129.252 20.58855 129.296 23.95257 C 134.0296 24.01382 133.0014 24.00247 133.5975 24.09103 C 133.4282 25.06378 132.2681 28.34317 131.9846 30.04766 C 132.9057 30.29113 137.9884 30.22938 138.7891 30.0696 C 138.6225 28.82169 137.8482 26.93289 137.1015 24.005 C 140.9915 24.005 140.8239 23.99534 141.4225 23.90684 Z M 128.0544 27.95798 C 130.9177 26.25457 128.3436 22.12519 125.6537 23.51735 C 123.0534 24.8631 124.4969 30.07434 128.0544 27.95798 Z M 145.3342 27.92468 C 147.9354 26.19635 145.5545 21.67432 142.56 23.72033 C 139.4823 25.82318 143.0687 29.42998 145.3342 27.92468 Z M 127.7438 12.08774 C 130.6122 10.89292 129.0361 6.234786 125.7586 7.485862 C 122.8555 8.593958 124.5052 13.43673 127.7438 12.08774 Z M 145.0611 12.06356 C 147.8367 10.89532 146.2974 6.125071 142.9582 7.506381 C 140.2682 8.619102 141.638 13.50439 145.0611 12.06356 Z M 130.0316 23.00883 C 130.0091 21.19111 130.114 18.65446 129.8005 18.47004 C 129.5889 18.34551 129.4727 18.66839 123.8891 20.12516 C 123.7389 19.01834 123.7415 16.48782 123.8632 15.47118 C 125.7097 15.84902 128.5683 16.91853 129.9442 17.049 C 129.9775 16.68835 130.018 17.32145 130.0316 12.52272 C 135.1508 12.46096 134.224 12.44292 134.6831 12.36718 C 134.41 10.75236 133.1694 7.404798 133.0854 6.27407 C 134.0855 6.148973 136.4875 6.148956 137.6664 6.318859 C 137.5463 7.553191 136.5484 10.00248 136.0536 12.30628 C 136.6913 12.43639 136.051 12.41821 140.6995 12.47431 C 140.6995 17.50026 140.707 16.50093 140.7932 17.04239 C 142.2984 16.9772 145.3802 15.65427 146.8792 15.50306 C 147.1059 16.66855 146.9824 19.43491 146.9054 20.06958 C 143.8317 19.48397 141.9748 18.51182 140.8484 18.49636 C 140.6996 19.02333 140.6995 18.0376 140.6995 23.05725 C 135.7039 23.11757 136.6236 23.11397 136.076 23.20439 C 136.2099 24.70508 137.332 27.2944 137.6898 29.27114 C 136.8578 29.35245 134.0504 29.42945 133.0459 29.24329 C 133.2428 28.00859 134.4259 24.81283 134.6655 23.20518 C 134.0348 23.05103 134.4838 23.06379 130.0316 23.00883 Z M 135.3521 14.3712 C 134.1689 15.41325 132.4397 17.17294 131.8329 17.81967 C 135.1776 21.16966 134.9818 20.94759 135.3474 21.27861 C 135.9334 20.75335 137.9326 18.84642 138.8076 17.78288 C 138.2016 17.02396 136.3512 15.14316 135.3521 14.3712 Z M 126.0041 27.28907 C 124.1498 26.37881 125.2956 23.49624 127.3012 24.22022 C 128.4482 24.63431 128.6095 26.03147 128.1371 26.73618 C 127.8672 27.13885 126.9536 27.75515 126.0041 27.28907 Z M 145.2702 24.65187 C 146.0461 25.52737 145.3996 26.79732 145.3134 26.90122 C 144.789 27.53367 143.646 27.48746 143.3069 27.34019 C 140.9251 26.30597 143.4155 22.55919 145.2702 24.65187 Z M 126.5674 8.107231 C 127.3519 8.041856 127.9606 8.608769 128.1172 8.833426 C 128.3303 9.139054 128.5929 10.00392 128.1536 10.69589 C 127.9696 10.98574 127.2575 11.63901 126.401 11.44864 C 124.0857 10.93407 125.2141 8.451077 126.2947 8.156256 L 126.5674 8.107231 Z M 143.6985 8.110961 C 145.9798 7.665762 146.4041 11.41255 144.0817 11.50765 C 143.4203 11.53473 142.4993 10.83938 142.3419 10.15121 C 142.1889 9.482451 142.6884 8.308054 143.6985 8.110961 Z M 135.3919 15.51126 C 135.6425 15.71041 136.7785 16.67279 137.6515 17.7778 C 136.8618 18.76559 135.7993 19.68651 135.4016 19.99921 C 135.079 19.778 135.5528 20.31458 132.9821 17.81419 C 135.4794 15.31475 135.1842 15.67856 135.3919 15.51126 Z" fill-rule="evenodd" fill="#000000" fill-opacity="1" stroke="#000000" stroke-opacity="1" stroke-width="0.5291666" stroke-linecap="round" stroke-linejoin="round"/>
<path id="path_9832664161752859c52c576cec996664" d="M 171.639 23.90684 C 171.7421 23.39705 171.7567 24.34188 171.7567 19.57405 C 173.5045 19.87175 176.7467 21.06478 177.8798 21.18857 C 177.9627 20.10346 178.0146 15.88012 177.9168 14.38694 C 176.4367 14.64788 173.5745 15.60257 171.8755 16.03558 C 171.778 15.52211 171.7611 16.03857 171.7042 11.68385 C 167.5373 11.62971 168.0506 11.64518 167.3661 11.52738 C 167.5407 10.42909 168.3906 8.092093 169.0238 5.575686 C 167.675 5.318783 162.706 5.479991 162.1585 5.523256 C 162.4224 6.976723 163.4739 9.888757 163.7989 11.45572 C 163.3825 11.55994 164.2329 11.56896 159.5124 11.68385 C 159.4493 16.30697 159.4067 15.62244 159.365 15.96238 C 158.1046 15.91423 155.1272 14.68212 153.2583 14.388 C 153.0574 15.73774 153.1793 20.53094 153.2342 21.21103 C 155.2415 20.95098 157.7183 19.70405 159.3617 19.642 C 159.5105 20.49171 159.4685 20.58857 159.5124 23.95258 C 164.246 24.01383 163.2179 24.00249 163.8139 24.09104 C 163.6446 25.0638 162.4846 28.34317 162.2011 30.04768 C 163.1221 30.29114 168.2048 30.22939 169.0056 30.06962 C 168.8389 28.82169 168.0647 26.9329 167.3179 24.005 C 171.2079 24.005 171.0403 23.99535 171.639 23.90684 Z M 158.2709 27.95799 C 161.1342 26.25457 158.5601 22.12519 155.8701 23.51736 C 153.2698 24.8631 154.7134 30.07436 158.2709 27.95799 Z M 175.5507 27.92468 C 178.1519 26.19635 175.771 21.67432 172.7765 23.72034 C 169.6988 25.82318 173.2851 29.43 175.5507 27.92468 Z M 157.9602 12.08775 C 160.8286 10.89294 159.2526 6.234793 155.975 7.485868 C 153.0719 8.593964 154.7217 13.43673 157.9602 12.08775 Z M 175.2776 12.06356 C 178.0531 10.89532 176.5139 6.125078 173.1746 7.506387 C 170.4846 8.619106 171.8544 13.50439 175.2776 12.06356 Z M 160.2481 23.00884 C 160.2255 21.19112 160.3304 18.65447 160.017 18.47006 C 159.8054 18.34551 159.6891 18.66839 154.1056 20.12516 C 153.9553 19.01835 153.9579 16.48782 154.0796 15.4712 C 155.9261 15.84903 158.7847 16.91855 160.1608 17.049 C 160.194 16.68836 160.2344 17.32146 160.2481 12.52274 C 165.3672 12.46096 164.4404 12.44292 164.8996 12.36718 C 164.6264 10.75236 163.3858 7.404804 163.3019 6.274076 C 164.3019 6.148979 166.7039 6.148962 167.8828 6.318865 C 167.7627 7.553195 166.7647 10.00248 166.2701 12.30629 C 166.9078 12.43639 166.2674 12.41822 170.9159 12.47432 C 170.9159 17.50026 170.9234 16.50093 171.0096 17.04239 C 172.5148 16.9772 175.5967 15.65428 177.0956 15.50308 C 177.3224 16.66856 177.1989 19.43491 177.1219 20.06959 C 174.0482 19.48399 172.1912 18.51182 171.0649 18.49637 C 170.916 19.02333 170.9159 18.03761 170.9159 23.05726 C 165.9203 23.11757 166.8401 23.11398 166.2924 23.20439 C 166.4264 24.70509 167.5484 27.2944 167.9062 29.27116 C 167.0742 29.35246 164.267 29.42947 163.2623 29.24331 C 163.4593 28.0086 164.6424 24.81284 164.882 23.20518 C 164.2512 23.05104 164.7003 23.0638 160.2481 23.00884 Z M 165.5686 14.37121 C 164.3854 15.41325 162.6562 17.17295 162.0493 17.81967 C 165.394 21.16967 165.1983 20.94761 165.5638 21.27863 C 166.1498 20.75336 168.149 18.84643 169.0241 17.78288 C 168.418 17.02396 166.5677 15.14317 165.5686 14.37121 Z M 156.2206 27.28908 C 154.3663 26.37882 155.512 23.49625 157.5175 24.22023 C 158.6647 24.63431 158.826 26.03147 158.3536 26.73618 C 158.0836 27.13885 157.17 27.75517 156.2206 27.28908 Z M 175.4866 24.65187 C 176.2626 25.52739 175.6161 26.79733 175.53 26.90123 C 175.0054 27.53369 173.8625 27.48747 173.5233 27.3402 C 171.1417 26.30597 173.632 22.5592 175.4866 24.65187 Z M 156.7838 8.107237 C 157.5684 8.041862 158.1771 8.608775 158.3337 8.833431 C 158.5467 9.139059 158.8094 10.00392 158.37 10.69589 C 158.186 10.98575 157.4739 11.63901 156.6174 11.44864 C 154.3021 10.93407 155.4306 8.45108 156.511 8.156261 L 156.7838 8.107237 Z M 173.9149 8.110966 C 176.1963 7.665767 176.6205 11.41255 174.2981 11.50765 C 173.6369 11.53474 172.7157 10.83939 172.5583 10.15121 C 172.4053 9.482456 172.9049 8.308059 173.9149 8.110966 Z M 165.6084 15.51127 C 165.8589 15.71042 166.995 16.67281 167.868 17.77781 C 167.0782 18.76559 166.0157 19.68651 165.6181 19.99922 C 165.2953 19.778 165.7692 20.31459 163.1985 17.81419 C 165.6959 15.31476 165.4007 15.67856 165.6084 15.51127 Z" fill-rule="evenodd" fill="#000000" fill-opacity="1" stroke="#000000" stroke-opacity="1" stroke-width="0.5291666" stroke-linecap="round" stroke-linejoin="round"/>
<path id="path_d1a35f6363c84a3a322bf6726586c49f" d="M 201.8555 23.90684 C 201.9587 23.39705 201.9732 24.34188 201.9732 19.57405 C 203.7211 19.87175 206.9632 21.06476 208.0963 21.18857 C 208.1792 20.10345 208.2311 15.88012 208.1333 14.38693 C 206.6532 14.64787 203.7911 15.60257 202.0919 16.03557 C 201.9945 15.52211 201.9776 16.03857 201.9207 11.68384 C 197.7538 11.6297 198.2671 11.64518 197.5826 11.52738 C 197.7572 10.42908 198.6071 8.092089 199.2404 5.575681 C 197.8915 5.318777 192.9226 5.479986 192.375 5.52325 C 192.6389 6.976718 193.6904 9.888745 194.0155 11.45571 C 193.599 11.55994 194.4494 11.56895 189.7289 11.68384 C 189.6659 16.30697 189.6232 15.62243 189.5815 15.96238 C 188.3211 15.91423 185.3437 14.68211 183.4747 14.38799 C 183.2739 15.73774 183.3958 20.53094 183.4507 21.21101 C 185.4581 20.95097 187.9348 19.70404 189.5782 19.642 C 189.727 20.49171 189.685 20.58855 189.7289 23.95258 C 194.4626 24.01383 193.4344 24.00248 194.0304 24.09103 C 193.8612 25.06378 192.701 28.34317 192.4176 30.04766 C 193.3386 30.29113 198.4214 30.22939 199.2221 30.0696 C 199.0553 28.82169 198.2812 26.93289 197.5345 24.005 C 201.4244 24.005 201.2568 23.99534 201.8555 23.90684 Z M 188.4874 27.95799 C 191.3507 26.25457 188.7766 22.12519 186.0866 23.51735 C 183.4863 24.8631 184.9299 30.07434 188.4874 27.95799 Z M 205.7672 27.92468 C 208.3684 26.19635 205.9875 21.67432 202.993 23.72033 C 199.9153 25.82318 203.5017 29.42998 205.7672 27.92468 Z M 188.1767 12.08774 C 191.0451 10.89292 189.4691 6.234787 186.1915 7.485864 C 183.2884 8.593959 184.9382 13.43673 188.1767 12.08774 Z M 205.4941 12.06356 C 208.2696 10.89532 206.7304 6.125073 203.3911 7.506383 C 200.7012 8.619102 202.0708 13.50439 205.4941 12.06356 Z M 190.4647 23.00884 C 190.442 21.19112 190.5468 18.65446 190.2335 18.47005 C 190.0219 18.34551 189.9056 18.66839 184.3221 20.12516 C 184.1718 19.01834 184.1744 16.48782 184.2962 15.47118 C 186.1426 15.84902 189.0012 16.91854 190.3772 17.049 C 190.4104 16.68835 190.4509 17.32145 190.4647 12.52273 C 195.5838 12.46096 194.6569 12.44292 195.1161 12.36718 C 194.8429 10.75236 193.6024 7.404799 193.5184 6.27407 C 194.5184 6.148974 196.9205 6.148957 198.0994 6.31886 C 197.9792 7.553192 196.9812 10.00248 196.4866 12.30628 C 197.1243 12.43639 196.4839 12.41821 201.1324 12.47431 C 201.1324 17.50026 201.14 16.50093 201.2261 17.04239 C 202.7313 16.9772 205.8132 15.65428 207.3122 15.50307 C 207.5388 16.66856 207.4154 19.43491 207.3384 20.06959 C 204.2647 19.48398 202.4078 18.51182 201.2814 18.49636 C 201.1324 19.02333 201.1324 18.0376 201.1324 23.05726 C 196.1368 23.11757 197.0567 23.11398 196.509 23.20439 C 196.6429 24.70508 197.7648 27.2944 198.1227 29.27114 C 197.2908 29.35245 194.4834 29.42945 193.4789 29.2433 C 193.6758 28.0086 194.8589 24.81283 195.0985 23.20518 C 194.4677 23.05103 194.9168 23.06379 190.4647 23.00884 Z M 195.7851 14.3712 C 194.6019 15.41325 192.8727 17.17294 192.2658 17.81967 C 195.6106 21.16966 195.4148 20.94759 195.7803 21.27862 C 196.3664 20.75335 198.3656 18.84642 199.2406 17.78288 C 198.6345 17.02396 196.7842 15.14316 195.7851 14.3712 Z M 186.4371 27.28907 C 184.5828 26.37881 185.7285 23.49624 187.734 24.22023 C 188.8812 24.63431 189.0425 26.03147 188.5701 26.73617 C 188.3001 27.13885 187.3865 27.75515 186.4371 27.28907 Z M 205.7031 24.65187 C 206.4791 25.52737 205.8326 26.79732 205.7464 26.90122 C 205.2219 27.53367 204.0789 27.48746 203.7398 27.3402 C 201.3582 26.30597 203.8484 22.55919 205.7031 24.65187 Z M 187.0003 8.107233 C 187.7849 8.041858 188.3936 8.608771 188.5502 8.833427 C 188.7633 9.139055 189.0259 10.00392 188.5866 10.69589 C 188.4026 10.98574 187.6904 11.63901 186.8339 11.44864 C 184.5186 10.93407 185.6471 8.451077 186.7276 8.156258 L 187.0003 8.107233 Z M 204.1314 8.110962 C 206.4128 7.665762 206.8371 11.41255 204.5146 11.50765 C 203.8533 11.53474 202.9322 10.83938 202.7748 10.15121 C 202.6218 9.482453 203.1214 8.308056 204.1314 8.110962 Z M 195.8249 15.51127 C 196.0754 15.71042 197.2115 16.67279 198.0845 17.7778 C 197.2947 18.76559 196.2322 19.68651 195.8346 19.99922 C 195.512 19.778 195.9857 20.31458 193.415 17.81419 C 195.9124 15.31475 195.6172 15.67856 195.8249 15.51127 Z" fill-rule="evenodd" fill="#000000" fill-opacity="1" stroke="#000000" stroke-opacity="1" stroke-width="0.5291666" stroke-linecap="round" stroke-linejoin="round"/>
<path id="path_404d0f6e85b63318744ff849da087c53" d="M 232.072 23.90685 C 232.1751 23.39705 232.1897 24.34188 232.1897 19.57405 C 233.9376 19.87174 237.1797 21.06477 238.3128 21.18857 C 238.3957 20.10346 238.4475 15.88013 238.3498 14.38694 C 236.8696 14.64788 234.0076 15.60257 232.3084 16.03558 C 232.2111 15.52211 232.1942 16.03857 232.1371 11.68384 C 227.9702 11.62971 228.4836 11.64518 227.7992 11.52738 C 227.9737 10.42909 228.8236 8.092093 229.4568 5.575686 C 228.108 5.318783 223.139 5.479992 222.5914 5.523256 C 222.8554 6.976723 223.907 9.888757 224.232 11.45572 C 223.8156 11.55994 224.6659 11.56896 219.9454 11.68384 C 219.8823 16.30697 219.8396 15.62244 219.7981 15.96238 C 218.5377 15.91423 215.5602 14.68211 213.6913 14.388 C 213.4905 15.73774 213.6122 20.53094 213.6673 21.21103 C 215.6745 20.95098 218.1513 19.70405 219.7947 19.642 C 219.9436 20.49171 219.9015 20.58857 219.9454 23.95258 C 224.6791 24.01383 223.6509 24.00249 224.2469 24.09103 C 224.0776 25.0638 222.9175 28.34317 222.634 30.04768 C 223.5551 30.29114 228.6378 30.22939 229.4386 30.06961 C 229.2719 28.82169 228.4978 26.9329 227.7509 24.00501 C 231.6409 24.00501 231.4734 23.99535 232.072 23.90685 Z M 218.7039 27.95799 C 221.5673 26.25457 218.993 22.12519 216.3032 23.51736 C 213.7029 24.8631 215.1464 30.07436 218.7039 27.95799 Z M 235.9837 27.92469 C 238.5849 26.19636 236.2039 21.67433 233.2095 23.72034 C 230.1318 25.82319 233.7181 29.43001 235.9837 27.92469 Z M 218.3932 12.08775 C 221.2617 10.89294 219.6856 6.234792 216.408 7.485868 C 213.505 8.593963 215.1546 13.43673 218.3932 12.08775 Z M 235.7106 12.06356 C 238.4862 10.89532 236.9468 6.125077 233.6077 7.506386 C 230.9177 8.619105 232.2874 13.5044 235.7106 12.06356 Z M 220.6811 23.00884 C 220.6586 21.19112 220.7634 18.65447 220.45 18.47005 C 220.2384 18.34551 220.1221 18.66839 214.5385 20.12516 C 214.3883 19.01835 214.391 16.48782 214.5126 15.47119 C 216.3591 15.84903 219.2178 16.91855 220.5938 17.049 C 220.6269 16.68836 220.6674 17.32146 220.6811 12.52273 C 225.8003 12.46096 224.8735 12.44292 225.3327 12.36718 C 225.0595 10.75236 223.8188 7.404804 223.7349 6.274076 C 224.735 6.148978 227.1369 6.148963 228.3158 6.318865 C 228.1957 7.553195 227.1978 10.00248 226.7031 12.30629 C 227.3408 12.43639 226.7004 12.41822 231.3489 12.47432 C 231.3489 17.50026 231.3564 16.50093 231.4427 17.04239 C 232.9479 16.9772 236.0296 15.65428 237.5287 15.50308 C 237.7554 16.66856 237.632 19.43491 237.555 20.06959 C 234.4812 19.48399 232.6242 18.51182 231.498 18.49636 C 231.349 19.02333 231.3489 18.03761 231.3489 23.05726 C 226.3534 23.11757 227.2731 23.11398 226.7254 23.20439 C 226.8593 24.70509 227.9814 27.29441 228.3392 29.27116 C 227.5072 29.35246 224.6999 29.42947 223.6954 29.24331 C 223.8922 28.0086 225.0753 24.81283 225.3149 23.20518 C 224.6842 23.05104 225.1332 23.0638 220.6811 23.00884 Z M 226.0016 14.37121 C 224.8183 15.41325 223.0892 17.17295 222.4824 17.81967 C 225.827 21.16966 225.6313 20.94761 225.9968 21.27863 C 226.5829 20.75336 228.5821 18.84643 229.4571 17.78288 C 228.8511 17.02396 227.0007 15.14317 226.0016 14.37121 Z M 216.6535 27.28907 C 214.7993 26.37882 215.945 23.49625 217.9506 24.22023 C 219.0977 24.63431 219.2589 26.03148 218.7866 26.73618 C 218.5167 27.13885 217.603 27.75516 216.6535 27.28907 Z M 235.9197 24.65187 C 236.6957 25.52739 236.0491 26.79733 235.9629 26.90124 C 235.4385 27.53369 234.2955 27.48747 233.9564 27.3402 C 231.5746 26.30598 234.0649 22.5592 235.9197 24.65187 Z M 217.2168 8.107237 C 218.0014 8.041862 218.61 8.608775 218.7667 8.833431 C 218.9798 9.139059 219.2423 10.00392 218.803 10.69589 C 218.619 10.98575 217.907 11.63901 217.0504 11.44864 C 214.7352 10.93407 215.8636 8.45108 216.9441 8.156261 L 217.2168 8.107237 Z M 234.3479 8.110966 C 236.6293 7.665767 237.0536 11.41255 234.7311 11.50765 C 234.0698 11.53473 233.1487 10.83939 232.9913 10.15121 C 232.8383 9.482457 233.3379 8.308059 234.3479 8.110966 Z M 226.0413 15.51127 C 226.2919 15.71042 227.4281 16.67281 228.301 17.77781 C 227.5112 18.76559 226.4488 19.68651 226.051 19.99922 C 225.7284 19.778 226.2023 20.31459 223.6316 17.81419 C 226.1289 15.31476 225.8337 15.67856 226.0413 15.51127 Z" fill-rule="evenodd" fill="#000000" fill-opacity="1" stroke="#000000" stroke-opacity="1" stroke-width="0.5291666" stroke-linecap="round" stroke-linejoin="round"/>
<path id="path_687b6bb1a07743eea90fd0865bf4c110" d="M 262.2885 23.90683 C 262.3916 23.39704 262.4061 24.34187 262.4061 19.57404 C 264.1541 19.87174 267.3961 21.06477 268.5292 21.18856 C 268.6122 20.10345 268.664 15.88012 268.5663 14.38694 C 267.0862 14.64787 264.2239 15.60256 262.5249 16.03557 C 262.4276 15.5221 262.4106 16.03856 262.3535 11.68384 C 258.1867 11.62971 258.7001 11.64518 258.0156 11.52738 C 258.1902 10.42909 259.04 8.092086 259.6734 5.575678 C 258.3245 5.318775 253.3555 5.479984 252.8079 5.523248 C 253.0719 6.976716 254.1234 9.88875 254.4484 11.45571 C 254.032 11.55993 254.8824 11.56895 250.1619 11.68384 C 250.0988 16.30696 250.0562 15.62243 250.0145 15.96237 C 248.7541 15.91423 245.7767 14.68211 243.9077 14.38799 C 243.7069 15.73773 243.8288 20.53093 243.8837 21.21102 C 245.8909 20.95097 248.3678 19.70404 250.0111 19.64199 C 250.16 20.4917 250.118 20.58856 250.1619 23.95257 C 254.8956 24.01382 253.8674 24.00248 254.4634 24.09103 C 254.2941 25.06379 253.134 28.34316 252.8505 30.04767 C 253.7715 30.29113 258.8543 30.22938 259.655 30.06961 C 259.4883 28.82169 258.7141 26.93289 257.9674 24.005 C 261.8573 24.005 261.6899 23.99534 262.2885 23.90683 Z M 248.9204 27.95798 C 251.7837 26.25456 249.2096 22.12519 246.5196 23.51735 C 243.9193 24.8631 245.3629 30.07435 248.9204 27.95798 Z M 266.2002 27.92467 C 268.8014 26.19634 266.4204 21.67431 263.4259 23.72033 C 260.3481 25.82318 263.9346 29.42999 266.2002 27.92467 Z M 248.6097 12.08774 C 251.4781 10.89293 249.9021 6.234785 246.6244 7.485861 C 243.7214 8.593956 245.3711 13.43672 248.6097 12.08774 Z M 265.9271 12.06355 C 268.7026 10.89531 267.1633 6.12507 263.824 7.50638 C 261.1341 8.619099 262.5038 13.50439 265.9271 12.06355 Z M 250.8975 23.00883 C 250.875 21.19111 250.9798 18.65446 250.6665 18.47005 C 250.4549 18.34551 250.3386 18.66838 244.7551 20.12516 C 244.6048 19.01834 244.6074 16.48781 244.7292 15.47119 C 246.5756 15.84902 249.4342 16.91854 250.8102 17.049 C 250.8434 16.68835 250.8839 17.32145 250.8975 12.52273 C 256.0168 12.46095 255.0899 12.44292 255.5491 12.36718 C 255.2759 10.75235 254.0352 7.404797 253.9513 6.274068 C 254.9514 6.148971 257.3534 6.148955 258.5322 6.318858 C 258.4121 7.553189 257.4142 10.00248 256.9196 12.30629 C 257.5573 12.43639 256.9169 12.41822 261.5653 12.47431 C 261.5653 17.50025 261.573 16.50092 261.6591 17.04239 C 263.1644 16.97719 266.2462 15.65427 267.7451 15.50307 C 267.9718 16.66855 267.8484 19.43491 267.7714 20.06958 C 264.6977 19.48398 262.8407 18.51182 261.7144 18.49636 C 261.5655 19.02332 261.5653 18.0376 261.5653 23.05725 C 256.5698 23.11756 257.4896 23.11397 256.9419 23.20439 C 257.0758 24.70509 258.1978 27.2944 258.5556 29.27115 C 257.7238 29.35245 254.9164 29.42946 253.9119 29.24331 C 254.1087 28.00859 255.2919 24.81283 255.5315 23.20517 C 254.9007 23.05103 255.3497 23.06379 250.8975 23.00883 Z M 256.2181 14.37121 C 255.0349 15.41324 253.3057 17.17295 252.6988 17.81967 C 256.0436 21.16966 255.8478 20.9476 256.2133 21.27862 C 256.7993 20.75336 258.7985 18.84642 259.6735 17.78287 C 259.0675 17.02395 257.2171 15.14316 256.2181 14.37121 Z M 246.8701 27.28907 C 245.0157 26.37881 246.1614 23.49625 248.167 24.22022 C 249.3142 24.63431 249.4755 26.03146 249.0031 26.73617 C 248.7331 27.13884 247.8194 27.75516 246.8701 27.28907 Z M 266.1362 24.65187 C 266.9121 25.52738 266.2655 26.79732 266.1794 26.90123 C 265.6549 27.53368 264.5119 27.48746 264.1728 27.34019 C 261.7911 26.30597 264.2814 22.55919 266.1362 24.65187 Z M 247.4332 8.10723 C 248.2179 8.041855 248.8266 8.608768 248.9831 8.833425 C 249.1962 9.139052 249.4588 10.00392 249.0195 10.69588 C 248.8356 10.98575 248.1234 11.639 247.2669 11.44864 C 244.9516 10.93407 246.0801 8.451074 247.1605 8.156255 L 247.4332 8.10723 Z M 264.5643 8.110959 C 266.8457 7.66576 267.27 11.41254 264.9476 11.50765 C 264.2863 11.53473 263.3652 10.83938 263.2078 10.1512 C 263.0548 9.48245 263.5544 8.308052 264.5643 8.110959 Z M 256.2578 15.51126 C 256.5084 15.71041 257.6445 16.6728 258.5174 17.77781 C 257.7276 18.76558 256.6652 19.6865 256.2675 19.99921 C 255.9448 19.77799 256.4187 20.31458 253.848 17.81418 C 256.3454 15.31476 256.0502 15.67856 256.2578 15.51126 Z" fill-rule="evenodd" fill="#000000" fill-opacity="1" stroke="#000000" stroke-opacity="1" stroke-width="0.5291666" stroke-linecap="round" stroke-linejoin="round"/>
</defs>
<g>
<g>
<g>
<use xlink:href="#path_961c48783454366d95f7eb920967ee67"/>
</g>
</g>
</g>
<g>
<g>
<g>
<use xlink:href="#path_978f24b1d8b693628b9d8dc06ca40e70"/>
</g>
</g>
</g>
<g>
<g>
<g>
<use xlink:href="#path_2d695ad93abf89e2f5ecc3f6b2c7de84"/>
</g>
</g>
</g>
<g>
<g>
<g>
<use xlink:href="#path_e6e92f4c9f99c53432783e2baf97c27a"/>
</g>
</g>
</g>
<g>
<g>
<g>
<use xlink:href="#path_a7f56afede046aa7fb3a99e58ab2a1bb"/>
</g>
</g>
</g>
<g>
<g>
<g>
<use xlink:href="#path_b9ea2c143460de659b61532c0dec88f5"/>
</g>
</g>
</g>
<g>
<g>
<g>
<use xlink:href="#path_2932d0f3bd7feba62db81361f1ee9b76"/>
</g>
</g>
</g>
<g>
<g>
<g>
<use xlink:href="#path_9832664161752859c52c576cec996664"/>
</g>
</g>
</g>
<g>
<g>
<g>
<use xlink:href="#path_d1a35f6363c84a3a322bf6726586c49f"/>
</g>
</g>
</g>
<g>
<g>
<g>
<use xlink:href="#path_404d0f6e85b63318744ff849da087c53"/>
</g>
</g>
</g>
<g>
<g>
<g>
<use xlink:href="#path_687b6bb1a07743eea90fd0865bf4c110"/>
</g>
</g>
</g>
</svg>