<?xml version="1.0" encoding="utf-8"?>
<!DOCTYPE svg PUBLIC "-//W3C//DTD SVG 1.1//EN" "http://www.w3.org/Graphics/SVG/1.1/DTD/svg11.dtd">
<!-- exported from Silhouette Studio® Business Edition V5.0.414ssbe -->
<svg version="1.1" xmlns="http://www.w3.org/2000/svg" xmlns:xlink="http://www.w3.org/1999/xlink" width="270.9333mm" height="35.28752mm" viewBox="0 0 270.9333 35.28752">
<defs>
<path id="path_7ef93c17ea54b1594d3052dc933bdba3" d="M -1.951442e-6 6.358106 L 270.9333 6.490399 L 270.9333 9.43652 L 270.9333 12.07443 L 270.9333 19.45102 L 270.9333 21.45921 L 270.9333 29.9166 L 270.9333 35.98088 L -0.0000153 35.95435 L -0.0000153 29.92451 L -0.0000153 21.64305 L -0.0000153 19.37292 L -0.0000153 10.97372 L -0.0000153 9.191738 L -1.951442e-6 6.358106 Z" fill-rule="evenodd" fill="none" fill-opacity="1" stroke="none" stroke-opacity="1" stroke-width="0.132292" stroke-linecap="butt" stroke-linejoin="miter"/>
<path id="path_1e6de61b8bf2e263736bcb93eac308d6" d="M 0.0000153 33.89106 L 270.9333 33.88853 L 270.9333 35.83627 L 2.273737e-13 35.82777 L 0.0000153 33.89106 Z" fill-rule="evenodd" fill="#000000" fill-opacity="1" stroke="none" stroke-opacity="1" stroke-width="0.132292" stroke-linecap="butt" stroke-linejoin="miter"/>
<path id="path_ec23602429199fd17207706441c246e9" d="M 246.0306 7.048378 C 252.6822 6.855849 260.5349 6.923978 267.2117 7.018704 C 267.419 11.65897 267.1065 16.73025 267.182 21.41644 C 267.1953 22.22806 267.2339 28.21169 267.1406 28.74191 L 266.8058 28.96704 C 264.7115 29.05145 258.5695 21.54677 257.0898 20.6966 C 255.2903 19.66283 249.5704 28.27538 246.2083 28.99666 C 245.9032 28.04877 246.0232 19.67613 246.0261 18.19801 C 248.6343 18.22319 265.7498 18.53865 266.9437 18.05878 L 266.9614 17.77886 C 266.6192 17.39527 266.1912 17.51374 266.0668 17.41599 C 263.7341 15.58091 258.531 10.66813 256.2368 9.33365 C 255.3748 10.36598 247.3502 17.02202 246.1091 17.68408 C 245.9224 14.44491 246.0306 10.34228 246.0306 7.048378 Z" fill-rule="evenodd" fill="#000000" fill-opacity="1" stroke="none" stroke-opacity="1" stroke-width="0.132292" stroke-linecap="butt" stroke-linejoin="miter"/>
<path id="path_8b6bf2c2cb1e7cfdf117e4e55bc62f50" d="M 94.75756 6.910589 L 115.5316 6.91843 L 115.5495 20.1594 C 115.5607 21.71454 115.6925 27.73668 115.4232 28.77936 L 115.2015 28.86087 C 113.7983 28.35284 109.0763 23.68148 107.5311 22.34257 C 106.9602 21.84788 106.2845 21.14142 105.5988 20.83778 C 104.0842 20.16536 97.14019 28.09957 95.02149 29.02082 C 94.43259 28.30992 94.66573 19.74473 94.66899 18.1644 L 108.57 18.23258 C 109.5594 18.23369 114.2394 18.26225 114.9629 18.06522 L 115.0818 17.78381 L 114.9476 17.53648 C 114.6662 17.43728 114.2106 17.30689 114.0111 17.10102 C 111.6237 14.63797 108.1518 11.46548 105.4515 9.360838 C 105.1741 9.337114 104.306 9.20534 104.0645 9.390506 L 103.8274 9.993314 C 102.9279 10.64202 102.0418 11.44924 101.2052 12.1557 C 99.23478 13.81898 97.44985 15.75625 95.38731 17.28769 C 95.05317 17.53652 95.05288 17.49208 94.80376 17.42543 C 94.59892 16.66862 94.7337 8.144904 94.75756 6.910589 Z" fill-rule="evenodd" fill="#000000" fill-opacity="1" stroke="none" stroke-opacity="1" stroke-width="0.132292" stroke-linecap="butt" stroke-linejoin="miter"/>
<path id="path_7ffbf94fe97c3dcd63f126a2f3e26dd9" d="M 4.022654 18.18024 C 11.11709 18.41129 17.79918 18.25728 24.89288 18.10625 C 24.90038 19.69396 25.03432 27.66225 24.80268 28.78196 C 24.60154 28.84566 23.69097 28.94635 23.55442 28.85003 C 22.17064 27.8725 20.89896 26.43734 19.68994 25.22579 C 17.8568 23.53585 16.15398 21.52157 14.09422 20.13084 C 11.77099 22.88864 8.639221 25.43314 6.085814 28.01172 C 5.635557 28.46494 4.964479 28.91075 4.305387 28.81746 C 3.890388 28.00286 4.023983 19.68204 4.022654 18.18024 Z" fill-rule="evenodd" fill="#000000" fill-opacity="1" stroke="none" stroke-opacity="1" stroke-width="0.132292" stroke-linecap="butt" stroke-linejoin="miter"/>
<path id="path_2de280f47d254bf2b9b083c39a883f43" d="M 155.9343 18.16543 C 162.7546 18.28834 169.578 18.28834 176.3985 18.1643 L 176.3895 24.77148 C 176.3895 25.89267 176.4473 27.70846 176.2784 28.77338 L 176.034 28.91113 C 174.7959 28.68747 172.672 26.62728 171.7152 25.71938 C 169.9498 23.94798 168.1739 22.18696 166.3877 20.4363 C 164.4282 21.68042 157.5633 28.68011 156.5577 28.86376 C 156.3296 28.90518 156.3711 28.85476 156.1519 28.69193 C 155.8527 27.55593 155.9371 19.7624 155.9343 18.16543 Z" fill-rule="evenodd" fill="#000000" fill-opacity="1" stroke="none" stroke-opacity="1" stroke-width="0.132292" stroke-linecap="butt" stroke-linejoin="miter"/>
<path id="path_95c14cfd1b468a603d915bf3293c49a8" d="M 186.6344 18.15799 C 193.5585 18.14018 200.0812 18.42312 207.0824 18.20097 C 207.0835 19.77835 207.2246 27.56151 206.8691 28.60123 C 206.4914 28.85006 206.3966 28.82042 205.9479 28.86784 C 204.6786 28.31687 203.2389 26.47882 202.174 25.3917 C 200.9773 24.27493 198.4313 21.37792 197.319 20.71736 C 195.712 20.48336 190.0987 27.11422 188.391 28.29612 C 187.9452 28.60566 187.2284 28.84264 186.7144 29.02631 C 186.516 25.96194 186.6359 21.34387 186.6344 18.15799 Z" fill-rule="evenodd" fill="#000000" fill-opacity="1" stroke="none" stroke-opacity="1" stroke-width="0.132292" stroke-linecap="butt" stroke-linejoin="miter"/>
<path id="path_2f1d7b634aa48b4bc55f657750ae3f79" d="M 35.17908 18.13136 C 41.71382 18.29872 48.8777 18.18176 55.42859 18.14468 C 55.44532 19.44657 55.55285 28.30796 55.22242 28.82931 L 54.83865 28.84562 C 53.53099 28.27242 51.5573 26.19594 50.45447 25.13992 C 48.74693 23.39076 47.1435 21.87708 45.3456 20.21381 C 42.54278 22.46509 39.73937 25.80642 36.91848 28.13765 C 36.37418 28.58642 36.08492 28.70639 35.42272 28.61013 C 34.92255 27.96436 35.16619 19.72206 35.17908 18.13136 Z" fill-rule="evenodd" fill="#000000" fill-opacity="1" stroke="none" stroke-opacity="1" stroke-width="0.132292" stroke-linecap="butt" stroke-linejoin="miter"/>
<path id="path_c4c35b8340b39f6c6fc67c9a690d6a34" d="M 156.0098 6.879491 C 162.7058 6.802462 169.6833 6.898778 176.3912 6.965386 C 176.3968 8.111754 176.4934 17.32858 176.2623 17.75957 C 174.996 17.57891 172.6484 14.25975 171.345 13.70139 C 170.7704 12.81715 167.3268 10.04162 166.1834 8.868591 C 163.9203 11.24428 159.5674 15.19139 157.0139 17.46337 C 156.8022 17.65294 156.4363 17.56414 156.1667 17.4871 C 155.8305 16.87393 156.0186 8.142898 156.0098 6.879491 Z" fill-rule="evenodd" fill="#000000" fill-opacity="1" stroke="none" stroke-opacity="1" stroke-width="0.132292" stroke-linecap="butt" stroke-linejoin="miter"/>
<path id="path_7bffa5472c7d44ed587ddcb457f224b8" d="M 125.3721 6.910604 C 132.1153 6.89135 138.8572 6.906145 145.6007 6.957959 L 145.5928 18.0173 C 144.094 16.98347 142.1167 14.98699 140.7334 13.67027 C 139.0626 12.19065 137.0114 10.49927 135.5643 8.864128 C 134.4979 10.56297 127.3024 16.96423 125.3875 18.08689 C 125.4741 14.44637 125.3436 10.59699 125.3721 6.910604 Z" fill-rule="evenodd" fill="#000000" fill-opacity="1" stroke="none" stroke-opacity="1" stroke-width="0.132292" stroke-linecap="butt" stroke-linejoin="miter"/>
<path id="path_5ca96d2b5535dcde87b3b7be1a53ea40" d="M 125.3632 18.09874 C 126.5892 18.24834 129.3791 18.22463 130.6943 18.24834 C 135.6611 18.3239 140.6302 18.29424 145.5948 18.15945 C 145.6003 19.65091 145.7073 28.05315 145.5089 28.93885 L 145.2408 29.00255 C 144.167 28.59523 141.9395 26.18104 140.9516 25.2391 C 140.7752 25.04061 135.7885 20.52921 135.8655 20.56328 C 135.3427 20.57807 135.2048 20.54257 134.7621 20.82839 C 134.5502 21.48007 133.7475 22.26801 133.2039 22.59533 C 131.838 23.41736 126.7748 28.77003 125.6212 28.99069 L 125.4562 28.85296 C 125.2351 27.94651 125.3577 19.61241 125.3632 18.09874 Z" fill-rule="evenodd" fill="#000000" fill-opacity="1" stroke="none" stroke-opacity="1" stroke-width="0.132292" stroke-linecap="butt" stroke-linejoin="miter"/>
<path id="path_b7f35f7c945f8b5785c06ccd4d56363b" d="M 4.159222 6.854327 C 10.86234 7.005427 18.03187 6.875066 24.78535 6.906192 C 24.81957 9.459587 24.93422 14.41979 24.77608 17.14499 C 24.77149 17.22349 24.68038 17.28126 24.58753 17.2768 C 23.32578 17.21758 20.66825 14.44348 19.86505 13.66591 C 19.41391 13.19343 14.78077 9.253734 14.308 8.958997 C 11.43779 10.81627 7.47823 15.82979 4.224119 17.5049 C 3.991587 14.71006 4.15349 9.778015 4.159222 6.854327 Z" fill-rule="evenodd" fill="#000000" fill-opacity="1" stroke="none" stroke-opacity="1" stroke-width="0.132292" stroke-linecap="butt" stroke-linejoin="miter"/>
<path id="path_7538eb016838cf1218529ccacb8f3be9" d="M 63.89642 18.12401 C 70.09689 18.398 77.95264 18.1744 84.27689 18.16107 C 84.2883 20.359 84.44855 26.63291 84.24238 28.53166 C 84.07754 28.5864 83.31479 28.6457 83.18623 28.53166 C 81.92358 27.41936 80.78136 26.18119 79.53473 25.02297 C 77.70631 23.39377 76.06482 21.64904 74.19139 20.04057 C 72.70777 21.5587 70.81094 23.02052 69.27313 24.55937 C 68.48326 25.35027 65.07748 28.8427 64.13834 28.82791 C 63.78761 28.16142 63.89986 19.5148 63.89642 18.12401 Z" fill-rule="evenodd" fill="#000000" fill-opacity="1" stroke="none" stroke-opacity="1" stroke-width="0.132292" stroke-linecap="butt" stroke-linejoin="miter"/>
<path id="path_3545c224b7eee1827644d4857b7f47c4" d="M 215.8727 18.18766 C 222.7406 18.38908 228.8915 18.3106 235.752 18.14468 C 235.762 19.67761 235.9296 27.93471 235.635 28.7819 L 235.3195 28.89445 C 233.603 28.66192 232.3055 26.42991 230.8511 24.99472 C 229.1626 23.25595 227.6253 21.53342 225.6539 20.12192 C 223.5626 22.58648 220.2065 25.49684 217.9137 27.89472 C 217.4546 28.3746 216.8725 28.76857 216.1839 28.73598 C 215.6195 28.14206 215.8727 19.61986 215.8727 18.18766 Z" fill-rule="evenodd" fill="#000000" fill-opacity="1" stroke="none" stroke-opacity="1" stroke-width="0.132292" stroke-linecap="butt" stroke-linejoin="miter"/>
<path id="path_ec9bc0fc6fe966884531e4396294d299" d="M 186.8122 6.956537 C 193.3676 6.903255 200.6338 6.827695 207.155 7.011271 C 207.2024 8.308708 207.3195 17.08865 206.9522 17.63517 C 205.6547 17.47669 203.0702 14.54263 202.069 13.51921 C 200.2472 11.70782 198.852 10.22081 196.7682 8.707128 C 194.8782 10.36446 193.0298 12.06626 191.2229 13.81395 C 189.8306 15.1499 188.1985 16.85463 186.6433 17.93731 C 186.5841 16.05631 186.4893 8.442043 186.8122 6.956537 Z" fill-rule="evenodd" fill="#000000" fill-opacity="1" stroke="none" stroke-opacity="1" stroke-width="0.132292" stroke-linecap="butt" stroke-linejoin="miter"/>
<path id="path_3d9024e4dcf840c5d0f2a5946874c171" d="M 63.97419 6.910571 L 84.17245 6.880898 C 84.29701 10.39555 84.23334 14.23895 84.22044 17.7699 C 82.18942 16.41914 81.25958 15.32314 79.48717 13.72208 C 77.86626 12.25727 75.53975 10.26818 74.13597 8.704143 C 71.97861 10.21633 69.0724 13.25405 66.92556 14.97803 C 65.90909 15.79412 65.14305 16.73018 63.94841 17.39073 C 63.8474 14.07901 63.94987 10.25186 63.97419 6.910571 Z" fill-rule="evenodd" fill="#000000" fill-opacity="1" stroke="none" stroke-opacity="1" stroke-width="0.132292" stroke-linecap="butt" stroke-linejoin="miter"/>
<path id="path_d07f5e68a2713c9effdfb250934bd883" d="M 35.23891 6.915043 C 41.94367 6.920647 48.70428 6.872079 55.40327 6.958042 C 55.4138 8.409519 55.60306 16.05638 55.24744 16.97913 L 54.88666 17.02648 C 53.73717 16.61918 51.64024 14.41678 50.67383 13.49109 C 48.79047 11.94633 46.96474 10.31859 45.08716 8.754587 C 42.24242 11.61605 38.36905 14.9663 35.27061 17.66632 C 35.15182 14.23019 35.22901 10.37193 35.23891 6.915043 Z" fill-rule="evenodd" fill="#000000" fill-opacity="1" stroke="none" stroke-opacity="1" stroke-width="0.132292" stroke-linecap="butt" stroke-linejoin="miter"/>
<path id="path_04e4627ca201a43f825a440e85c9bacb" d="M 216.1897 7.125391 C 222.699 7.060236 229.21 7.057229 235.7194 7.117584 C 235.7786 10.60556 235.746 14.29937 235.7138 17.79031 C 234.3363 16.98313 231.9903 14.58524 230.6306 13.3752 C 229.0414 12.03037 227.5499 10.12271 225.8852 9.100737 C 224.5241 8.936351 224.9387 9.555461 224.7315 9.721346 C 223.3896 10.79661 216.8639 17.08976 215.9693 17.80958 C 215.9234 16.46773 215.7797 7.603363 216.1897 7.125391 Z" fill-rule="evenodd" fill="#000000" fill-opacity="1" stroke="none" stroke-opacity="1" stroke-width="0.132292" stroke-linecap="butt" stroke-linejoin="miter"/>
<path id="path_4599f6c6e57e17cb0aa197d609ebcb5a" d="M 0.0167714 -0.5060469 L 270.9167 -0.4986728 L 270.9167 1.393954 L 0.0167542 1.350596 L 0.0167714 -0.5060469 Z" fill-rule="evenodd" fill="#000000" fill-opacity="1" stroke="none" stroke-opacity="1" stroke-width="0.132292" stroke-linecap="butt" stroke-linejoin="miter"/>
</defs>
<g>
<g>
<g>
<use xlink:href="#path_7ef93c17ea54b1594d3052dc933bdba3"/>
</g>
</g>
</g>
<g>
<g>
<g>
<use xlink:href="#path_1e6de61b8bf2e263736bcb93eac308d6"/>
</g>
</g>
</g>
<g>
<g>
<g>
<use xlink:href="#path_ec23602429199fd17207706441c246e9"/>
</g>
</g>
</g>
<g>
<g>
<g>
<use xlink:href="#path_8b6bf2c2cb1e7cfdf117e4e55bc62f50"/>
</g>
</g>
</g>
<g>
<g>
<g>
<use xlink:href="#path_7ffbf94fe97c3dcd63f126a2f3e26dd9"/>
</g>
</g>
</g>
<g>
<g>
<g>
<use xlink:href="#path_2de280f47d254bf2b9b083c39a883f43"/>
</g>
</g>
</g>
<g>
<g>
<g>
<use xlink:href="#path_95c14cfd1b468a603d915bf3293c49a8"/>
</g>
</g>
</g>
<g>
<g>
<g>
<use xlink:href="#path_2f1d7b634aa48b4bc55f657750ae3f79"/>
</g>
</g>
</g>
<g>
<g>
<g>
<use xlink:href="#path_c4c35b8340b39f6c6fc67c9a690d6a34"/>
</g>
</g>
</g>
<g>
<g>
<g>
<use xlink:href="#path_7bffa5472c7d44ed587ddcb457f224b8"/>
</g>
</g>
</g>
<g>
<g>
<g>
<use xlink:href="#path_5ca96d2b5535dcde87b3b7be1a53ea40"/>
</g>
</g>
</g>
<g>
<g>
<g>
<use xlink:href="#path_b7f35f7c945f8b5785c06ccd4d56363b"/>
</g>
</g>
</g>
<g>
<g>
<g>
<use xlink:href="#path_7538eb016838cf1218529ccacb8f3be9"/>
</g>
</g>
</g>
<g>
<g>
<g>
<use xlink:href="#path_3545c224b7eee1827644d4857b7f47c4"/>
</g>
</g>
</g>
<g>
<g>
<g>
<use xlink:href="#path_ec9bc0fc6fe966884531e4396294d299"/>
</g>
</g>
</g>
<g>
<g>
<g>
<use xlink:href="#path_3d9024e4dcf840c5d0f2a5946874c171"/>
</g>
</g>
</g>
<g>
<g>
<g>
<use xlink:href="#path_d07f5e68a2713c9effdfb250934bd883"/>
</g>
</g>
</g>
<g>
<g>
<g>
<use xlink:href="#path_04e4627ca201a43f825a440e85c9bacb"/>
</g>
</g>
</g>
<g>
<g>
<g>
<use xlink:href="#path_4599f6c6e57e17cb0aa197d609ebcb5a"/>
</g>
</g>
</g>
</svg>