<?xml version="1.0" encoding="utf-8"?>
<!DOCTYPE svg PUBLIC "-//W3C//DTD SVG 1.1//EN" "http://www.w3.org/Graphics/SVG/1.1/DTD/svg11.dtd">
<!-- exported from Silhouette Studio® Business Edition V5.0.414ssbe -->
<svg version="1.1" xmlns="http://www.w3.org/2000/svg" xmlns:xlink="http://www.w3.org/1999/xlink" width="270.9333mm" height="35.3mm" viewBox="0 0 270.9333 35.3">
<defs>
<path id="path_653d852b6ef7be4a47002606982c4cdc" d="M 18.95917 21.38086 C 18.92554 21.3152 16.5274 19.01335 16.30316 18.82158 C 16.01343 19.0674 16.20966 18.83473 13.56936 21.46043 C 13.56936 22.29054 13.63718 26.26843 13.46812 26.64746 C 13.08956 27.49623 8.343631 32.56239 7.534176 31.62416 C 7.217213 31.25679 7.550569 28.10716 7.261355 26.77972 C 5.04358 26.23321 2.048492 27.35499 2.144455 25.90463 C 2.173729 25.46241 3.244111 24.50184 7.20872 20.52708 C 7.744494 20.51785 7.208723 20.52708 12.56652 20.43487 C 14.77385 18.19609 14.76584 18.18411 15.13568 17.71312 C 14.85703 17.36018 15.08871 17.54983 12.55553 14.99576 C 12.0217 14.99012 10.42017 14.9732 7.217134 14.93932 C 6.67422 14.15365 6.934382 14.69042 6.000461 11.15066 C 5.000604 7.361034 4.716194 6.980172 5.099999 6.572518 C 5.688097 5.947886 13.32966 8.498543 13.42632 8.640314 C 13.60641 8.904461 13.56936 10.76959 13.56936 13.96639 C 16.13082 16.56065 15.88824 16.28256 16.24473 16.5513 C 16.63443 16.32577 16.07258 16.91327 18.99282 13.99662 C 19.05367 8.623928 19.06091 9.263026 19.16211 8.626261 C 19.98598 8.01063 27.27028 6.337319 27.48991 6.600564 C 27.92301 7.119668 25.6268 14.5089 25.46265 14.8044 C 24.11377 15.16884 20.78573 14.76574 20.09487 15.06366 C 19.88818 15.15278 18.20055 16.6959 17.46144 17.73541 C 17.59492 17.91183 17.13563 17.53673 19.97283 20.43487 C 23.74814 20.49937 23.74814 20.49943 25.36612 20.52708 C 29.12146 24.28422 30.67256 25.52529 30.37853 26.22486 C 29.98423 27.16299 25.82717 26.2989 25.32334 26.80246 C 24.83221 27.29332 25.5385 31.27241 24.90039 31.74417 C 24.29104 32.19468 23.93133 31.67788 19.11915 26.84497 C 18.84822 24.67524 19.15851 21.77009 18.95917 21.38086 Z M 11.98949 23.19215 C 10.69054 23.99215 10.26529 25.14378 9.596621 25.08513 C 7.721354 24.92066 10.37286 22.64117 10.80527 22.07295 C 10.39789 21.97148 11.04748 21.95598 7.808748 21.95598 C 4.468431 25.30278 5.056123 24.80038 4.856164 25.08014 C 6.413997 25.35681 8.13131 24.9734 8.604181 25.45939 C 9.016444 25.88313 8.811998 28.41768 8.995623 29.13349 C 9.345926 28.88407 8.748965 29.49615 12.09519 26.15265 C 12.09519 22.894 12.05842 23.54089 11.98949 23.19215 Z M 27.68847 25.05183 C 27.36438 24.55162 27.77212 24.97065 24.76602 21.95598 C 21.5119 21.95598 22.2166 21.98196 21.80949 22.05801 C 22.97316 23.86599 24.51106 24.17901 23.00515 25.08838 C 21.77006 24.66765 21.7748 23.7958 20.62267 23.32275 C 20.49667 23.70654 20.45881 23.09099 20.52565 26.20645 C 23.25173 28.90521 23.08226 28.72127 23.63194 29.12489 C 24.01947 27.5989 23.57249 25.87651 24.04983 25.39959 C 24.56699 24.88293 25.83621 25.47821 27.68847 25.05183 Z M 8.971002 11.00918 C 9.244295 9.269144 11.0591 11.6384 11.99321 12.23618 C 12.05264 11.92974 12.09518 12.49831 12.09519 9.636896 C 11.30782 9.268244 7.479884 8.266704 6.828629 8.299083 C 6.812769 8.824704 7.870214 12.82162 8.143177 13.39053 C 8.19508 13.39828 9.371836 13.61933 10.76645 13.37073 C 9.989832 12.17719 8.869727 11.65392 8.971002 11.00918 Z M 20.60725 9.666882 C 20.44035 9.91415 20.37171 11.39793 20.623 12.15269 C 21.63992 11.5966 23.19324 9.393336 23.58398 10.8885 C 23.78205 11.64645 22.51302 12.20725 21.87015 13.36671 C 22.21751 13.44985 21.61275 13.47466 24.4191 13.47466 C 25.20238 11.40466 25.86696 8.200327 25.79581 8.115562 C 25.57235 7.84942 25.02293 8.321863 24.13095 8.613031 C 22.59255 9.115201 20.93649 9.17915 20.60725 9.666882 Z M 15.60175 21.7803 C 17.40108 20.52553 16.94125 23.11767 16.94261 23.46176 C 16.95463 26.51466 17.5634 28.49225 15.60229 27.48449 L 15.60175 21.7803 Z M 12.22613 18.40672 C 5.791715 18.45895 6.552586 18.59213 6.19846 17.68773 C 6.604222 16.94099 13.97867 15.78131 12.22613 18.40672 Z M 26.26394 17.37628 C 27.4474 19.40118 20.29071 18.33502 20.1393 18.14001 C 18.70088 16.2875 25.9525 16.8434 26.26394 17.37628 Z M 15.9151 13.91537 C 15.51945 13.65617 15.59594 13.33021 15.64243 8.009256 C 18.13172 6.204906 17.59659 15.01697 15.9151 13.91537 Z" fill-rule="evenodd" fill="#000000" fill-opacity="1" stroke="#000000" stroke-opacity="1" stroke-width="0.1" stroke-linecap="round" stroke-linejoin="round"/>
<path id="path_8e1adc72a9b59d0d92871bc2e7b6e47d" d="M 48.75628 21.38086 C 48.72266 21.3152 46.3245 19.01334 46.10026 18.82159 C 45.81053 19.06739 46.00675 18.83471 43.36646 21.46042 C 43.36646 22.29052 43.43428 26.26841 43.26522 26.64746 C 42.88665 27.49621 38.14074 32.56239 37.33128 31.62417 C 37.01432 31.25679 37.34768 28.10714 37.05846 26.77969 C 34.84069 26.23318 31.84559 27.35498 31.94157 25.90461 C 31.97084 25.4624 33.04121 24.50183 37.00581 20.52707 C 37.5416 20.51783 37.00581 20.52707 42.36361 20.43487 C 44.57096 18.19607 44.56293 18.18409 44.93277 17.7131 C 44.65411 17.36018 44.88581 17.54982 42.35264 14.99576 C 41.81879 14.99012 40.21727 14.97317 37.01424 14.9393 C 36.47132 14.15364 36.73149 14.6904 35.79756 11.15063 C 34.79771 7.361024 34.51331 6.980165 34.89711 6.57251 C 35.48521 5.947877 43.12675 8.498537 43.22342 8.640306 C 43.4035 8.904451 43.36646 10.76957 43.36646 13.96638 C 45.92793 16.56064 45.68536 16.28254 46.04184 16.55128 C 46.43154 16.32576 45.8697 16.91325 48.78993 13.99661 C 48.85079 8.623917 48.85802 9.263033 48.95923 8.626253 C 49.7831 8.010622 57.06738 6.337311 57.28701 6.600557 C 57.72011 7.119661 55.4239 14.5089 55.25976 14.80441 C 53.91086 15.16882 50.58285 14.76573 49.89198 15.06366 C 49.68529 15.15277 47.99765 16.6959 47.25854 17.7354 C 47.39202 17.91183 46.93274 17.53671 49.76994 20.43487 C 53.54524 20.49937 53.54523 20.49942 55.16321 20.52707 C 58.91854 24.28421 60.46966 25.52527 60.17563 26.22484 C 59.78135 27.16298 55.62428 26.29887 55.12044 26.80243 C 54.62932 27.2933 55.33559 31.27241 54.69749 31.74416 C 54.08814 32.19466 53.72844 31.67785 48.91625 26.84495 C 48.64532 24.67523 48.95563 21.77008 48.75628 21.38086 Z M 41.7866 23.19214 C 40.48766 23.99214 40.06239 25.14375 39.39373 25.08511 C 37.51847 24.92064 40.16997 22.64116 40.60238 22.07293 C 40.19498 21.97146 40.84457 21.95596 37.60586 21.95596 C 34.26554 25.30276 34.85323 24.80037 34.65326 25.08012 C 36.21109 25.35679 37.92841 24.97337 38.40128 25.45938 C 38.81354 25.8831 38.6091 28.41767 38.79274 29.13348 C 39.14304 28.88406 38.54607 29.49612 41.8923 26.15265 C 41.8923 22.89399 41.85555 23.54088 41.7866 23.19214 Z M 57.48557 25.0518 C 57.16149 24.55159 57.56924 24.97064 54.56312 21.95596 C 51.30901 21.95596 52.01371 21.98195 51.60659 22.058 C 52.77028 23.86598 54.30817 24.17901 52.80226 25.08838 C 51.56717 24.66763 51.57193 23.79579 50.41978 23.32274 C 50.29378 23.70653 50.25592 23.09097 50.32276 26.20643 C 53.04885 28.90519 52.87937 28.72128 53.42906 29.12489 C 53.81658 27.5989 53.36959 25.87649 53.84694 25.39959 C 54.36409 24.88292 55.6333 25.47818 57.48557 25.0518 Z M 38.7681 11.00917 C 39.04139 9.269135 40.85619 11.6384 41.79033 12.23618 C 41.84976 11.92973 41.8923 12.49831 41.8923 9.636902 C 41.10492 9.268236 37.27697 8.266695 36.62574 8.299089 C 36.60988 8.824694 37.66732 12.82161 37.94027 13.39052 C 37.99219 13.39827 39.16893 13.61932 40.56355 13.37073 C 39.78693 12.17718 38.66684 11.65392 38.7681 11.00917 Z M 50.40436 9.666872 C 50.23746 9.91414 50.16882 11.39792 50.42011 12.15268 C 51.43703 11.59659 52.99035 9.393327 53.38109 10.88849 C 53.57917 11.64645 52.31014 12.20724 51.66726 13.3667 C 52.01462 13.44984 51.40985 13.47465 54.2162 13.47465 C 54.99948 11.40465 55.66406 8.200319 55.59291 8.115541 C 55.36944 7.849397 54.82004 8.321854 53.92806 8.613022 C 52.38966 9.115189 50.7336 9.17914 50.40436 9.666872 Z M 45.39886 21.78029 C 47.19816 20.52553 46.73837 23.11764 46.73973 23.46173 C 46.75175 26.51463 47.3605 28.49226 45.3994 27.48448 L 45.39886 21.78029 Z M 42.02324 18.40671 C 35.58882 18.45896 36.34968 18.59212 35.99556 17.68772 C 36.40133 16.94098 43.77577 15.78129 42.02324 18.40671 Z M 56.06105 17.37626 C 57.24452 19.40117 50.08783 18.33503 49.93641 18.14001 C 48.49799 16.2875 55.74961 16.8434 56.06105 17.37626 Z M 45.7122 13.91534 C 45.31656 13.65616 45.39305 13.3302 45.43954 8.009249 C 47.92882 6.204897 47.3937 15.01695 45.7122 13.91534 Z" fill-rule="evenodd" fill="#000000" fill-opacity="1" stroke="#000000" stroke-opacity="1" stroke-width="0.1" stroke-linecap="round" stroke-linejoin="round"/>
<path id="path_e77412d635ac8d2662fe69a702d5a30c" d="M 78.55334 21.38086 C 78.51971 21.3152 76.12161 19.01333 75.89735 18.82158 C 75.60762 19.06738 75.80379 18.83471 73.16351 21.46042 C 73.16351 22.29052 73.23136 26.2684 73.0623 26.64745 C 72.68374 27.4962 67.93779 32.56239 67.12834 31.62416 C 66.81138 31.2568 67.14475 28.10713 66.85553 26.77969 C 64.63777 26.23318 61.64267 27.35497 61.73862 25.90461 C 61.76789 25.4624 62.83826 24.50183 66.80287 20.52707 C 67.33868 20.51783 66.80287 20.52707 72.16068 20.43488 C 74.368 18.19608 74.36 18.18409 74.72984 17.7131 C 74.45118 17.36018 74.68288 17.54982 72.14969 14.99576 C 71.61587 14.99012 70.01436 14.97317 66.81133 14.9393 C 66.26841 14.15364 66.52855 14.6904 65.59462 11.15063 C 64.5948 7.361024 64.31037 6.980164 64.69417 6.572509 C 65.28227 5.947875 72.92382 8.498535 73.02049 8.640305 C 73.20056 8.904449 73.16351 10.76957 73.16351 13.96638 C 75.72498 16.56064 75.48243 16.28254 75.83891 16.55128 C 76.22861 16.32576 75.66676 16.91325 78.58699 13.99661 C 78.64784 8.623916 78.65509 9.263029 78.75629 8.626249 C 79.58016 8.010618 86.86444 6.337311 87.08408 6.600556 C 87.51718 7.11966 85.22096 14.50889 85.05682 14.80441 C 83.70793 15.16882 80.37991 14.76573 79.68904 15.06366 C 79.48235 15.15277 77.79472 16.69589 77.05563 17.73539 C 77.1891 17.91182 76.72981 17.53671 79.56703 20.43488 C 83.34232 20.49936 83.34232 20.49942 84.96028 20.52707 C 88.71562 24.2842 90.26672 25.52526 89.97267 26.22483 C 89.57839 27.16297 85.42132 26.29887 84.9175 26.80242 C 84.42637 27.29329 85.13268 31.2724 84.49455 31.74414 C 83.8852 32.19465 83.52548 31.67785 78.71332 26.84496 C 78.44237 24.67523 78.75269 21.77008 78.55334 21.38086 Z M 71.58366 23.19214 C 70.28471 23.99213 69.85947 25.14375 69.19081 25.08511 C 67.31554 24.92063 69.96701 22.64116 70.39943 22.07293 C 69.99203 21.97146 70.64165 21.95596 67.40291 21.95596 C 64.0626 25.30276 64.6503 24.80037 64.45033 25.08012 C 66.00816 25.35679 67.72549 24.97338 68.19836 25.45938 C 68.61063 25.88311 68.40617 28.41766 68.5898 29.13347 C 68.94012 28.88405 68.34315 29.49611 71.68936 26.15264 C 71.68936 22.89399 71.6526 23.54088 71.58366 23.19214 Z M 87.28265 25.0518 C 86.95855 24.55159 87.36629 24.97064 84.36018 21.95596 C 81.10606 21.95596 81.81078 21.98194 81.40366 22.058 C 82.56734 23.86598 84.10523 24.17901 82.59932 25.08838 C 81.36423 24.66763 81.36897 23.79579 80.21684 23.32274 C 80.09084 23.70653 80.05298 23.09096 80.11983 26.20642 C 82.84592 28.90518 82.67643 28.72127 83.22612 29.12488 C 83.61365 27.59888 83.16666 25.87648 83.644 25.39959 C 84.16116 24.88293 85.43038 25.47818 87.28265 25.0518 Z M 68.56519 11.00917 C 68.83846 9.269135 70.65328 11.63839 71.58739 12.23617 C 71.64683 11.92973 71.68936 12.4983 71.68936 9.636902 C 70.90198 9.268234 67.07404 8.266693 66.42279 8.299088 C 66.40693 8.824691 67.46439 12.82161 67.73737 13.39051 C 67.78926 13.39827 68.96601 13.61932 70.36063 13.37072 C 69.58399 12.17718 68.46391 11.65391 68.56519 11.00917 Z M 80.20142 9.66687 C 80.03452 9.914138 79.96589 11.39791 80.21718 12.15268 C 81.23409 11.59659 82.78742 9.393325 83.17816 10.88849 C 83.37623 11.64645 82.1072 12.20724 81.46431 13.3667 C 81.81168 13.44984 81.20692 13.47465 84.01328 13.47465 C 84.79654 11.40465 85.46114 8.200316 85.38998 8.115538 C 85.16652 7.849394 84.61708 8.321852 83.72511 8.613022 C 82.18672 9.115188 80.53065 9.179136 80.20142 9.66687 Z M 75.19594 21.78028 C 76.99525 20.52553 76.53542 23.11765 76.5368 23.46173 C 76.54881 26.51464 77.15759 28.49224 75.19647 27.48447 L 75.19594 21.78028 Z M 71.82031 18.40671 C 65.38589 18.45895 66.14677 18.59211 65.79263 17.68771 C 66.19842 16.94098 73.57285 15.78129 71.82031 18.40671 Z M 85.85812 17.37627 C 87.04159 19.40117 79.88488 18.33502 79.73347 18.14 C 78.29507 16.28749 85.54668 16.84341 85.85812 17.37627 Z M 75.50929 13.91534 C 75.11363 13.65616 75.19012 13.3302 75.23659 8.009247 C 77.72588 6.204895 77.19077 15.01695 75.50929 13.91534 Z" fill-rule="evenodd" fill="#000000" fill-opacity="1" stroke="#000000" stroke-opacity="1" stroke-width="0.1" stroke-linecap="round" stroke-linejoin="round"/>
<path id="path_a7a081722e6c2e5732fb255a59239d74" d="M 108.3504 21.38086 C 108.3168 21.3152 105.9187 19.01334 105.6944 18.82159 C 105.4047 19.06739 105.6009 18.83471 102.9606 21.46042 C 102.9606 22.29052 103.0285 26.26841 102.8595 26.64746 C 102.4809 27.49621 97.73495 32.5624 96.92549 31.62418 C 96.60854 31.2568 96.94187 28.10715 96.65265 26.77969 C 94.43488 26.23319 91.43976 27.35498 91.53573 25.90462 C 91.565 25.46241 92.63541 24.50183 96.60002 20.52707 C 97.13579 20.51783 96.60002 20.52707 101.9578 20.43487 C 104.1651 18.19607 104.1571 18.18409 104.527 17.7131 C 104.2483 17.36018 104.48 17.54983 101.9468 14.99576 C 101.413 14.99012 99.81149 14.97317 96.60844 14.9393 C 96.06553 14.15364 96.32565 14.6904 95.39172 11.15063 C 94.39187 7.361025 94.10747 6.980165 94.49126 6.57251 C 95.07936 5.947877 102.7209 8.498537 102.8177 8.640308 C 102.9977 8.904453 102.9606 10.76958 102.9606 13.96638 C 105.5221 16.56065 105.2795 16.28254 105.636 16.55128 C 106.0257 16.32576 105.4639 16.91326 108.3841 13.99661 C 108.4449 8.62392 108.4522 9.263034 108.5535 8.626253 C 109.3773 8.010621 116.6615 6.337311 116.8812 6.600557 C 117.3143 7.119661 115.0182 14.5089 114.854 14.80441 C 113.505 15.16882 110.177 14.76573 109.4861 15.06366 C 109.2794 15.15277 107.5918 16.6959 106.8527 17.7354 C 106.9862 17.91183 106.5269 17.53671 109.3641 20.43487 C 113.1394 20.49937 113.1394 20.49942 114.7574 20.52707 C 118.5127 24.28421 120.0639 25.52527 119.7698 26.22484 C 119.3755 27.16298 115.2184 26.29887 114.7146 26.80243 C 114.2235 27.2933 114.9298 31.27242 114.2916 31.74417 C 113.6824 32.19466 113.3226 31.67785 108.5104 26.84496 C 108.2395 24.67523 108.5498 21.77008 108.3504 21.38086 Z M 101.3808 23.19214 C 100.0818 23.99214 99.6566 25.14376 98.98794 25.08512 C 97.11267 24.92064 99.76416 22.64116 100.1965 22.07293 C 99.78918 21.97146 100.4387 21.95596 97.20005 21.95596 C 93.85973 25.30276 94.4474 24.80037 94.24744 25.08013 C 95.80527 25.3568 97.52263 24.97338 97.99549 25.45938 C 98.40775 25.88311 98.2033 28.41767 98.38693 29.13349 C 98.73723 28.88407 98.14027 29.49612 101.4865 26.15265 C 101.4865 22.894 101.4497 23.54088 101.3808 23.19214 Z M 117.0797 25.05181 C 116.7557 24.5516 117.1634 24.97064 114.1573 21.95596 C 110.9032 21.95596 111.6079 21.98195 111.2008 22.058 C 112.3644 23.86598 113.9023 24.17902 112.3964 25.08839 C 111.1613 24.66764 111.1661 23.79579 110.0139 23.32274 C 109.8879 23.70653 109.8501 23.09097 109.9169 26.20643 C 112.6431 28.9052 112.4736 28.72128 113.0233 29.12489 C 113.4107 27.59891 112.9638 25.8765 113.4411 25.39959 C 113.9583 24.88293 115.2275 25.47819 117.0797 25.05181 Z M 98.36231 11.00917 C 98.6356 9.269136 100.4504 11.6384 101.3845 12.23618 C 101.4439 11.92973 101.4865 12.49831 101.4865 9.636904 C 100.6991 9.268238 96.87116 8.266694 96.21993 8.299089 C 96.20407 8.824694 97.26151 12.82161 97.53446 13.39052 C 97.58638 13.39827 98.76313 13.61932 100.1578 13.37073 C 99.38113 12.17718 98.26103 11.65392 98.36231 11.00917 Z M 109.9985 9.666874 C 109.8316 9.914142 109.763 11.39792 110.0143 12.15268 C 111.0312 11.59659 112.5845 9.393328 112.9752 10.88849 C 113.1733 11.64645 111.9043 12.20724 111.2615 13.3667 C 111.6088 13.44984 111.004 13.47465 113.8104 13.47465 C 114.5936 11.40465 115.2582 8.200321 115.1871 8.115541 C 114.9636 7.849397 114.4142 8.321856 113.5222 8.613024 C 111.9838 9.115191 110.3277 9.179141 109.9985 9.666874 Z M 104.993 21.78029 C 106.7923 20.52553 106.3326 23.11764 106.3339 23.46173 C 106.346 26.51463 106.9547 28.49226 104.9937 27.48448 L 104.993 21.78029 Z M 101.6175 18.40671 C 95.18302 18.45896 95.94386 18.59212 95.58974 17.68772 C 95.99548 16.94098 103.37 15.78129 101.6175 18.40671 Z M 115.6553 17.37626 C 116.8387 19.40117 109.682 18.33503 109.5306 18.14001 C 108.0922 16.2875 115.3438 16.8434 115.6553 17.37626 Z M 105.3064 13.91534 C 104.9108 13.65616 104.9872 13.3302 105.0337 8.009249 C 107.523 6.204897 106.988 15.01696 105.3064 13.91534 Z" fill-rule="evenodd" fill="#000000" fill-opacity="1" stroke="#000000" stroke-opacity="1" stroke-width="0.1" stroke-linecap="round" stroke-linejoin="round"/>
<path id="path_d3491d717846703e3eebe739543788c7" d="M 138.1475 21.38087 C 138.1138 21.31521 135.7157 19.01334 135.4915 18.82158 C 135.2017 19.06739 135.398 18.83473 132.7577 21.46043 C 132.7577 22.29054 132.8255 26.26843 132.6564 26.64747 C 132.2779 27.49623 127.532 32.56241 126.7225 31.62417 C 126.4055 31.2568 126.7389 28.10716 126.4497 26.77971 C 124.2319 26.2332 121.2368 27.35499 121.3328 25.90463 C 121.3621 25.46241 122.4324 24.50184 126.397 20.52708 C 126.9328 20.51785 126.397 20.52708 131.7548 20.43488 C 133.9622 18.19609 133.9542 18.1841 134.324 17.71312 C 134.0453 17.36019 134.277 17.54982 131.7438 14.99577 C 131.21 14.99013 129.6085 14.97319 126.4055 14.93932 C 125.8625 14.15365 126.1227 14.69042 125.1888 11.15066 C 124.1889 7.361047 123.9045 6.980172 124.2883 6.572518 C 124.8764 5.947885 132.518 8.498543 132.6146 8.640312 C 132.7947 8.904459 132.7577 10.7696 132.7577 13.96641 C 135.3191 16.56066 135.0766 16.28255 135.4331 16.55129 C 135.8228 16.32576 135.2609 16.91326 138.1811 13.99662 C 138.242 8.623923 138.2492 9.263041 138.3504 8.626259 C 139.1743 8.010629 146.4586 6.337319 146.6782 6.600564 C 147.1113 7.119668 144.8151 14.5089 144.651 14.80443 C 143.3021 15.16884 139.974 14.76574 139.2832 15.06367 C 139.0765 15.15278 137.3889 16.6959 136.6498 17.7354 C 136.7832 17.91182 136.3239 17.53672 139.1611 20.43488 C 142.9364 20.49936 142.9364 20.49943 144.5544 20.52708 C 148.3098 24.28422 149.8609 25.52528 149.5668 26.22485 C 149.1725 27.16299 145.0155 26.2989 144.5116 26.80246 C 144.0205 27.29333 144.7268 31.27241 144.0887 31.74417 C 143.4794 32.19467 143.1196 31.67787 138.3075 26.84497 C 138.0365 24.67524 138.3468 21.77009 138.1475 21.38087 Z M 131.1778 23.19215 C 129.8789 23.99215 129.4536 25.14377 128.7849 25.08513 C 126.9097 24.92065 129.5612 22.64117 129.9936 22.07295 C 129.5862 21.97148 130.2358 21.95598 126.9971 21.95598 C 123.6568 25.30278 124.2444 24.80038 124.0445 25.08014 C 125.6023 25.35681 127.3196 24.97339 127.7925 25.45939 C 128.2048 25.88312 128.0003 28.41768 128.1839 29.13348 C 128.5342 28.88406 127.9373 29.49614 131.2835 26.15266 C 131.2835 22.89401 131.2468 23.54089 131.1778 23.19215 Z M 146.8768 25.05182 C 146.5527 24.5516 146.9604 24.97065 143.9543 21.95598 C 140.7002 21.95598 141.4049 21.98196 140.9978 22.05801 C 142.1615 23.86599 143.6994 24.17903 142.1935 25.08839 C 140.9584 24.66765 140.9631 23.7958 139.811 23.32275 C 139.685 23.70654 139.6471 23.09099 139.714 26.20645 C 142.44 28.90521 142.2706 28.72128 142.8203 29.12491 C 143.2078 27.5989 142.7608 25.87651 143.2381 25.39961 C 143.7553 24.88293 145.0245 25.47819 146.8768 25.05182 Z M 128.1593 11.00918 C 128.4326 9.269143 130.2474 11.6384 131.1815 12.23618 C 131.241 11.92974 131.2835 12.49831 131.2835 9.636911 C 130.4961 9.268243 126.6682 8.266701 126.017 8.299095 C 126.0011 8.824699 127.0585 12.82162 127.3315 13.39053 C 127.3834 13.39828 128.5601 13.61933 129.9548 13.37073 C 129.1782 12.17719 128.0581 11.65392 128.1593 11.00918 Z M 139.7956 9.666895 C 139.6287 9.914163 139.56 11.39793 139.8113 12.15269 C 140.8282 11.5966 142.3815 9.393335 142.7723 10.8885 C 142.9704 11.64646 141.7013 12.20725 141.0585 13.36671 C 141.4058 13.44985 140.8011 13.47466 143.6074 13.47466 C 144.3907 11.40465 145.0552 8.200342 144.9841 8.115562 C 144.7606 7.84942 144.2112 8.321861 143.3193 8.613029 C 141.7809 9.115198 140.1248 9.179163 139.7956 9.666895 Z M 134.7901 21.7803 C 136.5894 20.52554 136.1296 23.11766 136.1309 23.46174 C 136.143 26.51465 136.7517 28.49226 134.7906 27.48449 L 134.7901 21.7803 Z M 131.4145 18.40673 C 124.98 18.45896 125.7409 18.59212 125.3868 17.68772 C 125.7925 16.94099 133.167 15.78131 131.4145 18.40673 Z M 145.4523 17.37627 C 146.6357 19.40117 139.479 18.33503 139.3276 18.14 C 137.8892 16.2875 145.1408 16.8434 145.4523 17.37627 Z M 135.1034 13.91537 C 134.7078 13.65618 134.7842 13.33021 134.8307 8.009254 C 137.32 6.204904 136.7849 15.01698 135.1034 13.91537 Z" fill-rule="evenodd" fill="#000000" fill-opacity="1" stroke="#000000" stroke-opacity="1" stroke-width="0.1" stroke-linecap="round" stroke-linejoin="round"/>
<path id="path_d58cb2d04e602bdfda24d02a8b7aee4f" d="M 167.9445 21.38086 C 167.9109 21.3152 165.5128 19.01333 165.2886 18.82158 C 164.9989 19.06738 165.1951 18.83471 162.5547 21.46042 C 162.5547 22.29053 162.6226 26.26841 162.4535 26.64746 C 162.0749 27.49621 157.329 32.56239 156.5195 31.62416 C 156.2027 31.25679 156.5359 28.10714 156.2467 26.77969 C 154.0289 26.23318 151.034 27.35498 151.1298 25.90461 C 151.1591 25.4624 152.2296 24.50183 156.1941 20.52707 C 156.7298 20.51783 156.1941 20.52707 161.5519 20.43488 C 163.7592 18.19608 163.7512 18.18409 164.121 17.71311 C 163.8424 17.36018 164.0741 17.54983 161.5409 14.99576 C 161.007 14.99012 159.4055 14.97317 156.2025 14.9393 C 155.6596 14.15364 155.9198 14.6904 154.9859 11.15063 C 153.9861 7.361023 153.7016 6.980162 154.0854 6.572508 C 154.6736 5.947873 162.315 8.498535 162.4117 8.640305 C 162.5917 8.904448 162.5547 10.76957 162.5547 13.96638 C 165.1163 16.56064 164.8736 16.28254 165.2301 16.55128 C 165.6198 16.32576 165.0579 16.91325 167.9782 13.99661 C 168.039 8.623914 168.0463 9.263031 168.1475 8.626251 C 168.9714 8.01062 176.2557 6.337309 176.4752 6.600554 C 176.9085 7.119659 174.6122 14.50889 174.448 14.80441 C 173.0991 15.16882 169.7712 14.76573 169.0802 15.06366 C 168.8735 15.15277 167.1861 16.69589 166.4468 17.73539 C 166.5803 17.91183 166.121 17.53671 168.9582 20.43488 C 172.7336 20.49936 172.7336 20.49942 174.3515 20.52707 C 178.1068 24.28421 179.6579 25.52527 179.3639 26.22484 C 178.9696 27.16298 174.8127 26.29887 174.3087 26.80243 C 173.8176 27.2933 174.5238 31.27241 173.8857 31.74415 C 173.2764 32.19465 172.9167 31.67785 168.1045 26.84495 C 167.8336 24.67523 168.1439 21.77008 167.9445 21.38086 Z M 160.9749 23.19214 C 159.6759 23.99214 159.2506 25.14375 158.582 25.08511 C 156.7067 24.92064 159.3582 22.64116 159.7906 22.07293 C 159.3832 21.97146 160.0328 21.95596 156.7942 21.95596 C 153.4538 25.30276 154.0415 24.80037 153.8415 25.08013 C 155.3994 25.3568 157.1167 24.97337 157.5895 25.45938 C 158.0018 25.88311 157.7974 28.41766 157.981 29.13347 C 158.3313 28.88405 157.7343 29.49612 161.0805 26.15265 C 161.0805 22.89399 161.0439 23.54088 160.9749 23.19214 Z M 176.6738 25.0518 C 176.3497 24.55159 176.7575 24.97064 173.7514 21.95596 C 170.4973 21.95596 171.2019 21.98195 170.7949 22.058 C 171.9585 23.86598 173.4965 24.17901 171.9905 25.08838 C 170.7554 24.66763 170.7602 23.79579 169.608 23.32274 C 169.482 23.70653 169.4442 23.09097 169.5111 26.20643 C 172.2371 28.90519 172.0676 28.72127 172.6174 29.12489 C 173.0048 27.59889 172.5578 25.87649 173.0354 25.39959 C 173.5523 24.88292 174.8215 25.47818 176.6738 25.0518 Z M 157.9564 11.00917 C 158.2297 9.269133 160.0445 11.63839 160.9786 12.23617 C 161.038 11.92973 161.0805 12.4983 161.0805 9.636901 C 160.2934 9.268232 156.4652 8.266693 155.814 8.299088 C 155.7981 8.824692 156.8557 12.82161 157.1285 13.39052 C 157.1805 13.39827 158.3572 13.61932 159.7519 13.37072 C 158.9753 12.17718 157.8551 11.65391 157.9564 11.00917 Z M 169.5926 9.666869 C 169.4257 9.914139 169.3571 11.39791 169.6084 12.15268 C 170.6253 11.59658 172.1786 9.393324 172.5693 10.88848 C 172.7674 11.64645 171.4986 12.20724 170.8555 13.3667 C 171.2029 13.44984 170.5981 13.47465 173.4044 13.47465 C 174.1877 11.40464 174.8523 8.200316 174.7812 8.115538 C 174.5577 7.849395 174.0085 8.321852 173.1165 8.613022 C 171.5779 9.115187 169.9219 9.179138 169.5926 9.666869 Z M 164.5871 21.78029 C 166.3864 20.52553 165.9266 23.11765 165.928 23.46173 C 165.94 26.51464 166.5487 28.49225 164.5877 27.48448 L 164.5871 21.78029 Z M 161.2115 18.40672 C 154.7773 18.45896 155.5379 18.59211 155.1838 17.68771 C 155.5896 16.94098 162.964 15.78129 161.2115 18.40672 Z M 175.2493 17.37626 C 176.4329 19.40117 169.2761 18.33503 169.1246 18.14 C 167.6862 16.28749 174.9379 16.8434 175.2493 17.37626 Z M 164.9004 13.91534 C 164.5048 13.65616 164.5813 13.3302 164.6278 8.009247 C 167.1171 6.204894 166.582 15.01695 164.9004 13.91534 Z" fill-rule="evenodd" fill="#000000" fill-opacity="1" stroke="#000000" stroke-opacity="1" stroke-width="0.1" stroke-linecap="round" stroke-linejoin="round"/>
<path id="path_701d3c77b5e8ae6e18dee64d6cbf52f7" d="M 197.7416 21.38087 C 197.708 21.3152 195.3099 19.01334 195.0856 18.82158 C 194.7959 19.06739 194.9921 18.83473 192.3518 21.46043 C 192.3518 22.29054 192.4197 26.26842 192.2506 26.64746 C 191.872 27.49623 187.1261 32.5624 186.3166 31.62416 C 185.9997 31.25679 186.3331 28.10715 186.0439 26.77971 C 183.8261 26.2332 180.831 27.35498 180.9269 25.90462 C 180.9562 25.4624 182.0266 24.50183 185.9912 20.52707 C 186.527 20.51785 185.9912 20.52707 191.349 20.43488 C 193.5563 18.19609 193.5483 18.1841 193.9182 17.71312 C 193.6395 17.36019 193.8712 17.54982 191.338 14.99577 C 190.8042 14.99013 189.2027 14.97319 185.9996 14.93932 C 185.4567 14.15365 185.7169 14.69042 184.7829 11.15066 C 183.7831 7.361046 183.4987 6.980171 183.8825 6.572517 C 184.4706 5.947884 192.1121 8.498543 192.2088 8.640312 C 192.3889 8.904458 192.3518 10.7696 192.3518 13.96641 C 194.9133 16.56066 194.6707 16.28255 195.0272 16.55129 C 195.4169 16.32576 194.8551 16.91326 197.7753 13.99662 C 197.8361 8.62392 197.8434 9.263038 197.9446 8.626257 C 198.7685 8.010626 206.0527 6.33732 206.2724 6.600565 C 206.7055 7.119669 204.4093 14.5089 204.2451 14.80443 C 202.8962 15.16884 199.5682 14.76574 198.8773 15.06367 C 198.6707 15.15278 196.983 16.6959 196.2439 17.7354 C 196.3774 17.91182 195.9181 17.53672 198.7553 20.43488 C 202.5306 20.49936 202.5306 20.49943 204.1486 20.52707 C 207.9039 24.28421 209.455 25.52527 209.161 26.22485 C 208.7667 27.16298 204.6096 26.29889 204.1058 26.80245 C 203.6147 27.29333 204.321 31.27241 203.6829 31.74416 C 203.0735 32.19466 202.7138 31.67786 197.9016 26.84496 C 197.6307 24.67524 197.941 21.77009 197.7416 21.38087 Z M 190.772 23.19215 C 189.473 23.99215 189.0478 25.14376 188.3791 25.08512 C 186.5039 24.92065 189.1554 22.64117 189.5878 22.07294 C 189.1804 21.97147 189.83 21.95598 186.5912 21.95598 C 183.2509 25.30277 183.8386 24.80037 183.6386 25.08013 C 185.1965 25.3568 186.9138 24.97338 187.3867 25.45938 C 187.7989 25.88311 187.5945 28.41767 187.7781 29.13347 C 188.1284 28.88405 187.5314 29.49613 190.8777 26.15265 C 190.8777 22.894 190.8409 23.54089 190.772 23.19215 Z M 206.4709 25.05182 C 206.1468 24.5516 206.5546 24.97064 203.5485 21.95598 C 200.2944 21.95598 200.9991 21.98195 200.592 22.058 C 201.7557 23.86599 203.2935 24.17903 201.7876 25.08838 C 200.5525 24.66764 200.5573 23.7958 199.4051 23.32274 C 199.2791 23.70654 199.2413 23.09098 199.3081 26.20644 C 202.0342 28.9052 201.8647 28.72127 202.4144 29.1249 C 202.8019 27.5989 202.355 25.8765 202.8323 25.3996 C 203.3495 24.88292 204.6187 25.47819 206.4709 25.05182 Z M 187.7535 11.00918 C 188.0268 9.269142 189.8416 11.6384 190.7757 12.23618 C 190.8351 11.92974 190.8777 12.49831 190.8777 9.636911 C 190.0903 9.268245 186.2624 8.266701 185.6111 8.299094 C 185.5953 8.824699 186.6527 12.82162 186.9257 13.39053 C 186.9776 13.39828 188.1543 13.61933 189.5489 13.37073 C 188.7723 12.17719 187.6522 11.65392 187.7535 11.00918 Z M 199.3897 9.666893 C 199.2228 9.91416 199.1542 11.39793 199.4055 12.15269 C 200.4224 11.5966 201.9757 9.393333 202.3664 10.8885 C 202.5645 11.64646 201.2955 12.20725 200.6526 13.36671 C 201 13.44985 200.3952 13.47466 203.2016 13.47466 C 203.9848 11.40465 204.6494 8.20034 204.5783 8.115561 C 204.3548 7.849419 203.8054 8.32186 202.9134 8.613029 C 201.375 9.115196 199.719 9.17916 199.3897 9.666893 Z M 194.3842 21.78029 C 196.1835 20.52553 195.7237 23.11766 195.7251 23.46173 C 195.7371 26.51464 196.3459 28.49225 194.3847 27.48449 L 194.3842 21.78029 Z M 191.0086 18.40673 C 184.5742 18.45896 185.3351 18.59212 184.9809 17.68772 C 185.3867 16.94099 192.7611 15.78131 191.0086 18.40673 Z M 205.0464 17.37627 C 206.2299 19.40117 199.0732 18.33503 198.9218 18.14 C 197.4834 16.2875 204.735 16.8434 205.0464 17.37627 Z M 194.6976 13.91537 C 194.3019 13.65618 194.3784 13.33021 194.4249 8.009254 C 196.9142 6.204904 196.3791 15.01698 194.6976 13.91537 Z" fill-rule="evenodd" fill="#000000" fill-opacity="1" stroke="#000000" stroke-opacity="1" stroke-width="0.1" stroke-linecap="round" stroke-linejoin="round"/>
<path id="path_a340f848b2583cb7fe8d8b2542eec5bf" d="M 227.5389 21.38087 C 227.5052 21.31521 225.1071 19.01335 224.8829 18.82159 C 224.5931 19.0674 224.7893 18.83473 222.149 21.46043 C 222.149 22.29054 222.2169 26.26843 222.0478 26.64747 C 221.6693 27.49623 216.9233 32.56242 216.1139 31.62417 C 215.7969 31.2568 216.1303 28.10716 215.8411 26.77972 C 213.6233 26.23321 210.6282 27.35499 210.7241 25.90463 C 210.7534 25.46241 211.8238 24.50184 215.7884 20.52708 C 216.3242 20.51785 215.7884 20.52708 221.1462 20.43489 C 223.3535 18.19609 223.3455 18.18411 223.7154 17.71312 C 223.4367 17.3602 223.6684 17.54983 221.1352 14.99578 C 220.6014 14.99015 218.9999 14.97321 215.7968 14.93933 C 215.2539 14.15366 215.5141 14.69042 214.5802 11.15066 C 213.5803 7.361048 213.2959 6.980172 213.6797 6.572518 C 214.2678 5.947886 221.9093 8.498544 222.006 8.640314 C 222.1861 8.90446 222.149 10.76961 222.149 13.96642 C 224.7105 16.56068 224.4679 16.28256 224.8244 16.55131 C 225.2141 16.32578 224.6523 16.91327 227.5725 13.99662 C 227.6334 8.623928 227.6406 9.263042 227.7418 8.626261 C 228.5657 8.010631 235.85 6.337319 236.0696 6.600564 C 236.5027 7.119668 234.2065 14.5089 234.0423 14.80443 C 232.6934 15.16884 229.3654 14.76575 228.6745 15.06367 C 228.4679 15.15278 226.7802 16.6959 226.0411 17.73541 C 226.1746 17.91183 225.7153 17.53673 228.5525 20.43489 C 232.3278 20.49937 232.3278 20.49943 233.9458 20.52708 C 237.7011 24.28422 239.2522 25.52528 238.9582 26.22486 C 238.5639 27.16299 234.4068 26.2989 233.903 26.80246 C 233.4119 27.29333 234.1182 31.27242 233.4801 31.74417 C 232.8707 32.19468 232.511 31.67788 227.6988 26.84498 C 227.4279 24.67525 227.7382 21.77009 227.5389 21.38087 Z M 220.5692 23.19215 C 219.2702 23.99215 218.845 25.14377 218.1763 25.08513 C 216.3011 24.92065 218.9526 22.64117 219.385 22.07295 C 218.9776 21.97148 219.6272 21.95598 216.3884 21.95598 C 213.0481 25.30278 213.6358 24.80038 213.4359 25.08014 C 214.9937 25.35681 216.711 24.9734 217.1839 25.45939 C 217.5961 25.88312 217.3917 28.41768 217.5753 29.1335 C 217.9256 28.88408 217.3287 29.49615 220.6749 26.15266 C 220.6749 22.89401 220.6381 23.54089 220.5692 23.19215 Z M 236.2681 25.05182 C 235.9441 24.55161 236.3518 24.97065 233.3457 21.95598 C 230.0916 21.95598 230.7963 21.98196 230.3892 22.05801 C 231.5529 23.86599 233.0907 24.17903 231.5848 25.08839 C 230.3497 24.66765 230.3545 23.7958 229.2024 23.32275 C 229.0764 23.70654 229.0385 23.09099 229.1053 26.20645 C 231.8314 28.90521 231.6619 28.72128 232.2116 29.12493 C 232.5992 27.59892 232.1522 25.87651 232.6295 25.39961 C 233.1467 24.88293 234.4159 25.4782 236.2681 25.05182 Z M 217.5507 11.00918 C 217.824 9.269144 219.6388 11.6384 220.5729 12.23618 C 220.6323 11.92974 220.6749 12.49831 220.6749 9.636911 C 219.8875 9.268243 216.0596 8.266703 215.4083 8.299097 C 215.3925 8.824702 216.4499 12.82162 216.7229 13.39053 C 216.7748 13.39828 217.9515 13.61933 219.3461 13.37073 C 218.5695 12.17719 217.4494 11.65392 217.5507 11.00918 Z M 229.1869 9.666895 C 229.02 9.914164 228.9514 11.39793 229.2027 12.15269 C 230.2196 11.5966 231.7729 9.393335 232.1637 10.8885 C 232.3617 11.64646 231.0927 12.20725 230.4498 13.36671 C 230.7972 13.44985 230.1924 13.47466 232.9988 13.47466 C 233.7821 11.40467 234.4466 8.200342 234.3755 8.115563 C 234.152 7.849421 233.6026 8.321863 232.7106 8.613031 C 231.1722 9.115201 229.5162 9.179163 229.1869 9.666895 Z M 224.1815 21.7803 C 225.9808 20.52554 225.5209 23.11766 225.5223 23.46174 C 225.5343 26.51465 226.1431 28.49226 224.182 27.48449 L 224.1815 21.7803 Z M 220.8058 18.40674 C 214.3714 18.45897 215.1323 18.59213 214.7782 17.68773 C 215.1839 16.94099 222.5584 15.78132 220.8058 18.40674 Z M 234.8436 17.37628 C 236.0271 19.40118 228.8704 18.33503 228.719 18.14001 C 227.2806 16.2875 234.5322 16.8434 234.8436 17.37628 Z M 224.4948 13.91537 C 224.0992 13.65618 224.1756 13.33021 224.2221 8.009254 C 226.7114 6.204903 226.1763 15.01697 224.4948 13.91537 Z" fill-rule="evenodd" fill="#000000" fill-opacity="1" stroke="#000000" stroke-opacity="1" stroke-width="0.1" stroke-linecap="round" stroke-linejoin="round"/>
<path id="path_564a0654038cb2e6ad2e9d2ac5c043ad" d="M 257.3359 21.38087 C 257.3022 21.3152 254.9041 19.01334 254.6798 18.82158 C 254.3901 19.06738 254.5863 18.83471 251.946 21.46042 C 251.946 22.29053 252.0138 26.26842 251.8448 26.64747 C 251.4662 27.49622 246.7203 32.5624 245.9109 31.62417 C 245.5939 31.2568 245.9273 28.10715 245.638 26.7797 C 243.4203 26.23319 240.4252 27.35499 240.5211 25.90462 C 240.5504 25.46241 241.6208 24.50184 245.5854 20.52708 C 246.1212 20.51784 245.5854 20.52708 250.9432 20.43488 C 253.1505 18.19608 253.1425 18.1841 253.5124 17.71311 C 253.2337 17.36019 253.4654 17.54983 250.9322 14.99576 C 250.3985 14.99012 248.7969 14.97317 245.5938 14.9393 C 245.0509 14.15364 245.3111 14.6904 244.3771 11.15063 C 243.3773 7.361022 243.0929 6.980163 243.4767 6.572509 C 244.0648 5.947874 251.7063 8.498535 251.803 8.640305 C 251.9831 8.904449 251.946 10.76957 251.946 13.96638 C 254.5075 16.56065 254.2649 16.28254 254.6214 16.55128 C 255.0112 16.32576 254.4493 16.91326 257.3695 13.99661 C 257.4304 8.623917 257.4376 9.263031 257.5388 8.626251 C 258.3627 8.010619 265.6469 6.33731 265.8666 6.600554 C 266.2997 7.11966 264.0035 14.50889 263.8393 14.80441 C 262.4905 15.16882 259.1624 14.76573 258.4715 15.06366 C 258.2648 15.15277 256.5772 16.69589 255.8381 17.7354 C 255.9716 17.91183 255.5123 17.53672 258.3495 20.43488 C 262.1248 20.49937 262.1248 20.49943 263.7428 20.52708 C 267.4981 24.28422 269.0492 25.52528 268.7552 26.22485 C 268.3609 27.16299 264.2038 26.29888 263.7 26.80244 C 263.2089 27.29331 263.9152 31.27241 263.2771 31.74416 C 262.6677 32.19466 262.308 31.67786 257.4958 26.84496 C 257.2249 24.67524 257.5352 21.77009 257.3359 21.38087 Z M 250.3662 23.19214 C 249.0672 23.99215 248.642 25.14376 247.9733 25.08512 C 246.098 24.92065 248.7495 22.64117 249.182 22.07294 C 248.7746 21.97146 249.4241 21.95597 246.1854 21.95597 C 242.8451 25.30276 243.4328 24.80037 243.2328 25.08013 C 244.7907 25.3568 246.508 24.97338 246.9808 25.45939 C 247.3932 25.88311 247.1887 28.41767 247.3723 29.13348 C 247.7226 28.88406 247.1256 29.49613 250.4719 26.15266 C 250.4719 22.894 250.4352 23.54088 250.3662 23.19214 Z M 266.0651 25.05181 C 265.741 24.5516 266.1488 24.97065 263.1427 21.95597 C 259.8886 21.95597 260.5932 21.98195 260.1861 22.058 C 261.3498 23.86598 262.8877 24.17902 261.3818 25.08839 C 260.1467 24.66764 260.1515 23.7958 258.9993 23.32274 C 258.8733 23.70653 258.8355 23.09098 258.9024 26.20644 C 261.6284 28.9052 261.4589 28.72128 262.0086 29.1249 C 262.3961 27.5989 261.9492 25.8765 262.4265 25.3996 C 262.9436 24.88293 264.2129 25.47819 266.0651 25.05181 Z M 247.3477 11.00917 C 247.621 9.269134 249.4359 11.63839 250.3699 12.23617 C 250.4293 11.92973 250.4719 12.4983 250.4719 9.636902 C 249.6845 9.268233 245.8565 8.266692 245.2053 8.299088 C 245.1894 8.824692 246.2469 12.82161 246.5198 13.39052 C 246.5718 13.39827 247.7485 13.61932 249.1431 13.37072 C 248.3665 12.17718 247.2464 11.65391 247.3477 11.00917 Z M 258.9839 9.66687 C 258.817 9.91414 258.7484 11.39791 258.9997 12.15268 C 260.0166 11.59658 261.5699 9.393325 261.9607 10.88848 C 262.1588 11.64645 260.8897 12.20724 260.2468 13.3667 C 260.5942 13.44984 259.9894 13.47465 262.7958 13.47465 C 263.579 11.40464 264.2436 8.200319 264.1725 8.115541 C 263.949 7.849398 263.3996 8.321853 262.5076 8.613022 C 260.9692 9.115188 259.3132 9.179139 258.9839 9.66687 Z M 253.9784 21.78029 C 255.7778 20.52554 255.3179 23.11765 255.3193 23.46173 C 255.3313 26.51464 255.9401 28.49226 253.9789 27.48449 L 253.9784 21.78029 Z M 250.6028 18.40672 C 244.1685 18.45896 244.9293 18.59212 244.5751 17.68772 C 244.9809 16.94098 252.3554 15.78129 250.6028 18.40672 Z M 264.6406 17.37627 C 265.8241 19.40117 258.6674 18.33503 258.516 18.14001 C 257.0776 16.28749 264.3292 16.84341 264.6406 17.37627 Z M 254.2918 13.91534 C 253.8961 13.65616 253.9726 13.3302 254.0191 8.009247 C 256.5084 6.204893 255.9733 15.01696 254.2918 13.91534 Z" fill-rule="evenodd" fill="#000000" fill-opacity="1" stroke="#000000" stroke-opacity="1" stroke-width="0.1" stroke-linecap="round" stroke-linejoin="round"/>
<path id="path_2d8e4c227e3ba27c83f8874b27198e9c" d="M 0.0166951 -0.2877425 L 270.9166 -0.2803684 L 270.9166 1.612258 L 0.0166779 1.568901 L 0.0166951 -0.2877425 Z" fill-rule="evenodd" fill="#000000" fill-opacity="1" stroke="none" stroke-opacity="1" stroke-width="0.132292" stroke-linecap="butt" stroke-linejoin="miter"/>
<path id="path_9fd1dd31ca6cee67305c6411ae52d444" d="M 0.0166951 33.87502 L 270.9166 33.88241 L 270.9166 35.77503 L 0.0166779 35.73167 L 0.0166951 33.87502 Z" fill-rule="evenodd" fill="#000000" fill-opacity="1" stroke="none" stroke-opacity="1" stroke-width="0.132292" stroke-linecap="butt" stroke-linejoin="miter"/>
</defs>
<g>
<g>
<g>
<g>
<g>
<use xlink:href="#path_653d852b6ef7be4a47002606982c4cdc"/>
</g>
</g>
</g>
</g>
</g>
<g>
<g>
<g>
<g>
<g>
<use xlink:href="#path_8e1adc72a9b59d0d92871bc2e7b6e47d"/>
</g>
</g>
</g>
</g>
</g>
<g>
<g>
<g>
<g>
<g>
<use xlink:href="#path_e77412d635ac8d2662fe69a702d5a30c"/>
</g>
</g>
</g>
</g>
</g>
<g>
<g>
<g>
<g>
<g>
<use xlink:href="#path_a7a081722e6c2e5732fb255a59239d74"/>
</g>
</g>
</g>
</g>
</g>
<g>
<g>
<g>
<g>
<g>
<use xlink:href="#path_d3491d717846703e3eebe739543788c7"/>
</g>
</g>
</g>
</g>
</g>
<g>
<g>
<g>
<g>
<g>
<use xlink:href="#path_d58cb2d04e602bdfda24d02a8b7aee4f"/>
</g>
</g>
</g>
</g>
</g>
<g>
<g>
<g>
<g>
<g>
<use xlink:href="#path_701d3c77b5e8ae6e18dee64d6cbf52f7"/>
</g>
</g>
</g>
</g>
</g>
<g>
<g>
<g>
<g>
<g>
<use xlink:href="#path_a340f848b2583cb7fe8d8b2542eec5bf"/>
</g>
</g>
</g>
</g>
</g>
<g>
<g>
<g>
<g>
<g>
<use xlink:href="#path_564a0654038cb2e6ad2e9d2ac5c043ad"/>
</g>
</g>
</g>
</g>
</g>
<g>
<g>
<g>
<use xlink:href="#path_2d8e4c227e3ba27c83f8874b27198e9c"/>
</g>
</g>
</g>
<g>
<g>
<g>
<use xlink:href="#path_9fd1dd31ca6cee67305c6411ae52d444"/>
</g>
</g>
</g>
</svg>