<?xml version="1.0" encoding="utf-8"?>
<!DOCTYPE svg PUBLIC "-//W3C//DTD SVG 1.1//EN" "http://www.w3.org/Graphics/SVG/1.1/DTD/svg11.dtd">
<!-- exported from Silhouette Studio® Business Edition V5.0.414ssbe -->
<svg version="1.1" xmlns="http://www.w3.org/2000/svg" xmlns:xlink="http://www.w3.org/1999/xlink" width="270.9333mm" height="29.64259mm" viewBox="0 0 270.9333 29.64259">
<defs>
<path id="path_ee74a7394b8c4c850363fa003d7f2475" d="M 18.7644 16.6198 C 18.73077 16.55414 16.33263 14.25229 16.10839 14.06052 C 15.81866 14.30634 16.01488 14.07367 13.37459 16.69937 C 13.37459 17.52948 13.44241 21.50737 13.27335 21.8864 C 12.89479 22.73517 8.148865 27.80133 7.339409 26.8631 C 7.022446 26.49573 7.355804 23.3461 7.066589 22.01865 C 4.848816 21.47214 1.853729 22.59393 1.949692 21.14357 C 1.978966 20.70135 3.049347 19.74078 7.013954 15.76602 C 7.549728 15.75679 7.013954 15.76602 12.37175 15.67381 C 14.57908 13.43503 14.57107 13.42305 14.94092 12.95206 C 14.66226 12.59912 14.89394 12.78877 12.36076 10.2347 C 11.82693 10.22906 10.22541 10.21214 7.022369 10.17827 C 6.479454 9.392593 6.739616 9.929367 5.805695 6.389603 C 4.80584 2.599976 4.521431 2.219116 4.905235 1.811462 C 5.493332 1.186829 13.13489 3.737488 13.23155 3.879257 C 13.41164 4.143402 13.37459 6.00853 13.37459 9.205338 C 15.93605 11.79959 15.69348 11.5215 16.04996 11.79024 C 16.43966 11.56471 15.87781 12.15221 18.79805 9.235565 C 18.8589 3.862869 18.86614 4.501968 18.96734 3.865204 C 19.79121 3.249573 27.0755 1.576263 27.29513 1.839508 C 27.72823 2.358612 25.43202 9.747849 25.26788 10.04335 C 23.91899 10.40778 20.59096 10.00468 19.9001 10.30261 C 19.69341 10.39172 18.00578 11.93484 17.26667 12.97435 C 17.40015 13.15077 16.94086 12.77567 19.77806 15.67381 C 23.55336 15.73831 23.55336 15.73837 25.17134 15.76602 C 28.92668 19.52316 30.47778 20.76422 30.18375 21.46379 C 29.78946 22.40193 25.63239 21.53784 25.12856 22.0414 C 24.63743 22.53226 25.34372 26.51135 24.70561 26.98311 C 24.09626 27.43361 23.73655 26.91681 18.92437 22.08391 C 18.65344 19.91417 18.96374 17.00903 18.7644 16.6198 Z M 11.79472 18.43109 C 10.49577 19.23109 10.07052 20.38271 9.401855 20.32407 C 7.526588 20.15959 10.17809 17.88011 10.6105 17.31189 C 10.20312 17.21042 10.85271 17.19492 7.613983 17.19492 C 4.273666 20.54172 4.861359 20.03932 4.6614 20.31908 C 6.219231 20.59575 7.936546 20.21233 8.409416 20.69833 C 8.821678 21.12206 8.617233 23.65662 8.800858 24.37242 C 9.151161 24.123 8.554199 24.73508 11.90042 21.39159 C 11.90042 18.13293 11.86366 18.77983 11.79472 18.43109 Z M 27.49369 20.29077 C 27.16961 19.79056 27.57734 20.20959 24.57124 17.19492 C 21.31712 17.19492 22.02183 17.2209 21.61472 17.29695 C 22.7784 19.10493 24.31629 19.41795 22.81038 20.32732 C 21.57529 19.90659 21.58003 19.03474 20.4279 18.56169 C 20.3019 18.94548 20.26404 18.32993 20.33088 21.44539 C 23.05696 24.14415 22.88749 23.96021 23.43718 24.36383 C 23.8247 22.83784 23.37772 21.11545 23.85506 20.63853 C 24.37222 20.12187 25.64143 20.71715 27.49369 20.29077 Z M 8.776237 6.248123 C 9.04953 4.508087 10.86433 6.87735 11.79845 7.475128 C 11.85788 7.168686 11.90042 7.737259 11.90042 4.875839 C 11.11305 4.507187 7.285118 3.505646 6.633865 3.538025 C 6.618004 4.063644 7.675446 8.060562 7.94841 8.629471 C 8.000313 8.637222 9.177071 8.858276 10.57168 8.60968 C 9.795067 7.416138 8.674965 6.892868 8.776237 6.248123 Z M 20.41248 4.905823 C 20.24558 5.153091 20.17694 6.636871 20.42823 7.391632 C 21.44515 6.835541 22.99847 4.632278 23.38921 6.127441 C 23.58729 6.885391 22.31825 7.446198 21.67538 8.605652 C 22.02274 8.688797 21.41797 8.713608 24.22432 8.713608 C 25.0076 6.6436 25.67219 3.43927 25.60103 3.354507 C 25.37757 3.088364 24.82816 3.560806 23.93618 3.851974 C 22.39778 4.354141 20.74172 4.418091 20.41248 4.905823 Z M 15.40698 17.01924 C 17.2063 15.76447 16.74648 18.35661 16.74784 18.7007 C 16.75986 21.7536 17.36863 23.73119 15.40752 22.72343 L 15.40698 17.01924 Z M 12.03136 13.64566 C 5.596947 13.69789 6.357819 13.83107 6.003693 12.92667 C 6.409454 12.17993 13.7839 11.02025 12.03136 13.64566 Z M 26.06916 12.61522 C 27.25263 14.64012 20.09594 13.57396 19.94453 13.37895 C 18.50611 11.52644 25.75772 12.08235 26.06916 12.61522 Z M 15.72033 9.154312 C 15.32468 8.895111 15.40117 8.569153 15.44766 3.248199 C 17.93695 1.443848 17.40182 10.25592 15.72033 9.154312 Z" fill-rule="evenodd" fill="#000000" fill-opacity="1" stroke="#000000" stroke-opacity="1" stroke-width="0.1" stroke-linecap="round" stroke-linejoin="round"/>
<path id="path_576576177668b6dcdaa6886d1ef86bf6" d="M 48.5615 16.6198 C 48.52788 16.55414 46.12974 14.25227 45.90549 14.06052 C 45.61576 14.30632 45.81198 14.07365 43.17169 16.69936 C 43.17169 17.52946 43.23951 21.50735 43.07045 21.8864 C 42.69189 22.73515 37.94598 27.80133 37.13652 26.8631 C 36.81956 26.49573 37.15291 23.34608 36.86369 22.01863 C 34.64592 21.47212 31.65083 22.59392 31.7468 21.14355 C 31.77607 20.70134 32.84645 19.74077 36.81105 15.76601 C 37.34683 15.75677 36.81105 15.76601 42.16885 15.67381 C 44.37619 13.43501 44.36817 13.42303 44.73801 12.95204 C 44.45935 12.59912 44.69105 12.78876 42.15787 10.2347 C 41.62403 10.22906 40.02251 10.21211 36.81947 10.17824 C 36.27656 9.392578 36.53672 9.929337 35.60279 6.389572 C 34.60294 2.59996 34.31854 2.219101 34.70235 1.811447 C 35.29044 1.186813 42.93198 3.737473 43.02865 3.879242 C 43.20873 4.143387 43.17169 6.008514 43.17169 9.205322 C 45.73316 11.79958 45.49058 11.52148 45.84706 11.79022 C 46.23676 11.5647 45.67492 12.15219 48.59515 9.23555 C 48.65601 3.862854 48.66325 4.501968 48.76445 3.865189 C 49.58832 3.249557 56.8726 1.576248 57.09223 1.839493 C 57.52533 2.358597 55.22912 9.747833 55.06498 10.04335 C 53.71609 10.40776 50.38807 10.00467 49.6972 10.3026 C 49.49051 10.39171 47.80288 11.93483 47.06377 12.97433 C 47.19725 13.15076 46.73796 12.77565 49.57516 15.67381 C 53.35046 15.7383 53.35046 15.73836 54.96844 15.76601 C 58.72377 19.52315 60.27488 20.76421 59.98085 21.46378 C 59.58657 22.40192 55.42949 21.53781 54.92566 22.04137 C 54.43453 22.53224 55.14082 26.51134 54.50271 26.98309 C 53.89336 27.43359 53.53365 26.91679 48.72147 22.08389 C 48.45054 19.91417 48.76085 17.00902 48.5615 16.6198 Z M 41.59182 18.43108 C 40.29288 19.23108 39.86762 20.38269 39.19897 20.32405 C 37.3237 20.15958 39.9752 17.8801 40.40761 17.31187 C 40.00022 17.2104 40.6498 17.1949 37.41109 17.1949 C 34.07077 20.5417 34.65846 20.03931 34.4585 20.31906 C 36.01633 20.59573 37.73365 20.21231 38.20651 20.69832 C 38.61877 21.12204 38.41434 23.6566 38.59797 24.37241 C 38.94827 24.12299 38.3513 24.73506 41.69753 21.39159 C 41.69753 18.13293 41.66077 18.77982 41.59182 18.43108 Z M 57.29079 20.29074 C 56.96671 19.79053 57.37445 20.20958 54.36835 17.1949 C 51.11423 17.1949 51.81893 17.22089 51.41181 17.29694 C 52.5755 19.10492 54.11339 19.41795 52.60748 20.32732 C 51.37239 19.90657 51.37714 19.03473 50.225 18.56168 C 50.099 18.94547 50.06114 18.32991 50.12798 21.44537 C 52.85407 24.14413 52.68459 23.96021 53.23428 24.36383 C 53.6218 22.83783 53.17482 21.11543 53.65216 20.63853 C 54.16932 20.12186 55.43852 20.71712 57.29079 20.29074 Z M 38.57334 6.248108 C 38.84663 4.508072 40.66143 6.877335 41.59555 7.475113 C 41.65498 7.168671 41.69753 7.737244 41.69753 4.875839 C 40.91015 4.507172 37.08221 3.50563 36.43097 3.538025 C 36.41511 4.063629 37.47255 8.060547 37.74551 8.629456 C 37.79742 8.637207 38.97417 8.858261 40.36878 8.609665 C 39.59217 7.416122 38.47207 6.892853 38.57334 6.248108 Z M 50.20958 4.905807 C 50.04268 5.153076 49.97404 6.636856 50.22533 7.391617 C 51.24225 6.835526 52.79557 4.632263 53.18631 6.127426 C 53.38439 6.885391 52.11536 7.446182 51.47248 8.605637 C 51.81984 8.688782 51.21507 8.713593 54.02142 8.713593 C 54.8047 6.643585 55.46929 3.439255 55.39813 3.354477 C 55.17467 3.088333 54.62526 3.560791 53.73328 3.851959 C 52.19488 4.354126 50.53882 4.418076 50.20958 4.905807 Z M 45.20409 17.01923 C 47.0034 15.76447 46.54359 18.35658 46.54495 18.70067 C 46.55697 21.75357 47.16573 23.73119 45.20462 22.72342 L 45.20409 17.01923 Z M 41.82847 13.64565 C 35.39405 13.69789 36.15491 13.83105 35.8008 12.92665 C 36.20656 12.17992 43.581 11.02023 41.82847 13.64565 Z M 55.86627 12.6152 C 57.04974 14.64011 49.89305 13.57396 49.74163 13.37894 C 48.30322 11.52643 55.55483 12.08234 55.86627 12.6152 Z M 45.51743 9.154282 C 45.12179 8.895096 45.19827 8.569138 45.24476 3.248184 C 47.73405 1.443832 47.19893 10.25589 45.51743 9.154282 Z" fill-rule="evenodd" fill="#000000" fill-opacity="1" stroke="#000000" stroke-opacity="1" stroke-width="0.1" stroke-linecap="round" stroke-linejoin="round"/>
<path id="path_86d16d02fbd61c2e83cad30c77231807" d="M 78.35858 16.6198 C 78.32495 16.55414 75.92683 14.25227 75.70258 14.06052 C 75.41285 14.30632 75.60905 14.07365 72.96877 16.69936 C 72.96877 17.52946 73.03659 21.50735 72.86753 21.8864 C 72.48897 22.73515 67.74305 27.80133 66.93359 26.8631 C 66.61663 26.49573 66.94998 23.34608 66.66077 22.01863 C 64.44299 21.47212 61.44791 22.59392 61.54387 21.14355 C 61.57314 20.70134 62.64352 19.74077 66.60812 15.76601 C 67.14391 15.75677 66.60812 15.76601 71.96593 15.67381 C 74.17326 13.43501 74.16525 13.42303 74.5351 12.95204 C 74.25643 12.59912 74.48812 12.78876 71.95494 10.2347 C 71.42111 10.22906 69.8196 10.21211 66.61655 10.17824 C 66.07364 9.392578 66.33379 9.929337 65.39986 6.389572 C 64.40002 2.59996 64.11561 2.219101 64.49941 1.811447 C 65.08751 1.186813 72.72906 3.737473 72.82573 3.879242 C 73.00581 4.143387 72.96877 6.008514 72.96877 9.205322 C 75.53023 11.79958 75.28767 11.52148 75.64415 11.79022 C 76.03384 11.5647 75.47199 12.15219 78.39223 9.23555 C 78.45308 3.862854 78.46032 4.501968 78.56152 3.865189 C 79.38539 3.249557 86.66968 1.576248 86.88931 1.839493 C 87.32242 2.358597 85.02619 9.747833 84.86205 10.04335 C 83.51316 10.40776 80.18514 10.00467 79.49428 10.3026 C 79.28759 10.39171 77.59996 11.93483 76.86086 12.97433 C 76.99434 13.15076 76.53504 12.77565 79.37225 15.67381 C 83.14754 15.7383 83.14754 15.73836 84.76552 15.76601 C 88.52085 19.52315 90.07195 20.76421 89.77792 21.46378 C 89.38364 22.40192 85.22656 21.53781 84.72273 22.04137 C 84.23161 22.53224 84.9379 26.51134 84.29979 26.98309 C 83.69044 27.43359 83.33072 26.91679 78.51855 22.08389 C 78.24761 19.91417 78.55792 17.00902 78.35858 16.6198 Z M 71.3889 18.43108 C 70.08995 19.23108 69.6647 20.38269 68.99604 20.32405 C 67.12077 20.15958 69.77227 17.8801 70.20468 17.31187 C 69.79729 17.2104 70.44688 17.1949 67.20816 17.1949 C 63.86784 20.5417 64.45554 20.03931 64.25558 20.31906 C 65.81341 20.59573 67.53072 20.21231 68.00359 20.69832 C 68.41586 21.12204 68.2114 23.6566 68.39503 24.37241 C 68.74534 24.12299 68.14838 24.73506 71.4946 21.39159 C 71.4946 18.13293 71.45784 18.77982 71.3889 18.43108 Z M 87.08788 20.29074 C 86.76379 19.79053 87.17152 20.20958 84.16543 17.1949 C 80.9113 17.1949 81.61601 17.22089 81.20889 17.29694 C 82.37258 19.10492 83.91047 19.41795 82.40456 20.32732 C 81.16947 19.90657 81.17422 19.03473 80.02208 18.56168 C 79.89608 18.94547 79.85822 18.32991 79.92506 21.44537 C 82.65115 24.14413 82.48167 23.96021 83.03136 24.36383 C 83.41888 22.83783 82.97189 21.11543 83.44923 20.63853 C 83.96639 20.12186 85.23561 20.71712 87.08788 20.29074 Z M 68.37042 6.248108 C 68.64371 4.508072 70.4585 6.877335 71.39262 7.475113 C 71.45206 7.168671 71.4946 7.737244 71.4946 4.875839 C 70.70723 4.507172 66.8793 3.50563 66.22805 3.538025 C 66.21219 4.063629 67.26962 8.060547 67.54259 8.629456 C 67.59449 8.637207 68.77125 8.858261 70.16586 8.609665 C 69.38924 7.416122 68.26915 6.892853 68.37042 6.248108 Z M 80.00665 4.905807 C 79.83976 5.153076 79.77112 6.636856 80.02242 7.391617 C 81.03934 6.835526 82.59265 4.632263 82.98339 6.127426 C 83.18147 6.885391 81.91243 7.446182 81.26955 8.605637 C 81.61691 8.688782 81.01215 8.713593 83.8185 8.713593 C 84.60177 6.643585 85.26636 3.439255 85.19521 3.354477 C 84.97175 3.088333 84.42233 3.560791 83.53035 3.851959 C 81.99196 4.354126 80.33589 4.418076 80.00665 4.905807 Z M 75.00117 17.01923 C 76.80048 15.76447 76.34067 18.35658 76.34203 18.70067 C 76.35405 21.75357 76.96281 23.73119 75.0017 22.72342 L 75.00117 17.01923 Z M 71.62555 13.64565 C 65.19113 13.69789 65.952 13.83105 65.59788 12.92665 C 66.00364 12.17992 73.37808 11.02023 71.62555 13.64565 Z M 85.66335 12.6152 C 86.84682 14.64011 79.69012 13.57396 79.53871 13.37894 C 78.1003 11.52643 85.35191 12.08234 85.66335 12.6152 Z M 75.31451 9.154282 C 74.91887 8.895096 74.99535 8.569138 75.04184 3.248184 C 77.53113 1.443832 76.99602 10.25589 75.31451 9.154282 Z" fill-rule="evenodd" fill="#000000" fill-opacity="1" stroke="#000000" stroke-opacity="1" stroke-width="0.1" stroke-linecap="round" stroke-linejoin="round"/>
<path id="path_4c0bf549e889a8ba7f3df8eff841c06c" d="M 108.1556 16.6198 C 108.122 16.55414 105.7239 14.25227 105.4996 14.06052 C 105.2099 14.30632 105.4061 14.07365 102.7658 16.69936 C 102.7658 17.52946 102.8337 21.50735 102.6646 21.8864 C 102.286 22.73515 97.54012 27.80133 96.73066 26.8631 C 96.4137 26.49573 96.74705 23.34608 96.45783 22.01863 C 94.24006 21.47212 91.24497 22.59392 91.34093 21.14355 C 91.37021 20.70134 92.44059 19.74077 96.4052 15.76601 C 96.94097 15.75677 96.4052 15.76601 101.763 15.67381 C 103.9703 13.43501 103.9623 13.42303 104.3322 12.95204 C 104.0535 12.59912 104.2852 12.78876 101.752 10.2347 C 101.2182 10.22906 99.61666 10.21211 96.41362 10.17824 C 95.8707 9.392578 96.13086 9.929337 95.19693 6.389572 C 94.19708 2.59996 93.91267 2.219101 94.29648 1.811447 C 94.88457 1.186813 102.5261 3.737473 102.6228 3.879242 C 102.8029 4.143387 102.7658 6.008514 102.7658 9.205322 C 105.3273 11.79958 105.0847 11.52148 105.4412 11.79022 C 105.8309 11.5647 105.2691 12.15219 108.1893 9.23555 C 108.2501 3.862854 108.2574 4.501968 108.3586 3.865189 C 109.1825 3.249557 116.4667 1.576248 116.6864 1.839493 C 117.1195 2.358597 114.8233 9.747833 114.6591 10.04335 C 113.3102 10.40776 109.9822 10.00467 109.2913 10.3026 C 109.0846 10.39171 107.397 11.93483 106.6579 12.97433 C 106.7914 13.15076 106.3321 12.77565 109.1693 15.67381 C 112.9446 15.7383 112.9446 15.73836 114.5626 15.76601 C 118.3179 19.52315 119.869 20.76421 119.575 21.46378 C 119.1807 22.40192 115.0236 21.53781 114.5198 22.04137 C 114.0287 22.53224 114.735 26.51134 114.0968 26.98309 C 113.4875 27.43359 113.1278 26.91679 108.3156 22.08389 C 108.0447 19.91417 108.355 17.00902 108.1556 16.6198 Z M 101.186 18.43108 C 99.88702 19.23108 99.46177 20.38269 98.79311 20.32405 C 96.91784 20.15958 99.56934 17.8801 100.0017 17.31187 C 99.59436 17.2104 100.2439 17.1949 97.00523 17.1949 C 93.66491 20.5417 94.2526 20.03931 94.05264 20.31906 C 95.61047 20.59573 97.32779 20.21231 97.80066 20.69832 C 98.21292 21.12204 98.00847 23.6566 98.1921 24.37241 C 98.5424 24.12299 97.94544 24.73506 101.2917 21.39159 C 101.2917 18.13293 101.2549 18.77982 101.186 18.43108 Z M 116.8849 20.29074 C 116.5609 19.79053 116.9686 20.20958 113.9625 17.1949 C 110.7084 17.1949 111.4131 17.22089 111.006 17.29694 C 112.1696 19.10492 113.7075 19.41795 112.2016 20.32732 C 110.9665 19.90657 110.9713 19.03473 109.8191 18.56168 C 109.6931 18.94547 109.6553 18.32991 109.7221 21.44537 C 112.4482 24.14413 112.2787 23.96021 112.8284 24.36383 C 113.2159 22.83783 112.769 21.11543 113.2463 20.63853 C 113.7635 20.12186 115.0327 20.71712 116.8849 20.29074 Z M 98.16749 6.248108 C 98.44078 4.508072 100.2556 6.877335 101.1897 7.475113 C 101.2491 7.168671 101.2917 7.737244 101.2917 4.875839 C 100.5043 4.507172 96.67635 3.50563 96.02511 3.538025 C 96.00925 4.063629 97.06669 8.060547 97.33965 8.629456 C 97.39156 8.637207 98.56831 8.858261 99.96292 8.609665 C 99.18631 7.416122 98.06622 6.892853 98.16749 6.248108 Z M 109.8037 4.905807 C 109.6368 5.153076 109.5682 6.636856 109.8195 7.391617 C 110.8364 6.835526 112.3897 4.632263 112.7804 6.127426 C 112.9785 6.885391 111.7095 7.446182 111.0666 8.605637 C 111.414 8.688782 110.8092 8.713593 113.6156 8.713593 C 114.3988 6.643585 115.0634 3.439255 114.9923 3.354477 C 114.7688 3.088333 114.2194 3.560791 113.3274 3.851959 C 111.789 4.354126 110.1329 4.418076 109.8037 4.905807 Z M 104.7982 17.01923 C 106.5975 15.76447 106.1377 18.35658 106.1391 18.70067 C 106.1511 21.75357 106.7599 23.73119 104.7988 22.72342 L 104.7982 17.01923 Z M 101.4226 13.64565 C 94.98819 13.69789 95.74906 13.83105 95.39494 12.92665 C 95.8007 12.17992 103.1751 11.02023 101.4226 13.64565 Z M 115.4604 12.6152 C 116.6439 14.64011 109.4872 13.57396 109.3358 13.37894 C 107.8974 11.52643 115.149 12.08234 115.4604 12.6152 Z M 105.1116 9.154282 C 104.7159 8.895096 104.7924 8.569138 104.8389 3.248184 C 107.3282 1.443832 106.7931 10.25589 105.1116 9.154282 Z" fill-rule="evenodd" fill="#000000" fill-opacity="1" stroke="#000000" stroke-opacity="1" stroke-width="0.1" stroke-linecap="round" stroke-linejoin="round"/>
<path id="path_aecdf06bb23511a3f5f7388aa8ce22cf" d="M 137.9528 16.61981 C 137.9191 16.55415 135.521 14.25229 135.2968 14.06053 C 135.007 14.30634 135.2033 14.07367 132.563 16.69937 C 132.563 17.52948 132.6308 21.50737 132.4617 21.88641 C 132.0832 22.73517 127.3373 27.80135 126.5278 26.86311 C 126.2108 26.49574 126.5442 23.3461 126.255 22.01865 C 124.0372 21.47214 121.0421 22.59393 121.1381 21.14357 C 121.1674 20.70135 122.2377 19.74078 126.2023 15.76602 C 126.7381 15.75679 126.2023 15.76602 131.5601 15.67383 C 133.7675 13.43503 133.7595 13.42305 134.1293 12.95206 C 133.8506 12.59914 134.0823 12.78877 131.5491 10.23471 C 131.0153 10.22908 129.4138 10.21214 126.2108 10.17827 C 125.6678 9.392593 125.928 9.929367 124.9941 6.389603 C 123.9942 2.599991 123.7098 2.219116 124.0936 1.811462 C 124.6817 1.186829 132.3233 3.737488 132.4199 3.879257 C 132.6 4.143402 132.563 6.008545 132.563 9.205353 C 135.1244 11.79961 134.8819 11.5215 135.2384 11.79024 C 135.6281 11.56471 135.0662 12.15221 137.9864 9.235565 C 138.0473 3.862869 138.0545 4.501984 138.1557 3.865204 C 138.9796 3.249573 146.2639 1.576263 146.4835 1.839508 C 146.9166 2.358612 144.6204 9.747849 144.4563 10.04337 C 143.1074 10.40778 139.7793 10.00468 139.0885 10.30261 C 138.8818 10.39172 137.1942 11.93484 136.4551 12.97435 C 136.5885 13.15077 136.1292 12.77567 138.9664 15.67383 C 142.7417 15.73831 142.7417 15.73837 144.3597 15.76602 C 148.1151 19.52316 149.6662 20.76422 149.3721 21.46379 C 148.9778 22.40193 144.8208 21.53784 144.3169 22.0414 C 143.8258 22.53227 144.5321 26.51135 143.894 26.98311 C 143.2847 27.43361 142.9249 26.91681 138.1128 22.08391 C 137.8418 19.91418 138.1521 17.00903 137.9528 16.61981 Z M 130.9831 18.43109 C 129.6842 19.23109 129.2589 20.38271 128.5902 20.32407 C 126.715 20.15959 129.3665 17.88011 129.7989 17.31189 C 129.3915 17.21042 130.0411 17.19492 126.8024 17.19492 C 123.4621 20.54172 124.0497 20.03932 123.8498 20.31908 C 125.4076 20.59575 127.1249 20.21233 127.5978 20.69833 C 128.0101 21.12206 127.8056 23.65662 127.9892 24.37242 C 128.3395 24.123 127.7426 24.73508 131.0888 21.3916 C 131.0888 18.13295 131.0521 18.77983 130.9831 18.43109 Z M 146.6821 20.29076 C 146.358 19.79054 146.7657 20.20959 143.7596 17.19492 C 140.5055 17.19492 141.2102 17.2209 140.8031 17.29695 C 141.9668 19.10493 143.5047 19.41797 141.9988 20.32733 C 140.7637 19.90659 140.7684 19.03474 139.6163 18.56169 C 139.4903 18.94548 139.4524 18.32993 139.5193 21.44539 C 142.2453 24.14415 142.0759 23.96022 142.6256 24.36385 C 143.0131 22.83784 142.5661 21.11545 143.0434 20.63855 C 143.5606 20.12187 144.8298 20.71713 146.6821 20.29076 Z M 127.9646 6.248123 C 128.2379 4.508087 130.0527 6.87735 130.9868 7.475128 C 131.0463 7.168686 131.0888 7.737259 131.0888 4.875854 C 130.3014 4.507187 126.4735 3.505646 125.8223 3.53804 C 125.8064 4.063644 126.8638 8.060562 127.1368 8.629471 C 127.1887 8.637222 128.3654 8.858276 129.7601 8.60968 C 128.9835 7.416138 127.8634 6.892868 127.9646 6.248123 Z M 139.6009 4.905838 C 139.434 5.153107 139.3653 6.636871 139.6166 7.391632 C 140.6335 6.835541 142.1868 4.632278 142.5776 6.127441 C 142.7757 6.885406 141.5066 7.446198 140.8638 8.605652 C 141.2111 8.688797 140.6064 8.713608 143.4127 8.713608 C 144.196 6.6436 144.8605 3.439285 144.7894 3.354507 C 144.5659 3.088364 144.0165 3.560806 143.1246 3.851974 C 141.5862 4.354141 139.9301 4.418106 139.6009 4.905838 Z M 134.5954 17.01924 C 136.3947 15.76448 135.9349 18.3566 135.9362 18.70068 C 135.9483 21.75359 136.557 23.7312 134.5959 22.72343 L 134.5954 17.01924 Z M 131.2198 13.64568 C 124.7853 13.69791 125.5462 13.83107 125.1921 12.92667 C 125.5978 12.17993 132.9723 11.02026 131.2198 13.64568 Z M 145.2576 12.61522 C 146.441 14.64012 139.2843 13.57397 139.1329 13.37895 C 137.6945 11.52644 144.9461 12.08235 145.2576 12.61522 Z M 134.9087 9.154312 C 134.5131 8.895126 134.5895 8.569153 134.636 3.248199 C 137.1253 1.443848 136.5902 10.25592 134.9087 9.154312 Z" fill-rule="evenodd" fill="#000000" fill-opacity="1" stroke="#000000" stroke-opacity="1" stroke-width="0.1" stroke-linecap="round" stroke-linejoin="round"/>
<path id="path_32e6f95af0c375bf10117ea1cc6c0ebf" d="M 167.7498 16.6198 C 167.7162 16.55414 165.3181 14.25227 165.0938 14.06052 C 164.8041 14.30632 165.0003 14.07365 162.36 16.69936 C 162.36 17.52946 162.4278 21.50735 162.2588 21.8864 C 161.8802 22.73515 157.1343 27.80133 156.3248 26.8631 C 156.0079 26.49573 156.3412 23.34608 156.052 22.01863 C 153.8342 21.47212 150.8392 22.59392 150.9351 21.14355 C 150.9644 20.70134 152.0348 19.74077 155.9994 15.76601 C 156.5351 15.75677 155.9994 15.76601 161.3572 15.67381 C 163.5645 13.43501 163.5565 13.42303 163.9263 12.95204 C 163.6477 12.59912 163.8794 12.78876 161.3462 10.2347 C 160.8123 10.22906 159.2108 10.21211 156.0078 10.17824 C 155.4649 9.392578 155.725 9.929337 154.7911 6.389572 C 153.7912 2.59996 153.5069 2.219101 153.8907 1.811447 C 154.4788 1.186813 162.1203 3.737473 162.217 3.879242 C 162.397 4.143387 162.36 6.008514 162.36 9.205322 C 164.9215 11.79958 164.6789 11.52148 165.0354 11.79022 C 165.4251 11.5647 164.8632 12.15219 167.7835 9.23555 C 167.8443 3.862854 167.8516 4.501968 167.9528 3.865189 C 168.7766 3.249557 176.0609 1.576248 176.2805 1.839493 C 176.7137 2.358597 174.4174 9.747833 174.2533 10.04335 C 172.9044 10.40776 169.5764 10.00467 168.8855 10.3026 C 168.6788 10.39171 166.9912 11.93483 166.2521 12.97433 C 166.3856 13.15076 165.9263 12.77565 168.7635 15.67381 C 172.5388 15.7383 172.5388 15.73836 174.1568 15.76601 C 177.9121 19.52315 179.4632 20.76421 179.1692 21.46378 C 178.7749 22.40192 174.6178 21.53781 174.114 22.04137 C 173.6229 22.53224 174.3291 26.51134 173.691 26.98309 C 173.0817 27.43359 172.722 26.91679 167.9098 22.08389 C 167.6389 19.91417 167.9492 17.00902 167.7498 16.6198 Z M 160.7801 18.43108 C 159.4812 19.23108 159.0559 20.38269 158.3873 20.32405 C 156.512 20.15958 159.1635 17.8801 159.5959 17.31187 C 159.1885 17.2104 159.8381 17.1949 156.5994 17.1949 C 153.2591 20.5417 153.8468 20.03931 153.6468 20.31906 C 155.2047 20.59573 156.922 20.21231 157.3948 20.69832 C 157.8071 21.12204 157.6026 23.6566 157.7863 24.37241 C 158.1366 24.12299 157.5396 24.73506 160.8858 21.39159 C 160.8858 18.13293 160.8491 18.77982 160.7801 18.43108 Z M 176.4791 20.29074 C 176.155 19.79053 176.5628 20.20958 173.5567 17.1949 C 170.3026 17.1949 171.0072 17.22089 170.6001 17.29694 C 171.7638 19.10492 173.3017 19.41795 171.7958 20.32732 C 170.5607 19.90657 170.5654 19.03473 169.4133 18.56168 C 169.2873 18.94547 169.2495 18.32991 169.3163 21.44537 C 172.0424 24.14413 171.8729 23.96021 172.4226 24.36383 C 172.8101 22.83783 172.3631 21.11543 172.8405 20.63853 C 173.3576 20.12186 174.6268 20.71712 176.4791 20.29074 Z M 157.7617 6.248108 C 158.0349 4.508072 159.8498 6.877335 160.7839 7.475113 C 160.8433 7.168671 160.8858 7.737244 160.8858 4.875839 C 160.0985 4.507172 156.2705 3.50563 155.6193 3.538025 C 155.6034 4.063629 156.6609 8.060547 156.9338 8.629456 C 156.9857 8.637207 158.1625 8.858261 159.5571 8.609665 C 158.7805 7.416122 157.6604 6.892853 157.7617 6.248108 Z M 169.3979 4.905807 C 169.231 5.153076 169.1624 6.636856 169.4137 7.391617 C 170.4306 6.835526 171.9839 4.632263 172.3746 6.127426 C 172.5727 6.885391 171.3037 7.446182 170.6608 8.605637 C 171.0081 8.688782 170.4034 8.713593 173.2097 8.713593 C 173.993 6.643585 174.6576 3.439255 174.5865 3.354477 C 174.363 3.088333 173.8136 3.560791 172.9216 3.851959 C 171.3832 4.354126 169.7271 4.418076 169.3979 4.905807 Z M 164.3924 17.01923 C 166.1917 15.76447 165.7319 18.35658 165.7333 18.70067 C 165.7453 21.75357 166.354 23.73119 164.3929 22.72342 L 164.3924 17.01923 Z M 161.0168 13.64565 C 154.5824 13.69789 155.3432 13.83105 154.9891 12.92665 C 155.3949 12.17992 162.7693 11.02023 161.0168 13.64565 Z M 175.0546 12.6152 C 176.2381 14.64011 169.0814 13.57396 168.9299 13.37894 C 167.4915 11.52643 174.7431 12.08234 175.0546 12.6152 Z M 164.7057 9.154282 C 164.3101 8.895096 164.3866 8.569138 164.4331 3.248184 C 166.9224 1.443832 166.3873 10.25589 164.7057 9.154282 Z" fill-rule="evenodd" fill="#000000" fill-opacity="1" stroke="#000000" stroke-opacity="1" stroke-width="0.1" stroke-linecap="round" stroke-linejoin="round"/>
<path id="path_539fd13ad9d12c199ee9afe2c074ff98" d="M 197.5469 16.61981 C 197.5133 16.55415 195.1152 14.25229 194.8909 14.06053 C 194.6012 14.30634 194.7974 14.07367 192.1571 16.69937 C 192.1571 17.52948 192.225 21.50737 192.0559 21.88641 C 191.6773 22.73517 186.9314 27.80135 186.1219 26.86311 C 185.805 26.49574 186.1384 23.3461 185.8492 22.01865 C 183.6314 21.47214 180.6363 22.59393 180.7322 21.14357 C 180.7615 20.70135 181.8319 19.74078 185.7965 15.76602 C 186.3323 15.75679 185.7965 15.76602 191.1543 15.67383 C 193.3616 13.43503 193.3536 13.42305 193.7235 12.95206 C 193.4448 12.59914 193.6765 12.78877 191.1433 10.23471 C 190.6095 10.22908 189.008 10.21214 185.8049 10.17827 C 185.262 9.392593 185.5222 9.929367 184.5882 6.389603 C 183.5884 2.599991 183.304 2.219116 183.6878 1.811462 C 184.2759 1.186829 191.9174 3.737488 192.0141 3.879257 C 192.1942 4.143402 192.1571 6.008545 192.1571 9.205353 C 194.7186 11.79961 194.476 11.5215 194.8325 11.79024 C 195.2222 11.56471 194.6604 12.15221 197.5806 9.235565 C 197.6414 3.862869 197.6487 4.501984 197.7499 3.865204 C 198.5738 3.249573 205.858 1.576263 206.0777 1.839508 C 206.5108 2.358612 204.2146 9.747849 204.0504 10.04337 C 202.7015 10.40778 199.3735 10.00468 198.6826 10.30261 C 198.476 10.39172 196.7883 11.93484 196.0492 12.97435 C 196.1827 13.15077 195.7234 12.77567 198.5606 15.67383 C 202.3359 15.73831 202.3359 15.73837 203.9539 15.76602 C 207.7092 19.52316 209.2603 20.76422 208.9663 21.46379 C 208.572 22.40193 204.4149 21.53784 203.9111 22.0414 C 203.42 22.53227 204.1263 26.51135 203.4882 26.98311 C 202.8788 27.43361 202.5191 26.91681 197.7069 22.08391 C 197.436 19.91418 197.7463 17.00903 197.5469 16.61981 Z M 190.5773 18.43109 C 189.2783 19.23109 188.8531 20.38271 188.1844 20.32407 C 186.3092 20.15959 188.9607 17.88011 189.3931 17.31189 C 188.9857 17.21042 189.6353 17.19492 186.3965 17.19492 C 183.0562 20.54172 183.6439 20.03932 183.4439 20.31908 C 185.0018 20.59575 186.7191 20.21233 187.192 20.69833 C 187.6042 21.12206 187.3998 23.65662 187.5834 24.37242 C 187.9337 24.123 187.3367 24.73508 190.683 21.3916 C 190.683 18.13295 190.6462 18.77983 190.5773 18.43109 Z M 206.2762 20.29076 C 205.9521 19.79054 206.3599 20.20959 203.3538 17.19492 C 200.0997 17.19492 200.8044 17.2209 200.3973 17.29695 C 201.561 19.10493 203.0988 19.41797 201.5929 20.32733 C 200.3578 19.90659 200.3626 19.03474 199.2104 18.56169 C 199.0844 18.94548 199.0466 18.32993 199.1134 21.44539 C 201.8395 24.14415 201.67 23.96022 202.2197 24.36385 C 202.6072 22.83784 202.1603 21.11545 202.6376 20.63855 C 203.1548 20.12187 204.424 20.71713 206.2762 20.29076 Z M 187.5588 6.248123 C 187.8321 4.508087 189.6469 6.87735 190.581 7.475128 C 190.6404 7.168686 190.683 7.737259 190.683 4.875854 C 189.8956 4.507187 186.0677 3.505646 185.4164 3.53804 C 185.4006 4.063644 186.458 8.060562 186.731 8.629471 C 186.7829 8.637222 187.9596 8.858276 189.3542 8.60968 C 188.5776 7.416138 187.4575 6.892868 187.5588 6.248123 Z M 199.195 4.905838 C 199.0281 5.153107 198.9595 6.636871 199.2108 7.391632 C 200.2277 6.835541 201.781 4.632278 202.1717 6.127441 C 202.3698 6.885406 201.1008 7.446198 200.4579 8.605652 C 200.8053 8.688797 200.2005 8.713608 203.0069 8.713608 C 203.7901 6.6436 204.4547 3.439285 204.3836 3.354507 C 204.1601 3.088364 203.6107 3.560806 202.7187 3.851974 C 201.1803 4.354141 199.5243 4.418106 199.195 4.905838 Z M 194.1895 17.01924 C 195.9888 15.76448 195.529 18.3566 195.5304 18.70068 C 195.5424 21.75359 196.1512 23.7312 194.19 22.72343 L 194.1895 17.01924 Z M 190.8139 13.64568 C 184.3795 13.69791 185.1404 13.83107 184.7862 12.92667 C 185.192 12.17993 192.5664 11.02026 190.8139 13.64568 Z M 204.8517 12.61522 C 206.0352 14.64012 198.8785 13.57397 198.7271 13.37895 C 197.2887 11.52644 204.5403 12.08235 204.8517 12.61522 Z M 194.5029 9.154312 C 194.1072 8.895126 194.1837 8.569153 194.2302 3.248199 C 196.7195 1.443848 196.1844 10.25592 194.5029 9.154312 Z" fill-rule="evenodd" fill="#000000" fill-opacity="1" stroke="#000000" stroke-opacity="1" stroke-width="0.1" stroke-linecap="round" stroke-linejoin="round"/>
<path id="path_5eafd0a8092148a5b788e530c204b884" d="M 227.344 16.61981 C 227.3103 16.55415 224.9122 14.25229 224.688 14.06053 C 224.3982 14.30634 224.5944 14.07367 221.9541 16.69937 C 221.9541 17.52948 222.022 21.50737 221.8529 21.88641 C 221.4744 22.73517 216.7284 27.80135 215.919 26.86311 C 215.602 26.49574 215.9354 23.3461 215.6462 22.01865 C 213.4284 21.47214 210.4333 22.59393 210.5292 21.14357 C 210.5585 20.70135 211.6289 19.74078 215.5935 15.76602 C 216.1293 15.75679 215.5935 15.76602 220.9513 15.67383 C 223.1586 13.43503 223.1506 13.42305 223.5205 12.95206 C 223.2418 12.59914 223.4735 12.78877 220.9403 10.23471 C 220.4065 10.22908 218.805 10.21214 215.6019 10.17827 C 215.059 9.392593 215.3192 9.929367 214.3853 6.389603 C 213.3854 2.599991 213.101 2.219116 213.4848 1.811462 C 214.0729 1.186829 221.7144 3.737488 221.8111 3.879257 C 221.9912 4.143402 221.9541 6.008545 221.9541 9.205353 C 224.5156 11.79961 224.273 11.5215 224.6295 11.79024 C 225.0192 11.56471 224.4574 12.15221 227.3776 9.235565 C 227.4385 3.862869 227.4457 4.501984 227.5469 3.865204 C 228.3708 3.249573 235.6551 1.576263 235.8747 1.839508 C 236.3078 2.358612 234.0116 9.747849 233.8474 10.04337 C 232.4985 10.40778 229.1705 10.00468 228.4796 10.30261 C 228.273 10.39172 226.5853 11.93484 225.8462 12.97435 C 225.9797 13.15077 225.5204 12.77567 228.3576 15.67383 C 232.1329 15.73831 232.1329 15.73837 233.7509 15.76602 C 237.5062 19.52316 239.0573 20.76422 238.7633 21.46379 C 238.369 22.40193 234.2119 21.53784 233.7081 22.0414 C 233.217 22.53227 233.9233 26.51135 233.2852 26.98311 C 232.6758 27.43361 232.3161 26.91681 227.5039 22.08391 C 227.233 19.91418 227.5433 17.00903 227.344 16.61981 Z M 220.3743 18.43109 C 219.0753 19.23109 218.6501 20.38271 217.9814 20.32407 C 216.1062 20.15959 218.7577 17.88011 219.1901 17.31189 C 218.7827 17.21042 219.4323 17.19492 216.1935 17.19492 C 212.8532 20.54172 213.4409 20.03932 213.241 20.31908 C 214.7988 20.59575 216.5161 20.21233 216.989 20.69833 C 217.4012 21.12206 217.1968 23.65662 217.3804 24.37242 C 217.7307 24.123 217.1338 24.73508 220.48 21.3916 C 220.48 18.13295 220.4432 18.77983 220.3743 18.43109 Z M 236.0732 20.29076 C 235.7492 19.79054 236.1569 20.20959 233.1508 17.19492 C 229.8967 17.19492 230.6014 17.2209 230.1943 17.29695 C 231.358 19.10493 232.8958 19.41797 231.3899 20.32733 C 230.1548 19.90659 230.1596 19.03474 229.0075 18.56169 C 228.8815 18.94548 228.8436 18.32993 228.9104 21.44539 C 231.6365 24.14415 231.467 23.96022 232.0167 24.36385 C 232.4043 22.83784 231.9573 21.11545 232.4346 20.63855 C 232.9518 20.12187 234.221 20.71713 236.0732 20.29076 Z M 217.3558 6.248123 C 217.6291 4.508087 219.4439 6.87735 220.378 7.475128 C 220.4374 7.168686 220.48 7.737259 220.48 4.875854 C 219.6926 4.507187 215.8647 3.505646 215.2134 3.53804 C 215.1976 4.063644 216.255 8.060562 216.528 8.629471 C 216.5799 8.637222 217.7566 8.858276 219.1512 8.60968 C 218.3746 7.416138 217.2545 6.892868 217.3558 6.248123 Z M 228.992 4.905838 C 228.8251 5.153107 228.7565 6.636871 229.0078 7.391632 C 230.0247 6.835541 231.578 4.632278 231.9688 6.127441 C 232.1668 6.885406 230.8978 7.446198 230.2549 8.605652 C 230.6023 8.688797 229.9975 8.713608 232.8039 8.713608 C 233.5872 6.6436 234.2517 3.439285 234.1806 3.354507 C 233.9571 3.088364 233.4077 3.560806 232.5157 3.851974 C 230.9773 4.354141 229.3213 4.418106 228.992 4.905838 Z M 223.9866 17.01924 C 225.7859 15.76448 225.326 18.3566 225.3274 18.70068 C 225.3394 21.75359 225.9482 23.7312 223.9871 22.72343 L 223.9866 17.01924 Z M 220.6109 13.64568 C 214.1765 13.69791 214.9374 13.83107 214.5833 12.92667 C 214.989 12.17993 222.3635 11.02026 220.6109 13.64568 Z M 234.6487 12.61522 C 235.8322 14.64012 228.6755 13.57397 228.5241 13.37895 C 227.0857 11.52644 234.3373 12.08235 234.6487 12.61522 Z M 224.2999 9.154312 C 223.9043 8.895126 223.9807 8.569153 224.0272 3.248199 C 226.5165 1.443848 225.9814 10.25592 224.2999 9.154312 Z" fill-rule="evenodd" fill="#000000" fill-opacity="1" stroke="#000000" stroke-opacity="1" stroke-width="0.1" stroke-linecap="round" stroke-linejoin="round"/>
<path id="path_2074fa03b6d18d74abde8dc7e90e62b6" d="M 257.1411 16.6198 C 257.1074 16.55414 254.7093 14.25227 254.485 14.06052 C 254.1953 14.30632 254.3915 14.07365 251.7512 16.69936 C 251.7512 17.52946 251.819 21.50735 251.65 21.8864 C 251.2714 22.73515 246.5255 27.80133 245.7161 26.8631 C 245.3991 26.49573 245.7325 23.34608 245.4432 22.01863 C 243.2255 21.47212 240.2304 22.59392 240.3263 21.14355 C 240.3556 20.70134 241.426 19.74077 245.3906 15.76601 C 245.9264 15.75677 245.3906 15.76601 250.7484 15.67381 C 252.9557 13.43501 252.9477 13.42303 253.3176 12.95204 C 253.0389 12.59912 253.2706 12.78876 250.7374 10.2347 C 250.2036 10.22906 248.6021 10.21211 245.399 10.17824 C 244.8561 9.392578 245.1163 9.929337 244.1823 6.389572 C 243.1825 2.59996 242.8981 2.219101 243.2819 1.811447 C 243.87 1.186813 251.5115 3.737473 251.6082 3.879242 C 251.7883 4.143387 251.7512 6.008514 251.7512 9.205322 C 254.3127 11.79958 254.0701 11.52148 254.4266 11.79022 C 254.8163 11.5647 254.2545 12.15219 257.1747 9.23555 C 257.2356 3.862854 257.2428 4.501968 257.344 3.865189 C 258.1679 3.249557 265.4521 1.576248 265.6718 1.839493 C 266.1049 2.358597 263.8087 9.747833 263.6445 10.04335 C 262.2957 10.40776 258.9676 10.00467 258.2767 10.3026 C 258.07 10.39171 256.3824 11.93483 255.6433 12.97433 C 255.7768 13.15076 255.3175 12.77565 258.1547 15.67381 C 261.93 15.7383 261.93 15.73836 263.548 15.76601 C 267.3033 19.52315 268.8544 20.76421 268.5604 21.46378 C 268.1661 22.40192 264.009 21.53781 263.5052 22.04137 C 263.0141 22.53224 263.7204 26.51134 263.0823 26.98309 C 262.4729 27.43359 262.1132 26.91679 257.301 22.08389 C 257.0301 19.91417 257.3404 17.00902 257.1411 16.6198 Z M 250.1714 18.43108 C 248.8724 19.23108 248.4472 20.38269 247.7785 20.32405 C 245.9032 20.15958 248.5547 17.8801 248.9872 17.31187 C 248.5798 17.2104 249.2293 17.1949 245.9906 17.1949 C 242.6503 20.5417 243.238 20.03931 243.038 20.31906 C 244.5959 20.59573 246.3132 20.21231 246.786 20.69832 C 247.1983 21.12204 246.9939 23.6566 247.1775 24.37241 C 247.5278 24.12299 246.9308 24.73506 250.2771 21.39159 C 250.2771 18.13293 250.2403 18.77982 250.1714 18.43108 Z M 265.8703 20.29074 C 265.5462 19.79053 265.954 20.20958 262.9479 17.1949 C 259.6938 17.1949 260.3984 17.22089 259.9913 17.29694 C 261.155 19.10492 262.6929 19.41795 261.187 20.32732 C 259.9519 19.90657 259.9567 19.03473 258.8045 18.56168 C 258.6785 18.94547 258.6407 18.32991 258.7076 21.44537 C 261.4336 24.14413 261.2641 23.96021 261.8138 24.36383 C 262.2013 22.83783 261.7544 21.11543 262.2317 20.63853 C 262.7488 20.12186 264.0181 20.71712 265.8703 20.29074 Z M 247.1529 6.248108 C 247.4262 4.508072 249.241 6.877335 250.1751 7.475113 C 250.2345 7.168671 250.2771 7.737244 250.2771 4.875839 C 249.4897 4.507172 245.6617 3.50563 245.0105 3.538025 C 244.9946 4.063629 246.0521 8.060547 246.325 8.629456 C 246.377 8.637207 247.5537 8.858261 248.9483 8.609665 C 248.1717 7.416122 247.0516 6.892853 247.1529 6.248108 Z M 258.7891 4.905807 C 258.6222 5.153076 258.5536 6.636856 258.8049 7.391617 C 259.8218 6.835526 261.3751 4.632263 261.7659 6.127426 C 261.964 6.885391 260.6949 7.446182 260.052 8.605637 C 260.3994 8.688782 259.7946 8.713593 262.601 8.713593 C 263.3842 6.643585 264.0488 3.439255 263.9777 3.354477 C 263.7542 3.088333 263.2048 3.560791 262.3128 3.851959 C 260.7744 4.354126 259.1184 4.418076 258.7891 4.905807 Z M 253.7836 17.01923 C 255.583 15.76447 255.1231 18.35658 255.1245 18.70067 C 255.1365 21.75357 255.7453 23.73119 253.7841 22.72342 L 253.7836 17.01923 Z M 250.408 13.64565 C 243.9736 13.69789 244.7345 13.83105 244.3803 12.92665 C 244.7861 12.17992 252.1606 11.02023 250.408 13.64565 Z M 264.4458 12.6152 C 265.6293 14.64011 258.4726 13.57396 258.3212 13.37894 C 256.8828 11.52643 264.1344 12.08234 264.4458 12.6152 Z M 254.097 9.154282 C 253.7013 8.895096 253.7778 8.569138 253.8243 3.248184 C 256.3136 1.443832 255.7785 10.25589 254.097 9.154282 Z" fill-rule="evenodd" fill="#000000" fill-opacity="1" stroke="#000000" stroke-opacity="1" stroke-width="0.1" stroke-linecap="round" stroke-linejoin="round"/>
</defs>
<g>
<use xlink:href="#path_ee74a7394b8c4c850363fa003d7f2475"/>
</g>
<g>
<use xlink:href="#path_576576177668b6dcdaa6886d1ef86bf6"/>
</g>
<g>
<use xlink:href="#path_86d16d02fbd61c2e83cad30c77231807"/>
</g>
<g>
<use xlink:href="#path_4c0bf549e889a8ba7f3df8eff841c06c"/>
</g>
<g>
<use xlink:href="#path_aecdf06bb23511a3f5f7388aa8ce22cf"/>
</g>
<g>
<use xlink:href="#path_32e6f95af0c375bf10117ea1cc6c0ebf"/>
</g>
<g>
<use xlink:href="#path_539fd13ad9d12c199ee9afe2c074ff98"/>
</g>
<g>
<use xlink:href="#path_5eafd0a8092148a5b788e530c204b884"/>
</g>
<g>
<use xlink:href="#path_2074fa03b6d18d74abde8dc7e90e62b6"/>
</g>
</svg>